M48
; DRILL file KiCad 10.0.3 date 2026-07-12T13:30:32
; FORMAT={-:-/ absolute / metric / decimal}
; #@! TF.CreationDate,2026-07-12T13:30:32-05:00
; #@! TF.GenerationSoftware,Kicad,Pcbnew,10.0.3
; #@! TF.FileFunction,Plated,1,2,PTH
FMAT,2
METRIC
; #@! TA.AperFunction,Plated,PTH,ViaDrill
T1C0.300
; #@! TA.AperFunction,Plated,PTH,ComponentDrill
T2C0.750
; #@! TA.AperFunction,Plated,PTH,ComponentDrill
T3C0.800
; #@! TA.AperFunction,Plated,PTH,ComponentDrill
T4C0.840
; #@! TA.AperFunction,Plated,PTH,ComponentDrill
T5C0.900
; #@! TA.AperFunction,Plated,PTH,ComponentDrill
T6C1.000
; #@! TA.AperFunction,Plated,PTH,ComponentDrill
T7C1.090
; #@! TA.AperFunction,Plated,PTH,ComponentDrill
T8C1.100
; #@! TA.AperFunction,Plated,PTH,ComponentDrill
T9C1.300
; #@! TA.AperFunction,Plated,PTH,ComponentDrill
T10C1.980
; #@! TA.AperFunction,Plated,PTH,ComponentDrill
T11C2.060
%
G90
G05
T1
X193.6Y-57.6
X193.6Y-63.4
X198.2Y-71.4
X200.6Y-44.6
X200.624Y-40.576
X204.0Y-75.4
X204.0Y-78.4
X205.4Y-71.4
X206.2Y-55.54
X207.2Y-55.54
X209.8Y-71.4
X214.0Y-75.6
X216.4Y-75.6
X217.2Y-77.6
T2
X193.24Y-73.53
X193.24Y-74.8
X193.24Y-76.07
T3
X194.54Y-33.34
X194.54Y-35.34
X194.54Y-37.34
X194.54Y-39.34
X194.54Y-41.34
X194.54Y-43.34
X194.54Y-45.34
X194.54Y-47.34
X194.54Y-49.34
X194.54Y-51.34
X206.8Y-77.59
X206.8Y-85.21
X213.2Y-77.59
X213.2Y-85.21
X217.4Y-33.34
X217.4Y-35.34
X217.4Y-37.34
X217.4Y-39.34
X217.4Y-41.34
X217.4Y-43.34
X217.4Y-45.34
X217.4Y-47.34
X217.4Y-49.34
X217.4Y-51.34
X219.4Y-77.6
X219.4Y-85.22
T4
X204.9Y-58.5
X204.9Y-73.74
X207.44Y-58.5
X207.44Y-73.74
X209.98Y-58.5
X209.98Y-73.74
X212.52Y-58.5
X212.52Y-73.74
X215.06Y-58.5
X215.06Y-73.74
X217.6Y-58.5
X217.6Y-73.74
X220.14Y-58.5
X220.14Y-73.74
X222.68Y-58.5
X222.68Y-73.74
T5
X192.125Y-82.8
X194.665Y-82.8
T6
X112.7Y-81.593
X117.7Y-52.512
X122.7Y-52.512
X127.7Y-81.593
X137.7Y-81.593
X142.7Y-52.512
X147.7Y-52.512
X152.7Y-81.593
X192.725Y-68.6
X195.265Y-68.6
T7
X166.965Y-77.545
X177.125Y-77.545
T8
X200.2Y-77.92
X200.2Y-88.08
T9
X99.8Y-42.2
X99.8Y-47.28
X99.8Y-52.36
X99.8Y-63.44
X99.8Y-68.52
X99.8Y-73.6
X125.65Y-35.2
X163.15Y-35.2
T10
X163.155Y-64.845
T11
X180.935Y-62.305
M30
