%TF.GenerationSoftware,KiCad,Pcbnew,10.0.3*%
%TF.CreationDate,2026-07-12T13:30:28-05:00*%
%TF.ProjectId,joiner,6a6f696e-6572-42e6-9b69-6361645f7063,rev?*%
%TF.SameCoordinates,Original*%
%TF.FileFunction,Legend,Top*%
%TF.FilePolarity,Positive*%
%FSLAX46Y46*%
G04 Gerber Fmt 4.6, Leading zero omitted, Abs format (unit mm)*
G04 Created by KiCad (PCBNEW 10.0.3) date 2026-07-12 13:30:28*
%MOMM*%
%LPD*%
G01*
G04 APERTURE LIST*
%ADD10C,0.150000*%
%ADD11C,0.120000*%
%ADD12C,0.127000*%
%ADD13C,0.300000*%
G04 APERTURE END LIST*
D10*
X156854819Y-67814404D02*
X157664342Y-67814404D01*
X157664342Y-67814404D02*
X157759580Y-67766785D01*
X157759580Y-67766785D02*
X157807200Y-67719166D01*
X157807200Y-67719166D02*
X157854819Y-67623928D01*
X157854819Y-67623928D02*
X157854819Y-67433452D01*
X157854819Y-67433452D02*
X157807200Y-67338214D01*
X157807200Y-67338214D02*
X157759580Y-67290595D01*
X157759580Y-67290595D02*
X157664342Y-67242976D01*
X157664342Y-67242976D02*
X156854819Y-67242976D01*
X156854819Y-66862023D02*
X156854819Y-66242976D01*
X156854819Y-66242976D02*
X157235771Y-66576309D01*
X157235771Y-66576309D02*
X157235771Y-66433452D01*
X157235771Y-66433452D02*
X157283390Y-66338214D01*
X157283390Y-66338214D02*
X157331009Y-66290595D01*
X157331009Y-66290595D02*
X157426247Y-66242976D01*
X157426247Y-66242976D02*
X157664342Y-66242976D01*
X157664342Y-66242976D02*
X157759580Y-66290595D01*
X157759580Y-66290595D02*
X157807200Y-66338214D01*
X157807200Y-66338214D02*
X157854819Y-66433452D01*
X157854819Y-66433452D02*
X157854819Y-66719166D01*
X157854819Y-66719166D02*
X157807200Y-66814404D01*
X157807200Y-66814404D02*
X157759580Y-66862023D01*
X189799819Y-68933333D02*
X190514104Y-68933333D01*
X190514104Y-68933333D02*
X190656961Y-68980952D01*
X190656961Y-68980952D02*
X190752200Y-69076190D01*
X190752200Y-69076190D02*
X190799819Y-69219047D01*
X190799819Y-69219047D02*
X190799819Y-69314285D01*
X189799819Y-68552380D02*
X189799819Y-67933333D01*
X189799819Y-67933333D02*
X190180771Y-68266666D01*
X190180771Y-68266666D02*
X190180771Y-68123809D01*
X190180771Y-68123809D02*
X190228390Y-68028571D01*
X190228390Y-68028571D02*
X190276009Y-67980952D01*
X190276009Y-67980952D02*
X190371247Y-67933333D01*
X190371247Y-67933333D02*
X190609342Y-67933333D01*
X190609342Y-67933333D02*
X190704580Y-67980952D01*
X190704580Y-67980952D02*
X190752200Y-68028571D01*
X190752200Y-68028571D02*
X190799819Y-68123809D01*
X190799819Y-68123809D02*
X190799819Y-68409523D01*
X190799819Y-68409523D02*
X190752200Y-68504761D01*
X190752200Y-68504761D02*
X190704580Y-68552380D01*
X203124819Y-83738094D02*
X202124819Y-83738094D01*
X202124819Y-83738094D02*
X202124819Y-83499999D01*
X202124819Y-83499999D02*
X202172438Y-83357142D01*
X202172438Y-83357142D02*
X202267676Y-83261904D01*
X202267676Y-83261904D02*
X202362914Y-83214285D01*
X202362914Y-83214285D02*
X202553390Y-83166666D01*
X202553390Y-83166666D02*
X202696247Y-83166666D01*
X202696247Y-83166666D02*
X202886723Y-83214285D01*
X202886723Y-83214285D02*
X202981961Y-83261904D01*
X202981961Y-83261904D02*
X203077200Y-83357142D01*
X203077200Y-83357142D02*
X203124819Y-83499999D01*
X203124819Y-83499999D02*
X203124819Y-83738094D01*
X202220057Y-82785713D02*
X202172438Y-82738094D01*
X202172438Y-82738094D02*
X202124819Y-82642856D01*
X202124819Y-82642856D02*
X202124819Y-82404761D01*
X202124819Y-82404761D02*
X202172438Y-82309523D01*
X202172438Y-82309523D02*
X202220057Y-82261904D01*
X202220057Y-82261904D02*
X202315295Y-82214285D01*
X202315295Y-82214285D02*
X202410533Y-82214285D01*
X202410533Y-82214285D02*
X202553390Y-82261904D01*
X202553390Y-82261904D02*
X203124819Y-82833332D01*
X203124819Y-82833332D02*
X203124819Y-82214285D01*
X202754819Y-78181904D02*
X201754819Y-78181904D01*
X202754819Y-77610476D02*
X202183390Y-78039047D01*
X201754819Y-77610476D02*
X202326247Y-78181904D01*
X217066666Y-30294819D02*
X217066666Y-31009104D01*
X217066666Y-31009104D02*
X217019047Y-31151961D01*
X217019047Y-31151961D02*
X216923809Y-31247200D01*
X216923809Y-31247200D02*
X216780952Y-31294819D01*
X216780952Y-31294819D02*
X216685714Y-31294819D01*
X217495238Y-30390057D02*
X217542857Y-30342438D01*
X217542857Y-30342438D02*
X217638095Y-30294819D01*
X217638095Y-30294819D02*
X217876190Y-30294819D01*
X217876190Y-30294819D02*
X217971428Y-30342438D01*
X217971428Y-30342438D02*
X218019047Y-30390057D01*
X218019047Y-30390057D02*
X218066666Y-30485295D01*
X218066666Y-30485295D02*
X218066666Y-30580533D01*
X218066666Y-30580533D02*
X218019047Y-30723390D01*
X218019047Y-30723390D02*
X217447619Y-31294819D01*
X217447619Y-31294819D02*
X218066666Y-31294819D01*
X144166666Y-26481009D02*
X143833333Y-26481009D01*
X143833333Y-27004819D02*
X143833333Y-26004819D01*
X143833333Y-26004819D02*
X144309523Y-26004819D01*
X145214285Y-27004819D02*
X144642857Y-27004819D01*
X144928571Y-27004819D02*
X144928571Y-26004819D01*
X144928571Y-26004819D02*
X144833333Y-26147676D01*
X144833333Y-26147676D02*
X144738095Y-26242914D01*
X144738095Y-26242914D02*
X144642857Y-26290533D01*
X162333075Y-50911581D02*
X162333075Y-49513408D01*
X163132031Y-50911581D02*
X162532814Y-50112625D01*
X163132031Y-49513408D02*
X162333075Y-50312364D01*
X164463624Y-50911581D02*
X163664668Y-50911581D01*
X164064146Y-50911581D02*
X164064146Y-49513408D01*
X164064146Y-49513408D02*
X163930987Y-49713147D01*
X163930987Y-49713147D02*
X163797828Y-49846307D01*
X163797828Y-49846307D02*
X163664668Y-49912886D01*
X192656905Y-79294819D02*
X192656905Y-78294819D01*
X192656905Y-78294819D02*
X192895000Y-78294819D01*
X192895000Y-78294819D02*
X193037857Y-78342438D01*
X193037857Y-78342438D02*
X193133095Y-78437676D01*
X193133095Y-78437676D02*
X193180714Y-78532914D01*
X193180714Y-78532914D02*
X193228333Y-78723390D01*
X193228333Y-78723390D02*
X193228333Y-78866247D01*
X193228333Y-78866247D02*
X193180714Y-79056723D01*
X193180714Y-79056723D02*
X193133095Y-79151961D01*
X193133095Y-79151961D02*
X193037857Y-79247200D01*
X193037857Y-79247200D02*
X192895000Y-79294819D01*
X192895000Y-79294819D02*
X192656905Y-79294819D01*
X194180714Y-79294819D02*
X193609286Y-79294819D01*
X193895000Y-79294819D02*
X193895000Y-78294819D01*
X193895000Y-78294819D02*
X193799762Y-78437676D01*
X193799762Y-78437676D02*
X193704524Y-78532914D01*
X193704524Y-78532914D02*
X193609286Y-78580533D01*
X131854819Y-67814404D02*
X132664342Y-67814404D01*
X132664342Y-67814404D02*
X132759580Y-67766785D01*
X132759580Y-67766785D02*
X132807200Y-67719166D01*
X132807200Y-67719166D02*
X132854819Y-67623928D01*
X132854819Y-67623928D02*
X132854819Y-67433452D01*
X132854819Y-67433452D02*
X132807200Y-67338214D01*
X132807200Y-67338214D02*
X132759580Y-67290595D01*
X132759580Y-67290595D02*
X132664342Y-67242976D01*
X132664342Y-67242976D02*
X131854819Y-67242976D01*
X131950057Y-66814404D02*
X131902438Y-66766785D01*
X131902438Y-66766785D02*
X131854819Y-66671547D01*
X131854819Y-66671547D02*
X131854819Y-66433452D01*
X131854819Y-66433452D02*
X131902438Y-66338214D01*
X131902438Y-66338214D02*
X131950057Y-66290595D01*
X131950057Y-66290595D02*
X132045295Y-66242976D01*
X132045295Y-66242976D02*
X132140533Y-66242976D01*
X132140533Y-66242976D02*
X132283390Y-66290595D01*
X132283390Y-66290595D02*
X132854819Y-66862023D01*
X132854819Y-66862023D02*
X132854819Y-66242976D01*
X105574819Y-47613333D02*
X106289104Y-47613333D01*
X106289104Y-47613333D02*
X106431961Y-47660952D01*
X106431961Y-47660952D02*
X106527200Y-47756190D01*
X106527200Y-47756190D02*
X106574819Y-47899047D01*
X106574819Y-47899047D02*
X106574819Y-47994285D01*
X105574819Y-46660952D02*
X105574819Y-47137142D01*
X105574819Y-47137142D02*
X106051009Y-47184761D01*
X106051009Y-47184761D02*
X106003390Y-47137142D01*
X106003390Y-47137142D02*
X105955771Y-47041904D01*
X105955771Y-47041904D02*
X105955771Y-46803809D01*
X105955771Y-46803809D02*
X106003390Y-46708571D01*
X106003390Y-46708571D02*
X106051009Y-46660952D01*
X106051009Y-46660952D02*
X106146247Y-46613333D01*
X106146247Y-46613333D02*
X106384342Y-46613333D01*
X106384342Y-46613333D02*
X106479580Y-46660952D01*
X106479580Y-46660952D02*
X106527200Y-46708571D01*
X106527200Y-46708571D02*
X106574819Y-46803809D01*
X106574819Y-46803809D02*
X106574819Y-47041904D01*
X106574819Y-47041904D02*
X106527200Y-47137142D01*
X106527200Y-47137142D02*
X106479580Y-47184761D01*
X92666666Y-87104819D02*
X92333333Y-86628628D01*
X92095238Y-87104819D02*
X92095238Y-86104819D01*
X92095238Y-86104819D02*
X92476190Y-86104819D01*
X92476190Y-86104819D02*
X92571428Y-86152438D01*
X92571428Y-86152438D02*
X92619047Y-86200057D01*
X92619047Y-86200057D02*
X92666666Y-86295295D01*
X92666666Y-86295295D02*
X92666666Y-86438152D01*
X92666666Y-86438152D02*
X92619047Y-86533390D01*
X92619047Y-86533390D02*
X92571428Y-86581009D01*
X92571428Y-86581009D02*
X92476190Y-86628628D01*
X92476190Y-86628628D02*
X92095238Y-86628628D01*
X93095238Y-86581009D02*
X93428571Y-86581009D01*
X93571428Y-87104819D02*
X93095238Y-87104819D01*
X93095238Y-87104819D02*
X93095238Y-86104819D01*
X93095238Y-86104819D02*
X93571428Y-86104819D01*
X94333333Y-86581009D02*
X94000000Y-86581009D01*
X94000000Y-87104819D02*
X94000000Y-86104819D01*
X94000000Y-86104819D02*
X94476190Y-86104819D01*
X95000000Y-86104819D02*
X95000000Y-86342914D01*
X94761905Y-86247676D02*
X95000000Y-86342914D01*
X95000000Y-86342914D02*
X95238095Y-86247676D01*
X94857143Y-86533390D02*
X95000000Y-86342914D01*
X95000000Y-86342914D02*
X95142857Y-86533390D01*
X95761905Y-86104819D02*
X95761905Y-86342914D01*
X95523810Y-86247676D02*
X95761905Y-86342914D01*
X95761905Y-86342914D02*
X96000000Y-86247676D01*
X95619048Y-86533390D02*
X95761905Y-86342914D01*
X95761905Y-86342914D02*
X95904762Y-86533390D01*
X222466666Y-87104819D02*
X222133333Y-86628628D01*
X221895238Y-87104819D02*
X221895238Y-86104819D01*
X221895238Y-86104819D02*
X222276190Y-86104819D01*
X222276190Y-86104819D02*
X222371428Y-86152438D01*
X222371428Y-86152438D02*
X222419047Y-86200057D01*
X222419047Y-86200057D02*
X222466666Y-86295295D01*
X222466666Y-86295295D02*
X222466666Y-86438152D01*
X222466666Y-86438152D02*
X222419047Y-86533390D01*
X222419047Y-86533390D02*
X222371428Y-86581009D01*
X222371428Y-86581009D02*
X222276190Y-86628628D01*
X222276190Y-86628628D02*
X221895238Y-86628628D01*
X222895238Y-86581009D02*
X223228571Y-86581009D01*
X223371428Y-87104819D02*
X222895238Y-87104819D01*
X222895238Y-87104819D02*
X222895238Y-86104819D01*
X222895238Y-86104819D02*
X223371428Y-86104819D01*
X224133333Y-86581009D02*
X223800000Y-86581009D01*
X223800000Y-87104819D02*
X223800000Y-86104819D01*
X223800000Y-86104819D02*
X224276190Y-86104819D01*
X224800000Y-86104819D02*
X224800000Y-86342914D01*
X224561905Y-86247676D02*
X224800000Y-86342914D01*
X224800000Y-86342914D02*
X225038095Y-86247676D01*
X224657143Y-86533390D02*
X224800000Y-86342914D01*
X224800000Y-86342914D02*
X224942857Y-86533390D01*
X225561905Y-86104819D02*
X225561905Y-86342914D01*
X225323810Y-86247676D02*
X225561905Y-86342914D01*
X225561905Y-86342914D02*
X225800000Y-86247676D01*
X225419048Y-86533390D02*
X225561905Y-86342914D01*
X225561905Y-86342914D02*
X225704762Y-86533390D01*
X92666666Y-24904819D02*
X92333333Y-24428628D01*
X92095238Y-24904819D02*
X92095238Y-23904819D01*
X92095238Y-23904819D02*
X92476190Y-23904819D01*
X92476190Y-23904819D02*
X92571428Y-23952438D01*
X92571428Y-23952438D02*
X92619047Y-24000057D01*
X92619047Y-24000057D02*
X92666666Y-24095295D01*
X92666666Y-24095295D02*
X92666666Y-24238152D01*
X92666666Y-24238152D02*
X92619047Y-24333390D01*
X92619047Y-24333390D02*
X92571428Y-24381009D01*
X92571428Y-24381009D02*
X92476190Y-24428628D01*
X92476190Y-24428628D02*
X92095238Y-24428628D01*
X93095238Y-24381009D02*
X93428571Y-24381009D01*
X93571428Y-24904819D02*
X93095238Y-24904819D01*
X93095238Y-24904819D02*
X93095238Y-23904819D01*
X93095238Y-23904819D02*
X93571428Y-23904819D01*
X94333333Y-24381009D02*
X94000000Y-24381009D01*
X94000000Y-24904819D02*
X94000000Y-23904819D01*
X94000000Y-23904819D02*
X94476190Y-23904819D01*
X95000000Y-23904819D02*
X95000000Y-24142914D01*
X94761905Y-24047676D02*
X95000000Y-24142914D01*
X95000000Y-24142914D02*
X95238095Y-24047676D01*
X94857143Y-24333390D02*
X95000000Y-24142914D01*
X95000000Y-24142914D02*
X95142857Y-24333390D01*
X95761905Y-23904819D02*
X95761905Y-24142914D01*
X95523810Y-24047676D02*
X95761905Y-24142914D01*
X95761905Y-24142914D02*
X96000000Y-24047676D01*
X95619048Y-24333390D02*
X95761905Y-24142914D01*
X95761905Y-24142914D02*
X95904762Y-24333390D01*
X222666666Y-24904819D02*
X222333333Y-24428628D01*
X222095238Y-24904819D02*
X222095238Y-23904819D01*
X222095238Y-23904819D02*
X222476190Y-23904819D01*
X222476190Y-23904819D02*
X222571428Y-23952438D01*
X222571428Y-23952438D02*
X222619047Y-24000057D01*
X222619047Y-24000057D02*
X222666666Y-24095295D01*
X222666666Y-24095295D02*
X222666666Y-24238152D01*
X222666666Y-24238152D02*
X222619047Y-24333390D01*
X222619047Y-24333390D02*
X222571428Y-24381009D01*
X222571428Y-24381009D02*
X222476190Y-24428628D01*
X222476190Y-24428628D02*
X222095238Y-24428628D01*
X223095238Y-24381009D02*
X223428571Y-24381009D01*
X223571428Y-24904819D02*
X223095238Y-24904819D01*
X223095238Y-24904819D02*
X223095238Y-23904819D01*
X223095238Y-23904819D02*
X223571428Y-23904819D01*
X224333333Y-24381009D02*
X224000000Y-24381009D01*
X224000000Y-24904819D02*
X224000000Y-23904819D01*
X224000000Y-23904819D02*
X224476190Y-23904819D01*
X225000000Y-23904819D02*
X225000000Y-24142914D01*
X224761905Y-24047676D02*
X225000000Y-24142914D01*
X225000000Y-24142914D02*
X225238095Y-24047676D01*
X224857143Y-24333390D02*
X225000000Y-24142914D01*
X225000000Y-24142914D02*
X225142857Y-24333390D01*
X225761905Y-23904819D02*
X225761905Y-24142914D01*
X225523810Y-24047676D02*
X225761905Y-24142914D01*
X225761905Y-24142914D02*
X226000000Y-24047676D01*
X225619048Y-24333390D02*
X225761905Y-24142914D01*
X225761905Y-24142914D02*
X225904762Y-24333390D01*
X105574819Y-68853333D02*
X106289104Y-68853333D01*
X106289104Y-68853333D02*
X106431961Y-68900952D01*
X106431961Y-68900952D02*
X106527200Y-68996190D01*
X106527200Y-68996190D02*
X106574819Y-69139047D01*
X106574819Y-69139047D02*
X106574819Y-69234285D01*
X105574819Y-67948571D02*
X105574819Y-68139047D01*
X105574819Y-68139047D02*
X105622438Y-68234285D01*
X105622438Y-68234285D02*
X105670057Y-68281904D01*
X105670057Y-68281904D02*
X105812914Y-68377142D01*
X105812914Y-68377142D02*
X106003390Y-68424761D01*
X106003390Y-68424761D02*
X106384342Y-68424761D01*
X106384342Y-68424761D02*
X106479580Y-68377142D01*
X106479580Y-68377142D02*
X106527200Y-68329523D01*
X106527200Y-68329523D02*
X106574819Y-68234285D01*
X106574819Y-68234285D02*
X106574819Y-68043809D01*
X106574819Y-68043809D02*
X106527200Y-67948571D01*
X106527200Y-67948571D02*
X106479580Y-67900952D01*
X106479580Y-67900952D02*
X106384342Y-67853333D01*
X106384342Y-67853333D02*
X106146247Y-67853333D01*
X106146247Y-67853333D02*
X106051009Y-67900952D01*
X106051009Y-67900952D02*
X106003390Y-67948571D01*
X106003390Y-67948571D02*
X105955771Y-68043809D01*
X105955771Y-68043809D02*
X105955771Y-68234285D01*
X105955771Y-68234285D02*
X106003390Y-68329523D01*
X106003390Y-68329523D02*
X106051009Y-68377142D01*
X106051009Y-68377142D02*
X106146247Y-68424761D01*
X197350057Y-74895238D02*
X197302438Y-74990476D01*
X197302438Y-74990476D02*
X197207200Y-75085714D01*
X197207200Y-75085714D02*
X197064342Y-75228571D01*
X197064342Y-75228571D02*
X197016723Y-75323809D01*
X197016723Y-75323809D02*
X197016723Y-75419047D01*
X197254819Y-75371428D02*
X197207200Y-75466666D01*
X197207200Y-75466666D02*
X197111961Y-75561904D01*
X197111961Y-75561904D02*
X196921485Y-75609523D01*
X196921485Y-75609523D02*
X196588152Y-75609523D01*
X196588152Y-75609523D02*
X196397676Y-75561904D01*
X196397676Y-75561904D02*
X196302438Y-75466666D01*
X196302438Y-75466666D02*
X196254819Y-75371428D01*
X196254819Y-75371428D02*
X196254819Y-75180952D01*
X196254819Y-75180952D02*
X196302438Y-75085714D01*
X196302438Y-75085714D02*
X196397676Y-74990476D01*
X196397676Y-74990476D02*
X196588152Y-74942857D01*
X196588152Y-74942857D02*
X196921485Y-74942857D01*
X196921485Y-74942857D02*
X197111961Y-74990476D01*
X197111961Y-74990476D02*
X197207200Y-75085714D01*
X197207200Y-75085714D02*
X197254819Y-75180952D01*
X197254819Y-75180952D02*
X197254819Y-75371428D01*
X197254819Y-73990476D02*
X197254819Y-74561904D01*
X197254819Y-74276190D02*
X196254819Y-74276190D01*
X196254819Y-74276190D02*
X196397676Y-74371428D01*
X196397676Y-74371428D02*
X196492914Y-74466666D01*
X196492914Y-74466666D02*
X196540533Y-74561904D01*
X209624819Y-81566666D02*
X209148628Y-81899999D01*
X209624819Y-82138094D02*
X208624819Y-82138094D01*
X208624819Y-82138094D02*
X208624819Y-81757142D01*
X208624819Y-81757142D02*
X208672438Y-81661904D01*
X208672438Y-81661904D02*
X208720057Y-81614285D01*
X208720057Y-81614285D02*
X208815295Y-81566666D01*
X208815295Y-81566666D02*
X208958152Y-81566666D01*
X208958152Y-81566666D02*
X209053390Y-81614285D01*
X209053390Y-81614285D02*
X209101009Y-81661904D01*
X209101009Y-81661904D02*
X209148628Y-81757142D01*
X209148628Y-81757142D02*
X209148628Y-82138094D01*
X209624819Y-80614285D02*
X209624819Y-81185713D01*
X209624819Y-80899999D02*
X208624819Y-80899999D01*
X208624819Y-80899999D02*
X208767676Y-80995237D01*
X208767676Y-80995237D02*
X208862914Y-81090475D01*
X208862914Y-81090475D02*
X208910533Y-81185713D01*
X222224819Y-81576666D02*
X221748628Y-81909999D01*
X222224819Y-82148094D02*
X221224819Y-82148094D01*
X221224819Y-82148094D02*
X221224819Y-81767142D01*
X221224819Y-81767142D02*
X221272438Y-81671904D01*
X221272438Y-81671904D02*
X221320057Y-81624285D01*
X221320057Y-81624285D02*
X221415295Y-81576666D01*
X221415295Y-81576666D02*
X221558152Y-81576666D01*
X221558152Y-81576666D02*
X221653390Y-81624285D01*
X221653390Y-81624285D02*
X221701009Y-81671904D01*
X221701009Y-81671904D02*
X221748628Y-81767142D01*
X221748628Y-81767142D02*
X221748628Y-82148094D01*
X221558152Y-80719523D02*
X222224819Y-80719523D01*
X221177200Y-80957618D02*
X221891485Y-81195713D01*
X221891485Y-81195713D02*
X221891485Y-80576666D01*
X216024819Y-81566666D02*
X215548628Y-81899999D01*
X216024819Y-82138094D02*
X215024819Y-82138094D01*
X215024819Y-82138094D02*
X215024819Y-81757142D01*
X215024819Y-81757142D02*
X215072438Y-81661904D01*
X215072438Y-81661904D02*
X215120057Y-81614285D01*
X215120057Y-81614285D02*
X215215295Y-81566666D01*
X215215295Y-81566666D02*
X215358152Y-81566666D01*
X215358152Y-81566666D02*
X215453390Y-81614285D01*
X215453390Y-81614285D02*
X215501009Y-81661904D01*
X215501009Y-81661904D02*
X215548628Y-81757142D01*
X215548628Y-81757142D02*
X215548628Y-82138094D01*
X215120057Y-81185713D02*
X215072438Y-81138094D01*
X215072438Y-81138094D02*
X215024819Y-81042856D01*
X215024819Y-81042856D02*
X215024819Y-80804761D01*
X215024819Y-80804761D02*
X215072438Y-80709523D01*
X215072438Y-80709523D02*
X215120057Y-80661904D01*
X215120057Y-80661904D02*
X215215295Y-80614285D01*
X215215295Y-80614285D02*
X215310533Y-80614285D01*
X215310533Y-80614285D02*
X215453390Y-80661904D01*
X215453390Y-80661904D02*
X216024819Y-81233332D01*
X216024819Y-81233332D02*
X216024819Y-80614285D01*
X225887319Y-61166904D02*
X226696842Y-61166904D01*
X226696842Y-61166904D02*
X226792080Y-61119285D01*
X226792080Y-61119285D02*
X226839700Y-61071666D01*
X226839700Y-61071666D02*
X226887319Y-60976428D01*
X226887319Y-60976428D02*
X226887319Y-60785952D01*
X226887319Y-60785952D02*
X226839700Y-60690714D01*
X226839700Y-60690714D02*
X226792080Y-60643095D01*
X226792080Y-60643095D02*
X226696842Y-60595476D01*
X226696842Y-60595476D02*
X225887319Y-60595476D01*
X226887319Y-59595476D02*
X226887319Y-60166904D01*
X226887319Y-59881190D02*
X225887319Y-59881190D01*
X225887319Y-59881190D02*
X226030176Y-59976428D01*
X226030176Y-59976428D02*
X226125414Y-60071666D01*
X226125414Y-60071666D02*
X226173033Y-60166904D01*
X194206666Y-30294819D02*
X194206666Y-31009104D01*
X194206666Y-31009104D02*
X194159047Y-31151961D01*
X194159047Y-31151961D02*
X194063809Y-31247200D01*
X194063809Y-31247200D02*
X193920952Y-31294819D01*
X193920952Y-31294819D02*
X193825714Y-31294819D01*
X195206666Y-31294819D02*
X194635238Y-31294819D01*
X194920952Y-31294819D02*
X194920952Y-30294819D01*
X194920952Y-30294819D02*
X194825714Y-30437676D01*
X194825714Y-30437676D02*
X194730476Y-30532914D01*
X194730476Y-30532914D02*
X194635238Y-30580533D01*
%TO.C,U3*%
D11*
X133840000Y-48542500D02*
X147404000Y-48542500D01*
X133840000Y-85562500D02*
X133840000Y-48542500D01*
X147996000Y-48542500D02*
X156560000Y-48542500D01*
X156560000Y-48542500D02*
X156560000Y-85562500D01*
X156560000Y-85562500D02*
X133840000Y-85562500D01*
X147700000Y-48542500D02*
X147260000Y-47932500D01*
X148140000Y-47932500D01*
X147700000Y-48542500D01*
G36*
X147700000Y-48542500D02*
G01*
X147260000Y-47932500D01*
X148140000Y-47932500D01*
X147700000Y-48542500D01*
G37*
%TO.C,J3*%
X191345000Y-69980000D02*
X191345000Y-68600000D01*
X192725000Y-69980000D02*
X191345000Y-69980000D01*
X193995000Y-67220000D02*
X196645000Y-67220000D01*
X193995000Y-69980000D02*
X193995000Y-67220000D01*
X193995000Y-69980000D02*
X196645000Y-69980000D01*
X196645000Y-69980000D02*
X196645000Y-67220000D01*
%TO.C,D2*%
X200200000Y-79260000D02*
X200200000Y-80280000D01*
X200200000Y-86740000D02*
X200200000Y-85720000D01*
X201670000Y-81060000D02*
X198730000Y-81060000D01*
X201670000Y-81180000D02*
X198730000Y-81180000D01*
X201670000Y-81300000D02*
X198730000Y-81300000D01*
X198730000Y-80280000D02*
X201670000Y-80280000D01*
X201670000Y-85720000D01*
X198730000Y-85720000D01*
X198730000Y-80280000D01*
%TO.C,J2*%
X216340000Y-34340000D02*
X216340000Y-52400000D01*
X216340000Y-34340000D02*
X218460000Y-34340000D01*
X216340000Y-52400000D02*
X218460000Y-52400000D01*
X217400000Y-32280000D02*
X218460000Y-32280000D01*
X218460000Y-32280000D02*
X218460000Y-33340000D01*
X218460000Y-34340000D02*
X218460000Y-52400000D01*
%TO.C,F1*%
X123770000Y-27570000D02*
X123770000Y-33200000D01*
X123770000Y-27570000D02*
X165030000Y-27570000D01*
X123770000Y-37200000D02*
X123770000Y-42830000D01*
X165030000Y-27570000D02*
X165030000Y-33200000D01*
X165030000Y-37200000D02*
X165030000Y-42830000D01*
X165030000Y-42830000D02*
X123770000Y-42830000D01*
%TO.C,K1*%
D12*
X158885000Y-52145000D02*
X158885000Y-69745000D01*
X158885000Y-69745000D02*
X163155000Y-69745000D01*
X163155000Y-69745000D02*
X163155000Y-84655000D01*
X163155000Y-84655000D02*
X179665000Y-84655000D01*
X179665000Y-64945000D02*
X179665000Y-84655000D01*
X186315000Y-52145000D02*
X158885000Y-52145000D01*
X186315000Y-64945000D02*
X179665000Y-64945000D01*
X186315000Y-64945000D02*
X186315000Y-52145000D01*
D13*
X162395000Y-77645000D02*
G75*
G02*
X162095000Y-77645000I-150000J0D01*
G01*
X162095000Y-77645000D02*
G75*
G02*
X162395000Y-77645000I150000J0D01*
G01*
%TO.C,D1*%
D11*
X190835000Y-81255000D02*
X190835000Y-84345000D01*
X190835000Y-81255170D02*
G75*
G02*
X196385000Y-82800000I2560000J-1544830D01*
G01*
X196385000Y-82800000D02*
G75*
G02*
X190835000Y-84344830I-2990000J0D01*
G01*
X195895000Y-82800000D02*
G75*
G02*
X190895000Y-82800000I-2500000J0D01*
G01*
X190895000Y-82800000D02*
G75*
G02*
X195895000Y-82800000I2500000J0D01*
G01*
%TO.C,U2*%
X108840000Y-48542500D02*
X122404000Y-48542500D01*
X108840000Y-85562500D02*
X108840000Y-48542500D01*
X122996000Y-48542500D02*
X131560000Y-48542500D01*
X131560000Y-48542500D02*
X131560000Y-85562500D01*
X131560000Y-85562500D02*
X108840000Y-85562500D01*
X122700000Y-48542500D02*
X122260000Y-47932500D01*
X123140000Y-47932500D01*
X122700000Y-48542500D01*
G36*
X122700000Y-48542500D02*
G01*
X122260000Y-47932500D01*
X123140000Y-47932500D01*
X122700000Y-48542500D01*
G37*
%TO.C,J5*%
X95080000Y-39540000D02*
X105120000Y-39540000D01*
X95080000Y-41900000D02*
X95080000Y-39540000D01*
X95080000Y-55020000D02*
X95080000Y-42500000D01*
X95700000Y-39540000D02*
X95700000Y-55020000D01*
X97200000Y-39540000D02*
X97200000Y-55020000D01*
X102100000Y-39540000D02*
X102100000Y-55020000D01*
X105120000Y-39540000D02*
X105120000Y-55020000D01*
X105120000Y-55020000D02*
X95080000Y-55020000D01*
X95080000Y-42200000D02*
X94470000Y-42640000D01*
X94470000Y-41760000D01*
X95080000Y-42200000D01*
G36*
X95080000Y-42200000D02*
G01*
X94470000Y-42640000D01*
X94470000Y-41760000D01*
X95080000Y-42200000D01*
G37*
%TO.C,J6*%
X95080000Y-60780000D02*
X105120000Y-60780000D01*
X95080000Y-63140000D02*
X95080000Y-60780000D01*
X95080000Y-76260000D02*
X95080000Y-63740000D01*
X95700000Y-60780000D02*
X95700000Y-76260000D01*
X97200000Y-60780000D02*
X97200000Y-76260000D01*
X102100000Y-60780000D02*
X102100000Y-76260000D01*
X105120000Y-60780000D02*
X105120000Y-76260000D01*
X105120000Y-76260000D02*
X95080000Y-76260000D01*
X95080000Y-63440000D02*
X94470000Y-63880000D01*
X94470000Y-63000000D01*
X95080000Y-63440000D01*
G36*
X95080000Y-63440000D02*
G01*
X94470000Y-63880000D01*
X94470000Y-63000000D01*
X95080000Y-63440000D01*
G37*
%TO.C,Q1*%
X191390000Y-73000000D02*
X191390000Y-76600000D01*
X191401522Y-72961522D02*
G75*
G02*
X195840001Y-74800000I1838478J-1838478D01*
G01*
X195840000Y-74800000D02*
G75*
G02*
X191401522Y-76638478I-2600000J0D01*
G01*
%TO.C,R1*%
X205430000Y-78130000D02*
X205430000Y-84670000D01*
X205430000Y-84670000D02*
X205760000Y-84670000D01*
X205760000Y-78130000D02*
X205430000Y-78130000D01*
X207840000Y-78130000D02*
X208170000Y-78130000D01*
X208170000Y-78130000D02*
X208170000Y-84670000D01*
X208170000Y-84670000D02*
X207840000Y-84670000D01*
%TO.C,R4*%
X218030000Y-78140000D02*
X218030000Y-84680000D01*
X218030000Y-84680000D02*
X218360000Y-84680000D01*
X218360000Y-78140000D02*
X218030000Y-78140000D01*
X220440000Y-78140000D02*
X220770000Y-78140000D01*
X220770000Y-78140000D02*
X220770000Y-84680000D01*
X220770000Y-84680000D02*
X220440000Y-84680000D01*
%TO.C,R2*%
X211830000Y-78130000D02*
X211830000Y-84670000D01*
X211830000Y-84670000D02*
X212160000Y-84670000D01*
X212160000Y-78130000D02*
X211830000Y-78130000D01*
X214240000Y-78130000D02*
X214570000Y-78130000D01*
X214570000Y-78130000D02*
X214570000Y-84670000D01*
X214570000Y-84670000D02*
X214240000Y-84670000D01*
%TO.C,U1*%
D12*
X201430000Y-57120000D02*
X224130000Y-57120000D01*
X201430000Y-75120000D02*
X201430000Y-57120000D01*
X201430000Y-75120000D02*
X224130000Y-75120000D01*
X224130000Y-61620000D02*
X224130000Y-57120000D01*
X224130000Y-75120000D02*
X224130000Y-70620000D01*
X225430000Y-61620000D02*
X224130000Y-61620000D01*
X225430000Y-70620000D02*
X224130000Y-70620000D01*
X225430000Y-70620000D02*
X225430000Y-61620000D01*
%TO.C,J1*%
D11*
X193480000Y-34340000D02*
X193480000Y-52400000D01*
X193480000Y-34340000D02*
X195600000Y-34340000D01*
X193480000Y-52400000D02*
X195600000Y-52400000D01*
X194540000Y-32280000D02*
X195600000Y-32280000D01*
X195600000Y-32280000D02*
X195600000Y-33340000D01*
X195600000Y-34340000D02*
X195600000Y-52400000D01*
%TD*%
M02*
