%TF.GenerationSoftware,KiCad,Pcbnew,10.0.3*%
%TF.CreationDate,2026-07-12T13:30:27-05:00*%
%TF.ProjectId,joiner,6a6f696e-6572-42e6-9b69-6361645f7063,rev?*%
%TF.SameCoordinates,Original*%
%TF.FileFunction,Copper,L1,Top*%
%TF.FilePolarity,Positive*%
%FSLAX46Y46*%
G04 Gerber Fmt 4.6, Leading zero omitted, Abs format (unit mm)*
G04 Created by KiCad (PCBNEW 10.0.3) date 2026-07-12 13:30:27*
%MOMM*%
%LPD*%
G01*
G04 APERTURE LIST*
G04 Aperture macros list*
%AMRoundRect*
0 Rectangle with rounded corners*
0 $1 Rounding radius*
0 $2 $3 $4 $5 $6 $7 $8 $9 X,Y pos of 4 corners*
0 Add a 4 corners polygon primitive as box body*
4,1,4,$2,$3,$4,$5,$6,$7,$8,$9,$2,$3,0*
0 Add four circle primitives for the rounded corners*
1,1,$1+$1,$2,$3*
1,1,$1+$1,$4,$5*
1,1,$1+$1,$6,$7*
1,1,$1+$1,$8,$9*
0 Add four rect primitives between the rounded corners*
20,1,$1+$1,$2,$3,$4,$5,0*
20,1,$1+$1,$4,$5,$6,$7,0*
20,1,$1+$1,$6,$7,$8,$9,0*
20,1,$1+$1,$8,$9,$2,$3,0*%
G04 Aperture macros list end*
%TA.AperFunction,ComponentPad*%
%ADD10RoundRect,0.250000X-0.750000X0.600000X-0.750000X-0.600000X0.750000X-0.600000X0.750000X0.600000X0*%
%TD*%
%TA.AperFunction,ComponentPad*%
%ADD11O,2.000000X1.700000*%
%TD*%
%TA.AperFunction,ComponentPad*%
%ADD12R,1.700000X1.700000*%
%TD*%
%TA.AperFunction,ComponentPad*%
%ADD13C,1.700000*%
%TD*%
%TA.AperFunction,ComponentPad*%
%ADD14RoundRect,0.249999X-0.850001X0.850001X-0.850001X-0.850001X0.850001X-0.850001X0.850001X0.850001X0*%
%TD*%
%TA.AperFunction,ComponentPad*%
%ADD15C,2.200000*%
%TD*%
%TA.AperFunction,ComponentPad*%
%ADD16R,1.350000X1.350000*%
%TD*%
%TA.AperFunction,ComponentPad*%
%ADD17C,1.350000*%
%TD*%
%TA.AperFunction,ComponentPad*%
%ADD18O,3.250000X6.000000*%
%TD*%
%TA.AperFunction,ComponentPad*%
%ADD19R,1.635000X1.635000*%
%TD*%
%TA.AperFunction,ComponentPad*%
%ADD20C,1.635000*%
%TD*%
%TA.AperFunction,ComponentPad*%
%ADD21C,2.970000*%
%TD*%
%TA.AperFunction,ComponentPad*%
%ADD22C,3.076000*%
%TD*%
%TA.AperFunction,ComponentPad*%
%ADD23R,1.800000X1.800000*%
%TD*%
%TA.AperFunction,ComponentPad*%
%ADD24C,1.800000*%
%TD*%
%TA.AperFunction,ComponentPad*%
%ADD25RoundRect,0.250000X-1.050000X1.050000X-1.050000X-1.050000X1.050000X-1.050000X1.050000X1.050000X0*%
%TD*%
%TA.AperFunction,ComponentPad*%
%ADD26C,2.600000*%
%TD*%
%TA.AperFunction,ComponentPad*%
%ADD27R,1.500000X1.050000*%
%TD*%
%TA.AperFunction,ComponentPad*%
%ADD28O,1.500000X1.050000*%
%TD*%
%TA.AperFunction,ComponentPad*%
%ADD29C,1.600000*%
%TD*%
%TA.AperFunction,ComponentPad*%
%ADD30C,1.348000*%
%TD*%
%TA.AperFunction,ViaPad*%
%ADD31C,0.600000*%
%TD*%
%TA.AperFunction,Conductor*%
%ADD32C,0.200000*%
%TD*%
G04 APERTURE END LIST*
D10*
%TO.P,U3,1,AC/L_1*%
%TO.N,Net-(U2-AC{slash}L)*%
X147700000Y-52512500D03*
D11*
%TO.P,U3,2,AC/N_2*%
%TO.N,Net-(J5-Pin_2)*%
X142700000Y-52512500D03*
%TO.P,U3,3,-Vout_3*%
%TO.N,GND*%
X152700000Y-81592500D03*
%TO.P,U3,4,+Vout_4*%
%TO.N,Net-(U3-+Vout)*%
X137700000Y-81592500D03*
%TD*%
D12*
%TO.P,J3,1,Pin_1_1*%
%TO.N,GND*%
X192725000Y-68600000D03*
D13*
%TO.P,J3,2,Pin_2_2*%
%TO.N,Net-(J3-Pin_2)*%
X195265000Y-68600000D03*
%TD*%
D14*
%TO.P,D2,1,K_1*%
%TO.N,Net-(D2-K)*%
X200200000Y-77920000D03*
D15*
%TO.P,D2,2,A_2*%
%TO.N,Net-(D2-A)*%
X200200000Y-88080000D03*
%TD*%
D16*
%TO.P,J2,1,0_1*%
%TO.N,unconnected-(J2-0-Pad1)*%
X217400000Y-33340000D03*
D17*
%TO.P,J2,2,1_2*%
%TO.N,unconnected-(J2-1-Pad2)*%
X217400000Y-35340000D03*
%TO.P,J2,3,2_3*%
%TO.N,unconnected-(J2-2-Pad3)*%
X217400000Y-37340000D03*
%TO.P,J2,4,3_4*%
%TO.N,unconnected-(J2-3-Pad4)*%
X217400000Y-39340000D03*
%TO.P,J2,5,6_5*%
%TO.N,unconnected-(J2-6-Pad5)*%
X217400000Y-41340000D03*
%TO.P,J2,6,5_6*%
%TO.N,unconnected-(J2-5-Pad6)*%
X217400000Y-43340000D03*
%TO.P,J2,7,res_7*%
%TO.N,unconnected-(J2-res-Pad7)*%
X217400000Y-45340000D03*
%TO.P,J2,8,9_8*%
%TO.N,unconnected-(J2-9-Pad8)*%
X217400000Y-47340000D03*
%TO.P,J2,9,7_9*%
%TO.N,unconnected-(J2-7-Pad9)*%
X217400000Y-49340000D03*
%TO.P,J2,10,4_10*%
%TO.N,unconnected-(J2-4-Pad10)*%
X217400000Y-51340000D03*
%TD*%
D18*
%TO.P,F1,1*%
%TO.N,Net-(J5-Pin_3)*%
X125650000Y-35200000D03*
%TO.P,F1,2*%
%TO.N,Net-(U2-AC{slash}L)*%
X163150000Y-35200000D03*
%TD*%
D19*
%TO.P,K1,A1*%
%TO.N,Net-(D2-K)*%
X166965000Y-77545000D03*
D20*
%TO.P,K1,A2*%
%TO.N,Net-(D2-A)*%
X177125000Y-77545000D03*
D21*
%TO.P,K1,C*%
%TO.N,Net-(U2-AC{slash}L)*%
X163155000Y-64845000D03*
D22*
%TO.P,K1,NO*%
%TO.N,Net-(J6-Pin_1)*%
X180935000Y-62305000D03*
%TD*%
D23*
%TO.P,D1,1,K_1*%
%TO.N,GND*%
X192125000Y-82800000D03*
D24*
%TO.P,D1,2,A_2*%
%TO.N,Net-(D1-A)*%
X194665000Y-82800000D03*
%TD*%
D10*
%TO.P,U2,1,AC/L_1*%
%TO.N,Net-(U2-AC{slash}L)*%
X122700000Y-52512500D03*
D11*
%TO.P,U2,2,AC/N_2*%
%TO.N,Net-(J5-Pin_2)*%
X117700000Y-52512500D03*
%TO.P,U2,3,-Vout_3*%
%TO.N,GND*%
X127700000Y-81592500D03*
%TO.P,U2,4,+Vout_4*%
%TO.N,Net-(D2-K)*%
X112700000Y-81592500D03*
%TD*%
D25*
%TO.P,J5,1,Pin_1_1*%
%TO.N,Net-(J5-Pin_1)*%
X99800000Y-42200000D03*
D26*
%TO.P,J5,2,Pin_2_2*%
%TO.N,Net-(J5-Pin_2)*%
X99800000Y-47280000D03*
%TO.P,J5,3,Pin_3_3*%
%TO.N,Net-(J5-Pin_3)*%
X99800000Y-52360000D03*
%TD*%
D25*
%TO.P,J6,1,Pin_1_1*%
%TO.N,Net-(J6-Pin_1)*%
X99800000Y-63440000D03*
D26*
%TO.P,J6,2,Pin_2_2*%
%TO.N,Net-(J5-Pin_2)*%
X99800000Y-68520000D03*
%TO.P,J6,3,Pin_3_3*%
%TO.N,Net-(J5-Pin_1)*%
X99800000Y-73600000D03*
%TD*%
D27*
%TO.P,Q1,1,E_1*%
%TO.N,GND*%
X193240000Y-73530000D03*
D28*
%TO.P,Q1,2,B_2*%
%TO.N,Net-(Q1-B)*%
X193240000Y-74800000D03*
%TO.P,Q1,3,C_3*%
%TO.N,Net-(D2-A)*%
X193240000Y-76070000D03*
%TD*%
D29*
%TO.P,R1,1*%
%TO.N,+3.3V*%
X206800000Y-77590000D03*
%TO.P,R1,2*%
%TO.N,Net-(J1-RST)*%
X206800000Y-85210000D03*
%TD*%
%TO.P,R4,1*%
%TO.N,Net-(Q1-B)*%
X219400000Y-77600000D03*
%TO.P,R4,2*%
%TO.N,GND*%
X219400000Y-85220000D03*
%TD*%
%TO.P,R2,1*%
%TO.N,Net-(Q1-B)*%
X213200000Y-77590000D03*
%TO.P,R2,2*%
%TO.N,Net-(U1-GPIO2)*%
X213200000Y-85210000D03*
%TD*%
D30*
%TO.P,U1,0,GPIO0_0*%
%TO.N,Net-(J1-TX)*%
X204900000Y-73740000D03*
%TO.P,U1,1,GPIO1_1*%
%TO.N,Net-(J1-RX)*%
X207440000Y-73740000D03*
%TO.P,U1,2,GPIO2_2*%
%TO.N,Net-(U1-GPIO2)*%
X209980000Y-73740000D03*
%TO.P,U1,3,GPIO3_3*%
%TO.N,Net-(J3-Pin_2)*%
X212520000Y-73740000D03*
%TO.P,U1,3.3,3V3_3.3*%
%TO.N,+3.3V*%
X217600000Y-73740000D03*
%TO.P,U1,4,GPIO4_4*%
%TO.N,Net-(D1-A)*%
X215060000Y-73740000D03*
%TO.P,U1,5,GPIO5_5*%
%TO.N,unconnected-(U1-GPIO5-Pad5)*%
X222680000Y-58500000D03*
%TO.P,U1,5V,5V_5V*%
%TO.N,Net-(U3-+Vout)*%
X222680000Y-73740000D03*
%TO.P,U1,6,GPIO6_6*%
%TO.N,unconnected-(U1-GPIO6-Pad6)*%
X220140000Y-58500000D03*
%TO.P,U1,7,GPIO7_7*%
%TO.N,unconnected-(U1-GPIO7-Pad7)*%
X217600000Y-58500000D03*
%TO.P,U1,8,GPIO8_8*%
%TO.N,unconnected-(U1-GPIO8-Pad8)*%
X215060000Y-58500000D03*
%TO.P,U1,9,GPIO9_9*%
%TO.N,unconnected-(U1-GPIO9-Pad9)*%
X212520000Y-58500000D03*
%TO.P,U1,10,GPIO10_10*%
%TO.N,unconnected-(U1-GPIO10-Pad10)*%
X209980000Y-58500000D03*
%TO.P,U1,20,GPIO20_20*%
%TO.N,unconnected-(U1-GPIO20-Pad20)*%
X207440000Y-58500000D03*
%TO.P,U1,21,GPIO21_21*%
%TO.N,unconnected-(U1-GPIO21-Pad21)*%
X204900000Y-58500000D03*
%TO.P,U1,G,GND_G*%
%TO.N,GND*%
X220140000Y-73740000D03*
%TD*%
D16*
%TO.P,J1,1,VCC_1*%
%TO.N,+3.3V*%
X194540000Y-33340000D03*
D17*
%TO.P,J1,2,RX_2*%
%TO.N,Net-(J1-RX)*%
X194540000Y-35340000D03*
%TO.P,J1,3,TX_3*%
%TO.N,Net-(J1-TX)*%
X194540000Y-37340000D03*
%TO.P,J1,4,12_4*%
%TO.N,unconnected-(J1-12-Pad4)*%
X194540000Y-39340000D03*
%TO.P,J1,5,RST_5*%
%TO.N,Net-(J1-RST)*%
X194540000Y-41340000D03*
%TO.P,J1,6,10_6*%
%TO.N,unconnected-(J1-10-Pad6)*%
X194540000Y-43340000D03*
%TO.P,J1,7,11_7*%
%TO.N,unconnected-(J1-11-Pad7)*%
X194540000Y-45340000D03*
%TO.P,J1,8,res_8*%
%TO.N,unconnected-(J1-res-Pad8)*%
X194540000Y-47340000D03*
%TO.P,J1,9,8_9*%
%TO.N,unconnected-(J1-8-Pad9)*%
X194540000Y-49340000D03*
%TO.P,J1,10,GND_10*%
%TO.N,GND*%
X194540000Y-51340000D03*
%TD*%
D31*
%TO.N,Net-(J1-RST)*%
X193600000Y-63400000D03*
X193600000Y-57600000D03*
%TO.N,Net-(J3-Pin_2)*%
X209800000Y-71400000D03*
X205400000Y-71400000D03*
X198200000Y-71400000D03*
%TO.N,Net-(Q1-B)*%
X217200000Y-77600000D03*
%TO.N,+3.3V*%
X214000000Y-75600000D03*
X216400000Y-75600000D03*
X200624265Y-40575735D03*
X200600000Y-44600000D03*
%TO.N,Net-(J1-RST)*%
X204000000Y-78400000D03*
X204000000Y-75400000D03*
%TO.N,Net-(J1-TX)*%
X206200000Y-55540000D03*
%TO.N,Net-(J1-RX)*%
X207200000Y-55540000D03*
%TD*%
%TO.N,GND*%
D32*
X193000000Y-59048529D02*
X194540000Y-57508529D01*
X194540000Y-57508529D02*
X194540000Y-51340000D01*
X193000000Y-73290000D02*
X193000000Y-59048529D01*
X193240000Y-73530000D02*
X193000000Y-73290000D01*
%TO.N,Net-(J1-RST)*%
X193565000Y-57565000D02*
X193565000Y-42315000D01*
X193600000Y-57600000D02*
X193565000Y-57565000D01*
X193565000Y-63435000D02*
X193600000Y-63400000D01*
X193565000Y-64965000D02*
X193565000Y-63435000D01*
%TO.N,Net-(J3-Pin_2)*%
X209800000Y-71400000D02*
X210000000Y-71400000D01*
X205400000Y-71400000D02*
X209800000Y-71400000D01*
%TO.N,Net-(U3-+Vout)*%
X222680000Y-85920000D02*
X222680000Y-73740000D01*
X137700000Y-81592500D02*
X146307500Y-90200000D01*
X146307500Y-90200000D02*
X218400000Y-90200000D01*
X218400000Y-90200000D02*
X222680000Y-85920000D01*
%TO.N,Net-(D2-K)*%
X199457500Y-78662500D02*
X200200000Y-77920000D01*
X168082500Y-78662500D02*
X199457500Y-78662500D01*
X116747500Y-77545000D02*
X166965000Y-77545000D01*
X112700000Y-81592500D02*
X116747500Y-77545000D01*
X166965000Y-77545000D02*
X168082500Y-78662500D01*
%TO.N,Net-(D2-A)*%
X193240000Y-76070000D02*
X193310000Y-76000000D01*
X177125000Y-77545000D02*
X178600000Y-76070000D01*
X178600000Y-76070000D02*
X193240000Y-76070000D01*
%TO.N,Net-(J3-Pin_2)*%
X198065000Y-71400000D02*
X198200000Y-71400000D01*
X195265000Y-68600000D02*
X198065000Y-71400000D01*
%TO.N,Net-(D1-A)*%
X194665000Y-88465000D02*
X196000000Y-89800000D01*
X215000000Y-89800000D02*
X215060000Y-89740000D01*
X196000000Y-89800000D02*
X215000000Y-89800000D01*
X194665000Y-82800000D02*
X194665000Y-88465000D01*
X215060000Y-89740000D02*
X215060000Y-73740000D01*
%TO.N,Net-(Q1-B)*%
X219400000Y-77600000D02*
X217200000Y-77600000D01*
%TO.N,+3.3V*%
X200962555Y-44962555D02*
X200962555Y-55940000D01*
X216400000Y-75600000D02*
X216400000Y-74940000D01*
X200624265Y-39424265D02*
X200624265Y-40575735D01*
X200962555Y-55940000D02*
X217600000Y-72577445D01*
X206800000Y-77590000D02*
X208790000Y-75600000D01*
X194540000Y-33340000D02*
X200624265Y-39424265D01*
X216400000Y-74940000D02*
X217600000Y-73740000D01*
X208790000Y-75600000D02*
X214000000Y-75600000D01*
X217600000Y-72577445D02*
X217600000Y-73740000D01*
X200600000Y-44600000D02*
X200962555Y-44962555D01*
%TO.N,Net-(J1-RST)*%
X193565000Y-42315000D02*
X194540000Y-41340000D01*
X206800000Y-85210000D02*
X206800000Y-81200000D01*
X204000000Y-75400000D02*
X193565000Y-64965000D01*
X206800000Y-81200000D02*
X204000000Y-78400000D01*
%TO.N,Net-(U1-GPIO2)*%
X214600000Y-83810000D02*
X214600000Y-75351471D01*
X214600000Y-75351471D02*
X213962529Y-74714000D01*
X210954000Y-74714000D02*
X209980000Y-73740000D01*
X213200000Y-85210000D02*
X214600000Y-83810000D01*
X213962529Y-74714000D02*
X210954000Y-74714000D01*
%TO.N,Net-(J1-TX)*%
X194540000Y-37340000D02*
X206200000Y-49000000D01*
X206200000Y-49000000D02*
X206200000Y-55540000D01*
%TO.N,Net-(J1-RX)*%
X207200000Y-48000000D02*
X194540000Y-35340000D01*
X207200000Y-55540000D02*
X207200000Y-48000000D01*
%TD*%
%TA.AperFunction,Conductor*%
%TO.N,GND*%
G36*
X192907539Y-49859685D02*
G01*
X192953294Y-49912489D01*
X192964500Y-49964000D01*
X192964500Y-57072616D01*
X192944815Y-57139655D01*
X192943602Y-57141507D01*
X192890609Y-57220815D01*
X192890602Y-57220828D01*
X192830264Y-57366498D01*
X192830261Y-57366510D01*
X192799500Y-57521153D01*
X192799500Y-57678846D01*
X192830261Y-57833489D01*
X192830264Y-57833501D01*
X192890602Y-57979172D01*
X192890609Y-57979185D01*
X192978210Y-58110288D01*
X192978213Y-58110292D01*
X193089707Y-58221786D01*
X193089711Y-58221789D01*
X193220814Y-58309390D01*
X193220827Y-58309397D01*
X193366498Y-58369735D01*
X193366503Y-58369737D01*
X193521153Y-58400499D01*
X193521156Y-58400500D01*
X193521158Y-58400500D01*
X193678844Y-58400500D01*
X193678845Y-58400499D01*
X193833497Y-58369737D01*
X193979179Y-58309394D01*
X194110289Y-58221789D01*
X194221789Y-58110289D01*
X194309394Y-57979179D01*
X194369737Y-57833497D01*
X194400500Y-57678842D01*
X194400500Y-57521158D01*
X194400500Y-57521155D01*
X194400499Y-57521153D01*
X194378697Y-57411547D01*
X194369737Y-57366503D01*
X194309397Y-57220828D01*
X194309397Y-57220827D01*
X194309390Y-57220814D01*
X194221789Y-57089711D01*
X194221786Y-57089707D01*
X194201819Y-57069740D01*
X194168334Y-57008417D01*
X194165500Y-56982059D01*
X194165500Y-52615516D01*
X194185185Y-52548477D01*
X194237989Y-52502722D01*
X194307147Y-52492778D01*
X194308898Y-52493043D01*
X194447527Y-52515000D01*
X194632473Y-52515000D01*
X194815147Y-52486066D01*
X194991040Y-52428916D01*
X194991043Y-52428915D01*
X195155836Y-52344947D01*
X195155845Y-52344942D01*
X195176430Y-52329984D01*
X195176430Y-52329983D01*
X194586447Y-51740000D01*
X194592661Y-51740000D01*
X194694394Y-51712741D01*
X194785606Y-51660080D01*
X194860080Y-51585606D01*
X194912741Y-51494394D01*
X194940000Y-51392661D01*
X194940000Y-51386447D01*
X195529983Y-51976430D01*
X195529984Y-51976430D01*
X195544942Y-51955845D01*
X195544947Y-51955836D01*
X195628915Y-51791043D01*
X195628916Y-51791040D01*
X195686066Y-51615147D01*
X195715000Y-51432473D01*
X195715000Y-51247526D01*
X195686066Y-51064852D01*
X195628916Y-50888959D01*
X195628915Y-50888956D01*
X195544949Y-50724165D01*
X195529983Y-50703568D01*
X194940000Y-51293551D01*
X194940000Y-51287339D01*
X194912741Y-51185606D01*
X194860080Y-51094394D01*
X194785606Y-51019920D01*
X194694394Y-50967259D01*
X194592661Y-50940000D01*
X194586446Y-50940000D01*
X195200675Y-50325771D01*
X195231165Y-50290836D01*
X195305787Y-50236621D01*
X195436621Y-50105787D01*
X195545378Y-49956096D01*
X195570034Y-49907706D01*
X195618008Y-49856909D01*
X195680519Y-49840000D01*
X200238055Y-49840000D01*
X200305094Y-49859685D01*
X200350849Y-49912489D01*
X200362055Y-49964000D01*
X200362055Y-55853330D01*
X200362054Y-55853348D01*
X200362054Y-56019054D01*
X200362053Y-56019054D01*
X200402978Y-56171785D01*
X200431913Y-56221900D01*
X200431914Y-56221904D01*
X200431915Y-56221904D01*
X200482034Y-56308714D01*
X200482036Y-56308717D01*
X200600904Y-56427585D01*
X200600910Y-56427590D01*
X216838495Y-72665175D01*
X216871980Y-72726498D01*
X216866996Y-72796190D01*
X216836875Y-72839262D01*
X216838309Y-72840696D01*
X216704139Y-72974865D01*
X216704135Y-72974870D01*
X216595479Y-73124424D01*
X216511547Y-73289147D01*
X216511546Y-73289150D01*
X216454420Y-73464969D01*
X216452473Y-73477263D01*
X216422543Y-73540397D01*
X216363231Y-73577328D01*
X216293369Y-73576330D01*
X216235136Y-73537719D01*
X216207527Y-73477263D01*
X216207192Y-73475150D01*
X216205580Y-73464971D01*
X216167776Y-73348622D01*
X216148453Y-73289150D01*
X216148452Y-73289147D01*
X216118276Y-73229925D01*
X216064523Y-73124428D01*
X216049887Y-73104283D01*
X215955864Y-72974870D01*
X215955860Y-72974865D01*
X215825134Y-72844139D01*
X215825129Y-72844135D01*
X215675575Y-72735479D01*
X215675574Y-72735478D01*
X215675572Y-72735477D01*
X215607118Y-72700598D01*
X215510852Y-72651547D01*
X215510849Y-72651546D01*
X215335030Y-72594419D01*
X215152440Y-72565500D01*
X215152435Y-72565500D01*
X214967565Y-72565500D01*
X214967560Y-72565500D01*
X214784969Y-72594419D01*
X214609150Y-72651546D01*
X214609147Y-72651547D01*
X214444424Y-72735479D01*
X214294870Y-72844135D01*
X214294865Y-72844139D01*
X214164139Y-72974865D01*
X214164135Y-72974870D01*
X214055479Y-73124424D01*
X213971547Y-73289147D01*
X213971546Y-73289150D01*
X213914420Y-73464969D01*
X213912473Y-73477263D01*
X213882543Y-73540397D01*
X213823231Y-73577328D01*
X213753369Y-73576330D01*
X213695136Y-73537719D01*
X213667527Y-73477263D01*
X213667192Y-73475150D01*
X213665580Y-73464971D01*
X213627776Y-73348622D01*
X213608453Y-73289150D01*
X213608452Y-73289147D01*
X213578276Y-73229925D01*
X213524523Y-73124428D01*
X213509887Y-73104283D01*
X213415864Y-72974870D01*
X213415860Y-72974865D01*
X213285134Y-72844139D01*
X213285129Y-72844135D01*
X213135575Y-72735479D01*
X213135574Y-72735478D01*
X213135572Y-72735477D01*
X213067118Y-72700598D01*
X212970852Y-72651547D01*
X212970849Y-72651546D01*
X212795030Y-72594419D01*
X212612440Y-72565500D01*
X212612435Y-72565500D01*
X212427565Y-72565500D01*
X212427560Y-72565500D01*
X212244969Y-72594419D01*
X212069150Y-72651546D01*
X212069147Y-72651547D01*
X211904424Y-72735479D01*
X211754870Y-72844135D01*
X211754865Y-72844139D01*
X211624139Y-72974865D01*
X211624135Y-72974870D01*
X211515479Y-73124424D01*
X211431547Y-73289147D01*
X211431546Y-73289150D01*
X211374420Y-73464969D01*
X211372473Y-73477263D01*
X211342543Y-73540397D01*
X211283231Y-73577328D01*
X211213369Y-73576330D01*
X211155136Y-73537719D01*
X211127527Y-73477263D01*
X211127192Y-73475150D01*
X211125580Y-73464971D01*
X211087776Y-73348622D01*
X211068453Y-73289150D01*
X211068452Y-73289147D01*
X211038276Y-73229925D01*
X210984523Y-73124428D01*
X210969887Y-73104283D01*
X210875864Y-72974870D01*
X210875860Y-72974865D01*
X210745134Y-72844139D01*
X210745129Y-72844135D01*
X210595575Y-72735479D01*
X210595574Y-72735478D01*
X210595572Y-72735477D01*
X210527118Y-72700598D01*
X210430852Y-72651547D01*
X210430849Y-72651546D01*
X210255030Y-72594419D01*
X210072440Y-72565500D01*
X210072435Y-72565500D01*
X209887565Y-72565500D01*
X209887560Y-72565500D01*
X209704969Y-72594419D01*
X209529150Y-72651546D01*
X209529147Y-72651547D01*
X209364424Y-72735479D01*
X209214870Y-72844135D01*
X209214865Y-72844139D01*
X209084139Y-72974865D01*
X209084135Y-72974870D01*
X208975479Y-73124424D01*
X208891547Y-73289147D01*
X208891546Y-73289150D01*
X208834420Y-73464969D01*
X208832473Y-73477263D01*
X208802543Y-73540397D01*
X208743231Y-73577328D01*
X208673369Y-73576330D01*
X208615136Y-73537719D01*
X208587527Y-73477263D01*
X208587192Y-73475150D01*
X208585580Y-73464971D01*
X208547776Y-73348622D01*
X208528453Y-73289150D01*
X208528452Y-73289147D01*
X208498276Y-73229925D01*
X208444523Y-73124428D01*
X208429887Y-73104283D01*
X208335864Y-72974870D01*
X208335860Y-72974865D01*
X208205134Y-72844139D01*
X208205129Y-72844135D01*
X208055575Y-72735479D01*
X208055574Y-72735478D01*
X208055572Y-72735477D01*
X207987118Y-72700598D01*
X207890852Y-72651547D01*
X207890849Y-72651546D01*
X207715030Y-72594419D01*
X207532440Y-72565500D01*
X207532435Y-72565500D01*
X207347565Y-72565500D01*
X207347560Y-72565500D01*
X207164969Y-72594419D01*
X206989150Y-72651546D01*
X206989147Y-72651547D01*
X206824424Y-72735479D01*
X206674870Y-72844135D01*
X206674865Y-72844139D01*
X206544139Y-72974865D01*
X206544135Y-72974870D01*
X206435479Y-73124424D01*
X206351547Y-73289147D01*
X206351546Y-73289150D01*
X206294420Y-73464969D01*
X206292473Y-73477263D01*
X206262543Y-73540397D01*
X206203231Y-73577328D01*
X206133369Y-73576330D01*
X206075136Y-73537719D01*
X206047527Y-73477263D01*
X206047192Y-73475150D01*
X206045580Y-73464971D01*
X206007776Y-73348622D01*
X205988453Y-73289150D01*
X205988452Y-73289147D01*
X205958276Y-73229925D01*
X205904523Y-73124428D01*
X205889887Y-73104283D01*
X205795864Y-72974870D01*
X205795860Y-72974865D01*
X205665134Y-72844139D01*
X205665129Y-72844135D01*
X205515575Y-72735479D01*
X205515574Y-72735478D01*
X205515572Y-72735477D01*
X205447118Y-72700598D01*
X205350852Y-72651547D01*
X205350849Y-72651546D01*
X205175030Y-72594419D01*
X204992440Y-72565500D01*
X204992435Y-72565500D01*
X204807565Y-72565500D01*
X204807560Y-72565500D01*
X204624969Y-72594419D01*
X204449150Y-72651546D01*
X204449147Y-72651547D01*
X204284424Y-72735479D01*
X204134870Y-72844135D01*
X204134865Y-72844139D01*
X204004139Y-72974865D01*
X204004135Y-72974870D01*
X203895479Y-73124424D01*
X203811547Y-73289147D01*
X203811546Y-73289150D01*
X203754419Y-73464969D01*
X203725500Y-73647559D01*
X203725500Y-73832440D01*
X203749323Y-73982854D01*
X203740368Y-74052148D01*
X203695372Y-74105600D01*
X203628621Y-74126239D01*
X203561307Y-74107514D01*
X203539169Y-74089933D01*
X200770389Y-71321153D01*
X204599500Y-71321153D01*
X204599500Y-71478846D01*
X204630261Y-71633489D01*
X204630264Y-71633501D01*
X204690602Y-71779172D01*
X204690609Y-71779185D01*
X204778210Y-71910288D01*
X204778213Y-71910292D01*
X204889707Y-72021786D01*
X204889711Y-72021789D01*
X205020814Y-72109390D01*
X205020827Y-72109397D01*
X205166498Y-72169735D01*
X205166503Y-72169737D01*
X205321153Y-72200499D01*
X205321156Y-72200500D01*
X205321158Y-72200500D01*
X205478844Y-72200500D01*
X205478845Y-72200499D01*
X205633497Y-72169737D01*
X205779179Y-72109394D01*
X205804337Y-72092584D01*
X205910875Y-72021398D01*
X205977553Y-72000520D01*
X205979766Y-72000500D01*
X209220234Y-72000500D01*
X209287273Y-72020185D01*
X209289125Y-72021398D01*
X209420814Y-72109390D01*
X209420827Y-72109397D01*
X209566498Y-72169735D01*
X209566503Y-72169737D01*
X209721153Y-72200499D01*
X209721156Y-72200500D01*
X209721158Y-72200500D01*
X209878844Y-72200500D01*
X209878845Y-72200499D01*
X210033497Y-72169737D01*
X210179179Y-72109394D01*
X210310289Y-72021789D01*
X210421789Y-71910289D01*
X210509394Y-71779179D01*
X210569737Y-71633497D01*
X210600334Y-71479676D01*
X210600500Y-71479057D01*
X210600500Y-71320943D01*
X210600334Y-71320323D01*
X210569737Y-71166503D01*
X210569735Y-71166498D01*
X210509397Y-71020827D01*
X210509390Y-71020814D01*
X210421789Y-70889711D01*
X210421786Y-70889707D01*
X210310292Y-70778213D01*
X210310288Y-70778210D01*
X210179185Y-70690609D01*
X210179172Y-70690602D01*
X210033501Y-70630264D01*
X210033489Y-70630261D01*
X209878845Y-70599500D01*
X209878842Y-70599500D01*
X209721158Y-70599500D01*
X209721155Y-70599500D01*
X209566510Y-70630261D01*
X209566498Y-70630264D01*
X209420827Y-70690602D01*
X209420814Y-70690609D01*
X209289125Y-70778602D01*
X209222447Y-70799480D01*
X209220234Y-70799500D01*
X205979766Y-70799500D01*
X205912727Y-70779815D01*
X205910875Y-70778602D01*
X205779185Y-70690609D01*
X205779172Y-70690602D01*
X205633501Y-70630264D01*
X205633489Y-70630261D01*
X205478845Y-70599500D01*
X205478842Y-70599500D01*
X205321158Y-70599500D01*
X205321155Y-70599500D01*
X205166510Y-70630261D01*
X205166498Y-70630264D01*
X205020827Y-70690602D01*
X205020814Y-70690609D01*
X204889711Y-70778210D01*
X204889707Y-70778213D01*
X204778213Y-70889707D01*
X204778210Y-70889711D01*
X204690609Y-71020814D01*
X204690602Y-71020827D01*
X204630264Y-71166498D01*
X204630261Y-71166510D01*
X204599500Y-71321153D01*
X200770389Y-71321153D01*
X194201819Y-64752583D01*
X194168334Y-64691260D01*
X194165500Y-64664902D01*
X194165500Y-64017940D01*
X194185185Y-63950901D01*
X194201821Y-63930257D01*
X194221787Y-63910291D01*
X194221789Y-63910289D01*
X194309394Y-63779179D01*
X194369737Y-63633497D01*
X194400500Y-63478842D01*
X194400500Y-63321158D01*
X194400500Y-63321155D01*
X194400499Y-63321153D01*
X194369737Y-63166503D01*
X194325804Y-63060438D01*
X194309397Y-63020827D01*
X194309390Y-63020814D01*
X194221789Y-62889711D01*
X194221786Y-62889707D01*
X194110292Y-62778213D01*
X194110288Y-62778210D01*
X193979185Y-62690609D01*
X193979172Y-62690602D01*
X193833501Y-62630264D01*
X193833489Y-62630261D01*
X193678845Y-62599500D01*
X193678842Y-62599500D01*
X193521158Y-62599500D01*
X193521155Y-62599500D01*
X193366510Y-62630261D01*
X193366498Y-62630264D01*
X193220827Y-62690602D01*
X193220814Y-62690609D01*
X193089711Y-62778210D01*
X193089707Y-62778213D01*
X192978213Y-62889707D01*
X192978210Y-62889711D01*
X192890609Y-63020814D01*
X192890602Y-63020827D01*
X192830264Y-63166498D01*
X192830261Y-63166510D01*
X192799500Y-63321153D01*
X192799500Y-63478846D01*
X192830261Y-63633489D01*
X192830264Y-63633501D01*
X192890602Y-63779172D01*
X192890609Y-63779184D01*
X192943602Y-63858493D01*
X192964480Y-63925170D01*
X192964500Y-63927384D01*
X192964500Y-64878330D01*
X192964499Y-64878348D01*
X192964499Y-65044054D01*
X192964498Y-65044054D01*
X192964499Y-65044057D01*
X193005423Y-65196785D01*
X193026438Y-65233183D01*
X193065132Y-65300205D01*
X193084479Y-65333715D01*
X193203349Y-65452585D01*
X193203355Y-65452590D01*
X194869649Y-67118884D01*
X194903134Y-67180207D01*
X194898150Y-67249899D01*
X194856278Y-67305832D01*
X194820288Y-67324495D01*
X194746587Y-67348442D01*
X194557179Y-67444951D01*
X194385215Y-67569889D01*
X194271285Y-67683819D01*
X194209962Y-67717303D01*
X194140270Y-67712319D01*
X194084337Y-67670447D01*
X194067422Y-67639470D01*
X194018354Y-67507913D01*
X194018350Y-67507906D01*
X193932190Y-67392812D01*
X193932187Y-67392809D01*
X193817093Y-67306649D01*
X193817086Y-67306645D01*
X193682379Y-67256403D01*
X193682372Y-67256401D01*
X193622844Y-67250000D01*
X192975000Y-67250000D01*
X192975000Y-68166988D01*
X192917993Y-68134075D01*
X192790826Y-68100000D01*
X192659174Y-68100000D01*
X192532007Y-68134075D01*
X192475000Y-68166988D01*
X192475000Y-67250000D01*
X191827155Y-67250000D01*
X191767627Y-67256401D01*
X191767620Y-67256403D01*
X191632913Y-67306645D01*
X191632906Y-67306649D01*
X191517812Y-67392809D01*
X191517809Y-67392812D01*
X191431649Y-67507906D01*
X191431645Y-67507913D01*
X191381403Y-67642620D01*
X191381401Y-67642627D01*
X191375000Y-67702155D01*
X191375000Y-68350000D01*
X192291988Y-68350000D01*
X192259075Y-68407007D01*
X192225000Y-68534174D01*
X192225000Y-68665826D01*
X192259075Y-68792993D01*
X192291988Y-68850000D01*
X191375000Y-68850000D01*
X191375000Y-69497844D01*
X191381401Y-69557372D01*
X191381403Y-69557379D01*
X191431645Y-69692086D01*
X191431649Y-69692093D01*
X191517809Y-69807187D01*
X191517812Y-69807190D01*
X191632906Y-69893350D01*
X191632913Y-69893354D01*
X191767620Y-69943596D01*
X191767627Y-69943598D01*
X191827155Y-69949999D01*
X191827172Y-69950000D01*
X192475000Y-69950000D01*
X192475000Y-69033012D01*
X192532007Y-69065925D01*
X192659174Y-69100000D01*
X192790826Y-69100000D01*
X192917993Y-69065925D01*
X192975000Y-69033012D01*
X192975000Y-69950000D01*
X193622828Y-69950000D01*
X193622844Y-69949999D01*
X193682372Y-69943598D01*
X193682379Y-69943596D01*
X193817086Y-69893354D01*
X193817093Y-69893350D01*
X193932187Y-69807190D01*
X193932190Y-69807187D01*
X194018350Y-69692093D01*
X194018354Y-69692086D01*
X194067422Y-69560529D01*
X194109293Y-69504595D01*
X194174757Y-69480178D01*
X194243030Y-69495030D01*
X194271285Y-69516181D01*
X194385213Y-69630109D01*
X194557179Y-69755048D01*
X194557181Y-69755049D01*
X194557184Y-69755051D01*
X194746588Y-69851557D01*
X194948757Y-69917246D01*
X195158713Y-69950500D01*
X195158714Y-69950500D01*
X195371286Y-69950500D01*
X195371287Y-69950500D01*
X195581243Y-69917246D01*
X195623523Y-69903507D01*
X195693362Y-69901511D01*
X195749522Y-69933757D01*
X197400026Y-71584261D01*
X197426520Y-71628454D01*
X197427932Y-71627870D01*
X197490602Y-71779172D01*
X197490609Y-71779185D01*
X197578210Y-71910288D01*
X197578213Y-71910292D01*
X197689707Y-72021786D01*
X197689711Y-72021789D01*
X197820814Y-72109390D01*
X197820827Y-72109397D01*
X197966498Y-72169735D01*
X197966503Y-72169737D01*
X198121153Y-72200499D01*
X198121156Y-72200500D01*
X198121158Y-72200500D01*
X198278844Y-72200500D01*
X198278845Y-72200499D01*
X198433497Y-72169737D01*
X198579179Y-72109394D01*
X198710289Y-72021789D01*
X198821789Y-71910289D01*
X198909394Y-71779179D01*
X198969737Y-71633497D01*
X198993253Y-71515277D01*
X199025638Y-71453366D01*
X199086353Y-71418792D01*
X199156123Y-71422531D01*
X199202551Y-71451787D01*
X203165425Y-75414660D01*
X203198910Y-75475983D01*
X203199361Y-75478149D01*
X203230261Y-75633491D01*
X203230264Y-75633501D01*
X203290602Y-75779172D01*
X203290609Y-75779185D01*
X203378210Y-75910288D01*
X203378213Y-75910292D01*
X203489707Y-76021786D01*
X203489711Y-76021789D01*
X203620814Y-76109390D01*
X203620827Y-76109397D01*
X203765214Y-76169203D01*
X203766503Y-76169737D01*
X203909736Y-76198228D01*
X203921153Y-76200499D01*
X203921156Y-76200500D01*
X203921158Y-76200500D01*
X204078844Y-76200500D01*
X204078845Y-76200499D01*
X204233497Y-76169737D01*
X204379179Y-76109394D01*
X204510289Y-76021789D01*
X204621789Y-75910289D01*
X204709394Y-75779179D01*
X204712835Y-75770873D01*
X204750954Y-75678844D01*
X204769737Y-75633497D01*
X204800500Y-75478842D01*
X204800500Y-75321158D01*
X204800500Y-75321155D01*
X204800499Y-75321153D01*
X204794634Y-75291666D01*
X204769737Y-75166503D01*
X204736371Y-75085951D01*
X204728903Y-75016483D01*
X204760178Y-74954004D01*
X204820267Y-74918352D01*
X204850933Y-74914500D01*
X204992440Y-74914500D01*
X205175030Y-74885580D01*
X205350849Y-74828453D01*
X205350852Y-74828452D01*
X205351767Y-74827986D01*
X205515572Y-74744523D01*
X205665136Y-74635859D01*
X205795859Y-74505136D01*
X205904523Y-74355572D01*
X205988452Y-74190852D01*
X206045580Y-74015029D01*
X206047527Y-74002737D01*
X206077456Y-73939602D01*
X206136768Y-73902671D01*
X206206630Y-73903669D01*
X206264863Y-73942279D01*
X206292473Y-74002737D01*
X206294420Y-74015030D01*
X206351546Y-74190849D01*
X206351547Y-74190852D01*
X206435479Y-74355575D01*
X206544135Y-74505129D01*
X206544139Y-74505134D01*
X206674865Y-74635860D01*
X206674870Y-74635864D01*
X206761765Y-74698996D01*
X206824428Y-74744523D01*
X206932106Y-74799388D01*
X206989147Y-74828452D01*
X206989150Y-74828453D01*
X207164969Y-74885580D01*
X207347560Y-74914500D01*
X207347565Y-74914500D01*
X207532440Y-74914500D01*
X207715030Y-74885580D01*
X207890849Y-74828453D01*
X207890852Y-74828452D01*
X207891767Y-74827986D01*
X208055572Y-74744523D01*
X208205136Y-74635859D01*
X208335859Y-74505136D01*
X208444523Y-74355572D01*
X208528452Y-74190852D01*
X208585580Y-74015029D01*
X208587527Y-74002737D01*
X208617456Y-73939602D01*
X208676768Y-73902671D01*
X208746630Y-73903669D01*
X208804863Y-73942279D01*
X208832473Y-74002737D01*
X208834420Y-74015030D01*
X208891546Y-74190849D01*
X208891547Y-74190852D01*
X208975479Y-74355575D01*
X209084135Y-74505129D01*
X209084139Y-74505134D01*
X209214865Y-74635860D01*
X209214870Y-74635864D01*
X209301765Y-74698996D01*
X209364428Y-74744523D01*
X209404646Y-74765015D01*
X209455442Y-74812990D01*
X209472237Y-74880811D01*
X209449700Y-74946946D01*
X209394984Y-74990397D01*
X209348351Y-74999500D01*
X208876669Y-74999500D01*
X208876653Y-74999499D01*
X208869057Y-74999499D01*
X208710943Y-74999499D01*
X208603587Y-75028265D01*
X208558210Y-75040424D01*
X208558209Y-75040425D01*
X208508096Y-75069359D01*
X208508095Y-75069360D01*
X208479355Y-75085953D01*
X208421285Y-75119479D01*
X208421282Y-75119481D01*
X208309478Y-75231286D01*
X207244842Y-76295921D01*
X207183519Y-76329406D01*
X207118848Y-76326173D01*
X207104534Y-76321522D01*
X206929995Y-76293878D01*
X206902352Y-76289500D01*
X206697648Y-76289500D01*
X206673329Y-76293351D01*
X206495465Y-76321522D01*
X206300776Y-76384781D01*
X206118386Y-76477715D01*
X205952786Y-76598028D01*
X205808028Y-76742786D01*
X205687715Y-76908386D01*
X205594781Y-77090776D01*
X205531522Y-77285465D01*
X205499500Y-77487648D01*
X205499500Y-77692351D01*
X205531522Y-77894534D01*
X205594781Y-78089223D01*
X205651491Y-78200520D01*
X205685978Y-78268205D01*
X205687715Y-78271613D01*
X205808028Y-78437213D01*
X205952786Y-78581971D01*
X206107749Y-78694556D01*
X206118390Y-78702287D01*
X206207053Y-78747463D01*
X206300776Y-78795218D01*
X206300778Y-78795218D01*
X206300781Y-78795220D01*
X206405137Y-78829127D01*
X206495465Y-78858477D01*
X206558602Y-78868477D01*
X206697648Y-78890500D01*
X206697649Y-78890500D01*
X206902351Y-78890500D01*
X206902352Y-78890500D01*
X207104534Y-78858477D01*
X207299219Y-78795220D01*
X207481610Y-78702287D01*
X207615748Y-78604831D01*
X207647213Y-78581971D01*
X207647215Y-78581968D01*
X207647219Y-78581966D01*
X207791966Y-78437219D01*
X207791968Y-78437215D01*
X207791971Y-78437213D01*
X207874212Y-78324016D01*
X207912287Y-78271610D01*
X208005220Y-78089219D01*
X208068477Y-77894534D01*
X208100500Y-77692352D01*
X208100500Y-77487648D01*
X208068477Y-77285466D01*
X208063825Y-77271151D01*
X208061832Y-77201312D01*
X208094075Y-77145158D01*
X209002416Y-76236819D01*
X209063739Y-76203334D01*
X209090097Y-76200500D01*
X212545953Y-76200500D01*
X212612992Y-76220185D01*
X212658747Y-76272989D01*
X212668691Y-76342147D01*
X212639666Y-76405703D01*
X212602248Y-76434985D01*
X212518386Y-76477715D01*
X212352786Y-76598028D01*
X212208028Y-76742786D01*
X212087715Y-76908386D01*
X211994781Y-77090776D01*
X211931522Y-77285465D01*
X211899500Y-77487648D01*
X211899500Y-77692351D01*
X211931522Y-77894534D01*
X211994781Y-78089223D01*
X212051491Y-78200520D01*
X212085978Y-78268205D01*
X212087715Y-78271613D01*
X212208028Y-78437213D01*
X212352786Y-78581971D01*
X212507749Y-78694556D01*
X212518390Y-78702287D01*
X212607053Y-78747463D01*
X212700776Y-78795218D01*
X212700778Y-78795218D01*
X212700781Y-78795220D01*
X212805137Y-78829127D01*
X212895465Y-78858477D01*
X212958602Y-78868477D01*
X213097648Y-78890500D01*
X213097649Y-78890500D01*
X213302351Y-78890500D01*
X213302352Y-78890500D01*
X213504534Y-78858477D01*
X213699219Y-78795220D01*
X213819205Y-78734083D01*
X213887873Y-78721187D01*
X213952614Y-78747463D01*
X213992872Y-78804569D01*
X213999500Y-78844568D01*
X213999500Y-83509902D01*
X213979815Y-83576941D01*
X213963181Y-83597583D01*
X213644842Y-83915922D01*
X213583519Y-83949407D01*
X213518843Y-83946172D01*
X213504534Y-83941523D01*
X213368645Y-83920000D01*
X213302352Y-83909500D01*
X213097648Y-83909500D01*
X213073329Y-83913351D01*
X212895465Y-83941522D01*
X212700776Y-84004781D01*
X212518386Y-84097715D01*
X212352786Y-84218028D01*
X212208028Y-84362786D01*
X212087715Y-84528386D01*
X211994781Y-84710776D01*
X211931522Y-84905465D01*
X211899500Y-85107648D01*
X211899500Y-85312351D01*
X211931522Y-85514534D01*
X211994781Y-85709223D01*
X212087715Y-85891613D01*
X212208028Y-86057213D01*
X212352786Y-86201971D01*
X212472183Y-86288716D01*
X212518390Y-86322287D01*
X212634607Y-86381503D01*
X212700776Y-86415218D01*
X212700778Y-86415218D01*
X212700781Y-86415220D01*
X212805137Y-86449127D01*
X212895465Y-86478477D01*
X212996557Y-86494488D01*
X213097648Y-86510500D01*
X213097649Y-86510500D01*
X213302351Y-86510500D01*
X213302352Y-86510500D01*
X213504534Y-86478477D01*
X213699219Y-86415220D01*
X213881610Y-86322287D01*
X213974590Y-86254732D01*
X214047213Y-86201971D01*
X214047215Y-86201968D01*
X214047219Y-86201966D01*
X214191966Y-86057219D01*
X214191968Y-86057215D01*
X214191971Y-86057213D01*
X214235182Y-85997738D01*
X214290511Y-85955072D01*
X214360125Y-85949093D01*
X214421920Y-85981698D01*
X214456277Y-86042537D01*
X214459500Y-86070623D01*
X214459500Y-86716000D01*
X214439815Y-86783039D01*
X214387011Y-86828794D01*
X214335500Y-86840000D01*
X201256510Y-86840000D01*
X201189471Y-86820315D01*
X201183625Y-86816318D01*
X201038848Y-86711132D01*
X201038847Y-86711131D01*
X201038845Y-86711130D01*
X200968747Y-86675413D01*
X200814383Y-86596760D01*
X200574785Y-86518910D01*
X200379565Y-86487990D01*
X200325962Y-86479500D01*
X200074038Y-86479500D01*
X200020435Y-86487990D01*
X199825214Y-86518910D01*
X199585616Y-86596760D01*
X199361151Y-86711132D01*
X199216375Y-86816318D01*
X199150569Y-86839798D01*
X199143490Y-86840000D01*
X195389500Y-86840000D01*
X195322461Y-86820315D01*
X195276706Y-86767511D01*
X195265500Y-86716000D01*
X195265500Y-84141835D01*
X195285185Y-84074796D01*
X195333206Y-84031350D01*
X195333547Y-84031175D01*
X195399022Y-83997815D01*
X195577365Y-83868242D01*
X195733242Y-83712365D01*
X195862815Y-83534022D01*
X195962895Y-83337606D01*
X196031015Y-83127951D01*
X196065500Y-82910222D01*
X196065500Y-82689778D01*
X196031015Y-82472049D01*
X195996955Y-82367221D01*
X195962896Y-82262396D01*
X195962895Y-82262393D01*
X195897156Y-82133376D01*
X195862815Y-82065978D01*
X195846260Y-82043192D01*
X195733247Y-81887641D01*
X195733243Y-81887636D01*
X195577363Y-81731756D01*
X195577358Y-81731752D01*
X195399025Y-81602187D01*
X195399024Y-81602186D01*
X195399022Y-81602185D01*
X195336096Y-81570122D01*
X195202606Y-81502104D01*
X195202603Y-81502103D01*
X194992952Y-81433985D01*
X194856770Y-81412416D01*
X194775222Y-81399500D01*
X194554778Y-81399500D01*
X194482201Y-81410995D01*
X194337047Y-81433985D01*
X194127396Y-81502103D01*
X194127393Y-81502104D01*
X193930974Y-81602187D01*
X193752641Y-81731752D01*
X193752636Y-81731756D01*
X193702075Y-81782317D01*
X193640752Y-81815801D01*
X193571060Y-81810816D01*
X193515127Y-81768945D01*
X193498213Y-81737968D01*
X193468354Y-81657913D01*
X193468350Y-81657906D01*
X193382190Y-81542812D01*
X193382187Y-81542809D01*
X193267093Y-81456649D01*
X193267086Y-81456645D01*
X193132379Y-81406403D01*
X193132372Y-81406401D01*
X193072844Y-81400000D01*
X192375000Y-81400000D01*
X192375000Y-82424722D01*
X192298694Y-82380667D01*
X192184244Y-82350000D01*
X192065756Y-82350000D01*
X191951306Y-82380667D01*
X191875000Y-82424722D01*
X191875000Y-81400000D01*
X191177155Y-81400000D01*
X191117627Y-81406401D01*
X191117620Y-81406403D01*
X190982913Y-81456645D01*
X190982906Y-81456649D01*
X190867812Y-81542809D01*
X190867809Y-81542812D01*
X190781649Y-81657906D01*
X190781645Y-81657913D01*
X190731403Y-81792620D01*
X190731401Y-81792627D01*
X190725000Y-81852155D01*
X190725000Y-82550000D01*
X191749722Y-82550000D01*
X191705667Y-82626306D01*
X191675000Y-82740756D01*
X191675000Y-82859244D01*
X191705667Y-82973694D01*
X191749722Y-83050000D01*
X190725000Y-83050000D01*
X190725000Y-83747844D01*
X190731401Y-83807372D01*
X190731403Y-83807379D01*
X190781645Y-83942086D01*
X190781649Y-83942093D01*
X190867809Y-84057187D01*
X190867812Y-84057190D01*
X190982906Y-84143350D01*
X190982913Y-84143354D01*
X191117620Y-84193596D01*
X191117627Y-84193598D01*
X191177155Y-84199999D01*
X191177172Y-84200000D01*
X191875000Y-84200000D01*
X191875000Y-83175277D01*
X191951306Y-83219333D01*
X192065756Y-83250000D01*
X192184244Y-83250000D01*
X192298694Y-83219333D01*
X192375000Y-83175277D01*
X192375000Y-84200000D01*
X193072828Y-84200000D01*
X193072844Y-84199999D01*
X193132372Y-84193598D01*
X193132379Y-84193596D01*
X193267086Y-84143354D01*
X193267093Y-84143350D01*
X193382187Y-84057190D01*
X193382190Y-84057187D01*
X193468350Y-83942093D01*
X193468354Y-83942086D01*
X193498213Y-83862031D01*
X193540084Y-83806097D01*
X193605548Y-83781680D01*
X193673821Y-83796531D01*
X193702076Y-83817683D01*
X193752636Y-83868243D01*
X193752641Y-83868247D01*
X193930976Y-83997814D01*
X193996794Y-84031350D01*
X194047591Y-84079324D01*
X194064500Y-84141835D01*
X194064500Y-86716000D01*
X194044815Y-86783039D01*
X193992011Y-86828794D01*
X193940500Y-86840000D01*
X143848097Y-86840000D01*
X143781058Y-86820315D01*
X143760416Y-86803681D01*
X139146972Y-82190237D01*
X139113487Y-82128914D01*
X139116722Y-82064238D01*
X139139999Y-81992599D01*
X139167246Y-81908743D01*
X139200500Y-81698787D01*
X139200500Y-81486213D01*
X139198524Y-81473739D01*
X139186681Y-81398961D01*
X139177738Y-81342500D01*
X151222769Y-81342500D01*
X152266988Y-81342500D01*
X152234075Y-81399507D01*
X152200000Y-81526674D01*
X152200000Y-81658326D01*
X152234075Y-81785493D01*
X152266988Y-81842500D01*
X151222769Y-81842500D01*
X151233242Y-81908626D01*
X151233242Y-81908629D01*
X151298904Y-82110717D01*
X151395379Y-82300057D01*
X151520272Y-82471959D01*
X151520276Y-82471964D01*
X151670535Y-82622223D01*
X151670540Y-82622227D01*
X151842442Y-82747120D01*
X152031782Y-82843595D01*
X152233870Y-82909257D01*
X152443754Y-82942500D01*
X152450000Y-82942500D01*
X152450000Y-82025512D01*
X152507007Y-82058425D01*
X152634174Y-82092500D01*
X152765826Y-82092500D01*
X152892993Y-82058425D01*
X152950000Y-82025512D01*
X152950000Y-82942500D01*
X152956246Y-82942500D01*
X153166127Y-82909257D01*
X153166130Y-82909257D01*
X153253999Y-82880707D01*
X153368217Y-82843595D01*
X153557557Y-82747120D01*
X153729459Y-82622227D01*
X153729464Y-82622223D01*
X153879723Y-82471964D01*
X153879727Y-82471959D01*
X154004620Y-82300057D01*
X154101095Y-82110717D01*
X154166757Y-81908629D01*
X154166757Y-81908626D01*
X154177231Y-81842500D01*
X153133012Y-81842500D01*
X153165925Y-81785493D01*
X153200000Y-81658326D01*
X153200000Y-81526674D01*
X153165925Y-81399507D01*
X153133012Y-81342500D01*
X154177231Y-81342500D01*
X154166757Y-81276373D01*
X154166757Y-81276370D01*
X154101095Y-81074282D01*
X154004620Y-80884942D01*
X153879727Y-80713040D01*
X153879723Y-80713035D01*
X153729464Y-80562776D01*
X153729459Y-80562772D01*
X153557557Y-80437879D01*
X153368217Y-80341404D01*
X153166129Y-80275742D01*
X152956246Y-80242500D01*
X152950000Y-80242500D01*
X152950000Y-81159488D01*
X152892993Y-81126575D01*
X152765826Y-81092500D01*
X152634174Y-81092500D01*
X152507007Y-81126575D01*
X152450000Y-81159488D01*
X152450000Y-80242500D01*
X152443754Y-80242500D01*
X152233872Y-80275742D01*
X152233869Y-80275742D01*
X152031782Y-80341404D01*
X151842442Y-80437879D01*
X151670540Y-80562772D01*
X151670535Y-80562776D01*
X151520276Y-80713035D01*
X151520272Y-80713040D01*
X151395379Y-80884942D01*
X151298904Y-81074282D01*
X151233242Y-81276370D01*
X151233242Y-81276373D01*
X151222769Y-81342500D01*
X139177738Y-81342500D01*
X139177148Y-81338775D01*
X139167246Y-81276257D01*
X139101557Y-81074088D01*
X139005051Y-80884684D01*
X139005049Y-80884681D01*
X139005048Y-80884679D01*
X138880109Y-80712713D01*
X138729786Y-80562390D01*
X138557820Y-80437451D01*
X138368414Y-80340944D01*
X138368413Y-80340943D01*
X138368412Y-80340943D01*
X138166243Y-80275254D01*
X138166241Y-80275253D01*
X138166240Y-80275253D01*
X138004957Y-80249708D01*
X137956287Y-80242000D01*
X137443713Y-80242000D01*
X137395042Y-80249708D01*
X137233760Y-80275253D01*
X137031585Y-80340944D01*
X136842179Y-80437451D01*
X136670213Y-80562390D01*
X136519890Y-80712713D01*
X136394951Y-80884679D01*
X136298444Y-81074085D01*
X136232753Y-81276260D01*
X136199500Y-81486213D01*
X136199500Y-81698786D01*
X136232753Y-81908739D01*
X136298444Y-82110914D01*
X136394951Y-82300320D01*
X136519890Y-82472286D01*
X136670213Y-82622609D01*
X136842179Y-82747548D01*
X136842181Y-82747549D01*
X136842184Y-82747551D01*
X137031588Y-82844057D01*
X137233757Y-82909746D01*
X137443713Y-82943000D01*
X137443714Y-82943000D01*
X137956286Y-82943000D01*
X137956287Y-82943000D01*
X138105366Y-82919388D01*
X138174660Y-82928343D01*
X138212445Y-82954180D01*
X141886584Y-86628319D01*
X141920069Y-86689642D01*
X141915085Y-86759334D01*
X141873213Y-86815267D01*
X141807749Y-86839684D01*
X141798903Y-86840000D01*
X125324000Y-86840000D01*
X125256961Y-86820315D01*
X125211206Y-86767511D01*
X125200000Y-86716000D01*
X125200000Y-81342500D01*
X126222769Y-81342500D01*
X127266988Y-81342500D01*
X127234075Y-81399507D01*
X127200000Y-81526674D01*
X127200000Y-81658326D01*
X127234075Y-81785493D01*
X127266988Y-81842500D01*
X126222769Y-81842500D01*
X126233242Y-81908626D01*
X126233242Y-81908629D01*
X126298904Y-82110717D01*
X126395379Y-82300057D01*
X126520272Y-82471959D01*
X126520276Y-82471964D01*
X126670535Y-82622223D01*
X126670540Y-82622227D01*
X126842442Y-82747120D01*
X127031782Y-82843595D01*
X127233870Y-82909257D01*
X127443754Y-82942500D01*
X127450000Y-82942500D01*
X127450000Y-82025512D01*
X127507007Y-82058425D01*
X127634174Y-82092500D01*
X127765826Y-82092500D01*
X127892993Y-82058425D01*
X127950000Y-82025512D01*
X127950000Y-82942500D01*
X127956246Y-82942500D01*
X128166127Y-82909257D01*
X128166130Y-82909257D01*
X128368217Y-82843595D01*
X128557557Y-82747120D01*
X128729459Y-82622227D01*
X128729464Y-82622223D01*
X128879723Y-82471964D01*
X128879727Y-82471959D01*
X129004620Y-82300057D01*
X129101095Y-82110717D01*
X129166757Y-81908629D01*
X129166757Y-81908626D01*
X129177231Y-81842500D01*
X128133012Y-81842500D01*
X128165925Y-81785493D01*
X128200000Y-81658326D01*
X128200000Y-81526674D01*
X128165925Y-81399507D01*
X128133012Y-81342500D01*
X129177231Y-81342500D01*
X129166757Y-81276373D01*
X129166757Y-81276370D01*
X129101095Y-81074282D01*
X129004620Y-80884942D01*
X128879727Y-80713040D01*
X128879723Y-80713035D01*
X128729464Y-80562776D01*
X128729459Y-80562772D01*
X128557557Y-80437879D01*
X128368217Y-80341404D01*
X128166129Y-80275742D01*
X127956246Y-80242500D01*
X127950000Y-80242500D01*
X127950000Y-81159488D01*
X127892993Y-81126575D01*
X127765826Y-81092500D01*
X127634174Y-81092500D01*
X127507007Y-81126575D01*
X127450000Y-81159488D01*
X127450000Y-80242500D01*
X127443754Y-80242500D01*
X127233872Y-80275742D01*
X127233869Y-80275742D01*
X127031782Y-80341404D01*
X126842442Y-80437879D01*
X126670540Y-80562772D01*
X126670535Y-80562776D01*
X126520276Y-80713035D01*
X126520272Y-80713040D01*
X126395379Y-80884942D01*
X126298904Y-81074282D01*
X126233242Y-81276370D01*
X126233242Y-81276373D01*
X126222769Y-81342500D01*
X125200000Y-81342500D01*
X125200000Y-79278519D01*
X125219685Y-79211480D01*
X125272489Y-79165725D01*
X125323394Y-79154520D01*
X167467737Y-78948938D01*
X167534868Y-78968295D01*
X167556019Y-78985255D01*
X167713784Y-79143020D01*
X167713786Y-79143021D01*
X167713790Y-79143024D01*
X167760061Y-79169738D01*
X167850716Y-79222077D01*
X168003443Y-79263001D01*
X168003445Y-79263001D01*
X168169154Y-79263001D01*
X168169170Y-79263000D01*
X198730270Y-79263000D01*
X198797309Y-79282685D01*
X198817951Y-79299319D01*
X198881344Y-79362712D01*
X199030665Y-79454814D01*
X199197202Y-79509999D01*
X199299990Y-79520500D01*
X199299995Y-79520500D01*
X201100005Y-79520500D01*
X201100010Y-79520500D01*
X201202798Y-79509999D01*
X201369335Y-79454814D01*
X201518656Y-79362712D01*
X201642712Y-79238656D01*
X201734814Y-79089335D01*
X201789999Y-78922798D01*
X201800500Y-78820010D01*
X201800500Y-78321153D01*
X203199500Y-78321153D01*
X203199500Y-78478846D01*
X203230261Y-78633489D01*
X203230264Y-78633501D01*
X203290602Y-78779172D01*
X203290609Y-78779185D01*
X203378210Y-78910288D01*
X203378213Y-78910292D01*
X203489707Y-79021786D01*
X203489711Y-79021789D01*
X203620814Y-79109390D01*
X203620827Y-79109397D01*
X203756817Y-79165725D01*
X203766503Y-79169737D01*
X203831147Y-79182595D01*
X203921849Y-79200638D01*
X203983760Y-79233023D01*
X203985339Y-79234574D01*
X206163181Y-81412416D01*
X206196666Y-81473739D01*
X206199500Y-81500097D01*
X206199500Y-83980397D01*
X206179815Y-84047436D01*
X206131800Y-84090879D01*
X206118389Y-84097712D01*
X205952786Y-84218028D01*
X205808028Y-84362786D01*
X205687715Y-84528386D01*
X205594781Y-84710776D01*
X205531522Y-84905465D01*
X205499500Y-85107648D01*
X205499500Y-85312351D01*
X205531522Y-85514534D01*
X205594781Y-85709223D01*
X205687715Y-85891613D01*
X205808028Y-86057213D01*
X205952786Y-86201971D01*
X206072183Y-86288716D01*
X206118390Y-86322287D01*
X206234607Y-86381503D01*
X206300776Y-86415218D01*
X206300778Y-86415218D01*
X206300781Y-86415220D01*
X206405137Y-86449127D01*
X206495465Y-86478477D01*
X206596557Y-86494488D01*
X206697648Y-86510500D01*
X206697649Y-86510500D01*
X206902351Y-86510500D01*
X206902352Y-86510500D01*
X207104534Y-86478477D01*
X207299219Y-86415220D01*
X207481610Y-86322287D01*
X207574590Y-86254732D01*
X207647213Y-86201971D01*
X207647215Y-86201968D01*
X207647219Y-86201966D01*
X207791966Y-86057219D01*
X207791968Y-86057215D01*
X207791971Y-86057213D01*
X207846835Y-85981698D01*
X207912287Y-85891610D01*
X208005220Y-85709219D01*
X208068477Y-85514534D01*
X208100500Y-85312352D01*
X208100500Y-85107648D01*
X208068477Y-84905466D01*
X208049564Y-84847259D01*
X208005218Y-84710776D01*
X207971503Y-84644607D01*
X207912287Y-84528390D01*
X207904556Y-84517749D01*
X207791971Y-84362786D01*
X207647213Y-84218028D01*
X207481610Y-84097712D01*
X207468200Y-84090879D01*
X207417406Y-84042903D01*
X207400500Y-83980397D01*
X207400500Y-81289059D01*
X207400501Y-81289046D01*
X207400501Y-81120945D01*
X207400501Y-81120943D01*
X207359577Y-80968215D01*
X207311350Y-80884684D01*
X207280520Y-80831284D01*
X207168716Y-80719480D01*
X207168715Y-80719479D01*
X207164385Y-80715149D01*
X207164374Y-80715139D01*
X204834574Y-78385339D01*
X204801089Y-78324016D01*
X204800638Y-78321849D01*
X204780734Y-78221789D01*
X204769737Y-78166503D01*
X204741869Y-78099223D01*
X204709397Y-78020827D01*
X204709390Y-78020814D01*
X204621789Y-77889711D01*
X204621786Y-77889707D01*
X204510292Y-77778213D01*
X204510288Y-77778210D01*
X204379185Y-77690609D01*
X204379172Y-77690602D01*
X204233501Y-77630264D01*
X204233489Y-77630261D01*
X204078845Y-77599500D01*
X204078842Y-77599500D01*
X203921158Y-77599500D01*
X203921155Y-77599500D01*
X203766510Y-77630261D01*
X203766498Y-77630264D01*
X203620827Y-77690602D01*
X203620814Y-77690609D01*
X203489711Y-77778210D01*
X203489707Y-77778213D01*
X203378213Y-77889707D01*
X203378210Y-77889711D01*
X203290609Y-78020814D01*
X203290602Y-78020827D01*
X203230264Y-78166498D01*
X203230261Y-78166510D01*
X203199500Y-78321153D01*
X201800500Y-78321153D01*
X201800500Y-77019990D01*
X201789999Y-76917202D01*
X201734814Y-76750665D01*
X201642712Y-76601344D01*
X201518656Y-76477288D01*
X201394163Y-76400500D01*
X201369337Y-76385187D01*
X201369332Y-76385185D01*
X201367863Y-76384698D01*
X201202798Y-76330001D01*
X201202796Y-76330000D01*
X201100017Y-76319500D01*
X201100010Y-76319500D01*
X199299990Y-76319500D01*
X199299982Y-76319500D01*
X199197203Y-76330000D01*
X199197202Y-76330001D01*
X199114669Y-76357349D01*
X199030667Y-76385185D01*
X199030662Y-76385187D01*
X198881342Y-76477289D01*
X198757289Y-76601342D01*
X198665187Y-76750662D01*
X198665185Y-76750667D01*
X198664483Y-76752786D01*
X198610001Y-76917202D01*
X198610001Y-76917203D01*
X198610000Y-76917203D01*
X198599500Y-77019982D01*
X198599500Y-77938000D01*
X198579815Y-78005039D01*
X198527011Y-78050794D01*
X198475500Y-78062000D01*
X190724000Y-78062000D01*
X190656961Y-78042315D01*
X190611206Y-77989511D01*
X190600000Y-77938000D01*
X190600000Y-76794500D01*
X190619685Y-76727461D01*
X190672489Y-76681706D01*
X190724000Y-76670500D01*
X192116603Y-76670500D01*
X192183642Y-76690185D01*
X192213711Y-76719720D01*
X192214578Y-76719010D01*
X192218444Y-76723721D01*
X192361281Y-76866558D01*
X192529237Y-76978782D01*
X192529241Y-76978784D01*
X192529244Y-76978786D01*
X192715873Y-77056091D01*
X192890248Y-77090776D01*
X192913992Y-77095499D01*
X192913996Y-77095500D01*
X192913997Y-77095500D01*
X193566004Y-77095500D01*
X193566005Y-77095499D01*
X193764127Y-77056091D01*
X193950756Y-76978786D01*
X194118718Y-76866558D01*
X194261558Y-76723718D01*
X194373786Y-76555756D01*
X194451091Y-76369127D01*
X194490500Y-76171003D01*
X194490500Y-75968997D01*
X194451091Y-75770873D01*
X194373786Y-75584244D01*
X194320094Y-75503889D01*
X194299217Y-75437214D01*
X194317701Y-75369834D01*
X194320078Y-75366134D01*
X194373786Y-75285756D01*
X194451091Y-75099127D01*
X194490500Y-74901003D01*
X194490500Y-74698997D01*
X194451091Y-74500873D01*
X194417451Y-74419661D01*
X194409983Y-74350194D01*
X194429592Y-74305144D01*
X194429101Y-74304876D01*
X194432102Y-74299379D01*
X194432748Y-74297896D01*
X194433352Y-74297089D01*
X194483597Y-74162376D01*
X194483598Y-74162372D01*
X194489999Y-74102844D01*
X194490000Y-74102827D01*
X194490000Y-73780000D01*
X193605866Y-73780000D01*
X193581674Y-73777617D01*
X193566004Y-73774500D01*
X193566003Y-73774500D01*
X193525830Y-73774500D01*
X193540075Y-73760255D01*
X193589444Y-73674745D01*
X193615000Y-73579370D01*
X193615000Y-73480630D01*
X193589444Y-73385255D01*
X193540075Y-73299745D01*
X193520330Y-73280000D01*
X194490000Y-73280000D01*
X194490000Y-72957172D01*
X194489999Y-72957155D01*
X194483598Y-72897627D01*
X194483596Y-72897620D01*
X194433354Y-72762913D01*
X194433350Y-72762906D01*
X194347190Y-72647812D01*
X194347187Y-72647809D01*
X194232093Y-72561649D01*
X194232086Y-72561645D01*
X194097379Y-72511403D01*
X194097372Y-72511401D01*
X194037844Y-72505000D01*
X193490000Y-72505000D01*
X193490000Y-73249670D01*
X193470255Y-73229925D01*
X193384745Y-73180556D01*
X193289370Y-73155000D01*
X193190630Y-73155000D01*
X193095255Y-73180556D01*
X193009745Y-73229925D01*
X192990000Y-73249670D01*
X192990000Y-72505000D01*
X192442155Y-72505000D01*
X192382627Y-72511401D01*
X192382620Y-72511403D01*
X192247913Y-72561645D01*
X192247906Y-72561649D01*
X192132812Y-72647809D01*
X192132809Y-72647812D01*
X192046649Y-72762906D01*
X192046645Y-72762913D01*
X191996403Y-72897620D01*
X191996401Y-72897627D01*
X191990000Y-72957155D01*
X191990000Y-73280000D01*
X192959670Y-73280000D01*
X192939925Y-73299745D01*
X192890556Y-73385255D01*
X192865000Y-73480630D01*
X192865000Y-73579370D01*
X192890556Y-73674745D01*
X192939925Y-73760255D01*
X192954170Y-73774500D01*
X192913997Y-73774500D01*
X192913996Y-73774500D01*
X192898326Y-73777617D01*
X192874134Y-73780000D01*
X191990000Y-73780000D01*
X191990000Y-74102844D01*
X191996401Y-74162372D01*
X191996403Y-74162379D01*
X192046645Y-74297086D01*
X192047251Y-74297895D01*
X192047604Y-74298841D01*
X192050897Y-74304872D01*
X192050030Y-74305345D01*
X192071670Y-74363359D01*
X192062547Y-74419661D01*
X192028910Y-74500868D01*
X192028907Y-74500880D01*
X191989500Y-74698992D01*
X191989500Y-74901007D01*
X192028907Y-75099119D01*
X192028909Y-75099127D01*
X192106214Y-75285757D01*
X192106900Y-75287040D01*
X192107056Y-75287789D01*
X192108545Y-75291384D01*
X192107863Y-75291666D01*
X192121147Y-75355442D01*
X192096151Y-75420687D01*
X192039848Y-75462061D01*
X191997546Y-75469500D01*
X190724000Y-75469500D01*
X190656961Y-75449815D01*
X190611206Y-75397011D01*
X190600000Y-75345500D01*
X190600000Y-49964000D01*
X190619685Y-49896961D01*
X190672489Y-49851206D01*
X190724000Y-49840000D01*
X192840500Y-49840000D01*
X192907539Y-49859685D01*
G37*
%TD.AperFunction*%
%TA.AperFunction,Conductor*%
G36*
X221129268Y-74375716D02*
G01*
X221129268Y-74375715D01*
X221144094Y-74355310D01*
X221227986Y-74190661D01*
X221285091Y-74014911D01*
X221287272Y-74001143D01*
X221317199Y-73938007D01*
X221376509Y-73901073D01*
X221446372Y-73902068D01*
X221504606Y-73940676D01*
X221532219Y-74001133D01*
X221532220Y-74001140D01*
X221534420Y-74015029D01*
X221534420Y-74015031D01*
X221534421Y-74015033D01*
X221591546Y-74190849D01*
X221591547Y-74190852D01*
X221675479Y-74355575D01*
X221784135Y-74505129D01*
X221784139Y-74505134D01*
X221914867Y-74635862D01*
X221978318Y-74681960D01*
X222028385Y-74718336D01*
X222071051Y-74773665D01*
X222079500Y-74818654D01*
X222079500Y-85619903D01*
X222059815Y-85686942D01*
X222043181Y-85707584D01*
X220947084Y-86803681D01*
X220885761Y-86837166D01*
X220859403Y-86840000D01*
X215784500Y-86840000D01*
X215717461Y-86820315D01*
X215671706Y-86767511D01*
X215660500Y-86716000D01*
X215660500Y-85117682D01*
X218100000Y-85117682D01*
X218100000Y-85322317D01*
X218132009Y-85524417D01*
X218195244Y-85719031D01*
X218288141Y-85901350D01*
X218288147Y-85901359D01*
X218320523Y-85945921D01*
X218320524Y-85945922D01*
X219000000Y-85266446D01*
X219000000Y-85272661D01*
X219027259Y-85374394D01*
X219079920Y-85465606D01*
X219154394Y-85540080D01*
X219245606Y-85592741D01*
X219347339Y-85620000D01*
X219353553Y-85620000D01*
X218674076Y-86299474D01*
X218718650Y-86331859D01*
X218900968Y-86424755D01*
X219095582Y-86487990D01*
X219297683Y-86520000D01*
X219502317Y-86520000D01*
X219704417Y-86487990D01*
X219899031Y-86424755D01*
X220081349Y-86331859D01*
X220125921Y-86299474D01*
X219446447Y-85620000D01*
X219452661Y-85620000D01*
X219554394Y-85592741D01*
X219645606Y-85540080D01*
X219720080Y-85465606D01*
X219772741Y-85374394D01*
X219800000Y-85272661D01*
X219800000Y-85266447D01*
X220479474Y-85945921D01*
X220511859Y-85901349D01*
X220604755Y-85719031D01*
X220667990Y-85524417D01*
X220700000Y-85322317D01*
X220700000Y-85117682D01*
X220667990Y-84915582D01*
X220604755Y-84720968D01*
X220511859Y-84538650D01*
X220479474Y-84494077D01*
X220479474Y-84494076D01*
X219800000Y-85173551D01*
X219800000Y-85167339D01*
X219772741Y-85065606D01*
X219720080Y-84974394D01*
X219645606Y-84899920D01*
X219554394Y-84847259D01*
X219452661Y-84820000D01*
X219446446Y-84820000D01*
X220125922Y-84140524D01*
X220125921Y-84140523D01*
X220081359Y-84108147D01*
X220081350Y-84108141D01*
X219899031Y-84015244D01*
X219704417Y-83952009D01*
X219502317Y-83920000D01*
X219297683Y-83920000D01*
X219095582Y-83952009D01*
X218900968Y-84015244D01*
X218718644Y-84108143D01*
X218674077Y-84140523D01*
X218674077Y-84140524D01*
X219353554Y-84820000D01*
X219347339Y-84820000D01*
X219245606Y-84847259D01*
X219154394Y-84899920D01*
X219079920Y-84974394D01*
X219027259Y-85065606D01*
X219000000Y-85167339D01*
X219000000Y-85173553D01*
X218320524Y-84494077D01*
X218320523Y-84494077D01*
X218288143Y-84538644D01*
X218195244Y-84720968D01*
X218132009Y-84915582D01*
X218100000Y-85117682D01*
X215660500Y-85117682D01*
X215660500Y-77521153D01*
X216399500Y-77521153D01*
X216399500Y-77678846D01*
X216430261Y-77833489D01*
X216430264Y-77833501D01*
X216490602Y-77979172D01*
X216490609Y-77979185D01*
X216578210Y-78110288D01*
X216578213Y-78110292D01*
X216689707Y-78221786D01*
X216689711Y-78221789D01*
X216820814Y-78309390D01*
X216820827Y-78309397D01*
X216921907Y-78351265D01*
X216966503Y-78369737D01*
X217121153Y-78400499D01*
X217121156Y-78400500D01*
X217121158Y-78400500D01*
X217278844Y-78400500D01*
X217278845Y-78400499D01*
X217433497Y-78369737D01*
X217579179Y-78309394D01*
X217620761Y-78281610D01*
X217710875Y-78221398D01*
X217777553Y-78200520D01*
X217779766Y-78200500D01*
X218170398Y-78200500D01*
X218237437Y-78220185D01*
X218280883Y-78268205D01*
X218287715Y-78281614D01*
X218408028Y-78447213D01*
X218552786Y-78591971D01*
X218704622Y-78702284D01*
X218718390Y-78712287D01*
X218787427Y-78747463D01*
X218900776Y-78805218D01*
X218900778Y-78805218D01*
X218900781Y-78805220D01*
X219005137Y-78839127D01*
X219095465Y-78868477D01*
X219196557Y-78884488D01*
X219297648Y-78900500D01*
X219297649Y-78900500D01*
X219502351Y-78900500D01*
X219502352Y-78900500D01*
X219704534Y-78868477D01*
X219899219Y-78805220D01*
X220081610Y-78712287D01*
X220229512Y-78604831D01*
X220247213Y-78591971D01*
X220247215Y-78591968D01*
X220247219Y-78591966D01*
X220391966Y-78447219D01*
X220391968Y-78447215D01*
X220391971Y-78447213D01*
X220448259Y-78369738D01*
X220512287Y-78281610D01*
X220605220Y-78099219D01*
X220668477Y-77904534D01*
X220700500Y-77702352D01*
X220700500Y-77497648D01*
X220691571Y-77441271D01*
X220668477Y-77295465D01*
X220639127Y-77205137D01*
X220605220Y-77100781D01*
X220605218Y-77100778D01*
X220605218Y-77100776D01*
X220564051Y-77019982D01*
X220512287Y-76918390D01*
X220492098Y-76890602D01*
X220391971Y-76752786D01*
X220247213Y-76608028D01*
X220081613Y-76487715D01*
X220081612Y-76487714D01*
X220081610Y-76487713D01*
X219978126Y-76434985D01*
X219899223Y-76394781D01*
X219704534Y-76331522D01*
X219529995Y-76303878D01*
X219502352Y-76299500D01*
X219297648Y-76299500D01*
X219273329Y-76303351D01*
X219095465Y-76331522D01*
X218900776Y-76394781D01*
X218718386Y-76487715D01*
X218552786Y-76608028D01*
X218408028Y-76752786D01*
X218287715Y-76918385D01*
X218280883Y-76931795D01*
X218232909Y-76982591D01*
X218170398Y-76999500D01*
X217779766Y-76999500D01*
X217712727Y-76979815D01*
X217710875Y-76978602D01*
X217579185Y-76890609D01*
X217579172Y-76890602D01*
X217433501Y-76830264D01*
X217433489Y-76830261D01*
X217278845Y-76799500D01*
X217278842Y-76799500D01*
X217121158Y-76799500D01*
X217121155Y-76799500D01*
X216966510Y-76830261D01*
X216966498Y-76830264D01*
X216820827Y-76890602D01*
X216820814Y-76890609D01*
X216689711Y-76978210D01*
X216689707Y-76978213D01*
X216578213Y-77089707D01*
X216578210Y-77089711D01*
X216490609Y-77220814D01*
X216490602Y-77220827D01*
X216430264Y-77366498D01*
X216430261Y-77366510D01*
X216399500Y-77521153D01*
X215660500Y-77521153D01*
X215660500Y-76291941D01*
X215680185Y-76224902D01*
X215732989Y-76179147D01*
X215802147Y-76169203D01*
X215865703Y-76198228D01*
X215872181Y-76204260D01*
X215889707Y-76221786D01*
X215889711Y-76221789D01*
X216020814Y-76309390D01*
X216020827Y-76309397D01*
X216165011Y-76369119D01*
X216166503Y-76369737D01*
X216292402Y-76394780D01*
X216321153Y-76400499D01*
X216321156Y-76400500D01*
X216321158Y-76400500D01*
X216478844Y-76400500D01*
X216478845Y-76400499D01*
X216633497Y-76369737D01*
X216779179Y-76309394D01*
X216910289Y-76221789D01*
X217021789Y-76110289D01*
X217109394Y-75979179D01*
X217113612Y-75968997D01*
X217169735Y-75833501D01*
X217169737Y-75833497D01*
X217200500Y-75678842D01*
X217200500Y-75521158D01*
X217200500Y-75521155D01*
X217200499Y-75521153D01*
X217197065Y-75503891D01*
X217169737Y-75366503D01*
X217169574Y-75366109D01*
X217109395Y-75220822D01*
X217106524Y-75215451D01*
X217107571Y-75214891D01*
X217099974Y-75190621D01*
X217088880Y-75160877D01*
X217089610Y-75157516D01*
X217088584Y-75154236D01*
X217096983Y-75123625D01*
X217103732Y-75092604D01*
X217106516Y-75088884D01*
X217107073Y-75086857D01*
X217124879Y-75064354D01*
X217261894Y-74927339D01*
X217323215Y-74893856D01*
X217368971Y-74892549D01*
X217507560Y-74914500D01*
X217507565Y-74914500D01*
X217692440Y-74914500D01*
X217875030Y-74885580D01*
X218050849Y-74828453D01*
X218050852Y-74828452D01*
X218051767Y-74827986D01*
X218215572Y-74744523D01*
X218365136Y-74635859D01*
X218495859Y-74505136D01*
X218604523Y-74355572D01*
X218688452Y-74190852D01*
X218745580Y-74015029D01*
X218747780Y-74001137D01*
X218777708Y-73938005D01*
X218837019Y-73901073D01*
X218906882Y-73902069D01*
X218965115Y-73940678D01*
X218992726Y-74001136D01*
X218994907Y-74014910D01*
X219052014Y-74190664D01*
X219135900Y-74355303D01*
X219135903Y-74355307D01*
X219150730Y-74375715D01*
X219150730Y-74375716D01*
X219722356Y-73804090D01*
X219748622Y-73902114D01*
X219803916Y-73997886D01*
X219882114Y-74076084D01*
X219977886Y-74131378D01*
X220075909Y-74157643D01*
X219504283Y-74729268D01*
X219504283Y-74729269D01*
X219524686Y-74744092D01*
X219689338Y-74827986D01*
X219865091Y-74885092D01*
X220047605Y-74914000D01*
X220232395Y-74914000D01*
X220414908Y-74885092D01*
X220590661Y-74827986D01*
X220755310Y-74744094D01*
X220775715Y-74729268D01*
X220775716Y-74729268D01*
X220204090Y-74157642D01*
X220302114Y-74131378D01*
X220397886Y-74076084D01*
X220476084Y-73997886D01*
X220531378Y-73902114D01*
X220557642Y-73804090D01*
X221129268Y-74375716D01*
G37*
%TD.AperFunction*%
%TA.AperFunction,Conductor*%
G36*
X205542539Y-49859685D02*
G01*
X205588294Y-49912489D01*
X205599500Y-49964000D01*
X205599500Y-54960234D01*
X205579815Y-55027273D01*
X205578602Y-55029125D01*
X205490609Y-55160814D01*
X205490602Y-55160827D01*
X205430264Y-55306498D01*
X205430261Y-55306510D01*
X205399500Y-55461153D01*
X205399500Y-55618846D01*
X205430261Y-55773489D01*
X205430264Y-55773501D01*
X205490602Y-55919172D01*
X205490609Y-55919185D01*
X205578210Y-56050288D01*
X205578213Y-56050292D01*
X205689707Y-56161786D01*
X205689711Y-56161789D01*
X205820814Y-56249390D01*
X205820827Y-56249397D01*
X205964033Y-56308714D01*
X205966503Y-56309737D01*
X206121153Y-56340499D01*
X206121156Y-56340500D01*
X206121158Y-56340500D01*
X206278844Y-56340500D01*
X206278845Y-56340499D01*
X206433497Y-56309737D01*
X206579179Y-56249394D01*
X206631110Y-56214694D01*
X206697785Y-56193816D01*
X206765165Y-56212300D01*
X206768863Y-56214676D01*
X206820821Y-56249394D01*
X206820823Y-56249395D01*
X206820825Y-56249396D01*
X206964033Y-56308714D01*
X206966503Y-56309737D01*
X207121153Y-56340499D01*
X207121156Y-56340500D01*
X207121158Y-56340500D01*
X207278844Y-56340500D01*
X207278845Y-56340499D01*
X207433497Y-56309737D01*
X207579179Y-56249394D01*
X207710289Y-56161789D01*
X207821789Y-56050289D01*
X207909394Y-55919179D01*
X207969737Y-55773497D01*
X208000500Y-55618842D01*
X208000500Y-55461158D01*
X208000500Y-55461155D01*
X208000499Y-55461153D01*
X207969738Y-55306510D01*
X207969737Y-55306503D01*
X207969735Y-55306498D01*
X207909397Y-55160827D01*
X207909390Y-55160814D01*
X207821398Y-55029125D01*
X207800520Y-54962447D01*
X207800500Y-54960234D01*
X207800500Y-49964000D01*
X207820185Y-49896961D01*
X207872989Y-49851206D01*
X207924500Y-49840000D01*
X216259481Y-49840000D01*
X216326520Y-49859685D01*
X216369966Y-49907706D01*
X216394620Y-49956094D01*
X216427296Y-50001068D01*
X216503379Y-50105787D01*
X216634213Y-50236621D01*
X216638421Y-50239678D01*
X216638432Y-50239686D01*
X216681094Y-50295019D01*
X216687069Y-50364633D01*
X216654459Y-50426426D01*
X216638432Y-50440314D01*
X216634210Y-50443381D01*
X216503381Y-50574210D01*
X216503381Y-50574211D01*
X216503379Y-50574213D01*
X216456672Y-50638499D01*
X216394622Y-50723903D01*
X216310620Y-50888764D01*
X216310619Y-50888767D01*
X216253445Y-51064734D01*
X216224500Y-51247486D01*
X216224500Y-51432513D01*
X216253445Y-51615265D01*
X216310619Y-51791232D01*
X216310620Y-51791235D01*
X216346928Y-51862492D01*
X216394622Y-51956096D01*
X216503379Y-52105787D01*
X216634213Y-52236621D01*
X216783904Y-52345378D01*
X216864763Y-52386577D01*
X216948764Y-52429379D01*
X216948767Y-52429380D01*
X217036750Y-52457967D01*
X217124736Y-52486555D01*
X217307486Y-52515500D01*
X217307487Y-52515500D01*
X217492513Y-52515500D01*
X217492514Y-52515500D01*
X217675264Y-52486555D01*
X217851235Y-52429379D01*
X218016096Y-52345378D01*
X218165787Y-52236621D01*
X218296621Y-52105787D01*
X218405378Y-51956096D01*
X218489379Y-51791235D01*
X218546555Y-51615264D01*
X218575500Y-51432514D01*
X218575500Y-51247486D01*
X218546555Y-51064736D01*
X218489379Y-50888765D01*
X218489379Y-50888764D01*
X218446577Y-50804763D01*
X218405378Y-50723904D01*
X218296621Y-50574213D01*
X218165787Y-50443379D01*
X218161576Y-50440319D01*
X218118909Y-50384994D01*
X218112926Y-50315381D01*
X218145529Y-50253585D01*
X218161570Y-50239684D01*
X218165787Y-50236621D01*
X218296621Y-50105787D01*
X218405378Y-49956096D01*
X218430034Y-49907706D01*
X218478008Y-49856909D01*
X218540519Y-49840000D01*
X224916000Y-49840000D01*
X224983039Y-49859685D01*
X225028794Y-49912489D01*
X225040000Y-49964000D01*
X225040000Y-86716000D01*
X225020315Y-86783039D01*
X224967511Y-86828794D01*
X224916000Y-86840000D01*
X222908596Y-86840000D01*
X222841557Y-86820315D01*
X222795802Y-86767511D01*
X222785858Y-86698353D01*
X222814883Y-86634797D01*
X222820915Y-86628319D01*
X222929234Y-86520000D01*
X223048713Y-86400521D01*
X223048716Y-86400520D01*
X223160520Y-86288716D01*
X223210639Y-86201904D01*
X223239577Y-86151785D01*
X223280501Y-85999057D01*
X223280501Y-85840943D01*
X223280501Y-85833348D01*
X223280500Y-85833330D01*
X223280500Y-74818654D01*
X223300185Y-74751615D01*
X223331614Y-74718337D01*
X223445136Y-74635859D01*
X223575859Y-74505136D01*
X223684523Y-74355572D01*
X223768452Y-74190852D01*
X223793585Y-74113500D01*
X223825580Y-74015030D01*
X223854500Y-73832440D01*
X223854500Y-73647559D01*
X223825580Y-73464969D01*
X223768453Y-73289150D01*
X223768452Y-73289147D01*
X223738276Y-73229925D01*
X223684523Y-73124428D01*
X223669887Y-73104283D01*
X223575864Y-72974870D01*
X223575860Y-72974865D01*
X223445134Y-72844139D01*
X223445129Y-72844135D01*
X223295575Y-72735479D01*
X223295574Y-72735478D01*
X223295572Y-72735477D01*
X223227118Y-72700598D01*
X223130852Y-72651547D01*
X223130849Y-72651546D01*
X222955030Y-72594419D01*
X222772440Y-72565500D01*
X222772435Y-72565500D01*
X222587565Y-72565500D01*
X222587560Y-72565500D01*
X222404969Y-72594419D01*
X222229150Y-72651546D01*
X222229147Y-72651547D01*
X222064424Y-72735479D01*
X221914870Y-72844135D01*
X221914865Y-72844139D01*
X221784139Y-72974865D01*
X221784135Y-72974870D01*
X221675479Y-73124424D01*
X221591547Y-73289147D01*
X221591546Y-73289150D01*
X221534419Y-73464971D01*
X221532218Y-73478867D01*
X221502286Y-73542000D01*
X221442973Y-73578928D01*
X221373110Y-73577927D01*
X221314879Y-73539315D01*
X221287272Y-73478857D01*
X221285091Y-73465087D01*
X221227986Y-73289338D01*
X221144092Y-73124686D01*
X221129269Y-73104283D01*
X220557642Y-73675909D01*
X220531378Y-73577886D01*
X220476084Y-73482114D01*
X220397886Y-73403916D01*
X220302114Y-73348622D01*
X220204090Y-73322356D01*
X220775716Y-72750730D01*
X220755307Y-72735903D01*
X220755303Y-72735900D01*
X220590664Y-72652014D01*
X220414908Y-72594907D01*
X220232395Y-72566000D01*
X220047605Y-72566000D01*
X219865091Y-72594907D01*
X219689338Y-72652013D01*
X219524692Y-72735903D01*
X219524688Y-72735906D01*
X219504283Y-72750729D01*
X219504283Y-72750730D01*
X220075910Y-73322356D01*
X219977886Y-73348622D01*
X219882114Y-73403916D01*
X219803916Y-73482114D01*
X219748622Y-73577886D01*
X219722356Y-73675909D01*
X219150730Y-73104283D01*
X219150729Y-73104283D01*
X219135906Y-73124688D01*
X219135903Y-73124692D01*
X219052013Y-73289338D01*
X218994908Y-73465088D01*
X218992726Y-73478864D01*
X218962795Y-73541998D01*
X218903483Y-73578928D01*
X218833620Y-73577928D01*
X218775388Y-73539317D01*
X218747780Y-73478860D01*
X218745580Y-73464970D01*
X218688453Y-73289150D01*
X218688452Y-73289147D01*
X218658276Y-73229925D01*
X218604523Y-73124428D01*
X218589887Y-73104283D01*
X218495864Y-72974870D01*
X218495860Y-72974865D01*
X218411399Y-72890404D01*
X218365136Y-72844141D01*
X218249169Y-72759887D01*
X218246772Y-72757958D01*
X218228493Y-72731677D01*
X218208949Y-72706332D01*
X218208240Y-72702558D01*
X218206877Y-72700598D01*
X218206636Y-72694020D01*
X218200500Y-72661344D01*
X218200500Y-72498390D01*
X218200500Y-72498388D01*
X218159577Y-72345661D01*
X218159573Y-72345654D01*
X218080524Y-72208735D01*
X218080521Y-72208731D01*
X218080520Y-72208729D01*
X217968716Y-72096925D01*
X217968715Y-72096924D01*
X217964385Y-72092594D01*
X217964374Y-72092584D01*
X205537575Y-59665785D01*
X205504090Y-59604462D01*
X205509074Y-59534770D01*
X205550946Y-59478837D01*
X205552248Y-59477876D01*
X205665136Y-59395859D01*
X205795859Y-59265136D01*
X205904523Y-59115572D01*
X205988452Y-58950852D01*
X206045580Y-58775029D01*
X206047527Y-58762737D01*
X206077456Y-58699602D01*
X206136768Y-58662671D01*
X206206630Y-58663669D01*
X206264863Y-58702279D01*
X206292473Y-58762737D01*
X206294420Y-58775030D01*
X206351546Y-58950849D01*
X206351547Y-58950852D01*
X206435479Y-59115575D01*
X206544135Y-59265129D01*
X206544139Y-59265134D01*
X206674865Y-59395860D01*
X206674870Y-59395864D01*
X206787626Y-59477785D01*
X206824428Y-59504523D01*
X206916681Y-59551528D01*
X206989147Y-59588452D01*
X206989150Y-59588453D01*
X207164969Y-59645580D01*
X207347560Y-59674500D01*
X207347565Y-59674500D01*
X207532440Y-59674500D01*
X207715030Y-59645580D01*
X207890849Y-59588453D01*
X207890852Y-59588452D01*
X208055572Y-59504523D01*
X208205136Y-59395859D01*
X208335859Y-59265136D01*
X208444523Y-59115572D01*
X208528452Y-58950852D01*
X208585580Y-58775029D01*
X208587527Y-58762737D01*
X208617456Y-58699602D01*
X208676768Y-58662671D01*
X208746630Y-58663669D01*
X208804863Y-58702279D01*
X208832473Y-58762737D01*
X208834420Y-58775030D01*
X208891546Y-58950849D01*
X208891547Y-58950852D01*
X208975479Y-59115575D01*
X209084135Y-59265129D01*
X209084139Y-59265134D01*
X209214865Y-59395860D01*
X209214870Y-59395864D01*
X209327626Y-59477785D01*
X209364428Y-59504523D01*
X209456681Y-59551528D01*
X209529147Y-59588452D01*
X209529150Y-59588453D01*
X209704969Y-59645580D01*
X209887560Y-59674500D01*
X209887565Y-59674500D01*
X210072440Y-59674500D01*
X210255030Y-59645580D01*
X210430849Y-59588453D01*
X210430852Y-59588452D01*
X210595572Y-59504523D01*
X210745136Y-59395859D01*
X210875859Y-59265136D01*
X210984523Y-59115572D01*
X211068452Y-58950852D01*
X211125580Y-58775029D01*
X211127527Y-58762737D01*
X211157456Y-58699602D01*
X211216768Y-58662671D01*
X211286630Y-58663669D01*
X211344863Y-58702279D01*
X211372473Y-58762737D01*
X211374420Y-58775030D01*
X211431546Y-58950849D01*
X211431547Y-58950852D01*
X211515479Y-59115575D01*
X211624135Y-59265129D01*
X211624139Y-59265134D01*
X211754865Y-59395860D01*
X211754870Y-59395864D01*
X211867626Y-59477785D01*
X211904428Y-59504523D01*
X211996681Y-59551528D01*
X212069147Y-59588452D01*
X212069150Y-59588453D01*
X212244969Y-59645580D01*
X212427560Y-59674500D01*
X212427565Y-59674500D01*
X212612440Y-59674500D01*
X212795030Y-59645580D01*
X212970849Y-59588453D01*
X212970852Y-59588452D01*
X213135572Y-59504523D01*
X213285136Y-59395859D01*
X213415859Y-59265136D01*
X213524523Y-59115572D01*
X213608452Y-58950852D01*
X213665580Y-58775029D01*
X213667527Y-58762737D01*
X213697456Y-58699602D01*
X213756768Y-58662671D01*
X213826630Y-58663669D01*
X213884863Y-58702279D01*
X213912473Y-58762737D01*
X213914420Y-58775030D01*
X213971546Y-58950849D01*
X213971547Y-58950852D01*
X214055479Y-59115575D01*
X214164135Y-59265129D01*
X214164139Y-59265134D01*
X214294865Y-59395860D01*
X214294870Y-59395864D01*
X214407626Y-59477785D01*
X214444428Y-59504523D01*
X214536681Y-59551528D01*
X214609147Y-59588452D01*
X214609150Y-59588453D01*
X214784969Y-59645580D01*
X214967560Y-59674500D01*
X214967565Y-59674500D01*
X215152440Y-59674500D01*
X215335030Y-59645580D01*
X215510849Y-59588453D01*
X215510852Y-59588452D01*
X215675572Y-59504523D01*
X215825136Y-59395859D01*
X215955859Y-59265136D01*
X216064523Y-59115572D01*
X216148452Y-58950852D01*
X216205580Y-58775029D01*
X216207527Y-58762737D01*
X216237456Y-58699602D01*
X216296768Y-58662671D01*
X216366630Y-58663669D01*
X216424863Y-58702279D01*
X216452473Y-58762737D01*
X216454420Y-58775030D01*
X216511546Y-58950849D01*
X216511547Y-58950852D01*
X216595479Y-59115575D01*
X216704135Y-59265129D01*
X216704139Y-59265134D01*
X216834865Y-59395860D01*
X216834870Y-59395864D01*
X216947626Y-59477785D01*
X216984428Y-59504523D01*
X217076681Y-59551528D01*
X217149147Y-59588452D01*
X217149150Y-59588453D01*
X217324969Y-59645580D01*
X217507560Y-59674500D01*
X217507565Y-59674500D01*
X217692440Y-59674500D01*
X217875030Y-59645580D01*
X218050849Y-59588453D01*
X218050852Y-59588452D01*
X218215572Y-59504523D01*
X218365136Y-59395859D01*
X218495859Y-59265136D01*
X218604523Y-59115572D01*
X218688452Y-58950852D01*
X218745580Y-58775029D01*
X218747527Y-58762737D01*
X218777456Y-58699602D01*
X218836768Y-58662671D01*
X218906630Y-58663669D01*
X218964863Y-58702279D01*
X218992473Y-58762737D01*
X218994420Y-58775030D01*
X219051546Y-58950849D01*
X219051547Y-58950852D01*
X219135479Y-59115575D01*
X219244135Y-59265129D01*
X219244139Y-59265134D01*
X219374865Y-59395860D01*
X219374870Y-59395864D01*
X219487626Y-59477785D01*
X219524428Y-59504523D01*
X219616681Y-59551528D01*
X219689147Y-59588452D01*
X219689150Y-59588453D01*
X219864969Y-59645580D01*
X220047560Y-59674500D01*
X220047565Y-59674500D01*
X220232440Y-59674500D01*
X220415030Y-59645580D01*
X220590849Y-59588453D01*
X220590852Y-59588452D01*
X220755572Y-59504523D01*
X220905136Y-59395859D01*
X221035859Y-59265136D01*
X221144523Y-59115572D01*
X221228452Y-58950852D01*
X221285580Y-58775029D01*
X221287527Y-58762737D01*
X221317456Y-58699602D01*
X221376768Y-58662671D01*
X221446630Y-58663669D01*
X221504863Y-58702279D01*
X221532473Y-58762737D01*
X221534420Y-58775030D01*
X221591546Y-58950849D01*
X221591547Y-58950852D01*
X221675479Y-59115575D01*
X221784135Y-59265129D01*
X221784139Y-59265134D01*
X221914865Y-59395860D01*
X221914870Y-59395864D01*
X222027626Y-59477785D01*
X222064428Y-59504523D01*
X222156681Y-59551528D01*
X222229147Y-59588452D01*
X222229150Y-59588453D01*
X222404969Y-59645580D01*
X222587560Y-59674500D01*
X222587565Y-59674500D01*
X222772440Y-59674500D01*
X222955030Y-59645580D01*
X223130849Y-59588453D01*
X223130852Y-59588452D01*
X223295572Y-59504523D01*
X223445136Y-59395859D01*
X223575859Y-59265136D01*
X223684523Y-59115572D01*
X223768452Y-58950852D01*
X223825580Y-58775029D01*
X223827527Y-58762737D01*
X223854500Y-58592440D01*
X223854500Y-58407559D01*
X223825580Y-58224969D01*
X223768453Y-58049150D01*
X223768452Y-58049147D01*
X223731528Y-57976681D01*
X223684523Y-57884428D01*
X223647514Y-57833489D01*
X223575864Y-57734870D01*
X223575860Y-57734865D01*
X223445134Y-57604139D01*
X223445129Y-57604135D01*
X223295575Y-57495479D01*
X223295574Y-57495478D01*
X223295572Y-57495477D01*
X223242799Y-57468588D01*
X223130852Y-57411547D01*
X223130849Y-57411546D01*
X222955030Y-57354419D01*
X222772440Y-57325500D01*
X222772435Y-57325500D01*
X222587565Y-57325500D01*
X222587560Y-57325500D01*
X222404969Y-57354419D01*
X222229150Y-57411546D01*
X222229147Y-57411547D01*
X222064424Y-57495479D01*
X221914870Y-57604135D01*
X221914865Y-57604139D01*
X221784139Y-57734865D01*
X221784135Y-57734870D01*
X221675479Y-57884424D01*
X221591547Y-58049147D01*
X221591546Y-58049150D01*
X221534420Y-58224969D01*
X221532473Y-58237263D01*
X221502543Y-58300397D01*
X221443231Y-58337328D01*
X221373369Y-58336330D01*
X221315136Y-58297719D01*
X221287527Y-58237263D01*
X221287192Y-58235150D01*
X221285580Y-58224971D01*
X221248318Y-58110289D01*
X221228453Y-58049150D01*
X221228452Y-58049147D01*
X221191528Y-57976681D01*
X221144523Y-57884428D01*
X221107514Y-57833489D01*
X221035864Y-57734870D01*
X221035860Y-57734865D01*
X220905134Y-57604139D01*
X220905129Y-57604135D01*
X220755575Y-57495479D01*
X220755574Y-57495478D01*
X220755572Y-57495477D01*
X220702799Y-57468588D01*
X220590852Y-57411547D01*
X220590849Y-57411546D01*
X220415030Y-57354419D01*
X220232440Y-57325500D01*
X220232435Y-57325500D01*
X220047565Y-57325500D01*
X220047560Y-57325500D01*
X219864969Y-57354419D01*
X219689150Y-57411546D01*
X219689147Y-57411547D01*
X219524424Y-57495479D01*
X219374870Y-57604135D01*
X219374865Y-57604139D01*
X219244139Y-57734865D01*
X219244135Y-57734870D01*
X219135479Y-57884424D01*
X219051547Y-58049147D01*
X219051546Y-58049150D01*
X218994420Y-58224969D01*
X218992473Y-58237263D01*
X218962543Y-58300397D01*
X218903231Y-58337328D01*
X218833369Y-58336330D01*
X218775136Y-58297719D01*
X218747527Y-58237263D01*
X218747192Y-58235150D01*
X218745580Y-58224971D01*
X218708318Y-58110289D01*
X218688453Y-58049150D01*
X218688452Y-58049147D01*
X218651528Y-57976681D01*
X218604523Y-57884428D01*
X218567514Y-57833489D01*
X218495864Y-57734870D01*
X218495860Y-57734865D01*
X218365134Y-57604139D01*
X218365129Y-57604135D01*
X218215575Y-57495479D01*
X218215574Y-57495478D01*
X218215572Y-57495477D01*
X218162799Y-57468588D01*
X218050852Y-57411547D01*
X218050849Y-57411546D01*
X217875030Y-57354419D01*
X217692440Y-57325500D01*
X217692435Y-57325500D01*
X217507565Y-57325500D01*
X217507560Y-57325500D01*
X217324969Y-57354419D01*
X217149150Y-57411546D01*
X217149147Y-57411547D01*
X216984424Y-57495479D01*
X216834870Y-57604135D01*
X216834865Y-57604139D01*
X216704139Y-57734865D01*
X216704135Y-57734870D01*
X216595479Y-57884424D01*
X216511547Y-58049147D01*
X216511546Y-58049150D01*
X216454420Y-58224969D01*
X216452473Y-58237263D01*
X216422543Y-58300397D01*
X216363231Y-58337328D01*
X216293369Y-58336330D01*
X216235136Y-58297719D01*
X216207527Y-58237263D01*
X216207192Y-58235150D01*
X216205580Y-58224971D01*
X216168318Y-58110289D01*
X216148453Y-58049150D01*
X216148452Y-58049147D01*
X216111528Y-57976681D01*
X216064523Y-57884428D01*
X216027514Y-57833489D01*
X215955864Y-57734870D01*
X215955860Y-57734865D01*
X215825134Y-57604139D01*
X215825129Y-57604135D01*
X215675575Y-57495479D01*
X215675574Y-57495478D01*
X215675572Y-57495477D01*
X215622799Y-57468588D01*
X215510852Y-57411547D01*
X215510849Y-57411546D01*
X215335030Y-57354419D01*
X215152440Y-57325500D01*
X215152435Y-57325500D01*
X214967565Y-57325500D01*
X214967560Y-57325500D01*
X214784969Y-57354419D01*
X214609150Y-57411546D01*
X214609147Y-57411547D01*
X214444424Y-57495479D01*
X214294870Y-57604135D01*
X214294865Y-57604139D01*
X214164139Y-57734865D01*
X214164135Y-57734870D01*
X214055479Y-57884424D01*
X213971547Y-58049147D01*
X213971546Y-58049150D01*
X213914420Y-58224969D01*
X213912473Y-58237263D01*
X213882543Y-58300397D01*
X213823231Y-58337328D01*
X213753369Y-58336330D01*
X213695136Y-58297719D01*
X213667527Y-58237263D01*
X213667192Y-58235150D01*
X213665580Y-58224971D01*
X213628318Y-58110289D01*
X213608453Y-58049150D01*
X213608452Y-58049147D01*
X213571528Y-57976681D01*
X213524523Y-57884428D01*
X213487514Y-57833489D01*
X213415864Y-57734870D01*
X213415860Y-57734865D01*
X213285134Y-57604139D01*
X213285129Y-57604135D01*
X213135575Y-57495479D01*
X213135574Y-57495478D01*
X213135572Y-57495477D01*
X213082799Y-57468588D01*
X212970852Y-57411547D01*
X212970849Y-57411546D01*
X212795030Y-57354419D01*
X212612440Y-57325500D01*
X212612435Y-57325500D01*
X212427565Y-57325500D01*
X212427560Y-57325500D01*
X212244969Y-57354419D01*
X212069150Y-57411546D01*
X212069147Y-57411547D01*
X211904424Y-57495479D01*
X211754870Y-57604135D01*
X211754865Y-57604139D01*
X211624139Y-57734865D01*
X211624135Y-57734870D01*
X211515479Y-57884424D01*
X211431547Y-58049147D01*
X211431546Y-58049150D01*
X211374420Y-58224969D01*
X211372473Y-58237263D01*
X211342543Y-58300397D01*
X211283231Y-58337328D01*
X211213369Y-58336330D01*
X211155136Y-58297719D01*
X211127527Y-58237263D01*
X211127192Y-58235150D01*
X211125580Y-58224971D01*
X211088318Y-58110289D01*
X211068453Y-58049150D01*
X211068452Y-58049147D01*
X211031528Y-57976681D01*
X210984523Y-57884428D01*
X210947514Y-57833489D01*
X210875864Y-57734870D01*
X210875860Y-57734865D01*
X210745134Y-57604139D01*
X210745129Y-57604135D01*
X210595575Y-57495479D01*
X210595574Y-57495478D01*
X210595572Y-57495477D01*
X210542799Y-57468588D01*
X210430852Y-57411547D01*
X210430849Y-57411546D01*
X210255030Y-57354419D01*
X210072440Y-57325500D01*
X210072435Y-57325500D01*
X209887565Y-57325500D01*
X209887560Y-57325500D01*
X209704969Y-57354419D01*
X209529150Y-57411546D01*
X209529147Y-57411547D01*
X209364424Y-57495479D01*
X209214870Y-57604135D01*
X209214865Y-57604139D01*
X209084139Y-57734865D01*
X209084135Y-57734870D01*
X208975479Y-57884424D01*
X208891547Y-58049147D01*
X208891546Y-58049150D01*
X208834420Y-58224969D01*
X208832473Y-58237263D01*
X208802543Y-58300397D01*
X208743231Y-58337328D01*
X208673369Y-58336330D01*
X208615136Y-58297719D01*
X208587527Y-58237263D01*
X208587192Y-58235150D01*
X208585580Y-58224971D01*
X208548318Y-58110289D01*
X208528453Y-58049150D01*
X208528452Y-58049147D01*
X208491528Y-57976681D01*
X208444523Y-57884428D01*
X208407514Y-57833489D01*
X208335864Y-57734870D01*
X208335860Y-57734865D01*
X208205134Y-57604139D01*
X208205129Y-57604135D01*
X208055575Y-57495479D01*
X208055574Y-57495478D01*
X208055572Y-57495477D01*
X208002799Y-57468588D01*
X207890852Y-57411547D01*
X207890849Y-57411546D01*
X207715030Y-57354419D01*
X207532440Y-57325500D01*
X207532435Y-57325500D01*
X207347565Y-57325500D01*
X207347560Y-57325500D01*
X207164969Y-57354419D01*
X206989150Y-57411546D01*
X206989147Y-57411547D01*
X206824424Y-57495479D01*
X206674870Y-57604135D01*
X206674865Y-57604139D01*
X206544139Y-57734865D01*
X206544135Y-57734870D01*
X206435479Y-57884424D01*
X206351547Y-58049147D01*
X206351546Y-58049150D01*
X206294420Y-58224969D01*
X206292473Y-58237263D01*
X206262543Y-58300397D01*
X206203231Y-58337328D01*
X206133369Y-58336330D01*
X206075136Y-58297719D01*
X206047527Y-58237263D01*
X206047192Y-58235150D01*
X206045580Y-58224971D01*
X206008318Y-58110289D01*
X205988453Y-58049150D01*
X205988452Y-58049147D01*
X205951528Y-57976681D01*
X205904523Y-57884428D01*
X205867514Y-57833489D01*
X205795864Y-57734870D01*
X205795860Y-57734865D01*
X205665134Y-57604139D01*
X205665129Y-57604135D01*
X205515575Y-57495479D01*
X205515574Y-57495478D01*
X205515572Y-57495477D01*
X205462799Y-57468588D01*
X205350852Y-57411547D01*
X205350849Y-57411546D01*
X205175030Y-57354419D01*
X204992440Y-57325500D01*
X204992435Y-57325500D01*
X204807565Y-57325500D01*
X204807560Y-57325500D01*
X204624969Y-57354419D01*
X204449150Y-57411546D01*
X204449147Y-57411547D01*
X204284424Y-57495479D01*
X204134870Y-57604135D01*
X204134865Y-57604139D01*
X204004139Y-57734865D01*
X203922212Y-57847628D01*
X203866882Y-57890293D01*
X203797268Y-57896272D01*
X203735473Y-57863666D01*
X203734213Y-57862423D01*
X201599374Y-55727584D01*
X201565889Y-55666261D01*
X201563055Y-55639903D01*
X201563055Y-49964000D01*
X201582740Y-49896961D01*
X201635544Y-49851206D01*
X201687055Y-49840000D01*
X205475500Y-49840000D01*
X205542539Y-49859685D01*
G37*
%TD.AperFunction*%
%TD*%
M02*
