%TF.GenerationSoftware,KiCad,Pcbnew,10.0.3*%
%TF.CreationDate,2026-07-12T13:30:28-05:00*%
%TF.ProjectId,joiner,6a6f696e-6572-42e6-9b69-6361645f7063,rev?*%
%TF.SameCoordinates,Original*%
%TF.FileFunction,Soldermask,Top*%
%TF.FilePolarity,Negative*%
%FSLAX46Y46*%
G04 Gerber Fmt 4.6, Leading zero omitted, Abs format (unit mm)*
G04 Created by KiCad (PCBNEW 10.0.3) date 2026-07-12 13:30:28*
%MOMM*%
%LPD*%
G01*
G04 APERTURE LIST*
G04 Aperture macros list*
%AMRoundRect*
0 Rectangle with rounded corners*
0 $1 Rounding radius*
0 $2 $3 $4 $5 $6 $7 $8 $9 X,Y pos of 4 corners*
0 Add a 4 corners polygon primitive as box body*
4,1,4,$2,$3,$4,$5,$6,$7,$8,$9,$2,$3,0*
0 Add four circle primitives for the rounded corners*
1,1,$1+$1,$2,$3*
1,1,$1+$1,$4,$5*
1,1,$1+$1,$6,$7*
1,1,$1+$1,$8,$9*
0 Add four rect primitives between the rounded corners*
20,1,$1+$1,$2,$3,$4,$5,0*
20,1,$1+$1,$4,$5,$6,$7,0*
20,1,$1+$1,$6,$7,$8,$9,0*
20,1,$1+$1,$8,$9,$2,$3,0*%
G04 Aperture macros list end*
%ADD10RoundRect,0.250000X-0.750000X0.600000X-0.750000X-0.600000X0.750000X-0.600000X0.750000X0.600000X0*%
%ADD11O,2.000000X1.700000*%
%ADD12R,1.700000X1.700000*%
%ADD13C,1.700000*%
%ADD14RoundRect,0.249999X-0.850001X0.850001X-0.850001X-0.850001X0.850001X-0.850001X0.850001X0.850001X0*%
%ADD15C,2.200000*%
%ADD16R,1.350000X1.350000*%
%ADD17C,1.350000*%
%ADD18C,3.200000*%
%ADD19O,3.250000X6.000000*%
%ADD20RoundRect,0.102000X-0.817500X-0.817500X0.817500X-0.817500X0.817500X0.817500X-0.817500X0.817500X0*%
%ADD21C,1.839000*%
%ADD22C,3.174000*%
%ADD23C,3.280000*%
%ADD24R,1.800000X1.800000*%
%ADD25C,1.800000*%
%ADD26RoundRect,0.250000X-1.050000X1.050000X-1.050000X-1.050000X1.050000X-1.050000X1.050000X1.050000X0*%
%ADD27C,2.600000*%
%ADD28R,1.500000X1.050000*%
%ADD29O,1.500000X1.050000*%
%ADD30C,1.600000*%
%ADD31C,1.552000*%
G04 APERTURE END LIST*
D10*
%TO.C,U3*%
X147700000Y-52512500D03*
D11*
X142700000Y-52512500D03*
X152700000Y-81592500D03*
X137700000Y-81592500D03*
%TD*%
D12*
%TO.C,J3*%
X192725000Y-68600000D03*
D13*
X195265000Y-68600000D03*
%TD*%
D14*
%TO.C,D2*%
X200200000Y-77920000D03*
D15*
X200200000Y-88080000D03*
%TD*%
D16*
%TO.C,J2*%
X217400000Y-33340000D03*
D17*
X217400000Y-35340000D03*
X217400000Y-37340000D03*
X217400000Y-39340000D03*
X217400000Y-41340000D03*
X217400000Y-43340000D03*
X217400000Y-45340000D03*
X217400000Y-47340000D03*
X217400000Y-49340000D03*
X217400000Y-51340000D03*
%TD*%
D18*
%TO.C,F1*%
X144400000Y-35200000D03*
D19*
X125650000Y-35200000D03*
X163150000Y-35200000D03*
%TD*%
D20*
%TO.C,K1*%
X166965000Y-77545000D03*
D21*
X177125000Y-77545000D03*
D22*
X163155000Y-64845000D03*
D23*
X180935000Y-62305000D03*
%TD*%
D24*
%TO.C,D1*%
X192125000Y-82800000D03*
D25*
X194665000Y-82800000D03*
%TD*%
D10*
%TO.C,U2*%
X122700000Y-52512500D03*
D11*
X117700000Y-52512500D03*
X127700000Y-81592500D03*
X112700000Y-81592500D03*
%TD*%
D26*
%TO.C,J5*%
X99800000Y-42200000D03*
D27*
X99800000Y-47280000D03*
X99800000Y-52360000D03*
%TD*%
D15*
%TO.C,REF\u002A\u002A*%
X94000000Y-89800000D03*
%TD*%
%TO.C,REF\u002A\u002A*%
X223800000Y-89800000D03*
%TD*%
%TO.C,REF\u002A\u002A*%
X94000000Y-27600000D03*
%TD*%
%TO.C,REF\u002A\u002A*%
X224000000Y-27600000D03*
%TD*%
D26*
%TO.C,J6*%
X99800000Y-63440000D03*
D27*
X99800000Y-68520000D03*
X99800000Y-73600000D03*
%TD*%
D28*
%TO.C,Q1*%
X193240000Y-73530000D03*
D29*
X193240000Y-74800000D03*
X193240000Y-76070000D03*
%TD*%
D30*
%TO.C,R1*%
X206800000Y-77590000D03*
X206800000Y-85210000D03*
%TD*%
%TO.C,R4*%
X219400000Y-77600000D03*
X219400000Y-85220000D03*
%TD*%
%TO.C,R2*%
X213200000Y-77590000D03*
X213200000Y-85210000D03*
%TD*%
D31*
%TO.C,U1*%
X204900000Y-73740000D03*
X207440000Y-73740000D03*
X209980000Y-73740000D03*
X212520000Y-73740000D03*
X217600000Y-73740000D03*
X215060000Y-73740000D03*
X222680000Y-58500000D03*
X222680000Y-73740000D03*
X220140000Y-58500000D03*
X217600000Y-58500000D03*
X215060000Y-58500000D03*
X212520000Y-58500000D03*
X209980000Y-58500000D03*
X207440000Y-58500000D03*
X204900000Y-58500000D03*
X220140000Y-73740000D03*
%TD*%
D16*
%TO.C,J1*%
X194540000Y-33340000D03*
D17*
X194540000Y-35340000D03*
X194540000Y-37340000D03*
X194540000Y-39340000D03*
X194540000Y-41340000D03*
X194540000Y-43340000D03*
X194540000Y-45340000D03*
X194540000Y-47340000D03*
X194540000Y-49340000D03*
X194540000Y-51340000D03*
%TD*%
M02*
