%TF.GenerationSoftware,KiCad,Pcbnew,10.0.3*%
%TF.CreationDate,2026-07-12T14:26:49-05:00*%
%TF.ProjectId,coordinator,636f6f72-6469-46e6-9174-6f722e6b6963,rev?*%
%TF.SameCoordinates,Original*%
%TF.FileFunction,Soldermask,Bot*%
%TF.FilePolarity,Negative*%
%FSLAX46Y46*%
G04 Gerber Fmt 4.6, Leading zero omitted, Abs format (unit mm)*
G04 Created by KiCad (PCBNEW 10.0.3) date 2026-07-12 14:26:49*
%MOMM*%
%LPD*%
G01*
G04 APERTURE LIST*
%ADD10C,2.200000*%
%ADD11C,1.552000*%
%ADD12R,1.700000X1.700000*%
%ADD13C,1.700000*%
%ADD14R,1.350000X1.350000*%
%ADD15C,1.350000*%
%ADD16C,1.600000*%
G04 APERTURE END LIST*
D10*
%TO.C,REF\u002A\u002A*%
X139800000Y-123800000D03*
%TD*%
%TO.C,REF\u002A\u002A*%
X93200000Y-124000000D03*
%TD*%
%TO.C,REF\u002A\u002A*%
X139800000Y-59000000D03*
%TD*%
%TO.C,REF\u002A\u002A*%
X93200000Y-59200000D03*
%TD*%
D11*
%TO.C,U1*%
X130440000Y-102040000D03*
X115200000Y-86800000D03*
X117740000Y-86800000D03*
X120280000Y-86800000D03*
X122820000Y-86800000D03*
X125360000Y-86800000D03*
X127900000Y-86800000D03*
X130440000Y-86800000D03*
X132980000Y-102040000D03*
X132980000Y-86800000D03*
X125360000Y-102040000D03*
X127900000Y-102040000D03*
X122820000Y-102040000D03*
X120280000Y-102040000D03*
X117740000Y-102040000D03*
X115200000Y-102040000D03*
%TD*%
D12*
%TO.C,J6*%
X97800000Y-84320000D03*
D13*
X97800000Y-86860000D03*
X97800000Y-89400000D03*
X97800000Y-91940000D03*
X97800000Y-94480000D03*
X97800000Y-97020000D03*
X97800000Y-99560000D03*
X97800000Y-102100000D03*
%TD*%
D12*
%TO.C,J4*%
X117600000Y-124750000D03*
D13*
X117600000Y-122210000D03*
X117600000Y-119670000D03*
X117600000Y-117130000D03*
X117600000Y-114590000D03*
X117600000Y-112050000D03*
%TD*%
D12*
%TO.C,J3*%
X132840000Y-124750000D03*
D13*
X132840000Y-122210000D03*
X132840000Y-119670000D03*
X132840000Y-117130000D03*
X132840000Y-114590000D03*
X132840000Y-112050000D03*
%TD*%
D14*
%TO.C,J2*%
X127460000Y-59400000D03*
D15*
X127460000Y-61400000D03*
X127460000Y-63400000D03*
X127460000Y-65400000D03*
X127460000Y-67400000D03*
X127460000Y-69400000D03*
X127460000Y-71400000D03*
X127460000Y-73400000D03*
X127460000Y-75400000D03*
X127460000Y-77400000D03*
%TD*%
D14*
%TO.C,J1*%
X104600000Y-59400000D03*
D15*
X104600000Y-61400000D03*
X104600000Y-63400000D03*
X104600000Y-65400000D03*
X104600000Y-67400000D03*
X104600000Y-69400000D03*
X104600000Y-71400000D03*
X104600000Y-73400000D03*
X104600000Y-75400000D03*
X104600000Y-77400000D03*
%TD*%
D16*
%TO.C,R4*%
X106000000Y-121810000D03*
X106000000Y-114190000D03*
%TD*%
%TO.C,R2*%
X99750000Y-121915000D03*
X99750000Y-114295000D03*
%TD*%
%TO.C,R1*%
X112400000Y-114180000D03*
X112400000Y-121800000D03*
%TD*%
M02*
