M48
; DRILL file KiCad 10.0.3 date 2026-07-12T14:26:52
; FORMAT={-:-/ absolute / metric / decimal}
; #@! TF.CreationDate,2026-07-12T14:26:52-05:00
; #@! TF.GenerationSoftware,Kicad,Pcbnew,10.0.3
; #@! TF.FileFunction,Plated,1,2,PTH
FMAT,2
METRIC
; #@! TA.AperFunction,Plated,PTH,ViaDrill
T1C0.300
; #@! TA.AperFunction,Plated,PTH,ComponentDrill
T2C0.800
; #@! TA.AperFunction,Plated,PTH,ComponentDrill
T3C0.840
; #@! TA.AperFunction,Plated,PTH,ComponentDrill
T4C1.000
%
G90
G05
T1
X99.2Y-110.8
X102.8Y-110.8
X108.2Y-92.8
X109.2Y-81.4
X109.2Y-86.0
X120.4Y-105.2
X121.0Y-109.2
X121.254Y-95.254
X124.6Y-92.8
X125.6Y-108.4
X126.2Y-105.2
X128.0Y-106.4
X128.0Y-108.6
X129.4Y-106.8
X129.4Y-112.0
X131.2Y-99.6
X131.8Y-105.8
X131.8Y-108.6
X132.6Y-97.0
X135.2Y-104.6
X135.2Y-113.6
T2
X99.75Y-114.295
X99.75Y-121.915
X104.6Y-59.4
X104.6Y-61.4
X104.6Y-63.4
X104.6Y-65.4
X104.6Y-67.4
X104.6Y-69.4
X104.6Y-71.4
X104.6Y-73.4
X104.6Y-75.4
X104.6Y-77.4
X106.0Y-114.19
X106.0Y-121.81
X112.4Y-114.18
X112.4Y-121.8
X127.46Y-59.4
X127.46Y-61.4
X127.46Y-63.4
X127.46Y-65.4
X127.46Y-67.4
X127.46Y-69.4
X127.46Y-71.4
X127.46Y-73.4
X127.46Y-75.4
X127.46Y-77.4
T3
X115.2Y-86.8
X115.2Y-102.04
X117.74Y-86.8
X117.74Y-102.04
X120.28Y-86.8
X120.28Y-102.04
X122.82Y-86.8
X122.82Y-102.04
X125.36Y-86.8
X125.36Y-102.04
X127.9Y-86.8
X127.9Y-102.04
X130.44Y-86.8
X130.44Y-102.04
X132.98Y-86.8
X132.98Y-102.04
T4
X97.8Y-84.32
X97.8Y-86.86
X97.8Y-89.4
X97.8Y-91.94
X97.8Y-94.48
X97.8Y-97.02
X97.8Y-99.56
X97.8Y-102.1
X117.6Y-112.05
X117.6Y-114.59
X117.6Y-117.13
X117.6Y-119.67
X117.6Y-122.21
X117.6Y-124.75
X132.84Y-112.05
X132.84Y-114.59
X132.84Y-117.13
X132.84Y-119.67
X132.84Y-122.21
X132.84Y-124.75
M30
