M48
; DRILL file KiCad 10.0.3 date 2026-06-21T22:29:38
; FORMAT={-:-/ absolute / metric / decimal}
; #@! TF.CreationDate,2026-06-21T22:29:38-05:00
; #@! TF.GenerationSoftware,Kicad,Pcbnew,10.0.3
; #@! TF.FileFunction,Plated,1,2,PTH
FMAT,2
METRIC
; #@! TA.AperFunction,Plated,PTH,ViaDrill
T1C0.300
; #@! TA.AperFunction,Plated,PTH,ComponentDrill
T2C0.800
; #@! TA.AperFunction,Plated,PTH,ComponentDrill
T3C0.840
; #@! TA.AperFunction,Plated,PTH,ComponentDrill
T4C0.900
; #@! TA.AperFunction,Plated,PTH,ComponentDrill
T5C1.000
; #@! TA.AperFunction,Plated,PTH,ComponentDrill
T6C1.100
%
G90
G05
T1
X101.8Y-119.8
X102.6Y-81.4
X102.6Y-121.0
X106.4Y-81.4
X120.4Y-105.2
X121.0Y-109.2
X121.254Y-95.254
X125.6Y-108.4
X126.2Y-105.2
X128.0Y-106.4
X128.0Y-108.6
X129.4Y-106.8
X129.4Y-112.0
X130.4Y-100.0
X131.8Y-105.8
X131.8Y-108.6
X132.6Y-97.0
X135.2Y-104.6
X135.2Y-113.6
X136.8Y-99.8
T2
X97.2Y-111.55
X97.305Y-117.8
X98.2Y-66.8
X98.2Y-69.34
X99.74Y-111.55
X99.845Y-117.8
X104.6Y-59.4
X104.6Y-61.4
X104.6Y-63.4
X104.6Y-65.4
X104.6Y-67.4
X104.6Y-69.4
X104.6Y-71.4
X104.6Y-73.4
X104.6Y-75.4
X104.6Y-77.4
X127.46Y-59.4
X127.46Y-61.4
X127.46Y-63.4
X127.46Y-65.4
X127.46Y-67.4
X127.46Y-69.4
X127.46Y-71.4
X127.46Y-73.4
X127.46Y-75.4
X127.46Y-77.4
T3
X115.2Y-86.8
X115.2Y-102.04
X117.74Y-86.8
X117.74Y-102.04
X120.28Y-86.8
X120.28Y-102.04
X122.82Y-86.8
X122.82Y-102.04
X125.36Y-86.8
X125.36Y-102.04
X127.9Y-86.8
X127.9Y-102.04
X130.44Y-86.8
X130.44Y-102.04
X132.98Y-86.8
X132.98Y-102.04
T4
X99.925Y-100.4
X102.465Y-100.4
T5
X107.2Y-115.99
X107.2Y-118.53
X107.2Y-121.07
X107.2Y-123.61
X117.6Y-112.05
X117.6Y-114.59
X117.6Y-117.13
X117.6Y-119.67
X117.6Y-122.21
X117.6Y-124.75
X132.84Y-112.05
X132.84Y-114.59
X132.84Y-117.13
X132.84Y-119.67
X132.84Y-122.21
X132.84Y-124.75
T6
X97.95Y-87.15
X97.95Y-91.65
X104.45Y-87.15
X104.45Y-91.65
M30
