%TF.GenerationSoftware,KiCad,Pcbnew,10.0.3*%
%TF.CreationDate,2026-06-21T22:28:45-05:00*%
%TF.ProjectId,coordinator,636f6f72-6469-46e6-9174-6f722e6b6963,rev?*%
%TF.SameCoordinates,Original*%
%TF.FileFunction,Copper,L2,Bot*%
%TF.FilePolarity,Positive*%
%FSLAX46Y46*%
G04 Gerber Fmt 4.6, Leading zero omitted, Abs format (unit mm)*
G04 Created by KiCad (PCBNEW 10.0.3) date 2026-06-21 22:28:45*
%MOMM*%
%LPD*%
G01*
G04 APERTURE LIST*
%TA.AperFunction,ComponentPad*%
%ADD10C,1.350000*%
%TD*%
%TA.AperFunction,ComponentPad*%
%ADD11R,1.350000X1.350000*%
%TD*%
%TA.AperFunction,ComponentPad*%
%ADD12C,2.000000*%
%TD*%
%TA.AperFunction,ComponentPad*%
%ADD13C,1.600000*%
%TD*%
%TA.AperFunction,ComponentPad*%
%ADD14R,1.700000X1.700000*%
%TD*%
%TA.AperFunction,ComponentPad*%
%ADD15C,1.700000*%
%TD*%
%TA.AperFunction,ComponentPad*%
%ADD16R,1.800000X1.800000*%
%TD*%
%TA.AperFunction,ComponentPad*%
%ADD17C,1.800000*%
%TD*%
%TA.AperFunction,ComponentPad*%
%ADD18C,1.348000*%
%TD*%
%TA.AperFunction,ViaPad*%
%ADD19C,0.600000*%
%TD*%
%TA.AperFunction,Conductor*%
%ADD20C,0.200000*%
%TD*%
G04 APERTURE END LIST*
D10*
%TO.P,J2,10,4_10*%
%TO.N,unconnected-(J2-4-Pad10)*%
X127460000Y-77400000D03*
%TO.P,J2,9,7_9*%
%TO.N,unconnected-(J2-7-Pad9)*%
X127460000Y-75400000D03*
%TO.P,J2,8,9_8*%
%TO.N,unconnected-(J2-9-Pad8)*%
X127460000Y-73400000D03*
%TO.P,J2,7,res_7*%
%TO.N,unconnected-(J2-res-Pad7)*%
X127460000Y-71400000D03*
%TO.P,J2,6,5_6*%
%TO.N,unconnected-(J2-5-Pad6)*%
X127460000Y-69400000D03*
%TO.P,J2,5,6_5*%
%TO.N,unconnected-(J2-6-Pad5)*%
X127460000Y-67400000D03*
%TO.P,J2,4,3_4*%
%TO.N,unconnected-(J2-3-Pad4)*%
X127460000Y-65400000D03*
%TO.P,J2,3,2_3*%
%TO.N,unconnected-(J2-2-Pad3)*%
X127460000Y-63400000D03*
%TO.P,J2,2,1_2*%
%TO.N,unconnected-(J2-1-Pad2)*%
X127460000Y-61400000D03*
D11*
%TO.P,J2,1,0_1*%
%TO.N,unconnected-(J2-0-Pad1)*%
X127460000Y-59400000D03*
%TD*%
D12*
%TO.P,SW1,1,1_1*%
%TO.N,GND*%
X97950000Y-87150000D03*
X104450000Y-87150000D03*
%TO.P,SW1,2,2_2*%
%TO.N,Net-(U1-GPIO3)*%
X97950000Y-91650000D03*
X104450000Y-91650000D03*
%TD*%
D13*
%TO.P,R4,1*%
%TO.N,Net-(J5-CC2)*%
X99740000Y-111550000D03*
%TO.P,R4,2*%
%TO.N,GND*%
X97200000Y-111550000D03*
%TD*%
%TO.P,R2,1*%
%TO.N,Net-(J5-CC1)*%
X99845000Y-117800000D03*
%TO.P,R2,2*%
%TO.N,GND*%
X97305000Y-117800000D03*
%TD*%
%TO.P,R1,1*%
%TO.N,+3.3V*%
X98200000Y-69340000D03*
%TO.P,R1,2*%
%TO.N,Net-(J1-RST)*%
X98200000Y-66800000D03*
%TD*%
D14*
%TO.P,J5,1,VBUS_1*%
%TO.N,Net-(J5-VBUS)*%
X107200000Y-115990000D03*
D15*
%TO.P,J5,2,GND_2*%
%TO.N,GND*%
X107200000Y-118530000D03*
%TO.P,J5,3,CC1_3*%
%TO.N,Net-(J5-CC1)*%
X107200000Y-121070000D03*
%TO.P,J5,4,CC2_4*%
%TO.N,Net-(J5-CC2)*%
X107200000Y-123610000D03*
%TD*%
D14*
%TO.P,J4,1,GND_1*%
%TO.N,GND*%
X117600000Y-124750000D03*
D15*
%TO.P,J4,2,3.3V_2*%
%TO.N,+3.3V*%
X117600000Y-122210000D03*
%TO.P,J4,3,3.3V_3*%
X117600000Y-119670000D03*
%TO.P,J4,4,NC_4*%
%TO.N,unconnected-(J4-NC-Pad4)*%
X117600000Y-117130000D03*
%TO.P,J4,5,RST_5*%
%TO.N,Net-(J4-RST)*%
X117600000Y-114590000D03*
%TO.P,J4,6,MISO_6*%
%TO.N,Net-(J4-MISO)*%
X117600000Y-112050000D03*
%TD*%
D14*
%TO.P,J3,1,GND_1*%
%TO.N,GND*%
X132840000Y-124750000D03*
D15*
%TO.P,J3,2,GND_2*%
X132840000Y-122210000D03*
%TO.P,J3,3,MOSI_3*%
%TO.N,Net-(J3-MOSI)*%
X132840000Y-119670000D03*
%TO.P,J3,4,SCLK_4*%
%TO.N,Net-(J3-SCLK)*%
X132840000Y-117130000D03*
%TO.P,J3,5,SCN_5*%
%TO.N,Net-(J3-SCN)*%
X132840000Y-114590000D03*
%TO.P,J3,6,INT_6*%
%TO.N,Net-(J3-INT)*%
X132840000Y-112050000D03*
%TD*%
D11*
%TO.P,J1,1,VCC_1*%
%TO.N,+3.3V*%
X104600000Y-59400000D03*
D10*
%TO.P,J1,2,RX_2*%
%TO.N,Net-(J1-RX)*%
X104600000Y-61400000D03*
%TO.P,J1,3,TX_3*%
%TO.N,Net-(J1-TX)*%
X104600000Y-63400000D03*
%TO.P,J1,4,12_4*%
%TO.N,unconnected-(J1-12-Pad4)*%
X104600000Y-65400000D03*
%TO.P,J1,5,RST_5*%
%TO.N,Net-(J1-RST)*%
X104600000Y-67400000D03*
%TO.P,J1,6,10_6*%
%TO.N,unconnected-(J1-10-Pad6)*%
X104600000Y-69400000D03*
%TO.P,J1,7,11_7*%
%TO.N,unconnected-(J1-11-Pad7)*%
X104600000Y-71400000D03*
%TO.P,J1,8,res_8*%
%TO.N,unconnected-(J1-res-Pad8)*%
X104600000Y-73400000D03*
%TO.P,J1,9,8_9*%
%TO.N,unconnected-(J1-8-Pad9)*%
X104600000Y-75400000D03*
%TO.P,J1,10,GND_10*%
%TO.N,GND*%
X104600000Y-77400000D03*
%TD*%
D16*
%TO.P,D1,1,K_1*%
%TO.N,GND*%
X99925000Y-100400000D03*
D17*
%TO.P,D1,2,A_2*%
%TO.N,Net-(D1-A)*%
X102465000Y-100400000D03*
%TD*%
D18*
%TO.P,U1,5V,5V_5V*%
%TO.N,Net-(J5-VBUS)*%
X132980000Y-102040000D03*
%TO.P,U1,G,GND_G*%
%TO.N,GND*%
X130440000Y-102040000D03*
%TO.P,U1,3.3,3V3_3.3*%
%TO.N,+3.3V*%
X127900000Y-102040000D03*
%TO.P,U1,4,GPIO4_4*%
%TO.N,Net-(D1-A)*%
X125360000Y-102040000D03*
%TO.P,U1,3,GPIO3_3*%
%TO.N,Net-(U1-GPIO3)*%
X122820000Y-102040000D03*
%TO.P,U1,2,GPIO2_2*%
%TO.N,unconnected-(U1-GPIO2-Pad2)*%
X120280000Y-102040000D03*
%TO.P,U1,1,GPIO1_1*%
%TO.N,Net-(J1-RX)*%
X117740000Y-102040000D03*
%TO.P,U1,0,GPIO0_0*%
%TO.N,Net-(J1-TX)*%
X115200000Y-102040000D03*
%TO.P,U1,21,GPIO21_21*%
%TO.N,unconnected-(U1-GPIO21-Pad21)*%
X115200000Y-86800000D03*
%TO.P,U1,20,GPIO20_20*%
%TO.N,unconnected-(U1-GPIO20-Pad20)*%
X117740000Y-86800000D03*
%TO.P,U1,10,GPIO10_10*%
%TO.N,Net-(J4-RST)*%
X120280000Y-86800000D03*
%TO.P,U1,9,GPIO9_9*%
%TO.N,Net-(J3-INT)*%
X122820000Y-86800000D03*
%TO.P,U1,8,GPIO8_8*%
%TO.N,Net-(J4-MISO)*%
X125360000Y-86800000D03*
%TO.P,U1,7,GPIO7_7*%
%TO.N,Net-(J3-MOSI)*%
X127900000Y-86800000D03*
%TO.P,U1,6,GPIO6_6*%
%TO.N,Net-(J3-SCN)*%
X130440000Y-86800000D03*
%TO.P,U1,5,GPIO5_5*%
%TO.N,Net-(J3-SCLK)*%
X132980000Y-86800000D03*
%TD*%
D19*
%TO.N,GND*%
X136800000Y-99800000D03*
X130400000Y-100000000D03*
%TO.N,Net-(J3-SCN)*%
X135200000Y-113600000D03*
X132600000Y-97000000D03*
X135200000Y-104600000D03*
%TO.N,Net-(J3-MOSI)*%
X131800000Y-105800000D03*
X131800000Y-108600000D03*
%TO.N,Net-(J3-INT)*%
X129400000Y-106800000D03*
X129400000Y-112000000D03*
%TO.N,Net-(J4-MISO)*%
X125600000Y-108400000D03*
%TO.N,Net-(J4-RST)*%
X121254000Y-95254000D03*
X121000000Y-109200000D03*
%TO.N,+3.3V*%
X126200000Y-105200000D03*
X120400000Y-105200000D03*
X106400000Y-81400000D03*
X102600000Y-81400000D03*
X128000000Y-106400000D03*
X128000000Y-108600000D03*
%TO.N,Net-(J5-CC1)*%
X101800000Y-119800000D03*
%TO.N,Net-(J5-CC2)*%
X102600000Y-121000000D03*
%TD*%
%TO.N,GND*%
D20*
X130400000Y-98351471D02*
X132351471Y-96400000D01*
X132351471Y-96400000D02*
X133400000Y-96400000D01*
X133400000Y-96400000D02*
X136800000Y-99800000D01*
X130400000Y-100000000D02*
X130400000Y-98351471D01*
%TO.N,Net-(J3-SCN)*%
X133830000Y-113600000D02*
X132840000Y-114590000D01*
X135200000Y-113600000D02*
X133830000Y-113600000D01*
X132600000Y-97000000D02*
X135200000Y-99600000D01*
X135200000Y-99600000D02*
X135200000Y-104600000D01*
%TO.N,Net-(J3-MOSI)*%
X131800000Y-105800000D02*
X131800000Y-108600000D01*
%TO.N,Net-(J3-INT)*%
X129400000Y-106800000D02*
X129400000Y-112000000D01*
%TO.N,Net-(J4-MISO)*%
X126800000Y-88240000D02*
X125360000Y-86800000D01*
X126800000Y-107200000D02*
X126800000Y-88240000D01*
X125600000Y-108400000D02*
X126800000Y-107200000D01*
%TO.N,Net-(J4-RST)*%
X121200000Y-95200000D02*
X121254000Y-95254000D01*
X119800000Y-103897445D02*
X121254000Y-102443445D01*
X121000000Y-109200000D02*
X119800000Y-108000000D01*
X119800000Y-108000000D02*
X119800000Y-103897445D01*
X121254000Y-102443445D02*
X121254000Y-95254000D01*
%TO.N,+3.3V*%
X120400000Y-105200000D02*
X126200000Y-105200000D01*
X102600000Y-81400000D02*
X106400000Y-81400000D01*
X128000000Y-108600000D02*
X128000000Y-106400000D01*
%TO.N,Net-(J5-CC1)*%
X105930000Y-119800000D02*
X107200000Y-121070000D01*
X101800000Y-119800000D02*
X105930000Y-119800000D01*
%TO.N,Net-(J5-CC2)*%
X105210000Y-123610000D02*
X107200000Y-123610000D01*
X102600000Y-121000000D02*
X105210000Y-123610000D01*
%TD*%
M02*
