%TF.GenerationSoftware,KiCad,Pcbnew,10.0.3*%
%TF.CreationDate,2026-07-12T14:26:49-05:00*%
%TF.ProjectId,coordinator,636f6f72-6469-46e6-9174-6f722e6b6963,rev?*%
%TF.SameCoordinates,Original*%
%TF.FileFunction,Legend,Top*%
%TF.FilePolarity,Positive*%
%FSLAX46Y46*%
G04 Gerber Fmt 4.6, Leading zero omitted, Abs format (unit mm)*
G04 Created by KiCad (PCBNEW 10.0.3) date 2026-07-12 14:26:49*
%MOMM*%
%LPD*%
G01*
G04 APERTURE LIST*
%ADD10C,0.150000*%
%ADD11C,0.127000*%
%ADD12C,0.120000*%
G04 APERTURE END LIST*
D10*
X138466666Y-121104819D02*
X138133333Y-120628628D01*
X137895238Y-121104819D02*
X137895238Y-120104819D01*
X137895238Y-120104819D02*
X138276190Y-120104819D01*
X138276190Y-120104819D02*
X138371428Y-120152438D01*
X138371428Y-120152438D02*
X138419047Y-120200057D01*
X138419047Y-120200057D02*
X138466666Y-120295295D01*
X138466666Y-120295295D02*
X138466666Y-120438152D01*
X138466666Y-120438152D02*
X138419047Y-120533390D01*
X138419047Y-120533390D02*
X138371428Y-120581009D01*
X138371428Y-120581009D02*
X138276190Y-120628628D01*
X138276190Y-120628628D02*
X137895238Y-120628628D01*
X138895238Y-120581009D02*
X139228571Y-120581009D01*
X139371428Y-121104819D02*
X138895238Y-121104819D01*
X138895238Y-121104819D02*
X138895238Y-120104819D01*
X138895238Y-120104819D02*
X139371428Y-120104819D01*
X140133333Y-120581009D02*
X139800000Y-120581009D01*
X139800000Y-121104819D02*
X139800000Y-120104819D01*
X139800000Y-120104819D02*
X140276190Y-120104819D01*
X140800000Y-120104819D02*
X140800000Y-120342914D01*
X140561905Y-120247676D02*
X140800000Y-120342914D01*
X140800000Y-120342914D02*
X141038095Y-120247676D01*
X140657143Y-120533390D02*
X140800000Y-120342914D01*
X140800000Y-120342914D02*
X140942857Y-120533390D01*
X141561905Y-120104819D02*
X141561905Y-120342914D01*
X141323810Y-120247676D02*
X141561905Y-120342914D01*
X141561905Y-120342914D02*
X141800000Y-120247676D01*
X141419048Y-120533390D02*
X141561905Y-120342914D01*
X141561905Y-120342914D02*
X141704762Y-120533390D01*
X91866666Y-121304819D02*
X91533333Y-120828628D01*
X91295238Y-121304819D02*
X91295238Y-120304819D01*
X91295238Y-120304819D02*
X91676190Y-120304819D01*
X91676190Y-120304819D02*
X91771428Y-120352438D01*
X91771428Y-120352438D02*
X91819047Y-120400057D01*
X91819047Y-120400057D02*
X91866666Y-120495295D01*
X91866666Y-120495295D02*
X91866666Y-120638152D01*
X91866666Y-120638152D02*
X91819047Y-120733390D01*
X91819047Y-120733390D02*
X91771428Y-120781009D01*
X91771428Y-120781009D02*
X91676190Y-120828628D01*
X91676190Y-120828628D02*
X91295238Y-120828628D01*
X92295238Y-120781009D02*
X92628571Y-120781009D01*
X92771428Y-121304819D02*
X92295238Y-121304819D01*
X92295238Y-121304819D02*
X92295238Y-120304819D01*
X92295238Y-120304819D02*
X92771428Y-120304819D01*
X93533333Y-120781009D02*
X93200000Y-120781009D01*
X93200000Y-121304819D02*
X93200000Y-120304819D01*
X93200000Y-120304819D02*
X93676190Y-120304819D01*
X94200000Y-120304819D02*
X94200000Y-120542914D01*
X93961905Y-120447676D02*
X94200000Y-120542914D01*
X94200000Y-120542914D02*
X94438095Y-120447676D01*
X94057143Y-120733390D02*
X94200000Y-120542914D01*
X94200000Y-120542914D02*
X94342857Y-120733390D01*
X94961905Y-120304819D02*
X94961905Y-120542914D01*
X94723810Y-120447676D02*
X94961905Y-120542914D01*
X94961905Y-120542914D02*
X95200000Y-120447676D01*
X94819048Y-120733390D02*
X94961905Y-120542914D01*
X94961905Y-120542914D02*
X95104762Y-120733390D01*
X138466666Y-56304819D02*
X138133333Y-55828628D01*
X137895238Y-56304819D02*
X137895238Y-55304819D01*
X137895238Y-55304819D02*
X138276190Y-55304819D01*
X138276190Y-55304819D02*
X138371428Y-55352438D01*
X138371428Y-55352438D02*
X138419047Y-55400057D01*
X138419047Y-55400057D02*
X138466666Y-55495295D01*
X138466666Y-55495295D02*
X138466666Y-55638152D01*
X138466666Y-55638152D02*
X138419047Y-55733390D01*
X138419047Y-55733390D02*
X138371428Y-55781009D01*
X138371428Y-55781009D02*
X138276190Y-55828628D01*
X138276190Y-55828628D02*
X137895238Y-55828628D01*
X138895238Y-55781009D02*
X139228571Y-55781009D01*
X139371428Y-56304819D02*
X138895238Y-56304819D01*
X138895238Y-56304819D02*
X138895238Y-55304819D01*
X138895238Y-55304819D02*
X139371428Y-55304819D01*
X140133333Y-55781009D02*
X139800000Y-55781009D01*
X139800000Y-56304819D02*
X139800000Y-55304819D01*
X139800000Y-55304819D02*
X140276190Y-55304819D01*
X140800000Y-55304819D02*
X140800000Y-55542914D01*
X140561905Y-55447676D02*
X140800000Y-55542914D01*
X140800000Y-55542914D02*
X141038095Y-55447676D01*
X140657143Y-55733390D02*
X140800000Y-55542914D01*
X140800000Y-55542914D02*
X140942857Y-55733390D01*
X141561905Y-55304819D02*
X141561905Y-55542914D01*
X141323810Y-55447676D02*
X141561905Y-55542914D01*
X141561905Y-55542914D02*
X141800000Y-55447676D01*
X141419048Y-55733390D02*
X141561905Y-55542914D01*
X141561905Y-55542914D02*
X141704762Y-55733390D01*
X91866666Y-56504819D02*
X91533333Y-56028628D01*
X91295238Y-56504819D02*
X91295238Y-55504819D01*
X91295238Y-55504819D02*
X91676190Y-55504819D01*
X91676190Y-55504819D02*
X91771428Y-55552438D01*
X91771428Y-55552438D02*
X91819047Y-55600057D01*
X91819047Y-55600057D02*
X91866666Y-55695295D01*
X91866666Y-55695295D02*
X91866666Y-55838152D01*
X91866666Y-55838152D02*
X91819047Y-55933390D01*
X91819047Y-55933390D02*
X91771428Y-55981009D01*
X91771428Y-55981009D02*
X91676190Y-56028628D01*
X91676190Y-56028628D02*
X91295238Y-56028628D01*
X92295238Y-55981009D02*
X92628571Y-55981009D01*
X92771428Y-56504819D02*
X92295238Y-56504819D01*
X92295238Y-56504819D02*
X92295238Y-55504819D01*
X92295238Y-55504819D02*
X92771428Y-55504819D01*
X93533333Y-55981009D02*
X93200000Y-55981009D01*
X93200000Y-56504819D02*
X93200000Y-55504819D01*
X93200000Y-55504819D02*
X93676190Y-55504819D01*
X94200000Y-55504819D02*
X94200000Y-55742914D01*
X93961905Y-55647676D02*
X94200000Y-55742914D01*
X94200000Y-55742914D02*
X94438095Y-55647676D01*
X94057143Y-55933390D02*
X94200000Y-55742914D01*
X94200000Y-55742914D02*
X94342857Y-55933390D01*
X94961905Y-55504819D02*
X94961905Y-55742914D01*
X94723810Y-55647676D02*
X94961905Y-55742914D01*
X94961905Y-55742914D02*
X95200000Y-55647676D01*
X94819048Y-55933390D02*
X94961905Y-55742914D01*
X94961905Y-55742914D02*
X95104762Y-55933390D01*
X136187319Y-89466904D02*
X136996842Y-89466904D01*
X136996842Y-89466904D02*
X137092080Y-89419285D01*
X137092080Y-89419285D02*
X137139700Y-89371666D01*
X137139700Y-89371666D02*
X137187319Y-89276428D01*
X137187319Y-89276428D02*
X137187319Y-89085952D01*
X137187319Y-89085952D02*
X137139700Y-88990714D01*
X137139700Y-88990714D02*
X137092080Y-88943095D01*
X137092080Y-88943095D02*
X136996842Y-88895476D01*
X136996842Y-88895476D02*
X136187319Y-88895476D01*
X137187319Y-87895476D02*
X137187319Y-88466904D01*
X137187319Y-88181190D02*
X136187319Y-88181190D01*
X136187319Y-88181190D02*
X136330176Y-88276428D01*
X136330176Y-88276428D02*
X136425414Y-88371666D01*
X136425414Y-88371666D02*
X136473033Y-88466904D01*
X97466666Y-81004819D02*
X97466666Y-81719104D01*
X97466666Y-81719104D02*
X97419047Y-81861961D01*
X97419047Y-81861961D02*
X97323809Y-81957200D01*
X97323809Y-81957200D02*
X97180952Y-82004819D01*
X97180952Y-82004819D02*
X97085714Y-82004819D01*
X98371428Y-81004819D02*
X98180952Y-81004819D01*
X98180952Y-81004819D02*
X98085714Y-81052438D01*
X98085714Y-81052438D02*
X98038095Y-81100057D01*
X98038095Y-81100057D02*
X97942857Y-81242914D01*
X97942857Y-81242914D02*
X97895238Y-81433390D01*
X97895238Y-81433390D02*
X97895238Y-81814342D01*
X97895238Y-81814342D02*
X97942857Y-81909580D01*
X97942857Y-81909580D02*
X97990476Y-81957200D01*
X97990476Y-81957200D02*
X98085714Y-82004819D01*
X98085714Y-82004819D02*
X98276190Y-82004819D01*
X98276190Y-82004819D02*
X98371428Y-81957200D01*
X98371428Y-81957200D02*
X98419047Y-81909580D01*
X98419047Y-81909580D02*
X98466666Y-81814342D01*
X98466666Y-81814342D02*
X98466666Y-81576247D01*
X98466666Y-81576247D02*
X98419047Y-81481009D01*
X98419047Y-81481009D02*
X98371428Y-81433390D01*
X98371428Y-81433390D02*
X98276190Y-81385771D01*
X98276190Y-81385771D02*
X98085714Y-81385771D01*
X98085714Y-81385771D02*
X97990476Y-81433390D01*
X97990476Y-81433390D02*
X97942857Y-81481009D01*
X97942857Y-81481009D02*
X97895238Y-81576247D01*
X117266666Y-126974819D02*
X117266666Y-127689104D01*
X117266666Y-127689104D02*
X117219047Y-127831961D01*
X117219047Y-127831961D02*
X117123809Y-127927200D01*
X117123809Y-127927200D02*
X116980952Y-127974819D01*
X116980952Y-127974819D02*
X116885714Y-127974819D01*
X118171428Y-127308152D02*
X118171428Y-127974819D01*
X117933333Y-126927200D02*
X117695238Y-127641485D01*
X117695238Y-127641485D02*
X118314285Y-127641485D01*
X132506666Y-126974819D02*
X132506666Y-127689104D01*
X132506666Y-127689104D02*
X132459047Y-127831961D01*
X132459047Y-127831961D02*
X132363809Y-127927200D01*
X132363809Y-127927200D02*
X132220952Y-127974819D01*
X132220952Y-127974819D02*
X132125714Y-127974819D01*
X132887619Y-126974819D02*
X133506666Y-126974819D01*
X133506666Y-126974819D02*
X133173333Y-127355771D01*
X133173333Y-127355771D02*
X133316190Y-127355771D01*
X133316190Y-127355771D02*
X133411428Y-127403390D01*
X133411428Y-127403390D02*
X133459047Y-127451009D01*
X133459047Y-127451009D02*
X133506666Y-127546247D01*
X133506666Y-127546247D02*
X133506666Y-127784342D01*
X133506666Y-127784342D02*
X133459047Y-127879580D01*
X133459047Y-127879580D02*
X133411428Y-127927200D01*
X133411428Y-127927200D02*
X133316190Y-127974819D01*
X133316190Y-127974819D02*
X133030476Y-127974819D01*
X133030476Y-127974819D02*
X132935238Y-127927200D01*
X132935238Y-127927200D02*
X132887619Y-127879580D01*
X127126666Y-56354819D02*
X127126666Y-57069104D01*
X127126666Y-57069104D02*
X127079047Y-57211961D01*
X127079047Y-57211961D02*
X126983809Y-57307200D01*
X126983809Y-57307200D02*
X126840952Y-57354819D01*
X126840952Y-57354819D02*
X126745714Y-57354819D01*
X127555238Y-56450057D02*
X127602857Y-56402438D01*
X127602857Y-56402438D02*
X127698095Y-56354819D01*
X127698095Y-56354819D02*
X127936190Y-56354819D01*
X127936190Y-56354819D02*
X128031428Y-56402438D01*
X128031428Y-56402438D02*
X128079047Y-56450057D01*
X128079047Y-56450057D02*
X128126666Y-56545295D01*
X128126666Y-56545295D02*
X128126666Y-56640533D01*
X128126666Y-56640533D02*
X128079047Y-56783390D01*
X128079047Y-56783390D02*
X127507619Y-57354819D01*
X127507619Y-57354819D02*
X128126666Y-57354819D01*
X104266666Y-56354819D02*
X104266666Y-57069104D01*
X104266666Y-57069104D02*
X104219047Y-57211961D01*
X104219047Y-57211961D02*
X104123809Y-57307200D01*
X104123809Y-57307200D02*
X103980952Y-57354819D01*
X103980952Y-57354819D02*
X103885714Y-57354819D01*
X105266666Y-57354819D02*
X104695238Y-57354819D01*
X104980952Y-57354819D02*
X104980952Y-56354819D01*
X104980952Y-56354819D02*
X104885714Y-56497676D01*
X104885714Y-56497676D02*
X104790476Y-56592914D01*
X104790476Y-56592914D02*
X104695238Y-56640533D01*
X104084819Y-118166666D02*
X103608628Y-118499999D01*
X104084819Y-118738094D02*
X103084819Y-118738094D01*
X103084819Y-118738094D02*
X103084819Y-118357142D01*
X103084819Y-118357142D02*
X103132438Y-118261904D01*
X103132438Y-118261904D02*
X103180057Y-118214285D01*
X103180057Y-118214285D02*
X103275295Y-118166666D01*
X103275295Y-118166666D02*
X103418152Y-118166666D01*
X103418152Y-118166666D02*
X103513390Y-118214285D01*
X103513390Y-118214285D02*
X103561009Y-118261904D01*
X103561009Y-118261904D02*
X103608628Y-118357142D01*
X103608628Y-118357142D02*
X103608628Y-118738094D01*
X103418152Y-117309523D02*
X104084819Y-117309523D01*
X103037200Y-117547618D02*
X103751485Y-117785713D01*
X103751485Y-117785713D02*
X103751485Y-117166666D01*
X97834819Y-118271666D02*
X97358628Y-118604999D01*
X97834819Y-118843094D02*
X96834819Y-118843094D01*
X96834819Y-118843094D02*
X96834819Y-118462142D01*
X96834819Y-118462142D02*
X96882438Y-118366904D01*
X96882438Y-118366904D02*
X96930057Y-118319285D01*
X96930057Y-118319285D02*
X97025295Y-118271666D01*
X97025295Y-118271666D02*
X97168152Y-118271666D01*
X97168152Y-118271666D02*
X97263390Y-118319285D01*
X97263390Y-118319285D02*
X97311009Y-118366904D01*
X97311009Y-118366904D02*
X97358628Y-118462142D01*
X97358628Y-118462142D02*
X97358628Y-118843094D01*
X96930057Y-117890713D02*
X96882438Y-117843094D01*
X96882438Y-117843094D02*
X96834819Y-117747856D01*
X96834819Y-117747856D02*
X96834819Y-117509761D01*
X96834819Y-117509761D02*
X96882438Y-117414523D01*
X96882438Y-117414523D02*
X96930057Y-117366904D01*
X96930057Y-117366904D02*
X97025295Y-117319285D01*
X97025295Y-117319285D02*
X97120533Y-117319285D01*
X97120533Y-117319285D02*
X97263390Y-117366904D01*
X97263390Y-117366904D02*
X97834819Y-117938332D01*
X97834819Y-117938332D02*
X97834819Y-117319285D01*
X115224819Y-118156666D02*
X114748628Y-118489999D01*
X115224819Y-118728094D02*
X114224819Y-118728094D01*
X114224819Y-118728094D02*
X114224819Y-118347142D01*
X114224819Y-118347142D02*
X114272438Y-118251904D01*
X114272438Y-118251904D02*
X114320057Y-118204285D01*
X114320057Y-118204285D02*
X114415295Y-118156666D01*
X114415295Y-118156666D02*
X114558152Y-118156666D01*
X114558152Y-118156666D02*
X114653390Y-118204285D01*
X114653390Y-118204285D02*
X114701009Y-118251904D01*
X114701009Y-118251904D02*
X114748628Y-118347142D01*
X114748628Y-118347142D02*
X114748628Y-118728094D01*
X115224819Y-117204285D02*
X115224819Y-117775713D01*
X115224819Y-117489999D02*
X114224819Y-117489999D01*
X114224819Y-117489999D02*
X114367676Y-117585237D01*
X114367676Y-117585237D02*
X114462914Y-117680475D01*
X114462914Y-117680475D02*
X114510533Y-117775713D01*
%TO.C,U1*%
D11*
X135730000Y-98920000D02*
X135730000Y-89920000D01*
X135730000Y-98920000D02*
X134430000Y-98920000D01*
X135730000Y-89920000D02*
X134430000Y-89920000D01*
X134430000Y-103420000D02*
X134430000Y-98920000D01*
X134430000Y-89920000D02*
X134430000Y-85420000D01*
X111730000Y-103420000D02*
X134430000Y-103420000D01*
X111730000Y-103420000D02*
X111730000Y-85420000D01*
X111730000Y-85420000D02*
X134430000Y-85420000D01*
%TO.C,J6*%
D12*
X96470000Y-85590000D02*
X96470000Y-103430000D01*
X96470000Y-85590000D02*
X99130000Y-85590000D01*
X96470000Y-103430000D02*
X99130000Y-103430000D01*
X97800000Y-82990000D02*
X99130000Y-82990000D01*
X99130000Y-82990000D02*
X99130000Y-84320000D01*
X99130000Y-85590000D02*
X99130000Y-103430000D01*
%TO.C,J4*%
X118930000Y-123480000D02*
X118930000Y-110720000D01*
X118930000Y-123480000D02*
X116270000Y-123480000D01*
X118930000Y-110720000D02*
X116270000Y-110720000D01*
X117600000Y-126080000D02*
X116270000Y-126080000D01*
X116270000Y-126080000D02*
X116270000Y-124750000D01*
X116270000Y-123480000D02*
X116270000Y-110720000D01*
%TO.C,J3*%
X134170000Y-123480000D02*
X134170000Y-110720000D01*
X134170000Y-123480000D02*
X131510000Y-123480000D01*
X134170000Y-110720000D02*
X131510000Y-110720000D01*
X132840000Y-126080000D02*
X131510000Y-126080000D01*
X131510000Y-126080000D02*
X131510000Y-124750000D01*
X131510000Y-123480000D02*
X131510000Y-110720000D01*
%TO.C,J2*%
X126400000Y-60400000D02*
X126400000Y-78460000D01*
X126400000Y-60400000D02*
X128520000Y-60400000D01*
X126400000Y-78460000D02*
X128520000Y-78460000D01*
X127460000Y-58340000D02*
X128520000Y-58340000D01*
X128520000Y-58340000D02*
X128520000Y-59400000D01*
X128520000Y-60400000D02*
X128520000Y-78460000D01*
%TO.C,J1*%
X103540000Y-60400000D02*
X103540000Y-78460000D01*
X103540000Y-60400000D02*
X105660000Y-60400000D01*
X103540000Y-78460000D02*
X105660000Y-78460000D01*
X104600000Y-58340000D02*
X105660000Y-58340000D01*
X105660000Y-58340000D02*
X105660000Y-59400000D01*
X105660000Y-60400000D02*
X105660000Y-78460000D01*
%TO.C,R4*%
X104630000Y-114730000D02*
X104960000Y-114730000D01*
X104630000Y-121270000D02*
X104630000Y-114730000D01*
X104960000Y-121270000D02*
X104630000Y-121270000D01*
X107040000Y-121270000D02*
X107370000Y-121270000D01*
X107370000Y-114730000D02*
X107040000Y-114730000D01*
X107370000Y-121270000D02*
X107370000Y-114730000D01*
%TO.C,R2*%
X98380000Y-114835000D02*
X98710000Y-114835000D01*
X98380000Y-121375000D02*
X98380000Y-114835000D01*
X98710000Y-121375000D02*
X98380000Y-121375000D01*
X100790000Y-121375000D02*
X101120000Y-121375000D01*
X101120000Y-114835000D02*
X100790000Y-114835000D01*
X101120000Y-121375000D02*
X101120000Y-114835000D01*
%TO.C,R1*%
X111030000Y-114720000D02*
X111030000Y-121260000D01*
X111030000Y-121260000D02*
X111360000Y-121260000D01*
X111360000Y-114720000D02*
X111030000Y-114720000D01*
X113440000Y-114720000D02*
X113770000Y-114720000D01*
X113770000Y-114720000D02*
X113770000Y-121260000D01*
X113770000Y-121260000D02*
X113440000Y-121260000D01*
%TD*%
M02*
