%TF.GenerationSoftware,KiCad,Pcbnew,10.0.3*%
%TF.CreationDate,2026-06-21T22:28:45-05:00*%
%TF.ProjectId,coordinator,636f6f72-6469-46e6-9174-6f722e6b6963,rev?*%
%TF.SameCoordinates,Original*%
%TF.FileFunction,Copper,L1,Top*%
%TF.FilePolarity,Positive*%
%FSLAX46Y46*%
G04 Gerber Fmt 4.6, Leading zero omitted, Abs format (unit mm)*
G04 Created by KiCad (PCBNEW 10.0.3) date 2026-06-21 22:28:45*
%MOMM*%
%LPD*%
G01*
G04 APERTURE LIST*
%TA.AperFunction,ComponentPad*%
%ADD10C,1.350000*%
%TD*%
%TA.AperFunction,ComponentPad*%
%ADD11R,1.350000X1.350000*%
%TD*%
%TA.AperFunction,ComponentPad*%
%ADD12C,2.000000*%
%TD*%
%TA.AperFunction,ComponentPad*%
%ADD13C,1.600000*%
%TD*%
%TA.AperFunction,ComponentPad*%
%ADD14R,1.700000X1.700000*%
%TD*%
%TA.AperFunction,ComponentPad*%
%ADD15C,1.700000*%
%TD*%
%TA.AperFunction,ComponentPad*%
%ADD16R,1.800000X1.800000*%
%TD*%
%TA.AperFunction,ComponentPad*%
%ADD17C,1.800000*%
%TD*%
%TA.AperFunction,ComponentPad*%
%ADD18C,1.348000*%
%TD*%
%TA.AperFunction,ViaPad*%
%ADD19C,0.600000*%
%TD*%
%TA.AperFunction,Conductor*%
%ADD20C,0.200000*%
%TD*%
G04 APERTURE END LIST*
D10*
%TO.P,J2,10,4_10*%
%TO.N,unconnected-(J2-4-Pad10)*%
X127460000Y-77400000D03*
%TO.P,J2,9,7_9*%
%TO.N,unconnected-(J2-7-Pad9)*%
X127460000Y-75400000D03*
%TO.P,J2,8,9_8*%
%TO.N,unconnected-(J2-9-Pad8)*%
X127460000Y-73400000D03*
%TO.P,J2,7,res_7*%
%TO.N,unconnected-(J2-res-Pad7)*%
X127460000Y-71400000D03*
%TO.P,J2,6,5_6*%
%TO.N,unconnected-(J2-5-Pad6)*%
X127460000Y-69400000D03*
%TO.P,J2,5,6_5*%
%TO.N,unconnected-(J2-6-Pad5)*%
X127460000Y-67400000D03*
%TO.P,J2,4,3_4*%
%TO.N,unconnected-(J2-3-Pad4)*%
X127460000Y-65400000D03*
%TO.P,J2,3,2_3*%
%TO.N,unconnected-(J2-2-Pad3)*%
X127460000Y-63400000D03*
%TO.P,J2,2,1_2*%
%TO.N,unconnected-(J2-1-Pad2)*%
X127460000Y-61400000D03*
D11*
%TO.P,J2,1,0_1*%
%TO.N,unconnected-(J2-0-Pad1)*%
X127460000Y-59400000D03*
%TD*%
D12*
%TO.P,SW1,1,1_1*%
%TO.N,GND*%
X97950000Y-87150000D03*
X104450000Y-87150000D03*
%TO.P,SW1,2,2_2*%
%TO.N,Net-(U1-GPIO3)*%
X97950000Y-91650000D03*
X104450000Y-91650000D03*
%TD*%
D13*
%TO.P,R4,1*%
%TO.N,Net-(J5-CC2)*%
X99740000Y-111550000D03*
%TO.P,R4,2*%
%TO.N,GND*%
X97200000Y-111550000D03*
%TD*%
%TO.P,R2,1*%
%TO.N,Net-(J5-CC1)*%
X99845000Y-117800000D03*
%TO.P,R2,2*%
%TO.N,GND*%
X97305000Y-117800000D03*
%TD*%
%TO.P,R1,1*%
%TO.N,+3.3V*%
X98200000Y-69340000D03*
%TO.P,R1,2*%
%TO.N,Net-(J1-RST)*%
X98200000Y-66800000D03*
%TD*%
D14*
%TO.P,J5,1,VBUS_1*%
%TO.N,Net-(J5-VBUS)*%
X107200000Y-115990000D03*
D15*
%TO.P,J5,2,GND_2*%
%TO.N,GND*%
X107200000Y-118530000D03*
%TO.P,J5,3,CC1_3*%
%TO.N,Net-(J5-CC1)*%
X107200000Y-121070000D03*
%TO.P,J5,4,CC2_4*%
%TO.N,Net-(J5-CC2)*%
X107200000Y-123610000D03*
%TD*%
D14*
%TO.P,J4,1,GND_1*%
%TO.N,GND*%
X117600000Y-124750000D03*
D15*
%TO.P,J4,2,3.3V_2*%
%TO.N,+3.3V*%
X117600000Y-122210000D03*
%TO.P,J4,3,3.3V_3*%
X117600000Y-119670000D03*
%TO.P,J4,4,NC_4*%
%TO.N,unconnected-(J4-NC-Pad4)*%
X117600000Y-117130000D03*
%TO.P,J4,5,RST_5*%
%TO.N,Net-(J4-RST)*%
X117600000Y-114590000D03*
%TO.P,J4,6,MISO_6*%
%TO.N,Net-(J4-MISO)*%
X117600000Y-112050000D03*
%TD*%
D14*
%TO.P,J3,1,GND_1*%
%TO.N,GND*%
X132840000Y-124750000D03*
D15*
%TO.P,J3,2,GND_2*%
X132840000Y-122210000D03*
%TO.P,J3,3,MOSI_3*%
%TO.N,Net-(J3-MOSI)*%
X132840000Y-119670000D03*
%TO.P,J3,4,SCLK_4*%
%TO.N,Net-(J3-SCLK)*%
X132840000Y-117130000D03*
%TO.P,J3,5,SCN_5*%
%TO.N,Net-(J3-SCN)*%
X132840000Y-114590000D03*
%TO.P,J3,6,INT_6*%
%TO.N,Net-(J3-INT)*%
X132840000Y-112050000D03*
%TD*%
D11*
%TO.P,J1,1,VCC_1*%
%TO.N,+3.3V*%
X104600000Y-59400000D03*
D10*
%TO.P,J1,2,RX_2*%
%TO.N,Net-(J1-RX)*%
X104600000Y-61400000D03*
%TO.P,J1,3,TX_3*%
%TO.N,Net-(J1-TX)*%
X104600000Y-63400000D03*
%TO.P,J1,4,12_4*%
%TO.N,unconnected-(J1-12-Pad4)*%
X104600000Y-65400000D03*
%TO.P,J1,5,RST_5*%
%TO.N,Net-(J1-RST)*%
X104600000Y-67400000D03*
%TO.P,J1,6,10_6*%
%TO.N,unconnected-(J1-10-Pad6)*%
X104600000Y-69400000D03*
%TO.P,J1,7,11_7*%
%TO.N,unconnected-(J1-11-Pad7)*%
X104600000Y-71400000D03*
%TO.P,J1,8,res_8*%
%TO.N,unconnected-(J1-res-Pad8)*%
X104600000Y-73400000D03*
%TO.P,J1,9,8_9*%
%TO.N,unconnected-(J1-8-Pad9)*%
X104600000Y-75400000D03*
%TO.P,J1,10,GND_10*%
%TO.N,GND*%
X104600000Y-77400000D03*
%TD*%
D16*
%TO.P,D1,1,K_1*%
%TO.N,GND*%
X99925000Y-100400000D03*
D17*
%TO.P,D1,2,A_2*%
%TO.N,Net-(D1-A)*%
X102465000Y-100400000D03*
%TD*%
D18*
%TO.P,U1,5V,5V_5V*%
%TO.N,Net-(J5-VBUS)*%
X132980000Y-102040000D03*
%TO.P,U1,G,GND_G*%
%TO.N,GND*%
X130440000Y-102040000D03*
%TO.P,U1,3.3,3V3_3.3*%
%TO.N,+3.3V*%
X127900000Y-102040000D03*
%TO.P,U1,4,GPIO4_4*%
%TO.N,Net-(D1-A)*%
X125360000Y-102040000D03*
%TO.P,U1,3,GPIO3_3*%
%TO.N,Net-(U1-GPIO3)*%
X122820000Y-102040000D03*
%TO.P,U1,2,GPIO2_2*%
%TO.N,unconnected-(U1-GPIO2-Pad2)*%
X120280000Y-102040000D03*
%TO.P,U1,1,GPIO1_1*%
%TO.N,Net-(J1-RX)*%
X117740000Y-102040000D03*
%TO.P,U1,0,GPIO0_0*%
%TO.N,Net-(J1-TX)*%
X115200000Y-102040000D03*
%TO.P,U1,21,GPIO21_21*%
%TO.N,unconnected-(U1-GPIO21-Pad21)*%
X115200000Y-86800000D03*
%TO.P,U1,20,GPIO20_20*%
%TO.N,unconnected-(U1-GPIO20-Pad20)*%
X117740000Y-86800000D03*
%TO.P,U1,10,GPIO10_10*%
%TO.N,Net-(J4-RST)*%
X120280000Y-86800000D03*
%TO.P,U1,9,GPIO9_9*%
%TO.N,Net-(J3-INT)*%
X122820000Y-86800000D03*
%TO.P,U1,8,GPIO8_8*%
%TO.N,Net-(J4-MISO)*%
X125360000Y-86800000D03*
%TO.P,U1,7,GPIO7_7*%
%TO.N,Net-(J3-MOSI)*%
X127900000Y-86800000D03*
%TO.P,U1,6,GPIO6_6*%
%TO.N,Net-(J3-SCN)*%
X130440000Y-86800000D03*
%TO.P,U1,5,GPIO5_5*%
%TO.N,Net-(J3-SCLK)*%
X132980000Y-86800000D03*
%TD*%
D19*
%TO.N,GND*%
X136800000Y-99800000D03*
X130400000Y-100000000D03*
%TO.N,Net-(J3-SCN)*%
X135200000Y-113600000D03*
X132600000Y-97000000D03*
X135200000Y-104600000D03*
%TO.N,Net-(J3-MOSI)*%
X131800000Y-105800000D03*
X131800000Y-108600000D03*
%TO.N,Net-(J3-INT)*%
X129400000Y-106800000D03*
X129400000Y-112000000D03*
%TO.N,Net-(J4-MISO)*%
X125600000Y-108400000D03*
%TO.N,Net-(J4-RST)*%
X121254000Y-95254000D03*
X121000000Y-109200000D03*
%TO.N,+3.3V*%
X126200000Y-105200000D03*
X120400000Y-105200000D03*
X106400000Y-81400000D03*
X102600000Y-81400000D03*
X128000000Y-106400000D03*
X128000000Y-108600000D03*
%TO.N,Net-(J5-CC1)*%
X101800000Y-119800000D03*
%TO.N,Net-(J5-CC2)*%
X102600000Y-121000000D03*
%TD*%
%TO.N,GND*%
D20*
X130440000Y-100040000D02*
X130400000Y-100000000D01*
X130440000Y-102040000D02*
X130440000Y-100040000D01*
%TO.N,Net-(J3-SCN)*%
X132600000Y-88960000D02*
X132600000Y-97000000D01*
X130440000Y-86800000D02*
X132600000Y-88960000D01*
X135200000Y-104600000D02*
X135200000Y-113600000D01*
%TO.N,Net-(J3-SCLK)*%
X133990000Y-87810000D02*
X132980000Y-86800000D01*
X132840000Y-117130000D02*
X133990000Y-115980000D01*
X133990000Y-115980000D02*
X133990000Y-87810000D01*
%TO.N,Net-(J3-MOSI)*%
X128800000Y-115630000D02*
X132840000Y-119670000D01*
X128800000Y-108600000D02*
X128800000Y-115630000D01*
X131800000Y-108600000D02*
X128800000Y-108600000D01*
X131800000Y-90700000D02*
X131800000Y-105800000D01*
X127900000Y-86800000D02*
X131800000Y-90700000D01*
%TO.N,Net-(J3-INT)*%
X129450000Y-112050000D02*
X129400000Y-112000000D01*
X132840000Y-112050000D02*
X129450000Y-112050000D01*
X129400000Y-99400000D02*
X129400000Y-106800000D01*
X123000000Y-99000000D02*
X129000000Y-99000000D01*
X129000000Y-99000000D02*
X129400000Y-99400000D01*
X122820000Y-98820000D02*
X123000000Y-99000000D01*
X122820000Y-86800000D02*
X122820000Y-98820000D01*
%TO.N,Net-(J4-MISO)*%
X119600000Y-108400000D02*
X125600000Y-108400000D01*
X119600000Y-110050000D02*
X119600000Y-108400000D01*
X117600000Y-112050000D02*
X119600000Y-110050000D01*
%TO.N,Net-(J4-RST)*%
X120280000Y-94280000D02*
X121254000Y-95254000D01*
X120280000Y-86800000D02*
X120280000Y-94280000D01*
X117600000Y-114590000D02*
X121000000Y-111190000D01*
X121000000Y-111190000D02*
X121000000Y-109200000D01*
%TO.N,Net-(J1-TX)*%
X114226000Y-101066000D02*
X115200000Y-102040000D01*
X114226000Y-73026000D02*
X114226000Y-101066000D01*
X104600000Y-63400000D02*
X114226000Y-73026000D01*
%TO.N,Net-(J1-RX)*%
X118800000Y-100980000D02*
X117740000Y-102040000D01*
X118800000Y-75600000D02*
X118800000Y-100980000D01*
X104600000Y-61400000D02*
X118800000Y-75600000D01*
%TO.N,+3.3V*%
X126200000Y-105200000D02*
X127900000Y-105200000D01*
X127900000Y-105200000D02*
X127900000Y-102040000D01*
X120200000Y-105000000D02*
X120400000Y-105200000D01*
X110400000Y-105000000D02*
X120200000Y-105000000D01*
X106400000Y-81400000D02*
X110400000Y-85400000D01*
X110400000Y-85400000D02*
X110400000Y-105000000D01*
X98200000Y-77000000D02*
X102600000Y-81400000D01*
X98200000Y-69340000D02*
X98200000Y-77000000D01*
%TO.N,Net-(U1-GPIO3)*%
X122820000Y-104580000D02*
X122820000Y-102040000D01*
X121400000Y-106000000D02*
X122820000Y-104580000D01*
X109400000Y-106000000D02*
X121400000Y-106000000D01*
X109400000Y-96600000D02*
X109400000Y-106000000D01*
X104450000Y-91650000D02*
X109400000Y-96600000D01*
X97950000Y-91650000D02*
X104450000Y-91650000D01*
%TO.N,Net-(D1-A)*%
X124400000Y-103000000D02*
X125360000Y-102040000D01*
X124400000Y-106800000D02*
X124400000Y-103000000D01*
X108865000Y-106800000D02*
X124400000Y-106800000D01*
X102465000Y-100400000D02*
X108865000Y-106800000D01*
%TO.N,+3.3V*%
X127900000Y-106100000D02*
X127900000Y-105200000D01*
X128000000Y-106200000D02*
X127900000Y-106100000D01*
X128000000Y-106400000D02*
X128000000Y-106200000D01*
X128000000Y-109270000D02*
X128000000Y-108600000D01*
X117600000Y-119670000D02*
X128000000Y-109270000D01*
X117600000Y-122210000D02*
X117600000Y-119670000D01*
%TO.N,Net-(J5-VBUS)*%
X132800000Y-106200000D02*
X132800000Y-105600000D01*
X131200000Y-107800000D02*
X132800000Y-106200000D01*
X132800000Y-105600000D02*
X132980000Y-105420000D01*
X107200000Y-107800000D02*
X131200000Y-107800000D01*
X107200000Y-115990000D02*
X107200000Y-107800000D01*
X132980000Y-105420000D02*
X132980000Y-102040000D01*
%TO.N,Net-(J5-CC1)*%
X100551471Y-119800000D02*
X101800000Y-119800000D01*
X99845000Y-119093529D02*
X100551471Y-119800000D01*
X99845000Y-117800000D02*
X99845000Y-119093529D01*
%TO.N,Net-(J5-CC2)*%
X102600000Y-114410000D02*
X102600000Y-121000000D01*
X99740000Y-111550000D02*
X102600000Y-114410000D01*
%TO.N,GND*%
X97305000Y-111655000D02*
X97200000Y-111550000D01*
X97950000Y-83450000D02*
X98000000Y-83400000D01*
X104600000Y-87000000D02*
X104450000Y-87150000D01*
%TO.N,Net-(J1-RST)*%
X104000000Y-66800000D02*
X104600000Y-67400000D01*
X98200000Y-66800000D02*
X104000000Y-66800000D01*
%TO.N,+3.3V*%
X96740000Y-69340000D02*
X98200000Y-69340000D01*
X95400000Y-68000000D02*
X96740000Y-69340000D01*
X95400000Y-62400000D02*
X95400000Y-68000000D01*
X98400000Y-59400000D02*
X95400000Y-62400000D01*
X104600000Y-59400000D02*
X98400000Y-59400000D01*
%TD*%
%TA.AperFunction,Conductor*%
%TO.N,GND*%
G36*
X105905778Y-65575293D02*
G01*
X105956850Y-65606085D01*
X113589181Y-73238416D01*
X113622666Y-73299739D01*
X113625500Y-73326097D01*
X113625500Y-100979330D01*
X113625499Y-100979348D01*
X113625499Y-101145054D01*
X113625498Y-101145054D01*
X113660283Y-101274870D01*
X113666423Y-101297785D01*
X113695325Y-101347844D01*
X113695358Y-101347900D01*
X113695359Y-101347904D01*
X113695360Y-101347904D01*
X113745479Y-101434714D01*
X113745481Y-101434717D01*
X113864349Y-101553585D01*
X113864355Y-101553590D01*
X114012658Y-101701893D01*
X114046143Y-101763216D01*
X114047450Y-101808972D01*
X114025500Y-101947559D01*
X114025500Y-102132440D01*
X114054419Y-102315030D01*
X114111546Y-102490849D01*
X114111547Y-102490852D01*
X114195479Y-102655575D01*
X114304135Y-102805129D01*
X114304139Y-102805134D01*
X114434865Y-102935860D01*
X114434870Y-102935864D01*
X114539680Y-103012012D01*
X114584428Y-103044523D01*
X114652211Y-103079060D01*
X114749147Y-103128452D01*
X114749150Y-103128453D01*
X114924969Y-103185580D01*
X115107560Y-103214500D01*
X115107565Y-103214500D01*
X115292440Y-103214500D01*
X115475030Y-103185580D01*
X115650849Y-103128453D01*
X115650852Y-103128452D01*
X115651767Y-103127986D01*
X115815572Y-103044523D01*
X115965136Y-102935859D01*
X116095859Y-102805136D01*
X116204523Y-102655572D01*
X116288452Y-102490852D01*
X116345580Y-102315029D01*
X116347527Y-102302737D01*
X116377456Y-102239602D01*
X116436768Y-102202671D01*
X116506630Y-102203669D01*
X116564863Y-102242279D01*
X116592473Y-102302737D01*
X116594420Y-102315030D01*
X116651546Y-102490849D01*
X116651547Y-102490852D01*
X116735479Y-102655575D01*
X116844135Y-102805129D01*
X116844139Y-102805134D01*
X116974865Y-102935860D01*
X116974870Y-102935864D01*
X117079680Y-103012012D01*
X117124428Y-103044523D01*
X117192211Y-103079060D01*
X117289147Y-103128452D01*
X117289150Y-103128453D01*
X117464969Y-103185580D01*
X117647560Y-103214500D01*
X117647565Y-103214500D01*
X117832440Y-103214500D01*
X118015030Y-103185580D01*
X118190849Y-103128453D01*
X118190852Y-103128452D01*
X118191767Y-103127986D01*
X118355572Y-103044523D01*
X118505136Y-102935859D01*
X118635859Y-102805136D01*
X118744523Y-102655572D01*
X118828452Y-102490852D01*
X118885580Y-102315029D01*
X118887527Y-102302737D01*
X118917456Y-102239602D01*
X118976768Y-102202671D01*
X119046630Y-102203669D01*
X119104863Y-102242279D01*
X119132473Y-102302737D01*
X119134420Y-102315030D01*
X119191546Y-102490849D01*
X119191547Y-102490852D01*
X119275479Y-102655575D01*
X119384135Y-102805129D01*
X119384139Y-102805134D01*
X119514865Y-102935860D01*
X119514870Y-102935864D01*
X119619680Y-103012012D01*
X119664428Y-103044523D01*
X119732211Y-103079060D01*
X119829147Y-103128452D01*
X119829150Y-103128453D01*
X120004969Y-103185580D01*
X120187560Y-103214500D01*
X120187565Y-103214500D01*
X120372440Y-103214500D01*
X120555030Y-103185580D01*
X120730849Y-103128453D01*
X120730852Y-103128452D01*
X120731767Y-103127986D01*
X120895572Y-103044523D01*
X121045136Y-102935859D01*
X121175859Y-102805136D01*
X121284523Y-102655572D01*
X121368452Y-102490852D01*
X121425580Y-102315029D01*
X121427527Y-102302737D01*
X121457456Y-102239602D01*
X121516768Y-102202671D01*
X121586630Y-102203669D01*
X121644863Y-102242279D01*
X121672473Y-102302737D01*
X121674420Y-102315030D01*
X121731546Y-102490849D01*
X121731547Y-102490852D01*
X121815479Y-102655575D01*
X121924135Y-102805129D01*
X121924139Y-102805134D01*
X122054867Y-102935862D01*
X122085067Y-102957803D01*
X122168385Y-103018336D01*
X122211051Y-103073665D01*
X122219500Y-103118654D01*
X122219500Y-104279902D01*
X122199815Y-104346941D01*
X122183181Y-104367583D01*
X121402551Y-105148212D01*
X121341228Y-105181697D01*
X121271536Y-105176713D01*
X121215603Y-105134841D01*
X121193253Y-105084722D01*
X121178852Y-105012328D01*
X121169737Y-104966503D01*
X121169735Y-104966498D01*
X121109397Y-104820827D01*
X121109390Y-104820814D01*
X121021789Y-104689711D01*
X121021786Y-104689707D01*
X120910292Y-104578213D01*
X120910288Y-104578210D01*
X120779185Y-104490609D01*
X120779172Y-104490602D01*
X120633501Y-104430264D01*
X120633489Y-104430261D01*
X120478845Y-104399500D01*
X120478842Y-104399500D01*
X120321158Y-104399500D01*
X120321157Y-104399500D01*
X120315095Y-104400097D01*
X120315058Y-104399725D01*
X120299137Y-104401218D01*
X120284985Y-104401087D01*
X120279057Y-104399499D01*
X120120943Y-104399499D01*
X120120939Y-104399500D01*
X111124500Y-104399500D01*
X111057461Y-104379815D01*
X111011706Y-104327011D01*
X111000500Y-104275500D01*
X111000500Y-85320945D01*
X111000500Y-85320943D01*
X110959577Y-85168216D01*
X110959577Y-85168215D01*
X110959577Y-85168214D01*
X110930639Y-85118095D01*
X110930637Y-85118092D01*
X110880520Y-85031284D01*
X110768716Y-84919480D01*
X110768715Y-84919479D01*
X110764385Y-84915149D01*
X110764374Y-84915139D01*
X107234574Y-81385339D01*
X107201089Y-81324016D01*
X107200638Y-81321849D01*
X107169738Y-81166510D01*
X107169737Y-81166503D01*
X107169735Y-81166498D01*
X107109397Y-81020827D01*
X107109390Y-81020814D01*
X107021789Y-80889711D01*
X107021786Y-80889707D01*
X106910292Y-80778213D01*
X106910288Y-80778210D01*
X106779185Y-80690609D01*
X106779172Y-80690602D01*
X106633501Y-80630264D01*
X106633489Y-80630261D01*
X106478845Y-80599500D01*
X106478842Y-80599500D01*
X106321158Y-80599500D01*
X106321155Y-80599500D01*
X106166510Y-80630261D01*
X106166498Y-80630264D01*
X106020827Y-80690602D01*
X106020814Y-80690609D01*
X105889711Y-80778210D01*
X105889707Y-80778213D01*
X105778213Y-80889707D01*
X105778210Y-80889711D01*
X105690609Y-81020814D01*
X105690602Y-81020827D01*
X105630264Y-81166498D01*
X105630261Y-81166510D01*
X105599500Y-81321153D01*
X105599500Y-81478846D01*
X105630261Y-81633489D01*
X105630264Y-81633501D01*
X105690602Y-81779172D01*
X105690609Y-81779185D01*
X105778210Y-81910288D01*
X105778213Y-81910292D01*
X105889707Y-82021786D01*
X105889711Y-82021789D01*
X106020814Y-82109390D01*
X106020827Y-82109397D01*
X106166498Y-82169735D01*
X106166503Y-82169737D01*
X106231147Y-82182595D01*
X106321849Y-82200638D01*
X106383760Y-82233023D01*
X106385339Y-82234574D01*
X109763181Y-85612416D01*
X109796666Y-85673739D01*
X109799500Y-85700097D01*
X109799500Y-95850903D01*
X109779815Y-95917942D01*
X109727011Y-95963697D01*
X109657853Y-95973641D01*
X109594297Y-95944616D01*
X109587819Y-95938584D01*
X105902798Y-92253563D01*
X105869313Y-92192240D01*
X105872547Y-92127566D01*
X105913553Y-92001368D01*
X105933705Y-91874126D01*
X105950500Y-91768097D01*
X105950500Y-91531902D01*
X105913553Y-91298631D01*
X105840566Y-91074003D01*
X105733342Y-90863566D01*
X105594517Y-90672490D01*
X105427510Y-90505483D01*
X105236433Y-90366657D01*
X105025996Y-90259433D01*
X104801368Y-90186446D01*
X104568097Y-90149500D01*
X104568092Y-90149500D01*
X104331908Y-90149500D01*
X104331903Y-90149500D01*
X104098631Y-90186446D01*
X103874003Y-90259433D01*
X103663566Y-90366657D01*
X103554550Y-90445862D01*
X103472490Y-90505483D01*
X103472488Y-90505485D01*
X103472487Y-90505485D01*
X103305485Y-90672487D01*
X103305485Y-90672488D01*
X103305483Y-90672490D01*
X103245862Y-90754550D01*
X103166657Y-90863566D01*
X103141767Y-90912416D01*
X103110522Y-90973739D01*
X103106417Y-90981795D01*
X103058442Y-91032591D01*
X102995932Y-91049500D01*
X99404068Y-91049500D01*
X99337029Y-91029815D01*
X99293583Y-90981795D01*
X99233343Y-90863567D01*
X99094517Y-90672490D01*
X98927510Y-90505483D01*
X98736433Y-90366657D01*
X98525996Y-90259433D01*
X98301368Y-90186446D01*
X98068097Y-90149500D01*
X98068092Y-90149500D01*
X97831908Y-90149500D01*
X97831903Y-90149500D01*
X97598631Y-90186446D01*
X97374003Y-90259433D01*
X97163566Y-90366657D01*
X97054550Y-90445862D01*
X96972490Y-90505483D01*
X96972488Y-90505485D01*
X96972487Y-90505485D01*
X96805485Y-90672487D01*
X96805485Y-90672488D01*
X96805483Y-90672490D01*
X96745862Y-90754550D01*
X96666657Y-90863566D01*
X96559433Y-91074003D01*
X96486446Y-91298631D01*
X96449500Y-91531902D01*
X96449500Y-91768097D01*
X96486446Y-92001368D01*
X96559433Y-92225996D01*
X96666657Y-92436433D01*
X96805483Y-92627510D01*
X96972490Y-92794517D01*
X97163567Y-92933343D01*
X97262991Y-92984002D01*
X97374003Y-93040566D01*
X97374005Y-93040566D01*
X97374008Y-93040568D01*
X97466292Y-93070553D01*
X97598631Y-93113553D01*
X97831903Y-93150500D01*
X97831908Y-93150500D01*
X98068097Y-93150500D01*
X98301368Y-93113553D01*
X98334468Y-93102798D01*
X98525992Y-93040568D01*
X98736433Y-92933343D01*
X98927510Y-92794517D01*
X99094517Y-92627510D01*
X99233343Y-92436433D01*
X99293583Y-92318204D01*
X99341558Y-92267409D01*
X99404068Y-92250500D01*
X102995932Y-92250500D01*
X103062971Y-92270185D01*
X103106416Y-92318203D01*
X103166657Y-92436433D01*
X103305483Y-92627510D01*
X103472490Y-92794517D01*
X103663567Y-92933343D01*
X103762991Y-92984002D01*
X103874003Y-93040566D01*
X103874005Y-93040566D01*
X103874008Y-93040568D01*
X103966292Y-93070553D01*
X104098631Y-93113553D01*
X104331903Y-93150500D01*
X104331908Y-93150500D01*
X104568097Y-93150500D01*
X104674126Y-93133705D01*
X104801368Y-93113553D01*
X104927566Y-93072547D01*
X104997404Y-93070553D01*
X105053563Y-93102798D01*
X108763181Y-96812416D01*
X108796666Y-96873739D01*
X108799500Y-96900097D01*
X108799500Y-105585902D01*
X108779815Y-105652941D01*
X108727011Y-105698696D01*
X108657853Y-105708640D01*
X108594297Y-105679615D01*
X108587819Y-105673583D01*
X103838438Y-100924203D01*
X103804953Y-100862880D01*
X103808187Y-100798205D01*
X103831015Y-100727951D01*
X103865500Y-100510222D01*
X103865500Y-100289778D01*
X103831015Y-100072049D01*
X103796955Y-99967221D01*
X103762896Y-99862396D01*
X103762895Y-99862393D01*
X103728237Y-99794375D01*
X103662815Y-99665978D01*
X103585508Y-99559573D01*
X103533247Y-99487641D01*
X103533243Y-99487636D01*
X103377363Y-99331756D01*
X103377358Y-99331752D01*
X103199025Y-99202187D01*
X103199024Y-99202186D01*
X103199022Y-99202185D01*
X103132341Y-99168209D01*
X103002606Y-99102104D01*
X103002603Y-99102103D01*
X102792952Y-99033985D01*
X102684086Y-99016742D01*
X102575222Y-98999500D01*
X102354778Y-98999500D01*
X102282201Y-99010995D01*
X102137047Y-99033985D01*
X101927396Y-99102103D01*
X101927393Y-99102104D01*
X101730974Y-99202187D01*
X101552641Y-99331752D01*
X101552636Y-99331756D01*
X101502075Y-99382317D01*
X101440752Y-99415801D01*
X101371060Y-99410816D01*
X101315127Y-99368945D01*
X101298213Y-99337968D01*
X101268354Y-99257913D01*
X101268350Y-99257906D01*
X101182190Y-99142812D01*
X101182187Y-99142809D01*
X101067093Y-99056649D01*
X101067086Y-99056645D01*
X100932379Y-99006403D01*
X100932372Y-99006401D01*
X100872844Y-99000000D01*
X100175000Y-99000000D01*
X100175000Y-100024722D01*
X100098694Y-99980667D01*
X99984244Y-99950000D01*
X99865756Y-99950000D01*
X99751306Y-99980667D01*
X99675000Y-100024722D01*
X99675000Y-99000000D01*
X98977155Y-99000000D01*
X98917627Y-99006401D01*
X98917620Y-99006403D01*
X98782913Y-99056645D01*
X98782906Y-99056649D01*
X98667812Y-99142809D01*
X98667809Y-99142812D01*
X98581649Y-99257906D01*
X98581645Y-99257913D01*
X98531403Y-99392620D01*
X98531401Y-99392627D01*
X98525000Y-99452155D01*
X98525000Y-100150000D01*
X99549722Y-100150000D01*
X99505667Y-100226306D01*
X99475000Y-100340756D01*
X99475000Y-100459244D01*
X99505667Y-100573694D01*
X99549722Y-100650000D01*
X98525000Y-100650000D01*
X98525000Y-101347844D01*
X98531401Y-101407372D01*
X98531403Y-101407379D01*
X98581645Y-101542086D01*
X98581649Y-101542093D01*
X98667809Y-101657187D01*
X98667812Y-101657190D01*
X98782906Y-101743350D01*
X98782913Y-101743354D01*
X98917620Y-101793596D01*
X98917627Y-101793598D01*
X98977155Y-101799999D01*
X98977172Y-101800000D01*
X99675000Y-101800000D01*
X99675000Y-100775277D01*
X99751306Y-100819333D01*
X99865756Y-100850000D01*
X99984244Y-100850000D01*
X100098694Y-100819333D01*
X100175000Y-100775277D01*
X100175000Y-101800000D01*
X100872828Y-101800000D01*
X100872844Y-101799999D01*
X100932372Y-101793598D01*
X100932379Y-101793596D01*
X101067086Y-101743354D01*
X101067093Y-101743350D01*
X101182187Y-101657190D01*
X101182190Y-101657187D01*
X101268350Y-101542093D01*
X101268354Y-101542086D01*
X101298213Y-101462031D01*
X101340084Y-101406097D01*
X101405548Y-101381680D01*
X101473821Y-101396531D01*
X101502076Y-101417683D01*
X101552636Y-101468243D01*
X101552641Y-101468247D01*
X101660376Y-101546520D01*
X101730978Y-101597815D01*
X101847501Y-101657187D01*
X101927393Y-101697895D01*
X101927396Y-101697896D01*
X101994525Y-101719707D01*
X102137049Y-101766015D01*
X102354778Y-101800500D01*
X102354779Y-101800500D01*
X102575221Y-101800500D01*
X102575222Y-101800500D01*
X102792951Y-101766015D01*
X102863205Y-101743187D01*
X102933044Y-101741192D01*
X102989203Y-101773438D01*
X108203583Y-106987819D01*
X108237068Y-107049142D01*
X108232084Y-107118834D01*
X108190212Y-107174767D01*
X108124748Y-107199184D01*
X108115902Y-107199500D01*
X107120943Y-107199500D01*
X106968216Y-107240423D01*
X106968209Y-107240426D01*
X106831290Y-107319475D01*
X106831282Y-107319481D01*
X106719481Y-107431282D01*
X106719475Y-107431290D01*
X106640426Y-107568209D01*
X106640423Y-107568216D01*
X106599500Y-107720943D01*
X106599500Y-114515500D01*
X106579815Y-114582539D01*
X106527011Y-114628294D01*
X106475501Y-114639500D01*
X106302130Y-114639500D01*
X106302123Y-114639501D01*
X106242516Y-114645908D01*
X106107671Y-114696202D01*
X106107664Y-114696206D01*
X105992455Y-114782452D01*
X105992452Y-114782455D01*
X105906206Y-114897664D01*
X105906202Y-114897671D01*
X105855908Y-115032517D01*
X105849501Y-115092116D01*
X105849501Y-115092123D01*
X105849500Y-115092135D01*
X105849500Y-116887870D01*
X105849501Y-116887876D01*
X105855908Y-116947483D01*
X105906202Y-117082328D01*
X105906206Y-117082335D01*
X105992452Y-117197544D01*
X105992455Y-117197547D01*
X106107664Y-117283793D01*
X106107671Y-117283797D01*
X106129847Y-117292068D01*
X106242517Y-117334091D01*
X106302127Y-117340500D01*
X106312685Y-117340499D01*
X106379723Y-117360179D01*
X106400372Y-117376818D01*
X107070591Y-118047037D01*
X107007007Y-118064075D01*
X106892993Y-118129901D01*
X106799901Y-118222993D01*
X106734075Y-118337007D01*
X106717037Y-118400591D01*
X106084728Y-117768282D01*
X106084727Y-117768282D01*
X106045380Y-117822439D01*
X105948904Y-118011782D01*
X105883242Y-118213869D01*
X105883242Y-118213872D01*
X105850000Y-118423753D01*
X105850000Y-118636246D01*
X105883242Y-118846127D01*
X105883242Y-118846130D01*
X105948904Y-119048217D01*
X106045375Y-119237550D01*
X106084728Y-119291716D01*
X106717037Y-118659408D01*
X106734075Y-118722993D01*
X106799901Y-118837007D01*
X106892993Y-118930099D01*
X107007007Y-118995925D01*
X107070590Y-119012962D01*
X106438282Y-119645269D01*
X106438282Y-119645270D01*
X106492452Y-119684626D01*
X106492451Y-119684626D01*
X106501495Y-119689234D01*
X106552292Y-119737208D01*
X106569087Y-119805029D01*
X106546550Y-119871164D01*
X106501499Y-119910202D01*
X106492182Y-119914949D01*
X106320213Y-120039890D01*
X106169890Y-120190213D01*
X106044951Y-120362179D01*
X105948444Y-120551585D01*
X105882753Y-120753760D01*
X105849500Y-120963713D01*
X105849500Y-121176286D01*
X105873879Y-121330213D01*
X105882754Y-121386243D01*
X105923059Y-121510289D01*
X105948444Y-121588414D01*
X106044951Y-121777820D01*
X106169890Y-121949786D01*
X106320213Y-122100109D01*
X106492182Y-122225050D01*
X106500946Y-122229516D01*
X106551742Y-122277491D01*
X106568536Y-122345312D01*
X106545998Y-122411447D01*
X106500946Y-122450484D01*
X106492182Y-122454949D01*
X106320213Y-122579890D01*
X106169890Y-122730213D01*
X106044951Y-122902179D01*
X105948444Y-123091585D01*
X105882753Y-123293760D01*
X105849500Y-123503713D01*
X105849500Y-123716286D01*
X105882753Y-123926239D01*
X105948444Y-124128414D01*
X106044951Y-124317820D01*
X106169890Y-124489786D01*
X106320213Y-124640109D01*
X106492179Y-124765048D01*
X106492181Y-124765049D01*
X106492184Y-124765051D01*
X106681588Y-124861557D01*
X106883757Y-124927246D01*
X107093713Y-124960500D01*
X107093714Y-124960500D01*
X107306286Y-124960500D01*
X107306287Y-124960500D01*
X107516243Y-124927246D01*
X107718412Y-124861557D01*
X107907816Y-124765051D01*
X107929789Y-124749086D01*
X108079786Y-124640109D01*
X108079788Y-124640106D01*
X108079792Y-124640104D01*
X108230104Y-124489792D01*
X108230106Y-124489788D01*
X108230109Y-124489786D01*
X108355048Y-124317820D01*
X108355047Y-124317820D01*
X108355051Y-124317816D01*
X108451557Y-124128412D01*
X108517246Y-123926243D01*
X108550500Y-123716287D01*
X108550500Y-123503713D01*
X108517246Y-123293757D01*
X108451557Y-123091588D01*
X108355051Y-122902184D01*
X108355049Y-122902181D01*
X108355048Y-122902179D01*
X108230109Y-122730213D01*
X108079786Y-122579890D01*
X107907820Y-122454951D01*
X107907115Y-122454591D01*
X107899054Y-122450485D01*
X107848259Y-122402512D01*
X107831463Y-122334692D01*
X107853999Y-122268556D01*
X107899054Y-122229515D01*
X107907816Y-122225051D01*
X107929789Y-122209086D01*
X108079786Y-122100109D01*
X108079788Y-122100106D01*
X108079792Y-122100104D01*
X108230104Y-121949792D01*
X108230106Y-121949788D01*
X108230109Y-121949786D01*
X108355048Y-121777820D01*
X108355047Y-121777820D01*
X108355051Y-121777816D01*
X108451557Y-121588412D01*
X108517246Y-121386243D01*
X108550500Y-121176287D01*
X108550500Y-120963713D01*
X108517246Y-120753757D01*
X108451557Y-120551588D01*
X108355051Y-120362184D01*
X108355049Y-120362181D01*
X108355048Y-120362179D01*
X108230109Y-120190213D01*
X108079786Y-120039890D01*
X107907817Y-119914949D01*
X107898504Y-119910204D01*
X107847707Y-119862230D01*
X107830912Y-119794409D01*
X107853449Y-119728274D01*
X107898507Y-119689232D01*
X107907555Y-119684622D01*
X107961716Y-119645270D01*
X107961717Y-119645270D01*
X107329408Y-119012962D01*
X107392993Y-118995925D01*
X107507007Y-118930099D01*
X107600099Y-118837007D01*
X107665925Y-118722993D01*
X107682962Y-118659408D01*
X108315270Y-119291717D01*
X108315270Y-119291716D01*
X108354622Y-119237554D01*
X108451095Y-119048217D01*
X108516757Y-118846130D01*
X108516757Y-118846127D01*
X108550000Y-118636246D01*
X108550000Y-118423753D01*
X108516757Y-118213872D01*
X108516757Y-118213869D01*
X108451095Y-118011782D01*
X108354624Y-117822449D01*
X108315270Y-117768282D01*
X108315269Y-117768282D01*
X107682962Y-118400590D01*
X107665925Y-118337007D01*
X107600099Y-118222993D01*
X107507007Y-118129901D01*
X107392993Y-118064075D01*
X107329409Y-118047037D01*
X107999627Y-117376818D01*
X108060950Y-117343333D01*
X108087307Y-117340499D01*
X108097872Y-117340499D01*
X108157483Y-117334091D01*
X108292331Y-117283796D01*
X108407546Y-117197546D01*
X108493796Y-117082331D01*
X108544091Y-116947483D01*
X108550500Y-116887873D01*
X108550499Y-115092128D01*
X108544091Y-115032517D01*
X108496992Y-114906239D01*
X108493797Y-114897671D01*
X108493793Y-114897664D01*
X108407547Y-114782455D01*
X108407544Y-114782452D01*
X108292335Y-114696206D01*
X108292328Y-114696202D01*
X108157482Y-114645908D01*
X108157483Y-114645908D01*
X108097883Y-114639501D01*
X108097881Y-114639500D01*
X108097873Y-114639500D01*
X108097865Y-114639500D01*
X107924500Y-114639500D01*
X107857461Y-114619815D01*
X107811706Y-114567011D01*
X107800500Y-114515500D01*
X107800500Y-108524500D01*
X107820185Y-108457461D01*
X107872989Y-108411706D01*
X107924500Y-108400500D01*
X118875500Y-108400500D01*
X118942539Y-108420185D01*
X118988294Y-108472989D01*
X118999500Y-108524500D01*
X118999500Y-109749902D01*
X118979815Y-109816941D01*
X118963181Y-109837583D01*
X118084522Y-110716241D01*
X118023199Y-110749726D01*
X117958523Y-110746491D01*
X117916245Y-110732754D01*
X117740450Y-110704911D01*
X117706287Y-110699500D01*
X117493713Y-110699500D01*
X117459550Y-110704911D01*
X117283760Y-110732753D01*
X117081585Y-110798444D01*
X116892179Y-110894951D01*
X116720213Y-111019890D01*
X116569890Y-111170213D01*
X116444951Y-111342179D01*
X116348444Y-111531585D01*
X116282753Y-111733760D01*
X116261162Y-111870080D01*
X116249500Y-111943713D01*
X116249500Y-112156287D01*
X116282754Y-112366243D01*
X116310321Y-112451086D01*
X116348444Y-112568414D01*
X116444951Y-112757820D01*
X116569890Y-112929786D01*
X116720213Y-113080109D01*
X116892182Y-113205050D01*
X116900946Y-113209516D01*
X116951742Y-113257491D01*
X116968536Y-113325312D01*
X116945998Y-113391447D01*
X116900946Y-113430484D01*
X116892182Y-113434949D01*
X116720213Y-113559890D01*
X116569890Y-113710213D01*
X116444951Y-113882179D01*
X116348444Y-114071585D01*
X116282753Y-114273760D01*
X116273696Y-114330945D01*
X116249500Y-114483713D01*
X116249500Y-114696287D01*
X116282754Y-114906243D01*
X116343154Y-115092135D01*
X116348444Y-115108414D01*
X116444951Y-115297820D01*
X116569890Y-115469786D01*
X116720213Y-115620109D01*
X116892182Y-115745050D01*
X116900946Y-115749516D01*
X116951742Y-115797491D01*
X116968536Y-115865312D01*
X116945998Y-115931447D01*
X116900946Y-115970484D01*
X116892182Y-115974949D01*
X116720213Y-116099890D01*
X116569890Y-116250213D01*
X116444951Y-116422179D01*
X116348444Y-116611585D01*
X116282753Y-116813760D01*
X116249500Y-117023713D01*
X116249500Y-117236286D01*
X116266454Y-117343333D01*
X116282754Y-117446243D01*
X116347531Y-117645606D01*
X116348444Y-117648414D01*
X116444951Y-117837820D01*
X116569890Y-118009786D01*
X116720213Y-118160109D01*
X116892182Y-118285050D01*
X116900946Y-118289516D01*
X116951742Y-118337491D01*
X116968536Y-118405312D01*
X116945998Y-118471447D01*
X116900946Y-118510484D01*
X116892182Y-118514949D01*
X116720213Y-118639890D01*
X116569890Y-118790213D01*
X116444951Y-118962179D01*
X116348444Y-119151585D01*
X116348443Y-119151587D01*
X116348443Y-119151588D01*
X116282756Y-119353753D01*
X116282754Y-119353758D01*
X116249500Y-119563713D01*
X116249500Y-119776286D01*
X116270710Y-119910204D01*
X116282754Y-119986243D01*
X116342043Y-120168716D01*
X116348444Y-120188414D01*
X116444951Y-120377820D01*
X116569890Y-120549786D01*
X116720213Y-120700109D01*
X116892182Y-120825050D01*
X116900946Y-120829516D01*
X116951742Y-120877491D01*
X116968536Y-120945312D01*
X116945998Y-121011447D01*
X116900946Y-121050484D01*
X116892182Y-121054949D01*
X116720213Y-121179890D01*
X116569890Y-121330213D01*
X116444951Y-121502179D01*
X116348444Y-121691585D01*
X116282753Y-121893760D01*
X116249500Y-122103713D01*
X116249500Y-122316286D01*
X116282753Y-122526239D01*
X116348444Y-122728414D01*
X116444951Y-122917820D01*
X116569890Y-123089786D01*
X116683818Y-123203714D01*
X116717303Y-123265037D01*
X116712319Y-123334729D01*
X116670447Y-123390662D01*
X116639471Y-123407577D01*
X116507912Y-123456646D01*
X116507906Y-123456649D01*
X116392812Y-123542809D01*
X116392809Y-123542812D01*
X116306649Y-123657906D01*
X116306645Y-123657913D01*
X116256403Y-123792620D01*
X116256401Y-123792627D01*
X116250000Y-123852155D01*
X116250000Y-124500000D01*
X117166988Y-124500000D01*
X117134075Y-124557007D01*
X117100000Y-124684174D01*
X117100000Y-124815826D01*
X117134075Y-124942993D01*
X117166988Y-125000000D01*
X116250000Y-125000000D01*
X116250000Y-125647844D01*
X116256401Y-125707372D01*
X116256403Y-125707379D01*
X116306645Y-125842086D01*
X116306649Y-125842093D01*
X116392809Y-125957187D01*
X116392812Y-125957190D01*
X116507906Y-126043350D01*
X116507913Y-126043354D01*
X116642620Y-126093596D01*
X116642627Y-126093598D01*
X116702155Y-126099999D01*
X116702172Y-126100000D01*
X117350000Y-126100000D01*
X117350000Y-125183012D01*
X117407007Y-125215925D01*
X117534174Y-125250000D01*
X117665826Y-125250000D01*
X117792993Y-125215925D01*
X117850000Y-125183012D01*
X117850000Y-126100000D01*
X118497828Y-126100000D01*
X118497844Y-126099999D01*
X118557372Y-126093598D01*
X118557379Y-126093596D01*
X118692086Y-126043354D01*
X118692093Y-126043350D01*
X118807187Y-125957190D01*
X118807190Y-125957187D01*
X118893350Y-125842093D01*
X118893354Y-125842086D01*
X118943596Y-125707379D01*
X118943598Y-125707372D01*
X118949999Y-125647844D01*
X118950000Y-125647827D01*
X118950000Y-125000000D01*
X118033012Y-125000000D01*
X118065925Y-124942993D01*
X118100000Y-124815826D01*
X118100000Y-124684174D01*
X118065925Y-124557007D01*
X118033012Y-124500000D01*
X118950000Y-124500000D01*
X118950000Y-123852172D01*
X118949999Y-123852155D01*
X118943598Y-123792627D01*
X118943596Y-123792620D01*
X118893354Y-123657913D01*
X118893350Y-123657906D01*
X118807190Y-123542812D01*
X118807187Y-123542809D01*
X118692093Y-123456649D01*
X118692088Y-123456646D01*
X118560528Y-123407577D01*
X118504595Y-123365705D01*
X118480178Y-123300241D01*
X118495030Y-123231968D01*
X118516175Y-123203720D01*
X118630104Y-123089792D01*
X118696627Y-122998231D01*
X118755048Y-122917820D01*
X118755047Y-122917820D01*
X118755051Y-122917816D01*
X118851557Y-122728412D01*
X118917246Y-122526243D01*
X118950500Y-122316287D01*
X118950500Y-122103713D01*
X118917246Y-121893757D01*
X118851557Y-121691588D01*
X118755051Y-121502184D01*
X118755049Y-121502181D01*
X118755048Y-121502179D01*
X118630109Y-121330213D01*
X118479786Y-121179890D01*
X118307820Y-121054951D01*
X118307205Y-121054637D01*
X118299054Y-121050484D01*
X118248259Y-121002512D01*
X118231463Y-120934692D01*
X118253999Y-120868556D01*
X118299054Y-120829515D01*
X118307816Y-120825051D01*
X118329789Y-120809086D01*
X118479786Y-120700109D01*
X118479788Y-120700106D01*
X118479792Y-120700104D01*
X118630104Y-120549792D01*
X118630106Y-120549788D01*
X118630109Y-120549786D01*
X118755048Y-120377820D01*
X118755047Y-120377820D01*
X118755051Y-120377816D01*
X118851557Y-120188412D01*
X118917246Y-119986243D01*
X118950500Y-119776287D01*
X118950500Y-119563713D01*
X118917246Y-119353757D01*
X118903506Y-119311473D01*
X118901512Y-119241635D01*
X118933755Y-119185478D01*
X127987821Y-110131413D01*
X128049142Y-110097930D01*
X128118834Y-110102914D01*
X128174767Y-110144786D01*
X128199184Y-110210250D01*
X128199500Y-110219096D01*
X128199500Y-115543330D01*
X128199499Y-115543348D01*
X128199499Y-115709054D01*
X128199498Y-115709054D01*
X128210340Y-115749516D01*
X128240423Y-115861785D01*
X128258635Y-115893329D01*
X128263029Y-115900938D01*
X128263030Y-115900942D01*
X128263031Y-115900942D01*
X128305759Y-115974951D01*
X128319479Y-115998714D01*
X128319481Y-115998717D01*
X128438349Y-116117585D01*
X128438355Y-116117590D01*
X131506241Y-119185476D01*
X131539726Y-119246799D01*
X131536492Y-119311473D01*
X131522753Y-119353757D01*
X131489500Y-119563713D01*
X131489500Y-119776286D01*
X131510710Y-119910204D01*
X131522754Y-119986243D01*
X131582043Y-120168716D01*
X131588444Y-120188414D01*
X131684951Y-120377820D01*
X131809890Y-120549786D01*
X131960213Y-120700109D01*
X132132179Y-120825048D01*
X132132181Y-120825049D01*
X132132184Y-120825051D01*
X132141493Y-120829794D01*
X132192290Y-120877766D01*
X132209087Y-120945587D01*
X132186552Y-121011722D01*
X132141505Y-121050760D01*
X132132446Y-121055376D01*
X132132440Y-121055380D01*
X132078282Y-121094727D01*
X132078282Y-121094728D01*
X132710591Y-121727037D01*
X132647007Y-121744075D01*
X132532993Y-121809901D01*
X132439901Y-121902993D01*
X132374075Y-122017007D01*
X132357037Y-122080591D01*
X131724728Y-121448282D01*
X131724727Y-121448282D01*
X131685380Y-121502439D01*
X131588904Y-121691782D01*
X131523242Y-121893869D01*
X131523242Y-121893872D01*
X131490000Y-122103753D01*
X131490000Y-122316246D01*
X131523242Y-122526127D01*
X131523242Y-122526130D01*
X131588904Y-122728217D01*
X131685375Y-122917550D01*
X131724728Y-122971716D01*
X132357037Y-122339408D01*
X132374075Y-122402993D01*
X132439901Y-122517007D01*
X132532993Y-122610099D01*
X132647007Y-122675925D01*
X132710590Y-122692962D01*
X132041195Y-123362356D01*
X131979872Y-123395841D01*
X131965167Y-123394924D01*
X131965444Y-123397497D01*
X131882626Y-123406401D01*
X131882619Y-123406403D01*
X131747913Y-123456645D01*
X131747906Y-123456649D01*
X131632812Y-123542809D01*
X131632809Y-123542812D01*
X131546649Y-123657906D01*
X131546645Y-123657913D01*
X131496403Y-123792620D01*
X131496401Y-123792627D01*
X131490000Y-123852155D01*
X131490000Y-124500000D01*
X132406988Y-124500000D01*
X132374075Y-124557007D01*
X132340000Y-124684174D01*
X132340000Y-124815826D01*
X132374075Y-124942993D01*
X132406988Y-125000000D01*
X131490000Y-125000000D01*
X131490000Y-125647844D01*
X131496401Y-125707372D01*
X131496403Y-125707379D01*
X131546645Y-125842086D01*
X131546649Y-125842093D01*
X131632809Y-125957186D01*
X131714205Y-126018120D01*
X131756076Y-126074054D01*
X131761060Y-126143746D01*
X131727575Y-126205069D01*
X131666251Y-126238553D01*
X131641128Y-126241381D01*
X95724528Y-126598760D01*
X95657296Y-126579743D01*
X95611018Y-126527397D01*
X95599296Y-126475467D01*
X95597973Y-126241381D01*
X95550409Y-117822439D01*
X95549681Y-117693517D01*
X95544455Y-116768484D01*
X95532463Y-114645908D01*
X95514394Y-111447682D01*
X95900000Y-111447682D01*
X95900000Y-111652317D01*
X95932009Y-111854417D01*
X95995244Y-112049031D01*
X96088141Y-112231350D01*
X96088147Y-112231359D01*
X96120523Y-112275921D01*
X96120524Y-112275922D01*
X96800000Y-111596446D01*
X96800000Y-111602661D01*
X96827259Y-111704394D01*
X96879920Y-111795606D01*
X96954394Y-111870080D01*
X97045606Y-111922741D01*
X97147339Y-111950000D01*
X97153553Y-111950000D01*
X96474076Y-112629474D01*
X96518650Y-112661859D01*
X96700968Y-112754755D01*
X96895582Y-112817990D01*
X97097683Y-112850000D01*
X97302317Y-112850000D01*
X97504417Y-112817990D01*
X97699031Y-112754755D01*
X97881349Y-112661859D01*
X97925921Y-112629474D01*
X97246447Y-111950000D01*
X97252661Y-111950000D01*
X97354394Y-111922741D01*
X97445606Y-111870080D01*
X97520080Y-111795606D01*
X97572741Y-111704394D01*
X97600000Y-111602661D01*
X97600000Y-111596447D01*
X98279474Y-112275921D01*
X98311861Y-112231347D01*
X98311861Y-112231346D01*
X98359234Y-112138371D01*
X98407208Y-112087575D01*
X98475028Y-112070779D01*
X98541164Y-112093316D01*
X98580203Y-112138369D01*
X98627713Y-112231611D01*
X98748028Y-112397213D01*
X98892786Y-112541971D01*
X99013226Y-112629474D01*
X99058390Y-112662287D01*
X99168135Y-112718205D01*
X99240776Y-112755218D01*
X99240778Y-112755218D01*
X99240781Y-112755220D01*
X99285454Y-112769735D01*
X99435465Y-112818477D01*
X99536557Y-112834488D01*
X99637648Y-112850500D01*
X99637649Y-112850500D01*
X99842351Y-112850500D01*
X99842352Y-112850500D01*
X100044534Y-112818477D01*
X100058842Y-112813827D01*
X100128682Y-112811831D01*
X100184842Y-112844077D01*
X101963181Y-114622416D01*
X101996666Y-114683739D01*
X101999500Y-114710097D01*
X101999500Y-118875500D01*
X101979815Y-118942539D01*
X101927011Y-118988294D01*
X101875500Y-118999500D01*
X101721155Y-118999500D01*
X101566510Y-119030261D01*
X101566498Y-119030264D01*
X101420827Y-119090602D01*
X101420814Y-119090609D01*
X101289125Y-119178602D01*
X101222447Y-119199480D01*
X101220234Y-119199500D01*
X100851568Y-119199500D01*
X100822127Y-119190855D01*
X100792141Y-119184332D01*
X100787125Y-119180577D01*
X100784529Y-119179815D01*
X100763887Y-119163181D01*
X100621385Y-119020679D01*
X100587900Y-118959356D01*
X100592884Y-118889664D01*
X100634756Y-118833731D01*
X100636182Y-118832679D01*
X100692215Y-118791969D01*
X100692215Y-118791968D01*
X100692219Y-118791966D01*
X100836966Y-118647219D01*
X100836968Y-118647215D01*
X100836971Y-118647213D01*
X100922130Y-118530000D01*
X100957287Y-118481610D01*
X101050220Y-118299219D01*
X101113477Y-118104534D01*
X101145500Y-117902352D01*
X101145500Y-117697648D01*
X101137257Y-117645606D01*
X101113477Y-117495465D01*
X101074926Y-117376818D01*
X101050220Y-117300781D01*
X101050218Y-117300778D01*
X101050218Y-117300776D01*
X101004794Y-117211628D01*
X100957287Y-117118390D01*
X100925092Y-117074077D01*
X100836971Y-116952786D01*
X100692213Y-116808028D01*
X100526613Y-116687715D01*
X100526612Y-116687714D01*
X100526610Y-116687713D01*
X100469653Y-116658691D01*
X100344223Y-116594781D01*
X100149534Y-116531522D01*
X99974995Y-116503878D01*
X99947352Y-116499500D01*
X99742648Y-116499500D01*
X99718329Y-116503351D01*
X99540465Y-116531522D01*
X99345776Y-116594781D01*
X99163386Y-116687715D01*
X98997786Y-116808028D01*
X98853028Y-116952786D01*
X98732713Y-117118388D01*
X98685203Y-117211630D01*
X98637228Y-117262426D01*
X98569407Y-117279220D01*
X98503272Y-117256682D01*
X98464234Y-117211628D01*
X98416861Y-117118652D01*
X98384474Y-117074077D01*
X98384474Y-117074076D01*
X97705000Y-117753551D01*
X97705000Y-117747339D01*
X97677741Y-117645606D01*
X97625080Y-117554394D01*
X97550606Y-117479920D01*
X97459394Y-117427259D01*
X97357661Y-117400000D01*
X97351446Y-117400000D01*
X98030922Y-116720524D01*
X98030921Y-116720523D01*
X97986359Y-116688147D01*
X97986350Y-116688141D01*
X97804031Y-116595244D01*
X97609417Y-116532009D01*
X97407317Y-116500000D01*
X97202683Y-116500000D01*
X97000582Y-116532009D01*
X96805968Y-116595244D01*
X96623644Y-116688143D01*
X96579077Y-116720523D01*
X96579077Y-116720524D01*
X97258554Y-117400000D01*
X97252339Y-117400000D01*
X97150606Y-117427259D01*
X97059394Y-117479920D01*
X96984920Y-117554394D01*
X96932259Y-117645606D01*
X96905000Y-117747339D01*
X96905000Y-117753553D01*
X96225524Y-117074077D01*
X96225523Y-117074077D01*
X96193143Y-117118644D01*
X96100244Y-117300968D01*
X96037009Y-117495582D01*
X96005000Y-117697682D01*
X96005000Y-117902317D01*
X96037009Y-118104417D01*
X96100244Y-118299031D01*
X96193141Y-118481350D01*
X96193147Y-118481359D01*
X96225523Y-118525921D01*
X96225524Y-118525922D01*
X96905000Y-117846446D01*
X96905000Y-117852661D01*
X96932259Y-117954394D01*
X96984920Y-118045606D01*
X97059394Y-118120080D01*
X97150606Y-118172741D01*
X97252339Y-118200000D01*
X97258553Y-118200000D01*
X96579076Y-118879474D01*
X96623650Y-118911859D01*
X96805968Y-119004755D01*
X97000582Y-119067990D01*
X97202683Y-119100000D01*
X97407317Y-119100000D01*
X97609417Y-119067990D01*
X97804031Y-119004755D01*
X97986349Y-118911859D01*
X98030921Y-118879474D01*
X97351447Y-118200000D01*
X97357661Y-118200000D01*
X97459394Y-118172741D01*
X97550606Y-118120080D01*
X97625080Y-118045606D01*
X97677741Y-117954394D01*
X97705000Y-117852661D01*
X97705000Y-117846447D01*
X98384474Y-118525921D01*
X98416861Y-118481347D01*
X98416861Y-118481346D01*
X98464234Y-118388371D01*
X98512208Y-118337575D01*
X98580028Y-118320779D01*
X98646164Y-118343316D01*
X98685203Y-118388369D01*
X98732713Y-118481611D01*
X98853028Y-118647213D01*
X98853034Y-118647219D01*
X98997781Y-118791966D01*
X99163390Y-118912287D01*
X99176791Y-118919115D01*
X99227587Y-118967085D01*
X99244499Y-119029600D01*
X99244499Y-119172583D01*
X99244498Y-119172583D01*
X99276420Y-119291717D01*
X99285423Y-119325314D01*
X99301844Y-119353756D01*
X99301845Y-119353758D01*
X99301846Y-119353758D01*
X99364479Y-119462243D01*
X99364481Y-119462246D01*
X99483349Y-119581114D01*
X99483355Y-119581119D01*
X100066610Y-120164374D01*
X100066620Y-120164385D01*
X100070950Y-120168715D01*
X100070951Y-120168716D01*
X100182755Y-120280520D01*
X100269566Y-120330639D01*
X100269568Y-120330641D01*
X100307622Y-120352611D01*
X100319686Y-120359577D01*
X100472414Y-120400501D01*
X100472417Y-120400501D01*
X100638124Y-120400501D01*
X100638140Y-120400500D01*
X101220234Y-120400500D01*
X101287273Y-120420185D01*
X101289125Y-120421398D01*
X101420814Y-120509390D01*
X101420827Y-120509397D01*
X101522687Y-120551588D01*
X101566503Y-120569737D01*
X101671048Y-120590532D01*
X101721147Y-120600498D01*
X101721148Y-120600498D01*
X101721158Y-120600500D01*
X101721167Y-120600500D01*
X101725653Y-120600942D01*
X101790442Y-120627098D01*
X101830805Y-120684130D01*
X101833927Y-120753930D01*
X101831748Y-120760590D01*
X101832031Y-120760676D01*
X101830261Y-120766510D01*
X101799500Y-120921153D01*
X101799500Y-121078846D01*
X101830261Y-121233489D01*
X101830264Y-121233501D01*
X101890602Y-121379172D01*
X101890609Y-121379185D01*
X101978210Y-121510288D01*
X101978213Y-121510292D01*
X102089707Y-121621786D01*
X102089711Y-121621789D01*
X102220814Y-121709390D01*
X102220827Y-121709397D01*
X102366498Y-121769735D01*
X102366503Y-121769737D01*
X102521153Y-121800499D01*
X102521156Y-121800500D01*
X102521158Y-121800500D01*
X102678844Y-121800500D01*
X102678845Y-121800499D01*
X102833497Y-121769737D01*
X102979179Y-121709394D01*
X103110289Y-121621789D01*
X103221789Y-121510289D01*
X103309394Y-121379179D01*
X103369737Y-121233497D01*
X103400500Y-121078842D01*
X103400500Y-120921158D01*
X103400500Y-120921155D01*
X103400499Y-120921153D01*
X103369737Y-120766503D01*
X103364459Y-120753760D01*
X103309397Y-120620827D01*
X103309390Y-120620814D01*
X103221398Y-120489125D01*
X103200520Y-120422447D01*
X103200500Y-120420234D01*
X103200500Y-114499060D01*
X103200501Y-114499047D01*
X103200501Y-114330945D01*
X103200501Y-114330943D01*
X103159577Y-114178215D01*
X103080520Y-114041284D01*
X101034076Y-111994841D01*
X101000592Y-111933519D01*
X101003828Y-111868841D01*
X101008477Y-111854534D01*
X101040500Y-111652352D01*
X101040500Y-111447648D01*
X101023795Y-111342179D01*
X101008477Y-111245465D01*
X100955413Y-111082152D01*
X100945220Y-111050781D01*
X100945218Y-111050778D01*
X100945218Y-111050776D01*
X100897406Y-110956941D01*
X100852287Y-110868390D01*
X100820092Y-110824077D01*
X100731971Y-110702786D01*
X100587213Y-110558028D01*
X100421613Y-110437715D01*
X100421612Y-110437714D01*
X100421610Y-110437713D01*
X100364653Y-110408691D01*
X100239223Y-110344781D01*
X100044534Y-110281522D01*
X99869995Y-110253878D01*
X99842352Y-110249500D01*
X99637648Y-110249500D01*
X99613329Y-110253351D01*
X99435465Y-110281522D01*
X99240776Y-110344781D01*
X99058386Y-110437715D01*
X98892786Y-110558028D01*
X98748028Y-110702786D01*
X98627713Y-110868388D01*
X98580203Y-110961630D01*
X98532228Y-111012426D01*
X98464407Y-111029220D01*
X98398272Y-111006682D01*
X98359234Y-110961628D01*
X98311861Y-110868652D01*
X98279474Y-110824077D01*
X98279474Y-110824076D01*
X97600000Y-111503551D01*
X97600000Y-111497339D01*
X97572741Y-111395606D01*
X97520080Y-111304394D01*
X97445606Y-111229920D01*
X97354394Y-111177259D01*
X97252661Y-111150000D01*
X97246446Y-111150000D01*
X97925922Y-110470524D01*
X97925921Y-110470523D01*
X97881359Y-110438147D01*
X97881350Y-110438141D01*
X97699031Y-110345244D01*
X97504417Y-110282009D01*
X97302317Y-110250000D01*
X97097683Y-110250000D01*
X96895582Y-110282009D01*
X96700968Y-110345244D01*
X96518644Y-110438143D01*
X96474077Y-110470523D01*
X96474077Y-110470524D01*
X97153554Y-111150000D01*
X97147339Y-111150000D01*
X97045606Y-111177259D01*
X96954394Y-111229920D01*
X96879920Y-111304394D01*
X96827259Y-111395606D01*
X96800000Y-111497339D01*
X96800000Y-111503553D01*
X96120524Y-110824077D01*
X96120523Y-110824077D01*
X96088143Y-110868644D01*
X95995244Y-111050968D01*
X95932009Y-111245582D01*
X95900000Y-111447682D01*
X95514394Y-111447682D01*
X95505297Y-109837583D01*
X95453104Y-100599339D01*
X95446608Y-99449552D01*
X95406985Y-92436433D01*
X95376451Y-87031947D01*
X96450000Y-87031947D01*
X96450000Y-87268052D01*
X96486934Y-87501247D01*
X96559897Y-87725802D01*
X96667087Y-87936174D01*
X96727338Y-88019104D01*
X96727340Y-88019105D01*
X97426212Y-87320233D01*
X97437482Y-87362292D01*
X97509890Y-87487708D01*
X97612292Y-87590110D01*
X97737708Y-87662518D01*
X97779765Y-87673787D01*
X97080893Y-88372658D01*
X97163828Y-88432914D01*
X97374197Y-88540102D01*
X97598752Y-88613065D01*
X97598751Y-88613065D01*
X97831948Y-88650000D01*
X98068052Y-88650000D01*
X98301247Y-88613065D01*
X98525802Y-88540102D01*
X98736163Y-88432918D01*
X98736169Y-88432914D01*
X98819104Y-88372658D01*
X98819105Y-88372658D01*
X98120233Y-87673787D01*
X98162292Y-87662518D01*
X98287708Y-87590110D01*
X98390110Y-87487708D01*
X98462518Y-87362292D01*
X98473787Y-87320234D01*
X99172658Y-88019105D01*
X99172658Y-88019104D01*
X99232914Y-87936169D01*
X99232918Y-87936163D01*
X99340102Y-87725802D01*
X99413065Y-87501247D01*
X99450000Y-87268052D01*
X99450000Y-87031947D01*
X102950000Y-87031947D01*
X102950000Y-87268052D01*
X102986934Y-87501247D01*
X103059897Y-87725802D01*
X103167087Y-87936174D01*
X103227338Y-88019104D01*
X103227340Y-88019105D01*
X103926212Y-87320233D01*
X103937482Y-87362292D01*
X104009890Y-87487708D01*
X104112292Y-87590110D01*
X104237708Y-87662518D01*
X104279765Y-87673787D01*
X103580893Y-88372658D01*
X103663828Y-88432914D01*
X103874197Y-88540102D01*
X104098752Y-88613065D01*
X104098751Y-88613065D01*
X104331948Y-88650000D01*
X104568052Y-88650000D01*
X104801247Y-88613065D01*
X105025802Y-88540102D01*
X105236163Y-88432918D01*
X105236169Y-88432914D01*
X105319104Y-88372658D01*
X105319105Y-88372658D01*
X104620233Y-87673787D01*
X104662292Y-87662518D01*
X104787708Y-87590110D01*
X104890110Y-87487708D01*
X104962518Y-87362292D01*
X104973787Y-87320234D01*
X105672658Y-88019105D01*
X105672658Y-88019104D01*
X105732914Y-87936169D01*
X105732918Y-87936163D01*
X105840102Y-87725802D01*
X105913065Y-87501247D01*
X105950000Y-87268052D01*
X105950000Y-87031947D01*
X105913065Y-86798752D01*
X105840102Y-86574197D01*
X105732914Y-86363828D01*
X105672658Y-86280894D01*
X105672658Y-86280893D01*
X104973787Y-86979765D01*
X104962518Y-86937708D01*
X104890110Y-86812292D01*
X104787708Y-86709890D01*
X104662292Y-86637482D01*
X104620234Y-86626212D01*
X105319105Y-85927340D01*
X105319104Y-85927338D01*
X105236174Y-85867087D01*
X105025802Y-85759897D01*
X104801247Y-85686934D01*
X104801248Y-85686934D01*
X104568052Y-85650000D01*
X104331948Y-85650000D01*
X104098752Y-85686934D01*
X103874197Y-85759897D01*
X103663830Y-85867084D01*
X103580894Y-85927340D01*
X104279766Y-86626212D01*
X104237708Y-86637482D01*
X104112292Y-86709890D01*
X104009890Y-86812292D01*
X103937482Y-86937708D01*
X103926212Y-86979766D01*
X103227340Y-86280894D01*
X103167084Y-86363830D01*
X103059897Y-86574197D01*
X102986934Y-86798752D01*
X102950000Y-87031947D01*
X99450000Y-87031947D01*
X99413065Y-86798752D01*
X99340102Y-86574197D01*
X99232914Y-86363828D01*
X99172658Y-86280894D01*
X99172658Y-86280893D01*
X98473787Y-86979765D01*
X98462518Y-86937708D01*
X98390110Y-86812292D01*
X98287708Y-86709890D01*
X98162292Y-86637482D01*
X98120234Y-86626212D01*
X98819105Y-85927340D01*
X98819104Y-85927339D01*
X98736174Y-85867087D01*
X98525802Y-85759897D01*
X98301247Y-85686934D01*
X98301248Y-85686934D01*
X98068052Y-85650000D01*
X97831948Y-85650000D01*
X97598752Y-85686934D01*
X97374197Y-85759897D01*
X97163830Y-85867084D01*
X97080894Y-85927340D01*
X97779766Y-86626212D01*
X97737708Y-86637482D01*
X97612292Y-86709890D01*
X97509890Y-86812292D01*
X97437482Y-86937708D01*
X97426212Y-86979766D01*
X96727340Y-86280894D01*
X96667084Y-86363830D01*
X96559897Y-86574197D01*
X96486934Y-86798752D01*
X96450000Y-87031947D01*
X95376451Y-87031947D01*
X95371663Y-86184424D01*
X95370482Y-85975300D01*
X95349155Y-82200499D01*
X95274711Y-69024003D01*
X95294016Y-68956857D01*
X95346561Y-68910804D01*
X95415662Y-68900470D01*
X95479381Y-68929136D01*
X95486390Y-68935625D01*
X96255139Y-69704374D01*
X96255149Y-69704385D01*
X96259479Y-69708715D01*
X96259480Y-69708716D01*
X96371284Y-69820520D01*
X96458095Y-69870639D01*
X96458097Y-69870641D01*
X96496151Y-69892611D01*
X96508215Y-69899577D01*
X96660943Y-69940500D01*
X96819057Y-69940500D01*
X96970398Y-69940500D01*
X97037437Y-69960185D01*
X97080882Y-70008204D01*
X97086821Y-70019859D01*
X97087715Y-70021614D01*
X97208028Y-70187213D01*
X97208034Y-70187219D01*
X97352781Y-70331966D01*
X97518390Y-70452287D01*
X97531793Y-70459116D01*
X97582589Y-70507088D01*
X97599500Y-70569601D01*
X97599500Y-76913330D01*
X97599499Y-76913348D01*
X97599499Y-77079054D01*
X97599498Y-77079054D01*
X97640423Y-77231785D01*
X97669358Y-77281900D01*
X97669359Y-77281904D01*
X97669360Y-77281904D01*
X97719479Y-77368714D01*
X97719481Y-77368717D01*
X97838349Y-77487585D01*
X97838355Y-77487590D01*
X101765425Y-81414660D01*
X101798910Y-81475983D01*
X101799361Y-81478149D01*
X101830261Y-81633491D01*
X101830264Y-81633501D01*
X101890602Y-81779172D01*
X101890609Y-81779185D01*
X101978210Y-81910288D01*
X101978213Y-81910292D01*
X102089707Y-82021786D01*
X102089711Y-82021789D01*
X102220814Y-82109390D01*
X102220827Y-82109397D01*
X102366498Y-82169735D01*
X102366503Y-82169737D01*
X102521153Y-82200499D01*
X102521156Y-82200500D01*
X102521158Y-82200500D01*
X102678844Y-82200500D01*
X102678845Y-82200499D01*
X102833497Y-82169737D01*
X102979179Y-82109394D01*
X103110289Y-82021789D01*
X103221789Y-81910289D01*
X103309394Y-81779179D01*
X103369737Y-81633497D01*
X103400500Y-81478842D01*
X103400500Y-81321158D01*
X103400500Y-81321155D01*
X103400499Y-81321153D01*
X103369738Y-81166510D01*
X103369737Y-81166503D01*
X103369735Y-81166498D01*
X103309397Y-81020827D01*
X103309390Y-81020814D01*
X103221789Y-80889711D01*
X103221786Y-80889707D01*
X103110292Y-80778213D01*
X103110288Y-80778210D01*
X102979185Y-80690609D01*
X102979172Y-80690602D01*
X102833501Y-80630264D01*
X102833491Y-80630261D01*
X102678151Y-80599362D01*
X102616241Y-80566977D01*
X102614662Y-80565426D01*
X98836819Y-76787583D01*
X98803334Y-76726260D01*
X98800500Y-76699902D01*
X98800500Y-70569601D01*
X98820185Y-70502562D01*
X98868206Y-70459116D01*
X98881610Y-70452287D01*
X99047219Y-70331966D01*
X99191966Y-70187219D01*
X99191968Y-70187215D01*
X99191971Y-70187213D01*
X99244732Y-70114590D01*
X99312287Y-70021610D01*
X99405220Y-69839219D01*
X99468477Y-69644534D01*
X99500500Y-69442352D01*
X99500500Y-69237648D01*
X99468477Y-69035466D01*
X99464752Y-69024003D01*
X99405218Y-68840776D01*
X99371503Y-68774607D01*
X99312287Y-68658390D01*
X99294719Y-68634210D01*
X99191971Y-68492786D01*
X99047213Y-68348028D01*
X98881614Y-68227715D01*
X98875006Y-68224348D01*
X98788917Y-68180483D01*
X98738123Y-68132511D01*
X98721328Y-68064690D01*
X98743865Y-67998555D01*
X98788917Y-67959516D01*
X98881610Y-67912287D01*
X98965646Y-67851232D01*
X99047213Y-67791971D01*
X99047215Y-67791968D01*
X99047219Y-67791966D01*
X99191966Y-67647219D01*
X99191968Y-67647215D01*
X99191971Y-67647213D01*
X99312284Y-67481614D01*
X99312285Y-67481613D01*
X99312287Y-67481610D01*
X99319117Y-67468204D01*
X99367091Y-67417409D01*
X99429602Y-67400500D01*
X103304021Y-67400500D01*
X103371060Y-67420185D01*
X103416815Y-67472989D01*
X103426494Y-67505102D01*
X103453445Y-67675265D01*
X103510619Y-67851232D01*
X103510620Y-67851235D01*
X103565792Y-67959515D01*
X103594622Y-68016096D01*
X103703379Y-68165787D01*
X103834213Y-68296621D01*
X103838421Y-68299678D01*
X103838432Y-68299686D01*
X103881094Y-68355019D01*
X103887069Y-68424633D01*
X103854459Y-68486426D01*
X103838432Y-68500314D01*
X103834210Y-68503381D01*
X103703381Y-68634210D01*
X103703381Y-68634211D01*
X103703379Y-68634213D01*
X103684620Y-68660033D01*
X103594622Y-68783903D01*
X103510620Y-68948764D01*
X103510619Y-68948767D01*
X103453445Y-69124734D01*
X103424500Y-69307486D01*
X103424500Y-69492513D01*
X103453445Y-69675265D01*
X103510619Y-69851232D01*
X103510620Y-69851235D01*
X103566134Y-69960185D01*
X103594622Y-70016096D01*
X103703379Y-70165787D01*
X103834213Y-70296621D01*
X103838421Y-70299678D01*
X103838432Y-70299686D01*
X103881094Y-70355019D01*
X103887069Y-70424633D01*
X103854459Y-70486426D01*
X103838432Y-70500314D01*
X103834210Y-70503381D01*
X103703381Y-70634210D01*
X103703381Y-70634211D01*
X103703379Y-70634213D01*
X103656672Y-70698499D01*
X103594622Y-70783903D01*
X103510620Y-70948764D01*
X103510619Y-70948767D01*
X103453445Y-71124734D01*
X103424500Y-71307486D01*
X103424500Y-71492513D01*
X103453445Y-71675265D01*
X103510619Y-71851232D01*
X103510620Y-71851235D01*
X103594622Y-72016096D01*
X103703379Y-72165787D01*
X103834213Y-72296621D01*
X103838421Y-72299678D01*
X103838432Y-72299686D01*
X103881094Y-72355019D01*
X103887069Y-72424633D01*
X103854459Y-72486426D01*
X103838432Y-72500314D01*
X103834210Y-72503381D01*
X103703381Y-72634210D01*
X103703381Y-72634211D01*
X103703379Y-72634213D01*
X103686617Y-72657284D01*
X103594622Y-72783903D01*
X103510620Y-72948764D01*
X103510619Y-72948767D01*
X103453445Y-73124734D01*
X103424500Y-73307486D01*
X103424500Y-73492513D01*
X103453445Y-73675265D01*
X103510619Y-73851232D01*
X103510620Y-73851235D01*
X103594622Y-74016096D01*
X103703379Y-74165787D01*
X103834213Y-74296621D01*
X103838421Y-74299678D01*
X103838432Y-74299686D01*
X103881094Y-74355019D01*
X103887069Y-74424633D01*
X103854459Y-74486426D01*
X103838432Y-74500314D01*
X103834210Y-74503381D01*
X103703381Y-74634210D01*
X103703381Y-74634211D01*
X103703379Y-74634213D01*
X103656672Y-74698499D01*
X103594622Y-74783903D01*
X103510620Y-74948764D01*
X103510619Y-74948767D01*
X103453445Y-75124734D01*
X103424500Y-75307486D01*
X103424500Y-75492513D01*
X103453445Y-75675265D01*
X103510619Y-75851232D01*
X103510620Y-75851235D01*
X103522087Y-75873739D01*
X103594622Y-76016096D01*
X103703379Y-76165787D01*
X103834213Y-76296621D01*
X103834216Y-76296623D01*
X103908831Y-76350834D01*
X103923806Y-76370254D01*
X104553554Y-77000000D01*
X104547339Y-77000000D01*
X104445606Y-77027259D01*
X104354394Y-77079920D01*
X104279920Y-77154394D01*
X104227259Y-77245606D01*
X104200000Y-77347339D01*
X104200000Y-77353553D01*
X103610015Y-76763568D01*
X103595049Y-76784167D01*
X103511084Y-76948956D01*
X103511083Y-76948959D01*
X103453933Y-77124852D01*
X103425000Y-77307526D01*
X103425000Y-77492473D01*
X103453933Y-77675147D01*
X103511083Y-77851040D01*
X103511084Y-77851043D01*
X103595050Y-78015834D01*
X103610015Y-78036430D01*
X103610016Y-78036431D01*
X104200000Y-77446447D01*
X104200000Y-77452661D01*
X104227259Y-77554394D01*
X104279920Y-77645606D01*
X104354394Y-77720080D01*
X104445606Y-77772741D01*
X104547339Y-77800000D01*
X104553553Y-77800000D01*
X103963568Y-78389983D01*
X103963568Y-78389984D01*
X103984165Y-78404949D01*
X104148956Y-78488915D01*
X104148959Y-78488916D01*
X104324852Y-78546066D01*
X104507527Y-78575000D01*
X104692473Y-78575000D01*
X104875147Y-78546066D01*
X105051040Y-78488916D01*
X105051043Y-78488915D01*
X105215836Y-78404947D01*
X105215845Y-78404942D01*
X105236430Y-78389984D01*
X105236431Y-78389983D01*
X104646448Y-77800000D01*
X104652661Y-77800000D01*
X104754394Y-77772741D01*
X104845606Y-77720080D01*
X104920080Y-77645606D01*
X104972741Y-77554394D01*
X105000000Y-77452661D01*
X105000000Y-77446448D01*
X105589983Y-78036431D01*
X105589984Y-78036430D01*
X105604942Y-78015845D01*
X105604947Y-78015836D01*
X105688915Y-77851043D01*
X105688916Y-77851040D01*
X105746066Y-77675147D01*
X105775000Y-77492473D01*
X105775000Y-77307526D01*
X105746066Y-77124852D01*
X105688916Y-76948959D01*
X105688915Y-76948956D01*
X105604949Y-76784165D01*
X105589983Y-76763568D01*
X105000000Y-77353551D01*
X105000000Y-77347339D01*
X104972741Y-77245606D01*
X104920080Y-77154394D01*
X104845606Y-77079920D01*
X104754394Y-77027259D01*
X104652661Y-77000000D01*
X104646447Y-77000000D01*
X105260675Y-76385771D01*
X105291165Y-76350836D01*
X105365787Y-76296621D01*
X105496621Y-76165787D01*
X105605378Y-76016096D01*
X105689379Y-75851235D01*
X105746555Y-75675264D01*
X105775500Y-75492514D01*
X105775500Y-75307486D01*
X105746555Y-75124736D01*
X105689379Y-74948765D01*
X105689379Y-74948764D01*
X105605377Y-74783903D01*
X105496621Y-74634213D01*
X105365787Y-74503379D01*
X105361576Y-74500319D01*
X105318909Y-74444994D01*
X105312926Y-74375381D01*
X105345529Y-74313585D01*
X105361570Y-74299684D01*
X105365787Y-74296621D01*
X105496621Y-74165787D01*
X105605378Y-74016096D01*
X105689379Y-73851235D01*
X105746555Y-73675264D01*
X105775500Y-73492514D01*
X105775500Y-73307486D01*
X105746555Y-73124736D01*
X105689379Y-72948765D01*
X105689379Y-72948764D01*
X105610631Y-72794214D01*
X105605378Y-72783904D01*
X105496621Y-72634213D01*
X105365787Y-72503379D01*
X105361576Y-72500319D01*
X105318909Y-72444994D01*
X105312926Y-72375381D01*
X105345529Y-72313585D01*
X105361570Y-72299684D01*
X105365787Y-72296621D01*
X105496621Y-72165787D01*
X105605378Y-72016096D01*
X105689379Y-71851235D01*
X105746555Y-71675264D01*
X105775500Y-71492514D01*
X105775500Y-71307486D01*
X105746555Y-71124736D01*
X105689379Y-70948765D01*
X105689379Y-70948764D01*
X105605377Y-70783903D01*
X105496621Y-70634213D01*
X105365787Y-70503379D01*
X105361576Y-70500319D01*
X105318909Y-70444994D01*
X105312926Y-70375381D01*
X105345529Y-70313585D01*
X105361570Y-70299684D01*
X105365787Y-70296621D01*
X105496621Y-70165787D01*
X105605378Y-70016096D01*
X105689379Y-69851235D01*
X105746555Y-69675264D01*
X105775500Y-69492514D01*
X105775500Y-69307486D01*
X105746555Y-69124736D01*
X105713825Y-69024003D01*
X105689380Y-68948767D01*
X105689379Y-68948764D01*
X105605377Y-68783903D01*
X105496621Y-68634213D01*
X105365787Y-68503379D01*
X105361576Y-68500319D01*
X105318909Y-68444994D01*
X105312926Y-68375381D01*
X105345529Y-68313585D01*
X105361570Y-68299684D01*
X105365787Y-68296621D01*
X105496621Y-68165787D01*
X105605378Y-68016096D01*
X105689379Y-67851235D01*
X105746555Y-67675264D01*
X105775500Y-67492514D01*
X105775500Y-67307486D01*
X105746555Y-67124736D01*
X105689379Y-66948765D01*
X105689379Y-66948764D01*
X105605377Y-66783903D01*
X105496621Y-66634213D01*
X105365787Y-66503379D01*
X105361576Y-66500319D01*
X105318909Y-66444994D01*
X105312926Y-66375381D01*
X105345529Y-66313585D01*
X105361570Y-66299684D01*
X105365787Y-66296621D01*
X105496621Y-66165787D01*
X105605378Y-66016096D01*
X105689379Y-65851235D01*
X105746555Y-65675264D01*
X105746694Y-65674385D01*
X105746840Y-65674076D01*
X105747691Y-65670533D01*
X105748434Y-65670711D01*
X105776610Y-65611250D01*
X105835915Y-65574308D01*
X105905778Y-65575293D01*
G37*
%TD.AperFunction*%
%TA.AperFunction,Conductor*%
G36*
X138775940Y-56223067D02*
G01*
X138842784Y-56243401D01*
X138888024Y-56296647D01*
X138898730Y-56348124D01*
X138893616Y-56944671D01*
X138873358Y-57011539D01*
X138820164Y-57056840D01*
X138789020Y-57066081D01*
X138683759Y-57082753D01*
X138481585Y-57148444D01*
X138292179Y-57244951D01*
X138120213Y-57369890D01*
X137969890Y-57520213D01*
X137844951Y-57692179D01*
X137748444Y-57881585D01*
X137682753Y-58083760D01*
X137649500Y-58293713D01*
X137649500Y-58506286D01*
X137682753Y-58716239D01*
X137748444Y-58918414D01*
X137844951Y-59107820D01*
X137969890Y-59279786D01*
X138120213Y-59430109D01*
X138292179Y-59555048D01*
X138292181Y-59555049D01*
X138292184Y-59555051D01*
X138377861Y-59598705D01*
X138481583Y-59651555D01*
X138481585Y-59651555D01*
X138481588Y-59651557D01*
X138683757Y-59717246D01*
X138764089Y-59729969D01*
X138827220Y-59759896D01*
X138864151Y-59819207D01*
X138868683Y-59853504D01*
X138328185Y-122911613D01*
X138307927Y-122978481D01*
X138291872Y-122998231D01*
X138169889Y-123120215D01*
X138044951Y-123292179D01*
X137948444Y-123481585D01*
X137882753Y-123683760D01*
X137856082Y-123852155D01*
X137849500Y-123893713D01*
X137849500Y-124106287D01*
X137882754Y-124316243D01*
X137893690Y-124349901D01*
X137948444Y-124518414D01*
X138044951Y-124707820D01*
X138169890Y-124879786D01*
X138273353Y-124983249D01*
X138306838Y-125044572D01*
X138309667Y-125071993D01*
X138301256Y-126053402D01*
X138280998Y-126120270D01*
X138227804Y-126165571D01*
X138178495Y-126176333D01*
X134073672Y-126217177D01*
X134006440Y-126198160D01*
X133960162Y-126145814D01*
X133949531Y-126076758D01*
X133977922Y-126012917D01*
X133998127Y-125993916D01*
X134047191Y-125957186D01*
X134133350Y-125842093D01*
X134133354Y-125842086D01*
X134183596Y-125707379D01*
X134183598Y-125707372D01*
X134189999Y-125647844D01*
X134190000Y-125647827D01*
X134190000Y-125000000D01*
X133273012Y-125000000D01*
X133305925Y-124942993D01*
X133340000Y-124815826D01*
X133340000Y-124684174D01*
X133305925Y-124557007D01*
X133273012Y-124500000D01*
X134190000Y-124500000D01*
X134190000Y-123852172D01*
X134189999Y-123852155D01*
X134183598Y-123792627D01*
X134183596Y-123792620D01*
X134133354Y-123657913D01*
X134133350Y-123657906D01*
X134047190Y-123542812D01*
X134047187Y-123542809D01*
X133932093Y-123456649D01*
X133932086Y-123456645D01*
X133797380Y-123406403D01*
X133797373Y-123406401D01*
X133714555Y-123397497D01*
X133714884Y-123394431D01*
X133697875Y-123395330D01*
X133638803Y-123362356D01*
X132969408Y-122692962D01*
X133032993Y-122675925D01*
X133147007Y-122610099D01*
X133240099Y-122517007D01*
X133305925Y-122402993D01*
X133322962Y-122339409D01*
X133955270Y-122971717D01*
X133955270Y-122971716D01*
X133994622Y-122917554D01*
X134091095Y-122728217D01*
X134156757Y-122526130D01*
X134156757Y-122526127D01*
X134190000Y-122316246D01*
X134190000Y-122103753D01*
X134156757Y-121893872D01*
X134156757Y-121893869D01*
X134091095Y-121691782D01*
X133994624Y-121502449D01*
X133955270Y-121448282D01*
X133955269Y-121448282D01*
X133322962Y-122080590D01*
X133305925Y-122017007D01*
X133240099Y-121902993D01*
X133147007Y-121809901D01*
X133032993Y-121744075D01*
X132969409Y-121727037D01*
X133601716Y-121094728D01*
X133547547Y-121055373D01*
X133547547Y-121055372D01*
X133538500Y-121050763D01*
X133487706Y-121002788D01*
X133470912Y-120934966D01*
X133493451Y-120868832D01*
X133538508Y-120829793D01*
X133547816Y-120825051D01*
X133636540Y-120760590D01*
X133719786Y-120700109D01*
X133719788Y-120700106D01*
X133719792Y-120700104D01*
X133870104Y-120549792D01*
X133870106Y-120549788D01*
X133870109Y-120549786D01*
X133995048Y-120377820D01*
X133995047Y-120377820D01*
X133995051Y-120377816D01*
X134091557Y-120188412D01*
X134157246Y-119986243D01*
X134190500Y-119776287D01*
X134190500Y-119563713D01*
X134157246Y-119353757D01*
X134091557Y-119151588D01*
X133995051Y-118962184D01*
X133995049Y-118962181D01*
X133995048Y-118962179D01*
X133870109Y-118790213D01*
X133719786Y-118639890D01*
X133547820Y-118514951D01*
X133547115Y-118514591D01*
X133539054Y-118510485D01*
X133488259Y-118462512D01*
X133471463Y-118394692D01*
X133493999Y-118328556D01*
X133539054Y-118289515D01*
X133547816Y-118285051D01*
X133633232Y-118222993D01*
X133719786Y-118160109D01*
X133719788Y-118160106D01*
X133719792Y-118160104D01*
X133870104Y-118009792D01*
X133870106Y-118009788D01*
X133870109Y-118009786D01*
X133995048Y-117837820D01*
X133995047Y-117837820D01*
X133995051Y-117837816D01*
X134091557Y-117648412D01*
X134157246Y-117446243D01*
X134190500Y-117236287D01*
X134190500Y-117023713D01*
X134157246Y-116813757D01*
X134143506Y-116771473D01*
X134141512Y-116701635D01*
X134173753Y-116645480D01*
X134470520Y-116348716D01*
X134549577Y-116211784D01*
X134590501Y-116059057D01*
X134590501Y-115900942D01*
X134590501Y-115893347D01*
X134590500Y-115893329D01*
X134590500Y-114387486D01*
X134610185Y-114320447D01*
X134662989Y-114274692D01*
X134732147Y-114264748D01*
X134783392Y-114284385D01*
X134820812Y-114309389D01*
X134820827Y-114309397D01*
X134966498Y-114369735D01*
X134966503Y-114369737D01*
X135055733Y-114387486D01*
X135121153Y-114400499D01*
X135121156Y-114400500D01*
X135121158Y-114400500D01*
X135278844Y-114400500D01*
X135278845Y-114400499D01*
X135433497Y-114369737D01*
X135546166Y-114323067D01*
X135579172Y-114309397D01*
X135579172Y-114309396D01*
X135579179Y-114309394D01*
X135710289Y-114221789D01*
X135821789Y-114110289D01*
X135909394Y-113979179D01*
X135969737Y-113833497D01*
X136000500Y-113678842D01*
X136000500Y-113521158D01*
X136000500Y-113521155D01*
X136000499Y-113521153D01*
X135983352Y-113434949D01*
X135969737Y-113366503D01*
X135942836Y-113301557D01*
X135909397Y-113220827D01*
X135909390Y-113220814D01*
X135821398Y-113089125D01*
X135800520Y-113022447D01*
X135800500Y-113020234D01*
X135800500Y-105179765D01*
X135820185Y-105112726D01*
X135821398Y-105110874D01*
X135848226Y-105070724D01*
X135909394Y-104979179D01*
X135969737Y-104833497D01*
X136000500Y-104678842D01*
X136000500Y-104521158D01*
X136000500Y-104521155D01*
X136000499Y-104521153D01*
X135982419Y-104430261D01*
X135969737Y-104366503D01*
X135932043Y-104275500D01*
X135909397Y-104220827D01*
X135909390Y-104220814D01*
X135821789Y-104089711D01*
X135821786Y-104089707D01*
X135710292Y-103978213D01*
X135710288Y-103978210D01*
X135579185Y-103890609D01*
X135579172Y-103890602D01*
X135433501Y-103830264D01*
X135433489Y-103830261D01*
X135278845Y-103799500D01*
X135278842Y-103799500D01*
X135121158Y-103799500D01*
X135121155Y-103799500D01*
X134966510Y-103830261D01*
X134966498Y-103830264D01*
X134820827Y-103890602D01*
X134820816Y-103890608D01*
X134783390Y-103915616D01*
X134716713Y-103936493D01*
X134649333Y-103918008D01*
X134602643Y-103866029D01*
X134590500Y-103812513D01*
X134590500Y-87899060D01*
X134590501Y-87899047D01*
X134590501Y-87730944D01*
X134589123Y-87725802D01*
X134549577Y-87578216D01*
X134542021Y-87565129D01*
X134470524Y-87441290D01*
X134470518Y-87441282D01*
X134391528Y-87362292D01*
X134167340Y-87138105D01*
X134133856Y-87076783D01*
X134132549Y-87031026D01*
X134154500Y-86892439D01*
X134154500Y-86707559D01*
X134125580Y-86524969D01*
X134068453Y-86349150D01*
X134068452Y-86349147D01*
X134033674Y-86280893D01*
X133984523Y-86184428D01*
X133970639Y-86165318D01*
X133875864Y-86034870D01*
X133875860Y-86034865D01*
X133745134Y-85904139D01*
X133745129Y-85904135D01*
X133595575Y-85795479D01*
X133595574Y-85795478D01*
X133595572Y-85795477D01*
X133542799Y-85768588D01*
X133430852Y-85711547D01*
X133430849Y-85711546D01*
X133255030Y-85654419D01*
X133072440Y-85625500D01*
X133072435Y-85625500D01*
X132887565Y-85625500D01*
X132887560Y-85625500D01*
X132704969Y-85654419D01*
X132529150Y-85711546D01*
X132529147Y-85711547D01*
X132364424Y-85795479D01*
X132214870Y-85904135D01*
X132214865Y-85904139D01*
X132084139Y-86034865D01*
X132084135Y-86034870D01*
X131975479Y-86184424D01*
X131891547Y-86349147D01*
X131891546Y-86349150D01*
X131834420Y-86524969D01*
X131832473Y-86537263D01*
X131802543Y-86600397D01*
X131743231Y-86637328D01*
X131673369Y-86636330D01*
X131615136Y-86597719D01*
X131587527Y-86537263D01*
X131587192Y-86535150D01*
X131585580Y-86524971D01*
X131557016Y-86437059D01*
X131528453Y-86349150D01*
X131528452Y-86349147D01*
X131493674Y-86280893D01*
X131444523Y-86184428D01*
X131430639Y-86165318D01*
X131335864Y-86034870D01*
X131335860Y-86034865D01*
X131205134Y-85904139D01*
X131205129Y-85904135D01*
X131055575Y-85795479D01*
X131055574Y-85795478D01*
X131055572Y-85795477D01*
X131002799Y-85768588D01*
X130890852Y-85711547D01*
X130890849Y-85711546D01*
X130715030Y-85654419D01*
X130532440Y-85625500D01*
X130532435Y-85625500D01*
X130347565Y-85625500D01*
X130347560Y-85625500D01*
X130164969Y-85654419D01*
X129989150Y-85711546D01*
X129989147Y-85711547D01*
X129824424Y-85795479D01*
X129674870Y-85904135D01*
X129674865Y-85904139D01*
X129544139Y-86034865D01*
X129544135Y-86034870D01*
X129435479Y-86184424D01*
X129351547Y-86349147D01*
X129351546Y-86349150D01*
X129294420Y-86524969D01*
X129292473Y-86537263D01*
X129262543Y-86600397D01*
X129203231Y-86637328D01*
X129133369Y-86636330D01*
X129075136Y-86597719D01*
X129047527Y-86537263D01*
X129047192Y-86535150D01*
X129045580Y-86524971D01*
X129017016Y-86437059D01*
X128988453Y-86349150D01*
X128988452Y-86349147D01*
X128953674Y-86280893D01*
X128904523Y-86184428D01*
X128890639Y-86165318D01*
X128795864Y-86034870D01*
X128795860Y-86034865D01*
X128665134Y-85904139D01*
X128665129Y-85904135D01*
X128515575Y-85795479D01*
X128515574Y-85795478D01*
X128515572Y-85795477D01*
X128462799Y-85768588D01*
X128350852Y-85711547D01*
X128350849Y-85711546D01*
X128175030Y-85654419D01*
X127992440Y-85625500D01*
X127992435Y-85625500D01*
X127807565Y-85625500D01*
X127807560Y-85625500D01*
X127624969Y-85654419D01*
X127449150Y-85711546D01*
X127449147Y-85711547D01*
X127284424Y-85795479D01*
X127134870Y-85904135D01*
X127134865Y-85904139D01*
X127004139Y-86034865D01*
X127004135Y-86034870D01*
X126895479Y-86184424D01*
X126811547Y-86349147D01*
X126811546Y-86349150D01*
X126754420Y-86524969D01*
X126752473Y-86537263D01*
X126722543Y-86600397D01*
X126663231Y-86637328D01*
X126593369Y-86636330D01*
X126535136Y-86597719D01*
X126507527Y-86537263D01*
X126507192Y-86535150D01*
X126505580Y-86524971D01*
X126477016Y-86437059D01*
X126448453Y-86349150D01*
X126448452Y-86349147D01*
X126413674Y-86280893D01*
X126364523Y-86184428D01*
X126350639Y-86165318D01*
X126255864Y-86034870D01*
X126255860Y-86034865D01*
X126125134Y-85904139D01*
X126125129Y-85904135D01*
X125975575Y-85795479D01*
X125975574Y-85795478D01*
X125975572Y-85795477D01*
X125922799Y-85768588D01*
X125810852Y-85711547D01*
X125810849Y-85711546D01*
X125635030Y-85654419D01*
X125452440Y-85625500D01*
X125452435Y-85625500D01*
X125267565Y-85625500D01*
X125267560Y-85625500D01*
X125084969Y-85654419D01*
X124909150Y-85711546D01*
X124909147Y-85711547D01*
X124744424Y-85795479D01*
X124594870Y-85904135D01*
X124594865Y-85904139D01*
X124464139Y-86034865D01*
X124464135Y-86034870D01*
X124355479Y-86184424D01*
X124271547Y-86349147D01*
X124271546Y-86349150D01*
X124214420Y-86524969D01*
X124212473Y-86537263D01*
X124182543Y-86600397D01*
X124123231Y-86637328D01*
X124053369Y-86636330D01*
X123995136Y-86597719D01*
X123967527Y-86537263D01*
X123967192Y-86535150D01*
X123965580Y-86524971D01*
X123937016Y-86437059D01*
X123908453Y-86349150D01*
X123908452Y-86349147D01*
X123873674Y-86280893D01*
X123824523Y-86184428D01*
X123810639Y-86165318D01*
X123715864Y-86034870D01*
X123715860Y-86034865D01*
X123585134Y-85904139D01*
X123585129Y-85904135D01*
X123435575Y-85795479D01*
X123435574Y-85795478D01*
X123435572Y-85795477D01*
X123382799Y-85768588D01*
X123270852Y-85711547D01*
X123270849Y-85711546D01*
X123095030Y-85654419D01*
X122912440Y-85625500D01*
X122912435Y-85625500D01*
X122727565Y-85625500D01*
X122727560Y-85625500D01*
X122544969Y-85654419D01*
X122369150Y-85711546D01*
X122369147Y-85711547D01*
X122204424Y-85795479D01*
X122054870Y-85904135D01*
X122054865Y-85904139D01*
X121924139Y-86034865D01*
X121924135Y-86034870D01*
X121815479Y-86184424D01*
X121731547Y-86349147D01*
X121731546Y-86349150D01*
X121674420Y-86524969D01*
X121672473Y-86537263D01*
X121642543Y-86600397D01*
X121583231Y-86637328D01*
X121513369Y-86636330D01*
X121455136Y-86597719D01*
X121427527Y-86537263D01*
X121427192Y-86535150D01*
X121425580Y-86524971D01*
X121397016Y-86437059D01*
X121368453Y-86349150D01*
X121368452Y-86349147D01*
X121333674Y-86280893D01*
X121284523Y-86184428D01*
X121270639Y-86165318D01*
X121175864Y-86034870D01*
X121175860Y-86034865D01*
X121045134Y-85904139D01*
X121045129Y-85904135D01*
X120895575Y-85795479D01*
X120895574Y-85795478D01*
X120895572Y-85795477D01*
X120842799Y-85768588D01*
X120730852Y-85711547D01*
X120730849Y-85711546D01*
X120555030Y-85654419D01*
X120372440Y-85625500D01*
X120372435Y-85625500D01*
X120187565Y-85625500D01*
X120187560Y-85625500D01*
X120004969Y-85654419D01*
X119829150Y-85711546D01*
X119829147Y-85711547D01*
X119664428Y-85795476D01*
X119597385Y-85844186D01*
X119531578Y-85867665D01*
X119463524Y-85851839D01*
X119414830Y-85801733D01*
X119400500Y-85743867D01*
X119400500Y-75689060D01*
X119400501Y-75689047D01*
X119400501Y-75520944D01*
X119359576Y-75368214D01*
X119359573Y-75368209D01*
X119280524Y-75231290D01*
X119280518Y-75231282D01*
X112535662Y-68486426D01*
X105788214Y-61738979D01*
X105754730Y-61677657D01*
X105753423Y-61631901D01*
X105775500Y-61492513D01*
X105775500Y-61307486D01*
X105746555Y-61124736D01*
X105689379Y-60948765D01*
X105689379Y-60948764D01*
X105605377Y-60783903D01*
X105521454Y-60668393D01*
X105497974Y-60602586D01*
X105513799Y-60534532D01*
X105547459Y-60496241D01*
X105632546Y-60432546D01*
X105718796Y-60317331D01*
X105769091Y-60182483D01*
X105775500Y-60122873D01*
X105775499Y-58677135D01*
X126284500Y-58677135D01*
X126284500Y-60122870D01*
X126284501Y-60122876D01*
X126290908Y-60182483D01*
X126341202Y-60317328D01*
X126341206Y-60317335D01*
X126427452Y-60432544D01*
X126427453Y-60432544D01*
X126427454Y-60432546D01*
X126478740Y-60470939D01*
X126512539Y-60496241D01*
X126554409Y-60552175D01*
X126559393Y-60621867D01*
X126538545Y-60668392D01*
X126454624Y-60783900D01*
X126370620Y-60948764D01*
X126370619Y-60948767D01*
X126313445Y-61124734D01*
X126284500Y-61307486D01*
X126284500Y-61492513D01*
X126313445Y-61675265D01*
X126370619Y-61851232D01*
X126370620Y-61851235D01*
X126454622Y-62016096D01*
X126563379Y-62165787D01*
X126694213Y-62296621D01*
X126698421Y-62299678D01*
X126698432Y-62299686D01*
X126741094Y-62355019D01*
X126747069Y-62424633D01*
X126714459Y-62486426D01*
X126698432Y-62500314D01*
X126694210Y-62503381D01*
X126563381Y-62634210D01*
X126563381Y-62634211D01*
X126563379Y-62634213D01*
X126516672Y-62698499D01*
X126454622Y-62783903D01*
X126370620Y-62948764D01*
X126370619Y-62948767D01*
X126313445Y-63124734D01*
X126284500Y-63307486D01*
X126284500Y-63492513D01*
X126313445Y-63675265D01*
X126370619Y-63851232D01*
X126370620Y-63851235D01*
X126454622Y-64016096D01*
X126563379Y-64165787D01*
X126694213Y-64296621D01*
X126698421Y-64299678D01*
X126698432Y-64299686D01*
X126741094Y-64355019D01*
X126747069Y-64424633D01*
X126714459Y-64486426D01*
X126698432Y-64500314D01*
X126694210Y-64503381D01*
X126563381Y-64634210D01*
X126563381Y-64634211D01*
X126563379Y-64634213D01*
X126516672Y-64698499D01*
X126454622Y-64783903D01*
X126370620Y-64948764D01*
X126370619Y-64948767D01*
X126313445Y-65124734D01*
X126313445Y-65124736D01*
X126284500Y-65307486D01*
X126284500Y-65492514D01*
X126297455Y-65574308D01*
X126313445Y-65675265D01*
X126370619Y-65851232D01*
X126370620Y-65851235D01*
X126422361Y-65952781D01*
X126454622Y-66016096D01*
X126563379Y-66165787D01*
X126694213Y-66296621D01*
X126698421Y-66299678D01*
X126698432Y-66299686D01*
X126741094Y-66355019D01*
X126747069Y-66424633D01*
X126714459Y-66486426D01*
X126698432Y-66500314D01*
X126694210Y-66503381D01*
X126563381Y-66634210D01*
X126563381Y-66634211D01*
X126563379Y-66634213D01*
X126517291Y-66697648D01*
X126454622Y-66783903D01*
X126370620Y-66948764D01*
X126370619Y-66948767D01*
X126313445Y-67124734D01*
X126284500Y-67307486D01*
X126284500Y-67492513D01*
X126313445Y-67675265D01*
X126370619Y-67851232D01*
X126370620Y-67851235D01*
X126425792Y-67959515D01*
X126454622Y-68016096D01*
X126563379Y-68165787D01*
X126694213Y-68296621D01*
X126698421Y-68299678D01*
X126698432Y-68299686D01*
X126741094Y-68355019D01*
X126747069Y-68424633D01*
X126714459Y-68486426D01*
X126698432Y-68500314D01*
X126694210Y-68503381D01*
X126563381Y-68634210D01*
X126563381Y-68634211D01*
X126563379Y-68634213D01*
X126544620Y-68660033D01*
X126454622Y-68783903D01*
X126370620Y-68948764D01*
X126370619Y-68948767D01*
X126313445Y-69124734D01*
X126284500Y-69307486D01*
X126284500Y-69492513D01*
X126313445Y-69675265D01*
X126370619Y-69851232D01*
X126370620Y-69851235D01*
X126426134Y-69960185D01*
X126454622Y-70016096D01*
X126563379Y-70165787D01*
X126694213Y-70296621D01*
X126698421Y-70299678D01*
X126698432Y-70299686D01*
X126741094Y-70355019D01*
X126747069Y-70424633D01*
X126714459Y-70486426D01*
X126698432Y-70500314D01*
X126694210Y-70503381D01*
X126563381Y-70634210D01*
X126563381Y-70634211D01*
X126563379Y-70634213D01*
X126516672Y-70698499D01*
X126454622Y-70783903D01*
X126370620Y-70948764D01*
X126370619Y-70948767D01*
X126313445Y-71124734D01*
X126284500Y-71307486D01*
X126284500Y-71492513D01*
X126313445Y-71675265D01*
X126370619Y-71851232D01*
X126370620Y-71851235D01*
X126454622Y-72016096D01*
X126563379Y-72165787D01*
X126694213Y-72296621D01*
X126698421Y-72299678D01*
X126698432Y-72299686D01*
X126741094Y-72355019D01*
X126747069Y-72424633D01*
X126714459Y-72486426D01*
X126698432Y-72500314D01*
X126694210Y-72503381D01*
X126563381Y-72634210D01*
X126563381Y-72634211D01*
X126563379Y-72634213D01*
X126546617Y-72657284D01*
X126454622Y-72783903D01*
X126370620Y-72948764D01*
X126370619Y-72948767D01*
X126313445Y-73124734D01*
X126284500Y-73307486D01*
X126284500Y-73492513D01*
X126313445Y-73675265D01*
X126370619Y-73851232D01*
X126370620Y-73851235D01*
X126454622Y-74016096D01*
X126563379Y-74165787D01*
X126694213Y-74296621D01*
X126698421Y-74299678D01*
X126698432Y-74299686D01*
X126741094Y-74355019D01*
X126747069Y-74424633D01*
X126714459Y-74486426D01*
X126698432Y-74500314D01*
X126694210Y-74503381D01*
X126563381Y-74634210D01*
X126563381Y-74634211D01*
X126563379Y-74634213D01*
X126516672Y-74698499D01*
X126454622Y-74783903D01*
X126370620Y-74948764D01*
X126370619Y-74948767D01*
X126313445Y-75124734D01*
X126284500Y-75307486D01*
X126284500Y-75492513D01*
X126313445Y-75675265D01*
X126370619Y-75851232D01*
X126370620Y-75851235D01*
X126382087Y-75873739D01*
X126454622Y-76016096D01*
X126563379Y-76165787D01*
X126694213Y-76296621D01*
X126698421Y-76299678D01*
X126698432Y-76299686D01*
X126741094Y-76355019D01*
X126747069Y-76424633D01*
X126714459Y-76486426D01*
X126698432Y-76500314D01*
X126694210Y-76503381D01*
X126563381Y-76634210D01*
X126563381Y-76634211D01*
X126563379Y-76634213D01*
X126516672Y-76698499D01*
X126454622Y-76783903D01*
X126370620Y-76948764D01*
X126370619Y-76948767D01*
X126313445Y-77124734D01*
X126284500Y-77307486D01*
X126284500Y-77492513D01*
X126313445Y-77675265D01*
X126370619Y-77851232D01*
X126370620Y-77851235D01*
X126454489Y-78015834D01*
X126454622Y-78016096D01*
X126563379Y-78165787D01*
X126694213Y-78296621D01*
X126843904Y-78405378D01*
X126924763Y-78446577D01*
X127008764Y-78489379D01*
X127008767Y-78489380D01*
X127096750Y-78517967D01*
X127184736Y-78546555D01*
X127367486Y-78575500D01*
X127367487Y-78575500D01*
X127552513Y-78575500D01*
X127552514Y-78575500D01*
X127735264Y-78546555D01*
X127911235Y-78489379D01*
X128076096Y-78405378D01*
X128225787Y-78296621D01*
X128356621Y-78165787D01*
X128465378Y-78016096D01*
X128549379Y-77851235D01*
X128606555Y-77675264D01*
X128635500Y-77492514D01*
X128635500Y-77307486D01*
X128606555Y-77124736D01*
X128549379Y-76948765D01*
X128549379Y-76948764D01*
X128506577Y-76864763D01*
X128465378Y-76783904D01*
X128356621Y-76634213D01*
X128225787Y-76503379D01*
X128221576Y-76500319D01*
X128178909Y-76444994D01*
X128172926Y-76375381D01*
X128205529Y-76313585D01*
X128221570Y-76299684D01*
X128225787Y-76296621D01*
X128356621Y-76165787D01*
X128465378Y-76016096D01*
X128549379Y-75851235D01*
X128606555Y-75675264D01*
X128635500Y-75492514D01*
X128635500Y-75307486D01*
X128606555Y-75124736D01*
X128549379Y-74948765D01*
X128549379Y-74948764D01*
X128465377Y-74783903D01*
X128356621Y-74634213D01*
X128225787Y-74503379D01*
X128221576Y-74500319D01*
X128178909Y-74444994D01*
X128172926Y-74375381D01*
X128205529Y-74313585D01*
X128221570Y-74299684D01*
X128225787Y-74296621D01*
X128356621Y-74165787D01*
X128465378Y-74016096D01*
X128549379Y-73851235D01*
X128606555Y-73675264D01*
X128635500Y-73492514D01*
X128635500Y-73307486D01*
X128606555Y-73124736D01*
X128549379Y-72948765D01*
X128549379Y-72948764D01*
X128470631Y-72794214D01*
X128465378Y-72783904D01*
X128356621Y-72634213D01*
X128225787Y-72503379D01*
X128221576Y-72500319D01*
X128178909Y-72444994D01*
X128172926Y-72375381D01*
X128205529Y-72313585D01*
X128221570Y-72299684D01*
X128225787Y-72296621D01*
X128356621Y-72165787D01*
X128465378Y-72016096D01*
X128549379Y-71851235D01*
X128606555Y-71675264D01*
X128635500Y-71492514D01*
X128635500Y-71307486D01*
X128606555Y-71124736D01*
X128549379Y-70948765D01*
X128549379Y-70948764D01*
X128465377Y-70783903D01*
X128356621Y-70634213D01*
X128225787Y-70503379D01*
X128221576Y-70500319D01*
X128178909Y-70444994D01*
X128172926Y-70375381D01*
X128205529Y-70313585D01*
X128221570Y-70299684D01*
X128225787Y-70296621D01*
X128356621Y-70165787D01*
X128465378Y-70016096D01*
X128549379Y-69851235D01*
X128606555Y-69675264D01*
X128635500Y-69492514D01*
X128635500Y-69307486D01*
X128606555Y-69124736D01*
X128573825Y-69024003D01*
X128549380Y-68948767D01*
X128549379Y-68948764D01*
X128465377Y-68783903D01*
X128356621Y-68634213D01*
X128225787Y-68503379D01*
X128221576Y-68500319D01*
X128178909Y-68444994D01*
X128172926Y-68375381D01*
X128205529Y-68313585D01*
X128221570Y-68299684D01*
X128225787Y-68296621D01*
X128356621Y-68165787D01*
X128465378Y-68016096D01*
X128549379Y-67851235D01*
X128606555Y-67675264D01*
X128635500Y-67492514D01*
X128635500Y-67307486D01*
X128606555Y-67124736D01*
X128549379Y-66948765D01*
X128549379Y-66948764D01*
X128465377Y-66783903D01*
X128356621Y-66634213D01*
X128225787Y-66503379D01*
X128221576Y-66500319D01*
X128178909Y-66444994D01*
X128172926Y-66375381D01*
X128205529Y-66313585D01*
X128221570Y-66299684D01*
X128225787Y-66296621D01*
X128356621Y-66165787D01*
X128465378Y-66016096D01*
X128549379Y-65851235D01*
X128606555Y-65675264D01*
X128635500Y-65492514D01*
X128635500Y-65307486D01*
X128606555Y-65124736D01*
X128549379Y-64948765D01*
X128549379Y-64948764D01*
X128465377Y-64783903D01*
X128356621Y-64634213D01*
X128225787Y-64503379D01*
X128221576Y-64500319D01*
X128178909Y-64444994D01*
X128172926Y-64375381D01*
X128205529Y-64313585D01*
X128221570Y-64299684D01*
X128225787Y-64296621D01*
X128356621Y-64165787D01*
X128465378Y-64016096D01*
X128549379Y-63851235D01*
X128606555Y-63675264D01*
X128635500Y-63492514D01*
X128635500Y-63307486D01*
X128606555Y-63124736D01*
X128549379Y-62948765D01*
X128549379Y-62948764D01*
X128465377Y-62783903D01*
X128356621Y-62634213D01*
X128225787Y-62503379D01*
X128221576Y-62500319D01*
X128178909Y-62444994D01*
X128172926Y-62375381D01*
X128205529Y-62313585D01*
X128221570Y-62299684D01*
X128225787Y-62296621D01*
X128356621Y-62165787D01*
X128465378Y-62016096D01*
X128549379Y-61851235D01*
X128606555Y-61675264D01*
X128635500Y-61492514D01*
X128635500Y-61307486D01*
X128606555Y-61124736D01*
X128549379Y-60948765D01*
X128549379Y-60948764D01*
X128465377Y-60783903D01*
X128381454Y-60668393D01*
X128357974Y-60602586D01*
X128373799Y-60534532D01*
X128407459Y-60496241D01*
X128492546Y-60432546D01*
X128578796Y-60317331D01*
X128629091Y-60182483D01*
X128635500Y-60122873D01*
X128635499Y-58677128D01*
X128629091Y-58617517D01*
X128578796Y-58482669D01*
X128578795Y-58482668D01*
X128578793Y-58482664D01*
X128492547Y-58367455D01*
X128492544Y-58367452D01*
X128377335Y-58281206D01*
X128377328Y-58281202D01*
X128242482Y-58230908D01*
X128242483Y-58230908D01*
X128182883Y-58224501D01*
X128182881Y-58224500D01*
X128182873Y-58224500D01*
X128182864Y-58224500D01*
X126737129Y-58224500D01*
X126737123Y-58224501D01*
X126677516Y-58230908D01*
X126542671Y-58281202D01*
X126542664Y-58281206D01*
X126427455Y-58367452D01*
X126427452Y-58367455D01*
X126341206Y-58482664D01*
X126341202Y-58482671D01*
X126290908Y-58617517D01*
X126284501Y-58677116D01*
X126284501Y-58677123D01*
X126284500Y-58677135D01*
X105775499Y-58677135D01*
X105775499Y-58677128D01*
X105769091Y-58617517D01*
X105718796Y-58482669D01*
X105718795Y-58482668D01*
X105718793Y-58482664D01*
X105632547Y-58367455D01*
X105632544Y-58367452D01*
X105517335Y-58281206D01*
X105517328Y-58281202D01*
X105382482Y-58230908D01*
X105382483Y-58230908D01*
X105322883Y-58224501D01*
X105322881Y-58224500D01*
X105322873Y-58224500D01*
X105322864Y-58224500D01*
X103877129Y-58224500D01*
X103877123Y-58224501D01*
X103817516Y-58230908D01*
X103682671Y-58281202D01*
X103682664Y-58281206D01*
X103567455Y-58367452D01*
X103567452Y-58367455D01*
X103481206Y-58482664D01*
X103481202Y-58482671D01*
X103430908Y-58617517D01*
X103424501Y-58677116D01*
X103424501Y-58677123D01*
X103424322Y-58680452D01*
X103423065Y-58680384D01*
X103404815Y-58742539D01*
X103352011Y-58788294D01*
X103300500Y-58799500D01*
X98486670Y-58799500D01*
X98486654Y-58799499D01*
X98479058Y-58799499D01*
X98320943Y-58799499D01*
X98244579Y-58819961D01*
X98168214Y-58840423D01*
X98168209Y-58840426D01*
X98031290Y-58919475D01*
X98031282Y-58919481D01*
X95443432Y-61507330D01*
X95382109Y-61540815D01*
X95312417Y-61535831D01*
X95256484Y-61493959D01*
X95232067Y-61428495D01*
X95231753Y-61420350D01*
X95200711Y-55925915D01*
X95220016Y-55858767D01*
X95272561Y-55812714D01*
X95325910Y-55801222D01*
X138775940Y-56223067D01*
G37*
%TD.AperFunction*%
%TA.AperFunction,Conductor*%
G36*
X126666630Y-86963669D02*
G01*
X126724863Y-87002279D01*
X126752473Y-87062737D01*
X126754420Y-87075030D01*
X126811546Y-87250849D01*
X126811547Y-87250852D01*
X126895479Y-87415575D01*
X127004135Y-87565129D01*
X127004139Y-87565134D01*
X127134865Y-87695860D01*
X127134870Y-87695864D01*
X127217384Y-87755813D01*
X127284428Y-87804523D01*
X127392106Y-87859388D01*
X127449147Y-87888452D01*
X127449150Y-87888453D01*
X127624969Y-87945580D01*
X127807560Y-87974500D01*
X127807565Y-87974500D01*
X127992439Y-87974500D01*
X128079165Y-87960763D01*
X128131027Y-87952549D01*
X128200320Y-87961503D01*
X128238106Y-87987341D01*
X131163181Y-90912416D01*
X131196666Y-90973739D01*
X131199500Y-91000097D01*
X131199500Y-100907024D01*
X131179815Y-100974063D01*
X131127011Y-101019818D01*
X131057853Y-101029762D01*
X131019205Y-101017509D01*
X130890661Y-100952013D01*
X130714908Y-100894907D01*
X130532395Y-100866000D01*
X130347605Y-100866000D01*
X130165091Y-100894907D01*
X130165089Y-100894907D01*
X130162804Y-100895650D01*
X130161889Y-100895675D01*
X130160353Y-100896045D01*
X130160275Y-100895721D01*
X130092962Y-100897636D01*
X130033134Y-100861549D01*
X130002314Y-100798844D01*
X130000500Y-100777714D01*
X130000500Y-99320945D01*
X130000500Y-99320943D01*
X129959577Y-99168216D01*
X129944910Y-99142812D01*
X129880524Y-99031290D01*
X129880521Y-99031286D01*
X129880520Y-99031284D01*
X129768716Y-98919480D01*
X129768715Y-98919479D01*
X129764385Y-98915149D01*
X129764374Y-98915139D01*
X129487590Y-98638355D01*
X129487588Y-98638352D01*
X129368717Y-98519481D01*
X129368716Y-98519480D01*
X129281904Y-98469360D01*
X129281904Y-98469359D01*
X129281900Y-98469358D01*
X129231785Y-98440423D01*
X129079057Y-98399499D01*
X128920943Y-98399499D01*
X128913347Y-98399499D01*
X128913331Y-98399500D01*
X123544500Y-98399500D01*
X123477461Y-98379815D01*
X123431706Y-98327011D01*
X123420500Y-98275500D01*
X123420500Y-87878654D01*
X123440185Y-87811615D01*
X123471614Y-87778337D01*
X123585136Y-87695859D01*
X123715859Y-87565136D01*
X123824523Y-87415572D01*
X123908452Y-87250852D01*
X123965580Y-87075029D01*
X123967527Y-87062737D01*
X123997456Y-86999602D01*
X124056768Y-86962671D01*
X124126630Y-86963669D01*
X124184863Y-87002279D01*
X124212473Y-87062737D01*
X124214420Y-87075030D01*
X124271546Y-87250849D01*
X124271547Y-87250852D01*
X124355479Y-87415575D01*
X124464135Y-87565129D01*
X124464139Y-87565134D01*
X124594865Y-87695860D01*
X124594870Y-87695864D01*
X124677384Y-87755813D01*
X124744428Y-87804523D01*
X124852106Y-87859388D01*
X124909147Y-87888452D01*
X124909150Y-87888453D01*
X125084969Y-87945580D01*
X125267560Y-87974500D01*
X125267565Y-87974500D01*
X125452440Y-87974500D01*
X125635030Y-87945580D01*
X125810849Y-87888453D01*
X125810852Y-87888452D01*
X125819501Y-87884045D01*
X125975572Y-87804523D01*
X126125136Y-87695859D01*
X126255859Y-87565136D01*
X126364523Y-87415572D01*
X126448452Y-87250852D01*
X126505580Y-87075029D01*
X126507527Y-87062737D01*
X126537456Y-86999602D01*
X126596768Y-86962671D01*
X126666630Y-86963669D01*
G37*
%TD.AperFunction*%
%TD*%
M02*
