%TF.GenerationSoftware,KiCad,Pcbnew,10.0.3*%
%TF.CreationDate,2026-06-21T22:28:46-05:00*%
%TF.ProjectId,coordinator,636f6f72-6469-46e6-9174-6f722e6b6963,rev?*%
%TF.SameCoordinates,Original*%
%TF.FileFunction,Soldermask,Bot*%
%TF.FilePolarity,Negative*%
%FSLAX46Y46*%
G04 Gerber Fmt 4.6, Leading zero omitted, Abs format (unit mm)*
G04 Created by KiCad (PCBNEW 10.0.3) date 2026-06-21 22:28:46*
%MOMM*%
%LPD*%
G01*
G04 APERTURE LIST*
%ADD10C,2.200000*%
%ADD11C,1.350000*%
%ADD12R,1.350000X1.350000*%
%ADD13C,2.000000*%
%ADD14C,1.600000*%
%ADD15R,1.700000X1.700000*%
%ADD16C,1.700000*%
%ADD17R,1.800000X1.800000*%
%ADD18C,1.800000*%
%ADD19C,1.552000*%
G04 APERTURE END LIST*
D10*
%TO.C,REF\u002A\u002A*%
X93800000Y-58400000D03*
%TD*%
%TO.C,REF\u002A\u002A*%
X139200000Y-124000000D03*
%TD*%
%TO.C,REF\u002A\u002A*%
X93800000Y-124000000D03*
%TD*%
%TO.C,REF\u002A\u002A*%
X139000000Y-58400000D03*
%TD*%
D11*
%TO.C,J2*%
X127460000Y-77400000D03*
X127460000Y-75400000D03*
X127460000Y-73400000D03*
X127460000Y-71400000D03*
X127460000Y-69400000D03*
X127460000Y-67400000D03*
X127460000Y-65400000D03*
X127460000Y-63400000D03*
X127460000Y-61400000D03*
D12*
X127460000Y-59400000D03*
%TD*%
D13*
%TO.C,SW1*%
X97950000Y-87150000D03*
X104450000Y-87150000D03*
X97950000Y-91650000D03*
X104450000Y-91650000D03*
%TD*%
D14*
%TO.C,R4*%
X99740000Y-111550000D03*
X97200000Y-111550000D03*
%TD*%
%TO.C,R2*%
X99845000Y-117800000D03*
X97305000Y-117800000D03*
%TD*%
%TO.C,R1*%
X98200000Y-69340000D03*
X98200000Y-66800000D03*
%TD*%
D15*
%TO.C,J5*%
X107200000Y-115990000D03*
D16*
X107200000Y-118530000D03*
X107200000Y-121070000D03*
X107200000Y-123610000D03*
%TD*%
D15*
%TO.C,J4*%
X117600000Y-124750000D03*
D16*
X117600000Y-122210000D03*
X117600000Y-119670000D03*
X117600000Y-117130000D03*
X117600000Y-114590000D03*
X117600000Y-112050000D03*
%TD*%
D15*
%TO.C,J3*%
X132840000Y-124750000D03*
D16*
X132840000Y-122210000D03*
X132840000Y-119670000D03*
X132840000Y-117130000D03*
X132840000Y-114590000D03*
X132840000Y-112050000D03*
%TD*%
D12*
%TO.C,J1*%
X104600000Y-59400000D03*
D11*
X104600000Y-61400000D03*
X104600000Y-63400000D03*
X104600000Y-65400000D03*
X104600000Y-67400000D03*
X104600000Y-69400000D03*
X104600000Y-71400000D03*
X104600000Y-73400000D03*
X104600000Y-75400000D03*
X104600000Y-77400000D03*
%TD*%
D17*
%TO.C,D1*%
X99925000Y-100400000D03*
D18*
X102465000Y-100400000D03*
%TD*%
D19*
%TO.C,U1*%
X132980000Y-102040000D03*
X130440000Y-102040000D03*
X127900000Y-102040000D03*
X125360000Y-102040000D03*
X122820000Y-102040000D03*
X120280000Y-102040000D03*
X117740000Y-102040000D03*
X115200000Y-102040000D03*
X115200000Y-86800000D03*
X117740000Y-86800000D03*
X120280000Y-86800000D03*
X122820000Y-86800000D03*
X125360000Y-86800000D03*
X127900000Y-86800000D03*
X130440000Y-86800000D03*
X132980000Y-86800000D03*
%TD*%
M02*
