%TF.GenerationSoftware,KiCad,Pcbnew,10.0.3*%
%TF.CreationDate,2026-06-21T22:28:45-05:00*%
%TF.ProjectId,coordinator,636f6f72-6469-46e6-9174-6f722e6b6963,rev?*%
%TF.SameCoordinates,Original*%
%TF.FileFunction,Legend,Top*%
%TF.FilePolarity,Positive*%
%FSLAX46Y46*%
G04 Gerber Fmt 4.6, Leading zero omitted, Abs format (unit mm)*
G04 Created by KiCad (PCBNEW 10.0.3) date 2026-06-21 22:28:45*
%MOMM*%
%LPD*%
G01*
G04 APERTURE LIST*
%ADD10C,0.150000*%
%ADD11C,0.120000*%
%ADD12C,0.127000*%
G04 APERTURE END LIST*
D10*
X92466666Y-55704819D02*
X92133333Y-55228628D01*
X91895238Y-55704819D02*
X91895238Y-54704819D01*
X91895238Y-54704819D02*
X92276190Y-54704819D01*
X92276190Y-54704819D02*
X92371428Y-54752438D01*
X92371428Y-54752438D02*
X92419047Y-54800057D01*
X92419047Y-54800057D02*
X92466666Y-54895295D01*
X92466666Y-54895295D02*
X92466666Y-55038152D01*
X92466666Y-55038152D02*
X92419047Y-55133390D01*
X92419047Y-55133390D02*
X92371428Y-55181009D01*
X92371428Y-55181009D02*
X92276190Y-55228628D01*
X92276190Y-55228628D02*
X91895238Y-55228628D01*
X92895238Y-55181009D02*
X93228571Y-55181009D01*
X93371428Y-55704819D02*
X92895238Y-55704819D01*
X92895238Y-55704819D02*
X92895238Y-54704819D01*
X92895238Y-54704819D02*
X93371428Y-54704819D01*
X94133333Y-55181009D02*
X93800000Y-55181009D01*
X93800000Y-55704819D02*
X93800000Y-54704819D01*
X93800000Y-54704819D02*
X94276190Y-54704819D01*
X94800000Y-54704819D02*
X94800000Y-54942914D01*
X94561905Y-54847676D02*
X94800000Y-54942914D01*
X94800000Y-54942914D02*
X95038095Y-54847676D01*
X94657143Y-55133390D02*
X94800000Y-54942914D01*
X94800000Y-54942914D02*
X94942857Y-55133390D01*
X95561905Y-54704819D02*
X95561905Y-54942914D01*
X95323810Y-54847676D02*
X95561905Y-54942914D01*
X95561905Y-54942914D02*
X95800000Y-54847676D01*
X95419048Y-55133390D02*
X95561905Y-54942914D01*
X95561905Y-54942914D02*
X95704762Y-55133390D01*
X137866666Y-121304819D02*
X137533333Y-120828628D01*
X137295238Y-121304819D02*
X137295238Y-120304819D01*
X137295238Y-120304819D02*
X137676190Y-120304819D01*
X137676190Y-120304819D02*
X137771428Y-120352438D01*
X137771428Y-120352438D02*
X137819047Y-120400057D01*
X137819047Y-120400057D02*
X137866666Y-120495295D01*
X137866666Y-120495295D02*
X137866666Y-120638152D01*
X137866666Y-120638152D02*
X137819047Y-120733390D01*
X137819047Y-120733390D02*
X137771428Y-120781009D01*
X137771428Y-120781009D02*
X137676190Y-120828628D01*
X137676190Y-120828628D02*
X137295238Y-120828628D01*
X138295238Y-120781009D02*
X138628571Y-120781009D01*
X138771428Y-121304819D02*
X138295238Y-121304819D01*
X138295238Y-121304819D02*
X138295238Y-120304819D01*
X138295238Y-120304819D02*
X138771428Y-120304819D01*
X139533333Y-120781009D02*
X139200000Y-120781009D01*
X139200000Y-121304819D02*
X139200000Y-120304819D01*
X139200000Y-120304819D02*
X139676190Y-120304819D01*
X140200000Y-120304819D02*
X140200000Y-120542914D01*
X139961905Y-120447676D02*
X140200000Y-120542914D01*
X140200000Y-120542914D02*
X140438095Y-120447676D01*
X140057143Y-120733390D02*
X140200000Y-120542914D01*
X140200000Y-120542914D02*
X140342857Y-120733390D01*
X140961905Y-120304819D02*
X140961905Y-120542914D01*
X140723810Y-120447676D02*
X140961905Y-120542914D01*
X140961905Y-120542914D02*
X141200000Y-120447676D01*
X140819048Y-120733390D02*
X140961905Y-120542914D01*
X140961905Y-120542914D02*
X141104762Y-120733390D01*
X92466666Y-121304819D02*
X92133333Y-120828628D01*
X91895238Y-121304819D02*
X91895238Y-120304819D01*
X91895238Y-120304819D02*
X92276190Y-120304819D01*
X92276190Y-120304819D02*
X92371428Y-120352438D01*
X92371428Y-120352438D02*
X92419047Y-120400057D01*
X92419047Y-120400057D02*
X92466666Y-120495295D01*
X92466666Y-120495295D02*
X92466666Y-120638152D01*
X92466666Y-120638152D02*
X92419047Y-120733390D01*
X92419047Y-120733390D02*
X92371428Y-120781009D01*
X92371428Y-120781009D02*
X92276190Y-120828628D01*
X92276190Y-120828628D02*
X91895238Y-120828628D01*
X92895238Y-120781009D02*
X93228571Y-120781009D01*
X93371428Y-121304819D02*
X92895238Y-121304819D01*
X92895238Y-121304819D02*
X92895238Y-120304819D01*
X92895238Y-120304819D02*
X93371428Y-120304819D01*
X94133333Y-120781009D02*
X93800000Y-120781009D01*
X93800000Y-121304819D02*
X93800000Y-120304819D01*
X93800000Y-120304819D02*
X94276190Y-120304819D01*
X94800000Y-120304819D02*
X94800000Y-120542914D01*
X94561905Y-120447676D02*
X94800000Y-120542914D01*
X94800000Y-120542914D02*
X95038095Y-120447676D01*
X94657143Y-120733390D02*
X94800000Y-120542914D01*
X94800000Y-120542914D02*
X94942857Y-120733390D01*
X95561905Y-120304819D02*
X95561905Y-120542914D01*
X95323810Y-120447676D02*
X95561905Y-120542914D01*
X95561905Y-120542914D02*
X95800000Y-120447676D01*
X95419048Y-120733390D02*
X95561905Y-120542914D01*
X95561905Y-120542914D02*
X95704762Y-120733390D01*
X137666666Y-55704819D02*
X137333333Y-55228628D01*
X137095238Y-55704819D02*
X137095238Y-54704819D01*
X137095238Y-54704819D02*
X137476190Y-54704819D01*
X137476190Y-54704819D02*
X137571428Y-54752438D01*
X137571428Y-54752438D02*
X137619047Y-54800057D01*
X137619047Y-54800057D02*
X137666666Y-54895295D01*
X137666666Y-54895295D02*
X137666666Y-55038152D01*
X137666666Y-55038152D02*
X137619047Y-55133390D01*
X137619047Y-55133390D02*
X137571428Y-55181009D01*
X137571428Y-55181009D02*
X137476190Y-55228628D01*
X137476190Y-55228628D02*
X137095238Y-55228628D01*
X138095238Y-55181009D02*
X138428571Y-55181009D01*
X138571428Y-55704819D02*
X138095238Y-55704819D01*
X138095238Y-55704819D02*
X138095238Y-54704819D01*
X138095238Y-54704819D02*
X138571428Y-54704819D01*
X139333333Y-55181009D02*
X139000000Y-55181009D01*
X139000000Y-55704819D02*
X139000000Y-54704819D01*
X139000000Y-54704819D02*
X139476190Y-54704819D01*
X140000000Y-54704819D02*
X140000000Y-54942914D01*
X139761905Y-54847676D02*
X140000000Y-54942914D01*
X140000000Y-54942914D02*
X140238095Y-54847676D01*
X139857143Y-55133390D02*
X140000000Y-54942914D01*
X140000000Y-54942914D02*
X140142857Y-55133390D01*
X140761905Y-54704819D02*
X140761905Y-54942914D01*
X140523810Y-54847676D02*
X140761905Y-54942914D01*
X140761905Y-54942914D02*
X141000000Y-54847676D01*
X140619048Y-55133390D02*
X140761905Y-54942914D01*
X140761905Y-54942914D02*
X140904762Y-55133390D01*
X127126666Y-56744819D02*
X127126666Y-57459104D01*
X127126666Y-57459104D02*
X127079047Y-57601961D01*
X127079047Y-57601961D02*
X126983809Y-57697200D01*
X126983809Y-57697200D02*
X126840952Y-57744819D01*
X126840952Y-57744819D02*
X126745714Y-57744819D01*
X127555238Y-56840057D02*
X127602857Y-56792438D01*
X127602857Y-56792438D02*
X127698095Y-56744819D01*
X127698095Y-56744819D02*
X127936190Y-56744819D01*
X127936190Y-56744819D02*
X128031428Y-56792438D01*
X128031428Y-56792438D02*
X128079047Y-56840057D01*
X128079047Y-56840057D02*
X128126666Y-56935295D01*
X128126666Y-56935295D02*
X128126666Y-57030533D01*
X128126666Y-57030533D02*
X128079047Y-57173390D01*
X128079047Y-57173390D02*
X127507619Y-57744819D01*
X127507619Y-57744819D02*
X128126666Y-57744819D01*
X99866667Y-85557200D02*
X100009524Y-85604819D01*
X100009524Y-85604819D02*
X100247619Y-85604819D01*
X100247619Y-85604819D02*
X100342857Y-85557200D01*
X100342857Y-85557200D02*
X100390476Y-85509580D01*
X100390476Y-85509580D02*
X100438095Y-85414342D01*
X100438095Y-85414342D02*
X100438095Y-85319104D01*
X100438095Y-85319104D02*
X100390476Y-85223866D01*
X100390476Y-85223866D02*
X100342857Y-85176247D01*
X100342857Y-85176247D02*
X100247619Y-85128628D01*
X100247619Y-85128628D02*
X100057143Y-85081009D01*
X100057143Y-85081009D02*
X99961905Y-85033390D01*
X99961905Y-85033390D02*
X99914286Y-84985771D01*
X99914286Y-84985771D02*
X99866667Y-84890533D01*
X99866667Y-84890533D02*
X99866667Y-84795295D01*
X99866667Y-84795295D02*
X99914286Y-84700057D01*
X99914286Y-84700057D02*
X99961905Y-84652438D01*
X99961905Y-84652438D02*
X100057143Y-84604819D01*
X100057143Y-84604819D02*
X100295238Y-84604819D01*
X100295238Y-84604819D02*
X100438095Y-84652438D01*
X100771429Y-84604819D02*
X101009524Y-85604819D01*
X101009524Y-85604819D02*
X101200000Y-84890533D01*
X101200000Y-84890533D02*
X101390476Y-85604819D01*
X101390476Y-85604819D02*
X101628572Y-84604819D01*
X102533333Y-85604819D02*
X101961905Y-85604819D01*
X102247619Y-85604819D02*
X102247619Y-84604819D01*
X102247619Y-84604819D02*
X102152381Y-84747676D01*
X102152381Y-84747676D02*
X102057143Y-84842914D01*
X102057143Y-84842914D02*
X101961905Y-84890533D01*
X98303333Y-114374819D02*
X97970000Y-113898628D01*
X97731905Y-114374819D02*
X97731905Y-113374819D01*
X97731905Y-113374819D02*
X98112857Y-113374819D01*
X98112857Y-113374819D02*
X98208095Y-113422438D01*
X98208095Y-113422438D02*
X98255714Y-113470057D01*
X98255714Y-113470057D02*
X98303333Y-113565295D01*
X98303333Y-113565295D02*
X98303333Y-113708152D01*
X98303333Y-113708152D02*
X98255714Y-113803390D01*
X98255714Y-113803390D02*
X98208095Y-113851009D01*
X98208095Y-113851009D02*
X98112857Y-113898628D01*
X98112857Y-113898628D02*
X97731905Y-113898628D01*
X99160476Y-113708152D02*
X99160476Y-114374819D01*
X98922381Y-113327200D02*
X98684286Y-114041485D01*
X98684286Y-114041485D02*
X99303333Y-114041485D01*
X98408333Y-120624819D02*
X98075000Y-120148628D01*
X97836905Y-120624819D02*
X97836905Y-119624819D01*
X97836905Y-119624819D02*
X98217857Y-119624819D01*
X98217857Y-119624819D02*
X98313095Y-119672438D01*
X98313095Y-119672438D02*
X98360714Y-119720057D01*
X98360714Y-119720057D02*
X98408333Y-119815295D01*
X98408333Y-119815295D02*
X98408333Y-119958152D01*
X98408333Y-119958152D02*
X98360714Y-120053390D01*
X98360714Y-120053390D02*
X98313095Y-120101009D01*
X98313095Y-120101009D02*
X98217857Y-120148628D01*
X98217857Y-120148628D02*
X97836905Y-120148628D01*
X98789286Y-119720057D02*
X98836905Y-119672438D01*
X98836905Y-119672438D02*
X98932143Y-119624819D01*
X98932143Y-119624819D02*
X99170238Y-119624819D01*
X99170238Y-119624819D02*
X99265476Y-119672438D01*
X99265476Y-119672438D02*
X99313095Y-119720057D01*
X99313095Y-119720057D02*
X99360714Y-119815295D01*
X99360714Y-119815295D02*
X99360714Y-119910533D01*
X99360714Y-119910533D02*
X99313095Y-120053390D01*
X99313095Y-120053390D02*
X98741667Y-120624819D01*
X98741667Y-120624819D02*
X99360714Y-120624819D01*
X95454819Y-68306666D02*
X94978628Y-68639999D01*
X95454819Y-68878094D02*
X94454819Y-68878094D01*
X94454819Y-68878094D02*
X94454819Y-68497142D01*
X94454819Y-68497142D02*
X94502438Y-68401904D01*
X94502438Y-68401904D02*
X94550057Y-68354285D01*
X94550057Y-68354285D02*
X94645295Y-68306666D01*
X94645295Y-68306666D02*
X94788152Y-68306666D01*
X94788152Y-68306666D02*
X94883390Y-68354285D01*
X94883390Y-68354285D02*
X94931009Y-68401904D01*
X94931009Y-68401904D02*
X94978628Y-68497142D01*
X94978628Y-68497142D02*
X94978628Y-68878094D01*
X95454819Y-67354285D02*
X95454819Y-67925713D01*
X95454819Y-67639999D02*
X94454819Y-67639999D01*
X94454819Y-67639999D02*
X94597676Y-67735237D01*
X94597676Y-67735237D02*
X94692914Y-67830475D01*
X94692914Y-67830475D02*
X94740533Y-67925713D01*
X106866666Y-113064819D02*
X106866666Y-113779104D01*
X106866666Y-113779104D02*
X106819047Y-113921961D01*
X106819047Y-113921961D02*
X106723809Y-114017200D01*
X106723809Y-114017200D02*
X106580952Y-114064819D01*
X106580952Y-114064819D02*
X106485714Y-114064819D01*
X107819047Y-113064819D02*
X107342857Y-113064819D01*
X107342857Y-113064819D02*
X107295238Y-113541009D01*
X107295238Y-113541009D02*
X107342857Y-113493390D01*
X107342857Y-113493390D02*
X107438095Y-113445771D01*
X107438095Y-113445771D02*
X107676190Y-113445771D01*
X107676190Y-113445771D02*
X107771428Y-113493390D01*
X107771428Y-113493390D02*
X107819047Y-113541009D01*
X107819047Y-113541009D02*
X107866666Y-113636247D01*
X107866666Y-113636247D02*
X107866666Y-113874342D01*
X107866666Y-113874342D02*
X107819047Y-113969580D01*
X107819047Y-113969580D02*
X107771428Y-114017200D01*
X107771428Y-114017200D02*
X107676190Y-114064819D01*
X107676190Y-114064819D02*
X107438095Y-114064819D01*
X107438095Y-114064819D02*
X107342857Y-114017200D01*
X107342857Y-114017200D02*
X107295238Y-113969580D01*
X117266666Y-126584819D02*
X117266666Y-127299104D01*
X117266666Y-127299104D02*
X117219047Y-127441961D01*
X117219047Y-127441961D02*
X117123809Y-127537200D01*
X117123809Y-127537200D02*
X116980952Y-127584819D01*
X116980952Y-127584819D02*
X116885714Y-127584819D01*
X118171428Y-126918152D02*
X118171428Y-127584819D01*
X117933333Y-126537200D02*
X117695238Y-127251485D01*
X117695238Y-127251485D02*
X118314285Y-127251485D01*
X132506666Y-126584819D02*
X132506666Y-127299104D01*
X132506666Y-127299104D02*
X132459047Y-127441961D01*
X132459047Y-127441961D02*
X132363809Y-127537200D01*
X132363809Y-127537200D02*
X132220952Y-127584819D01*
X132220952Y-127584819D02*
X132125714Y-127584819D01*
X132887619Y-126584819D02*
X133506666Y-126584819D01*
X133506666Y-126584819D02*
X133173333Y-126965771D01*
X133173333Y-126965771D02*
X133316190Y-126965771D01*
X133316190Y-126965771D02*
X133411428Y-127013390D01*
X133411428Y-127013390D02*
X133459047Y-127061009D01*
X133459047Y-127061009D02*
X133506666Y-127156247D01*
X133506666Y-127156247D02*
X133506666Y-127394342D01*
X133506666Y-127394342D02*
X133459047Y-127489580D01*
X133459047Y-127489580D02*
X133411428Y-127537200D01*
X133411428Y-127537200D02*
X133316190Y-127584819D01*
X133316190Y-127584819D02*
X133030476Y-127584819D01*
X133030476Y-127584819D02*
X132935238Y-127537200D01*
X132935238Y-127537200D02*
X132887619Y-127489580D01*
X104266666Y-56744819D02*
X104266666Y-57459104D01*
X104266666Y-57459104D02*
X104219047Y-57601961D01*
X104219047Y-57601961D02*
X104123809Y-57697200D01*
X104123809Y-57697200D02*
X103980952Y-57744819D01*
X103980952Y-57744819D02*
X103885714Y-57744819D01*
X105266666Y-57744819D02*
X104695238Y-57744819D01*
X104980952Y-57744819D02*
X104980952Y-56744819D01*
X104980952Y-56744819D02*
X104885714Y-56887676D01*
X104885714Y-56887676D02*
X104790476Y-56982914D01*
X104790476Y-56982914D02*
X104695238Y-57030533D01*
X100456905Y-96894819D02*
X100456905Y-95894819D01*
X100456905Y-95894819D02*
X100695000Y-95894819D01*
X100695000Y-95894819D02*
X100837857Y-95942438D01*
X100837857Y-95942438D02*
X100933095Y-96037676D01*
X100933095Y-96037676D02*
X100980714Y-96132914D01*
X100980714Y-96132914D02*
X101028333Y-96323390D01*
X101028333Y-96323390D02*
X101028333Y-96466247D01*
X101028333Y-96466247D02*
X100980714Y-96656723D01*
X100980714Y-96656723D02*
X100933095Y-96751961D01*
X100933095Y-96751961D02*
X100837857Y-96847200D01*
X100837857Y-96847200D02*
X100695000Y-96894819D01*
X100695000Y-96894819D02*
X100456905Y-96894819D01*
X101980714Y-96894819D02*
X101409286Y-96894819D01*
X101695000Y-96894819D02*
X101695000Y-95894819D01*
X101695000Y-95894819D02*
X101599762Y-96037676D01*
X101599762Y-96037676D02*
X101504524Y-96132914D01*
X101504524Y-96132914D02*
X101409286Y-96180533D01*
X136187319Y-89466904D02*
X136996842Y-89466904D01*
X136996842Y-89466904D02*
X137092080Y-89419285D01*
X137092080Y-89419285D02*
X137139700Y-89371666D01*
X137139700Y-89371666D02*
X137187319Y-89276428D01*
X137187319Y-89276428D02*
X137187319Y-89085952D01*
X137187319Y-89085952D02*
X137139700Y-88990714D01*
X137139700Y-88990714D02*
X137092080Y-88943095D01*
X137092080Y-88943095D02*
X136996842Y-88895476D01*
X136996842Y-88895476D02*
X136187319Y-88895476D01*
X137187319Y-87895476D02*
X137187319Y-88466904D01*
X137187319Y-88181190D02*
X136187319Y-88181190D01*
X136187319Y-88181190D02*
X136330176Y-88276428D01*
X136330176Y-88276428D02*
X136425414Y-88371666D01*
X136425414Y-88371666D02*
X136473033Y-88466904D01*
%TO.C,J2*%
D11*
X128570000Y-60400000D02*
X128570000Y-78510000D01*
X126350000Y-78510000D02*
X128570000Y-78510000D01*
X126350000Y-60400000D02*
X128570000Y-60400000D01*
X126350000Y-60400000D02*
X126350000Y-78510000D01*
X126350000Y-59400000D02*
X126350000Y-58290000D01*
X126350000Y-58290000D02*
X127460000Y-58290000D01*
%TO.C,SW1*%
X97700000Y-88650000D02*
X97700000Y-90150000D01*
X98950000Y-92650000D02*
X103450000Y-92650000D01*
X103450000Y-86150000D02*
X98950000Y-86150000D01*
X104700000Y-90150000D02*
X104700000Y-88650000D01*
%TO.C,R4*%
X98370000Y-111550000D02*
X98300000Y-111550000D01*
X101110000Y-111550000D02*
G75*
G02*
X98370000Y-111550000I-1370000J0D01*
G01*
X98370000Y-111550000D02*
G75*
G02*
X101110000Y-111550000I1370000J0D01*
G01*
%TO.C,R2*%
X98475000Y-117800000D02*
X98405000Y-117800000D01*
X101215000Y-117800000D02*
G75*
G02*
X98475000Y-117800000I-1370000J0D01*
G01*
X98475000Y-117800000D02*
G75*
G02*
X101215000Y-117800000I1370000J0D01*
G01*
%TO.C,R1*%
X98200000Y-67970000D02*
X98200000Y-67900000D01*
X99570000Y-69340000D02*
G75*
G02*
X96830000Y-69340000I-1370000J0D01*
G01*
X96830000Y-69340000D02*
G75*
G02*
X99570000Y-69340000I1370000J0D01*
G01*
%TO.C,J5*%
X105820000Y-114610000D02*
X107200000Y-114610000D01*
X105820000Y-115990000D02*
X105820000Y-114610000D01*
X105820000Y-117260000D02*
X105820000Y-124990000D01*
X105820000Y-117260000D02*
X108580000Y-117260000D01*
X105820000Y-124990000D02*
X108580000Y-124990000D01*
X108580000Y-117260000D02*
X108580000Y-124990000D01*
%TO.C,J4*%
X118980000Y-126130000D02*
X117600000Y-126130000D01*
X118980000Y-124750000D02*
X118980000Y-126130000D01*
X118980000Y-123480000D02*
X118980000Y-110670000D01*
X118980000Y-123480000D02*
X116220000Y-123480000D01*
X118980000Y-110670000D02*
X116220000Y-110670000D01*
X116220000Y-123480000D02*
X116220000Y-110670000D01*
%TO.C,J3*%
X134220000Y-126130000D02*
X132840000Y-126130000D01*
X134220000Y-124750000D02*
X134220000Y-126130000D01*
X134220000Y-123480000D02*
X134220000Y-110670000D01*
X134220000Y-123480000D02*
X131460000Y-123480000D01*
X134220000Y-110670000D02*
X131460000Y-110670000D01*
X131460000Y-123480000D02*
X131460000Y-110670000D01*
%TO.C,J1*%
X103490000Y-58290000D02*
X104600000Y-58290000D01*
X103490000Y-59400000D02*
X103490000Y-58290000D01*
X103490000Y-60400000D02*
X103490000Y-78510000D01*
X103490000Y-60400000D02*
X105710000Y-60400000D01*
X103490000Y-78510000D02*
X105710000Y-78510000D01*
X105710000Y-60400000D02*
X105710000Y-78510000D01*
%TO.C,D1*%
X98635000Y-98855000D02*
X98635000Y-101945000D01*
X98635000Y-98855170D02*
G75*
G02*
X104185000Y-100400000I2560000J-1544830D01*
G01*
X104185000Y-100400000D02*
G75*
G02*
X98635000Y-101944830I-2990000J0D01*
G01*
X103695000Y-100400000D02*
G75*
G02*
X98695000Y-100400000I-2500000J0D01*
G01*
X98695000Y-100400000D02*
G75*
G02*
X103695000Y-100400000I2500000J0D01*
G01*
%TO.C,U1*%
D12*
X134430000Y-89920000D02*
X134430000Y-85420000D01*
X135730000Y-89920000D02*
X134430000Y-89920000D01*
X135730000Y-98920000D02*
X134430000Y-98920000D01*
X135730000Y-98920000D02*
X135730000Y-89920000D01*
X111730000Y-85420000D02*
X134430000Y-85420000D01*
X134430000Y-103420000D02*
X134430000Y-98920000D01*
X111730000Y-103420000D02*
X134430000Y-103420000D01*
X111730000Y-103420000D02*
X111730000Y-85420000D01*
%TD*%
M02*
