M48
; DRILL file KiCad 10.0.3 date 2026-07-12T14:30:23
; FORMAT={-:-/ absolute / metric / decimal}
; #@! TF.CreationDate,2026-07-12T14:30:23-05:00
; #@! TF.GenerationSoftware,Kicad,Pcbnew,10.0.3
; #@! TF.FileFunction,Plated,1,2,PTH
FMAT,2
METRIC
; #@! TA.AperFunction,Plated,PTH,ViaDrill
T1C0.300
; #@! TA.AperFunction,Plated,PTH,ComponentDrill
T2C0.800
; #@! TA.AperFunction,Plated,PTH,ComponentDrill
T3C1.000
%
G90
G05
T1
X131.0Y-110.0
X141.0Y-110.0
X149.5Y-105.5
X149.5Y-108.0
T2
X125.19Y-106.0
X125.64Y-85.19
X125.64Y-92.81
X132.81Y-106.0
X133.64Y-78.5
X133.64Y-80.5
X133.64Y-82.5
X133.64Y-84.5
X133.64Y-86.5
X133.64Y-88.5
X133.64Y-90.5
X133.64Y-92.5
X133.64Y-94.5
X133.64Y-96.5
X136.19Y-106.0
X143.81Y-106.0
X152.0Y-111.5
X152.0Y-116.5
X156.5Y-78.5
X156.5Y-80.5
X156.5Y-82.5
X156.5Y-84.5
X156.5Y-86.5
X156.5Y-88.5
X156.5Y-90.5
X156.5Y-92.5
X156.5Y-94.5
X156.5Y-96.5
X158.5Y-111.5
X158.5Y-116.5
T3
X125.42Y-115.5
X127.96Y-115.5
X130.5Y-115.5
X133.04Y-115.5
X135.58Y-115.5
X138.12Y-115.5
X140.66Y-115.5
X143.2Y-115.5
M30
