%TF.GenerationSoftware,KiCad,Pcbnew,10.0.3*%
%TF.CreationDate,2026-07-12T14:30:21-05:00*%
%TF.ProjectId,router,726f7574-6572-42e6-9b69-6361645f7063,rev?*%
%TF.SameCoordinates,Original*%
%TF.FileFunction,Copper,L1,Top*%
%TF.FilePolarity,Positive*%
%FSLAX46Y46*%
G04 Gerber Fmt 4.6, Leading zero omitted, Abs format (unit mm)*
G04 Created by KiCad (PCBNEW 10.0.3) date 2026-07-12 14:30:21*
%MOMM*%
%LPD*%
G01*
G04 APERTURE LIST*
G04 Aperture macros list*
%AMRoundRect*
0 Rectangle with rounded corners*
0 $1 Rounding radius*
0 $2 $3 $4 $5 $6 $7 $8 $9 X,Y pos of 4 corners*
0 Add a 4 corners polygon primitive as box body*
4,1,4,$2,$3,$4,$5,$6,$7,$8,$9,$2,$3,0*
0 Add four circle primitives for the rounded corners*
1,1,$1+$1,$2,$3*
1,1,$1+$1,$4,$5*
1,1,$1+$1,$6,$7*
1,1,$1+$1,$8,$9*
0 Add four rect primitives between the rounded corners*
20,1,$1+$1,$2,$3,$4,$5,0*
20,1,$1+$1,$4,$5,$6,$7,0*
20,1,$1+$1,$6,$7,$8,$9,0*
20,1,$1+$1,$8,$9,$2,$3,0*%
G04 Aperture macros list end*
%TA.AperFunction,ComponentPad*%
%ADD10C,1.600000*%
%TD*%
%TA.AperFunction,ComponentPad*%
%ADD11R,1.350000X1.350000*%
%TD*%
%TA.AperFunction,ComponentPad*%
%ADD12C,1.350000*%
%TD*%
%TA.AperFunction,ComponentPad*%
%ADD13R,1.700000X1.700000*%
%TD*%
%TA.AperFunction,ComponentPad*%
%ADD14C,1.700000*%
%TD*%
%TA.AperFunction,SMDPad,CuDef*%
%ADD15RoundRect,0.147500X-0.457500X-0.147500X0.457500X-0.147500X0.457500X0.147500X-0.457500X0.147500X0*%
%TD*%
%TA.AperFunction,ViaPad*%
%ADD16C,0.600000*%
%TD*%
%TA.AperFunction,Conductor*%
%ADD17C,0.200000*%
%TD*%
G04 APERTURE END LIST*
D10*
%TO.P,R4,1*%
%TO.N,Net-(J3-Pin_8)*%
X136190000Y-106000000D03*
%TO.P,R4,2*%
%TO.N,GND*%
X143810000Y-106000000D03*
%TD*%
%TO.P,C1,1*%
%TO.N,+3.3V*%
X158500000Y-116500000D03*
%TO.P,C1,2*%
X158500000Y-111500000D03*
%TD*%
%TO.P,C2,1*%
%TO.N,GND*%
X152000000Y-116500000D03*
%TO.P,C2,2*%
X152000000Y-111500000D03*
%TD*%
D11*
%TO.P,J1,1,VCC_1*%
%TO.N,+3.3V*%
X133640000Y-78500000D03*
D12*
%TO.P,J1,2,RX_2*%
%TO.N,unconnected-(J1-RX-Pad2)*%
X133640000Y-80500000D03*
%TO.P,J1,3,TX_3*%
%TO.N,unconnected-(J1-TX-Pad3)*%
X133640000Y-82500000D03*
%TO.P,J1,4,12_4*%
%TO.N,unconnected-(J1-12-Pad4)*%
X133640000Y-84500000D03*
%TO.P,J1,5,RST_5*%
%TO.N,Net-(J1-RST)*%
X133640000Y-86500000D03*
%TO.P,J1,6,10_6*%
%TO.N,unconnected-(J1-10-Pad6)*%
X133640000Y-88500000D03*
%TO.P,J1,7,11_7*%
%TO.N,unconnected-(J1-11-Pad7)*%
X133640000Y-90500000D03*
%TO.P,J1,8,res_8*%
%TO.N,unconnected-(J1-res-Pad8)*%
X133640000Y-92500000D03*
%TO.P,J1,9,8_9*%
%TO.N,unconnected-(J1-8-Pad9)*%
X133640000Y-94500000D03*
%TO.P,J1,10,GND_10*%
%TO.N,GND*%
X133640000Y-96500000D03*
%TD*%
D13*
%TO.P,J3,1,Pin_1_1*%
%TO.N,GND*%
X125420000Y-115500000D03*
D14*
%TO.P,J3,2,Pin_2_2*%
%TO.N,Net-(J3-Pin_2)*%
X127960000Y-115500000D03*
%TO.P,J3,3,Pin_3_3*%
%TO.N,unconnected-(J3-Pin_3-Pad3)*%
X130500000Y-115500000D03*
%TO.P,J3,4,Pin_4_4*%
%TO.N,Net-(J3-Pin_4)*%
X133040000Y-115500000D03*
%TO.P,J3,5,Pin_5_5*%
%TO.N,unconnected-(J3-Pin_5-Pad5)*%
X135580000Y-115500000D03*
%TO.P,J3,6,Pin_6_6*%
%TO.N,unconnected-(J3-Pin_6-Pad6)*%
X138120000Y-115500000D03*
%TO.P,J3,7,Pin_7_7*%
%TO.N,unconnected-(J3-Pin_7-Pad7)*%
X140660000Y-115500000D03*
%TO.P,J3,8,Pin_8_8*%
%TO.N,Net-(J3-Pin_8)*%
X143200000Y-115500000D03*
%TD*%
D11*
%TO.P,J2,1,0_1*%
%TO.N,unconnected-(J2-0-Pad1)*%
X156500000Y-78500000D03*
D12*
%TO.P,J2,2,1_2*%
%TO.N,unconnected-(J2-1-Pad2)*%
X156500000Y-80500000D03*
%TO.P,J2,3,2_3*%
%TO.N,unconnected-(J2-2-Pad3)*%
X156500000Y-82500000D03*
%TO.P,J2,4,3_4*%
%TO.N,unconnected-(J2-3-Pad4)*%
X156500000Y-84500000D03*
%TO.P,J2,5,6_5*%
%TO.N,unconnected-(J2-6-Pad5)*%
X156500000Y-86500000D03*
%TO.P,J2,6,5_6*%
%TO.N,unconnected-(J2-5-Pad6)*%
X156500000Y-88500000D03*
%TO.P,J2,7,res_7*%
%TO.N,unconnected-(J2-res-Pad7)*%
X156500000Y-90500000D03*
%TO.P,J2,8,9_8*%
%TO.N,unconnected-(J2-9-Pad8)*%
X156500000Y-92500000D03*
%TO.P,J2,9,7_9*%
%TO.N,unconnected-(J2-7-Pad9)*%
X156500000Y-94500000D03*
%TO.P,J2,10,4_10*%
%TO.N,unconnected-(J2-4-Pad10)*%
X156500000Y-96500000D03*
%TD*%
D15*
%TO.P,U1,1,IN_1*%
%TO.N,Net-(J3-Pin_2)*%
X148500000Y-105100000D03*
%TO.P,U1,2,GND_2*%
%TO.N,GND*%
X148500000Y-106050000D03*
%TO.P,U1,3,EN_3*%
%TO.N,Net-(J3-Pin_2)*%
X148500000Y-107000000D03*
%TO.P,U1,4*%
%TO.N,N/C*%
X151010000Y-107000000D03*
%TO.P,U1,5,OUT_5*%
%TO.N,+3.3V*%
X151010000Y-105100000D03*
%TD*%
D10*
%TO.P,R1,1*%
%TO.N,+3.3V*%
X125640000Y-85190000D03*
%TO.P,R1,2*%
%TO.N,Net-(J1-RST)*%
X125640000Y-92810000D03*
%TD*%
%TO.P,R2,1*%
%TO.N,Net-(J3-Pin_4)*%
X132810000Y-106000000D03*
%TO.P,R2,2*%
%TO.N,GND*%
X125190000Y-106000000D03*
%TD*%
D16*
%TO.N,Net-(J3-Pin_2)*%
X131000000Y-110000000D03*
X149500000Y-108000000D03*
X149500000Y-105500000D03*
X141000000Y-110000000D03*
%TD*%
%TO.N,+3.3V*%
D17*
X151010000Y-105100000D02*
X152100000Y-105100000D01*
X140000000Y-94090000D02*
X151010000Y-105100000D01*
X152100000Y-105100000D02*
X158500000Y-111500000D01*
X140000000Y-84860000D02*
X140000000Y-94090000D01*
X132330000Y-78500000D02*
X125640000Y-85190000D01*
X133640000Y-78500000D02*
X140000000Y-84860000D01*
X133640000Y-78500000D02*
X132330000Y-78500000D01*
X158500000Y-116500000D02*
X158500000Y-111500000D01*
%TO.N,GND*%
X148500000Y-106050000D02*
X143860000Y-106050000D01*
X143860000Y-106050000D02*
X143810000Y-106000000D01*
X125420000Y-106230000D02*
X125190000Y-106000000D01*
X148791948Y-106050000D02*
X148500000Y-106050000D01*
X152000000Y-111500000D02*
X152000000Y-109258052D01*
X133640000Y-101360000D02*
X133640000Y-96500000D01*
X133640000Y-101360000D02*
X138280000Y-106000000D01*
X138280000Y-106000000D02*
X143810000Y-106000000D01*
X152000000Y-109258052D02*
X148791948Y-106050000D01*
X129000000Y-106000000D02*
X133640000Y-101360000D01*
X125420000Y-115500000D02*
X125420000Y-106230000D01*
X125190000Y-106000000D02*
X129000000Y-106000000D01*
X152000000Y-116500000D02*
X152000000Y-111500000D01*
%TO.N,Net-(J1-RST)*%
X133640000Y-86500000D02*
X131950000Y-86500000D01*
X131950000Y-86500000D02*
X125640000Y-92810000D01*
%TO.N,Net-(J3-Pin_8)*%
X143200000Y-115500000D02*
X136190000Y-108490000D01*
X136190000Y-108490000D02*
X136190000Y-106000000D01*
%TO.N,Net-(J3-Pin_4)*%
X133040000Y-115500000D02*
X133040000Y-106230000D01*
X133040000Y-106230000D02*
X132810000Y-106000000D01*
%TO.N,Net-(J3-Pin_2)*%
X145500000Y-110000000D02*
X141000000Y-110000000D01*
X131000000Y-112460000D02*
X127960000Y-115500000D01*
X148500000Y-105100000D02*
X149100000Y-105100000D01*
X147500000Y-110000000D02*
X145500000Y-110000000D01*
X149100000Y-105100000D02*
X149500000Y-105500000D01*
X148500000Y-107000000D02*
X145500000Y-110000000D01*
X131000000Y-110000000D02*
X131000000Y-112460000D01*
X149500000Y-108000000D02*
X147500000Y-110000000D01*
%TD*%
M02*
