M48
; DRILL file KiCad 10.0.4 date 2026-06-23T08:16:20
; FORMAT={-:-/ absolute / metric / decimal}
; #@! TF.CreationDate,2026-06-23T08:16:20-05:00
; #@! TF.GenerationSoftware,Kicad,Pcbnew,10.0.4
; #@! TF.FileFunction,Plated,1,2,PTH
FMAT,2
METRIC
; #@! TA.AperFunction,Plated,PTH,ViaDrill
T1C0.300
; #@! TA.AperFunction,Plated,PTH,ComponentDrill
T2C0.800
; #@! TA.AperFunction,Plated,PTH,ComponentDrill
T3C1.000
; #@! TA.AperFunction,Plated,PTH,ComponentDrill
T4C1.100
; #@! TA.AperFunction,Plated,PTH,ComponentDrill
T5C1.200
; #@! TA.AperFunction,Plated,PTH,ComponentDrill
T6C1.300
; #@! TA.AperFunction,Plated,PTH,ComponentDrill
T7C2.007
%
G90
G05
T1
X115.4Y-95.4
T2
X173.2Y-87.65
X173.2Y-100.35
T3
X113.5Y-52.3
X113.5Y-67.7
X124.26Y-111.0
X126.8Y-111.0
X129.34Y-111.0
X142.9Y-57.5
X142.9Y-62.5
T4
X106.0Y-82.92
X106.0Y-93.08
T5
X173.2Y-62.5
X173.2Y-77.5
T6
X163.75Y-118.532
X168.75Y-118.532
X186.25Y-118.6
X191.25Y-118.6
X192.0Y-58.65
X192.0Y-96.15
T7
X118.4Y-83.0
X118.4Y-93.2
X131.1Y-97.0
X133.6Y-79.2
M30
