%TF.GenerationSoftware,KiCad,Pcbnew,10.0.4*%
%TF.CreationDate,2026-06-23T08:18:12-05:00*%
%TF.ProjectId,joiner-control,6a6f696e-6572-42d6-936f-6e74726f6c2e,rev?*%
%TF.SameCoordinates,Original*%
%TF.FileFunction,Legend,Top*%
%TF.FilePolarity,Positive*%
%FSLAX46Y46*%
G04 Gerber Fmt 4.6, Leading zero omitted, Abs format (unit mm)*
G04 Created by KiCad (PCBNEW 10.0.4) date 2026-06-23 08:18:12*
%MOMM*%
%LPD*%
G01*
G04 APERTURE LIST*
%ADD10C,0.150000*%
%ADD11C,0.120000*%
%ADD12C,0.127000*%
G04 APERTURE END LIST*
D10*
X133374819Y-117133333D02*
X134089104Y-117133333D01*
X134089104Y-117133333D02*
X134231961Y-117180952D01*
X134231961Y-117180952D02*
X134327200Y-117276190D01*
X134327200Y-117276190D02*
X134374819Y-117419047D01*
X134374819Y-117419047D02*
X134374819Y-117514285D01*
X133374819Y-116752380D02*
X133374819Y-116133333D01*
X133374819Y-116133333D02*
X133755771Y-116466666D01*
X133755771Y-116466666D02*
X133755771Y-116323809D01*
X133755771Y-116323809D02*
X133803390Y-116228571D01*
X133803390Y-116228571D02*
X133851009Y-116180952D01*
X133851009Y-116180952D02*
X133946247Y-116133333D01*
X133946247Y-116133333D02*
X134184342Y-116133333D01*
X134184342Y-116133333D02*
X134279580Y-116180952D01*
X134279580Y-116180952D02*
X134327200Y-116228571D01*
X134327200Y-116228571D02*
X134374819Y-116323809D01*
X134374819Y-116323809D02*
X134374819Y-116609523D01*
X134374819Y-116609523D02*
X134327200Y-116704761D01*
X134327200Y-116704761D02*
X134279580Y-116752380D01*
X102216667Y-91207200D02*
X102359524Y-91254819D01*
X102359524Y-91254819D02*
X102597619Y-91254819D01*
X102597619Y-91254819D02*
X102692857Y-91207200D01*
X102692857Y-91207200D02*
X102740476Y-91159580D01*
X102740476Y-91159580D02*
X102788095Y-91064342D01*
X102788095Y-91064342D02*
X102788095Y-90969104D01*
X102788095Y-90969104D02*
X102740476Y-90873866D01*
X102740476Y-90873866D02*
X102692857Y-90826247D01*
X102692857Y-90826247D02*
X102597619Y-90778628D01*
X102597619Y-90778628D02*
X102407143Y-90731009D01*
X102407143Y-90731009D02*
X102311905Y-90683390D01*
X102311905Y-90683390D02*
X102264286Y-90635771D01*
X102264286Y-90635771D02*
X102216667Y-90540533D01*
X102216667Y-90540533D02*
X102216667Y-90445295D01*
X102216667Y-90445295D02*
X102264286Y-90350057D01*
X102264286Y-90350057D02*
X102311905Y-90302438D01*
X102311905Y-90302438D02*
X102407143Y-90254819D01*
X102407143Y-90254819D02*
X102645238Y-90254819D01*
X102645238Y-90254819D02*
X102788095Y-90302438D01*
X103121429Y-90254819D02*
X103359524Y-91254819D01*
X103359524Y-91254819D02*
X103550000Y-90540533D01*
X103550000Y-90540533D02*
X103740476Y-91254819D01*
X103740476Y-91254819D02*
X103978572Y-90254819D01*
X104883333Y-91254819D02*
X104311905Y-91254819D01*
X104597619Y-91254819D02*
X104597619Y-90254819D01*
X104597619Y-90254819D02*
X104502381Y-90397676D01*
X104502381Y-90397676D02*
X104407143Y-90492914D01*
X104407143Y-90492914D02*
X104311905Y-90540533D01*
X129666666Y-64344819D02*
X129666666Y-65059104D01*
X129666666Y-65059104D02*
X129619047Y-65201961D01*
X129619047Y-65201961D02*
X129523809Y-65297200D01*
X129523809Y-65297200D02*
X129380952Y-65344819D01*
X129380952Y-65344819D02*
X129285714Y-65344819D01*
X130095238Y-64440057D02*
X130142857Y-64392438D01*
X130142857Y-64392438D02*
X130238095Y-64344819D01*
X130238095Y-64344819D02*
X130476190Y-64344819D01*
X130476190Y-64344819D02*
X130571428Y-64392438D01*
X130571428Y-64392438D02*
X130619047Y-64440057D01*
X130619047Y-64440057D02*
X130666666Y-64535295D01*
X130666666Y-64535295D02*
X130666666Y-64630533D01*
X130666666Y-64630533D02*
X130619047Y-64773390D01*
X130619047Y-64773390D02*
X130047619Y-65344819D01*
X130047619Y-65344819D02*
X130666666Y-65344819D01*
X116823333Y-114884819D02*
X116490000Y-114408628D01*
X116251905Y-114884819D02*
X116251905Y-113884819D01*
X116251905Y-113884819D02*
X116632857Y-113884819D01*
X116632857Y-113884819D02*
X116728095Y-113932438D01*
X116728095Y-113932438D02*
X116775714Y-113980057D01*
X116775714Y-113980057D02*
X116823333Y-114075295D01*
X116823333Y-114075295D02*
X116823333Y-114218152D01*
X116823333Y-114218152D02*
X116775714Y-114313390D01*
X116775714Y-114313390D02*
X116728095Y-114361009D01*
X116728095Y-114361009D02*
X116632857Y-114408628D01*
X116632857Y-114408628D02*
X116251905Y-114408628D01*
X117156667Y-113884819D02*
X117775714Y-113884819D01*
X117775714Y-113884819D02*
X117442381Y-114265771D01*
X117442381Y-114265771D02*
X117585238Y-114265771D01*
X117585238Y-114265771D02*
X117680476Y-114313390D01*
X117680476Y-114313390D02*
X117728095Y-114361009D01*
X117728095Y-114361009D02*
X117775714Y-114456247D01*
X117775714Y-114456247D02*
X117775714Y-114694342D01*
X117775714Y-114694342D02*
X117728095Y-114789580D01*
X117728095Y-114789580D02*
X117680476Y-114837200D01*
X117680476Y-114837200D02*
X117585238Y-114884819D01*
X117585238Y-114884819D02*
X117299524Y-114884819D01*
X117299524Y-114884819D02*
X117204286Y-114837200D01*
X117204286Y-114837200D02*
X117156667Y-114789580D01*
X102791905Y-103294819D02*
X102791905Y-102294819D01*
X102791905Y-102294819D02*
X103030000Y-102294819D01*
X103030000Y-102294819D02*
X103172857Y-102342438D01*
X103172857Y-102342438D02*
X103268095Y-102437676D01*
X103268095Y-102437676D02*
X103315714Y-102532914D01*
X103315714Y-102532914D02*
X103363333Y-102723390D01*
X103363333Y-102723390D02*
X103363333Y-102866247D01*
X103363333Y-102866247D02*
X103315714Y-103056723D01*
X103315714Y-103056723D02*
X103268095Y-103151961D01*
X103268095Y-103151961D02*
X103172857Y-103247200D01*
X103172857Y-103247200D02*
X103030000Y-103294819D01*
X103030000Y-103294819D02*
X102791905Y-103294819D01*
X104315714Y-103294819D02*
X103744286Y-103294819D01*
X104030000Y-103294819D02*
X104030000Y-102294819D01*
X104030000Y-102294819D02*
X103934762Y-102437676D01*
X103934762Y-102437676D02*
X103839524Y-102532914D01*
X103839524Y-102532914D02*
X103744286Y-102580533D01*
X96266666Y-63104819D02*
X95933333Y-62628628D01*
X95695238Y-63104819D02*
X95695238Y-62104819D01*
X95695238Y-62104819D02*
X96076190Y-62104819D01*
X96076190Y-62104819D02*
X96171428Y-62152438D01*
X96171428Y-62152438D02*
X96219047Y-62200057D01*
X96219047Y-62200057D02*
X96266666Y-62295295D01*
X96266666Y-62295295D02*
X96266666Y-62438152D01*
X96266666Y-62438152D02*
X96219047Y-62533390D01*
X96219047Y-62533390D02*
X96171428Y-62581009D01*
X96171428Y-62581009D02*
X96076190Y-62628628D01*
X96076190Y-62628628D02*
X95695238Y-62628628D01*
X96695238Y-62581009D02*
X97028571Y-62581009D01*
X97171428Y-63104819D02*
X96695238Y-63104819D01*
X96695238Y-63104819D02*
X96695238Y-62104819D01*
X96695238Y-62104819D02*
X97171428Y-62104819D01*
X97933333Y-62581009D02*
X97600000Y-62581009D01*
X97600000Y-63104819D02*
X97600000Y-62104819D01*
X97600000Y-62104819D02*
X98076190Y-62104819D01*
X98600000Y-62104819D02*
X98600000Y-62342914D01*
X98361905Y-62247676D02*
X98600000Y-62342914D01*
X98600000Y-62342914D02*
X98838095Y-62247676D01*
X98457143Y-62533390D02*
X98600000Y-62342914D01*
X98600000Y-62342914D02*
X98742857Y-62533390D01*
X99361905Y-62104819D02*
X99361905Y-62342914D01*
X99123810Y-62247676D02*
X99361905Y-62342914D01*
X99361905Y-62342914D02*
X99600000Y-62247676D01*
X99219048Y-62533390D02*
X99361905Y-62342914D01*
X99361905Y-62342914D02*
X99504762Y-62533390D01*
X140866666Y-119304819D02*
X140533333Y-118828628D01*
X140295238Y-119304819D02*
X140295238Y-118304819D01*
X140295238Y-118304819D02*
X140676190Y-118304819D01*
X140676190Y-118304819D02*
X140771428Y-118352438D01*
X140771428Y-118352438D02*
X140819047Y-118400057D01*
X140819047Y-118400057D02*
X140866666Y-118495295D01*
X140866666Y-118495295D02*
X140866666Y-118638152D01*
X140866666Y-118638152D02*
X140819047Y-118733390D01*
X140819047Y-118733390D02*
X140771428Y-118781009D01*
X140771428Y-118781009D02*
X140676190Y-118828628D01*
X140676190Y-118828628D02*
X140295238Y-118828628D01*
X141295238Y-118781009D02*
X141628571Y-118781009D01*
X141771428Y-119304819D02*
X141295238Y-119304819D01*
X141295238Y-119304819D02*
X141295238Y-118304819D01*
X141295238Y-118304819D02*
X141771428Y-118304819D01*
X142533333Y-118781009D02*
X142200000Y-118781009D01*
X142200000Y-119304819D02*
X142200000Y-118304819D01*
X142200000Y-118304819D02*
X142676190Y-118304819D01*
X143200000Y-118304819D02*
X143200000Y-118542914D01*
X142961905Y-118447676D02*
X143200000Y-118542914D01*
X143200000Y-118542914D02*
X143438095Y-118447676D01*
X143057143Y-118733390D02*
X143200000Y-118542914D01*
X143200000Y-118542914D02*
X143342857Y-118733390D01*
X143961905Y-118304819D02*
X143961905Y-118542914D01*
X143723810Y-118447676D02*
X143961905Y-118542914D01*
X143961905Y-118542914D02*
X144200000Y-118447676D01*
X143819048Y-118733390D02*
X143961905Y-118542914D01*
X143961905Y-118542914D02*
X144104762Y-118733390D01*
X96866666Y-119104819D02*
X96533333Y-118628628D01*
X96295238Y-119104819D02*
X96295238Y-118104819D01*
X96295238Y-118104819D02*
X96676190Y-118104819D01*
X96676190Y-118104819D02*
X96771428Y-118152438D01*
X96771428Y-118152438D02*
X96819047Y-118200057D01*
X96819047Y-118200057D02*
X96866666Y-118295295D01*
X96866666Y-118295295D02*
X96866666Y-118438152D01*
X96866666Y-118438152D02*
X96819047Y-118533390D01*
X96819047Y-118533390D02*
X96771428Y-118581009D01*
X96771428Y-118581009D02*
X96676190Y-118628628D01*
X96676190Y-118628628D02*
X96295238Y-118628628D01*
X97295238Y-118581009D02*
X97628571Y-118581009D01*
X97771428Y-119104819D02*
X97295238Y-119104819D01*
X97295238Y-119104819D02*
X97295238Y-118104819D01*
X97295238Y-118104819D02*
X97771428Y-118104819D01*
X98533333Y-118581009D02*
X98200000Y-118581009D01*
X98200000Y-119104819D02*
X98200000Y-118104819D01*
X98200000Y-118104819D02*
X98676190Y-118104819D01*
X99200000Y-118104819D02*
X99200000Y-118342914D01*
X98961905Y-118247676D02*
X99200000Y-118342914D01*
X99200000Y-118342914D02*
X99438095Y-118247676D01*
X99057143Y-118533390D02*
X99200000Y-118342914D01*
X99200000Y-118342914D02*
X99342857Y-118533390D01*
X99961905Y-118104819D02*
X99961905Y-118342914D01*
X99723810Y-118247676D02*
X99961905Y-118342914D01*
X99961905Y-118342914D02*
X100200000Y-118247676D01*
X99819048Y-118533390D02*
X99961905Y-118342914D01*
X99961905Y-118342914D02*
X100104762Y-118533390D01*
X140866666Y-63104819D02*
X140533333Y-62628628D01*
X140295238Y-63104819D02*
X140295238Y-62104819D01*
X140295238Y-62104819D02*
X140676190Y-62104819D01*
X140676190Y-62104819D02*
X140771428Y-62152438D01*
X140771428Y-62152438D02*
X140819047Y-62200057D01*
X140819047Y-62200057D02*
X140866666Y-62295295D01*
X140866666Y-62295295D02*
X140866666Y-62438152D01*
X140866666Y-62438152D02*
X140819047Y-62533390D01*
X140819047Y-62533390D02*
X140771428Y-62581009D01*
X140771428Y-62581009D02*
X140676190Y-62628628D01*
X140676190Y-62628628D02*
X140295238Y-62628628D01*
X141295238Y-62581009D02*
X141628571Y-62581009D01*
X141771428Y-63104819D02*
X141295238Y-63104819D01*
X141295238Y-63104819D02*
X141295238Y-62104819D01*
X141295238Y-62104819D02*
X141771428Y-62104819D01*
X142533333Y-62581009D02*
X142200000Y-62581009D01*
X142200000Y-63104819D02*
X142200000Y-62104819D01*
X142200000Y-62104819D02*
X142676190Y-62104819D01*
X143200000Y-62104819D02*
X143200000Y-62342914D01*
X142961905Y-62247676D02*
X143200000Y-62342914D01*
X143200000Y-62342914D02*
X143438095Y-62247676D01*
X143057143Y-62533390D02*
X143200000Y-62342914D01*
X143200000Y-62342914D02*
X143342857Y-62533390D01*
X143961905Y-62104819D02*
X143961905Y-62342914D01*
X143723810Y-62247676D02*
X143961905Y-62342914D01*
X143961905Y-62342914D02*
X144200000Y-62247676D01*
X143819048Y-62533390D02*
X143961905Y-62342914D01*
X143961905Y-62342914D02*
X144104762Y-62533390D01*
X138834761Y-113190057D02*
X138739523Y-113142438D01*
X138739523Y-113142438D02*
X138644285Y-113047200D01*
X138644285Y-113047200D02*
X138501428Y-112904342D01*
X138501428Y-112904342D02*
X138406190Y-112856723D01*
X138406190Y-112856723D02*
X138310952Y-112856723D01*
X138358571Y-113094819D02*
X138263333Y-113047200D01*
X138263333Y-113047200D02*
X138168095Y-112951961D01*
X138168095Y-112951961D02*
X138120476Y-112761485D01*
X138120476Y-112761485D02*
X138120476Y-112428152D01*
X138120476Y-112428152D02*
X138168095Y-112237676D01*
X138168095Y-112237676D02*
X138263333Y-112142438D01*
X138263333Y-112142438D02*
X138358571Y-112094819D01*
X138358571Y-112094819D02*
X138549047Y-112094819D01*
X138549047Y-112094819D02*
X138644285Y-112142438D01*
X138644285Y-112142438D02*
X138739523Y-112237676D01*
X138739523Y-112237676D02*
X138787142Y-112428152D01*
X138787142Y-112428152D02*
X138787142Y-112761485D01*
X138787142Y-112761485D02*
X138739523Y-112951961D01*
X138739523Y-112951961D02*
X138644285Y-113047200D01*
X138644285Y-113047200D02*
X138549047Y-113094819D01*
X138549047Y-113094819D02*
X138358571Y-113094819D01*
X139739523Y-113094819D02*
X139168095Y-113094819D01*
X139453809Y-113094819D02*
X139453809Y-112094819D01*
X139453809Y-112094819D02*
X139358571Y-112237676D01*
X139358571Y-112237676D02*
X139263333Y-112332914D01*
X139263333Y-112332914D02*
X139168095Y-112380533D01*
X103824819Y-76366666D02*
X103348628Y-76699999D01*
X103824819Y-76938094D02*
X102824819Y-76938094D01*
X102824819Y-76938094D02*
X102824819Y-76557142D01*
X102824819Y-76557142D02*
X102872438Y-76461904D01*
X102872438Y-76461904D02*
X102920057Y-76414285D01*
X102920057Y-76414285D02*
X103015295Y-76366666D01*
X103015295Y-76366666D02*
X103158152Y-76366666D01*
X103158152Y-76366666D02*
X103253390Y-76414285D01*
X103253390Y-76414285D02*
X103301009Y-76461904D01*
X103301009Y-76461904D02*
X103348628Y-76557142D01*
X103348628Y-76557142D02*
X103348628Y-76938094D01*
X103824819Y-75414285D02*
X103824819Y-75985713D01*
X103824819Y-75699999D02*
X102824819Y-75699999D01*
X102824819Y-75699999D02*
X102967676Y-75795237D01*
X102967676Y-75795237D02*
X103062914Y-75890475D01*
X103062914Y-75890475D02*
X103110533Y-75985713D01*
X105633333Y-114684819D02*
X105300000Y-114208628D01*
X105061905Y-114684819D02*
X105061905Y-113684819D01*
X105061905Y-113684819D02*
X105442857Y-113684819D01*
X105442857Y-113684819D02*
X105538095Y-113732438D01*
X105538095Y-113732438D02*
X105585714Y-113780057D01*
X105585714Y-113780057D02*
X105633333Y-113875295D01*
X105633333Y-113875295D02*
X105633333Y-114018152D01*
X105633333Y-114018152D02*
X105585714Y-114113390D01*
X105585714Y-114113390D02*
X105538095Y-114161009D01*
X105538095Y-114161009D02*
X105442857Y-114208628D01*
X105442857Y-114208628D02*
X105061905Y-114208628D01*
X106014286Y-113780057D02*
X106061905Y-113732438D01*
X106061905Y-113732438D02*
X106157143Y-113684819D01*
X106157143Y-113684819D02*
X106395238Y-113684819D01*
X106395238Y-113684819D02*
X106490476Y-113732438D01*
X106490476Y-113732438D02*
X106538095Y-113780057D01*
X106538095Y-113780057D02*
X106585714Y-113875295D01*
X106585714Y-113875295D02*
X106585714Y-113970533D01*
X106585714Y-113970533D02*
X106538095Y-114113390D01*
X106538095Y-114113390D02*
X105966667Y-114684819D01*
X105966667Y-114684819D02*
X106585714Y-114684819D01*
X138487319Y-94826904D02*
X139296842Y-94826904D01*
X139296842Y-94826904D02*
X139392080Y-94779285D01*
X139392080Y-94779285D02*
X139439700Y-94731666D01*
X139439700Y-94731666D02*
X139487319Y-94636428D01*
X139487319Y-94636428D02*
X139487319Y-94445952D01*
X139487319Y-94445952D02*
X139439700Y-94350714D01*
X139439700Y-94350714D02*
X139392080Y-94303095D01*
X139392080Y-94303095D02*
X139296842Y-94255476D01*
X139296842Y-94255476D02*
X138487319Y-94255476D01*
X139487319Y-93255476D02*
X139487319Y-93826904D01*
X139487319Y-93541190D02*
X138487319Y-93541190D01*
X138487319Y-93541190D02*
X138630176Y-93636428D01*
X138630176Y-93636428D02*
X138725414Y-93731666D01*
X138725414Y-93731666D02*
X138773033Y-93826904D01*
X106806666Y-64344819D02*
X106806666Y-65059104D01*
X106806666Y-65059104D02*
X106759047Y-65201961D01*
X106759047Y-65201961D02*
X106663809Y-65297200D01*
X106663809Y-65297200D02*
X106520952Y-65344819D01*
X106520952Y-65344819D02*
X106425714Y-65344819D01*
X107806666Y-65344819D02*
X107235238Y-65344819D01*
X107520952Y-65344819D02*
X107520952Y-64344819D01*
X107520952Y-64344819D02*
X107425714Y-64487676D01*
X107425714Y-64487676D02*
X107330476Y-64582914D01*
X107330476Y-64582914D02*
X107235238Y-64630533D01*
%TO.C,J3*%
D11*
X125080000Y-115420000D02*
X125080000Y-118180000D01*
X130270000Y-115420000D02*
X125080000Y-115420000D01*
X130270000Y-115420000D02*
X130270000Y-118180000D01*
X130270000Y-118180000D02*
X125080000Y-118180000D01*
X131540000Y-115420000D02*
X132920000Y-115420000D01*
X132920000Y-115420000D02*
X132920000Y-116800000D01*
%TO.C,SW1*%
X100050000Y-94300000D02*
X100050000Y-95800000D01*
X101300000Y-98300000D02*
X105800000Y-98300000D01*
X105800000Y-91800000D02*
X101300000Y-91800000D01*
X107050000Y-95800000D02*
X107050000Y-94300000D01*
%TO.C,J2*%
X128890000Y-65890000D02*
X130000000Y-65890000D01*
X128890000Y-67000000D02*
X128890000Y-65890000D01*
X128890000Y-68000000D02*
X128890000Y-86110000D01*
X128890000Y-68000000D02*
X131110000Y-68000000D01*
X128890000Y-86110000D02*
X131110000Y-86110000D01*
X131110000Y-68000000D02*
X131110000Y-86110000D01*
%TO.C,R3*%
X113720000Y-115430000D02*
X120260000Y-115430000D01*
X113720000Y-115760000D02*
X113720000Y-115430000D01*
X113720000Y-117840000D02*
X113720000Y-118170000D01*
X113720000Y-118170000D02*
X120260000Y-118170000D01*
X120260000Y-115430000D02*
X120260000Y-115760000D01*
X120260000Y-118170000D02*
X120260000Y-117840000D01*
%TO.C,D1*%
X100970000Y-105255000D02*
X100970000Y-108345000D01*
X100970000Y-105255170D02*
G75*
G02*
X106520000Y-106800000I2560000J-1544830D01*
G01*
X106520000Y-106800000D02*
G75*
G02*
X100970000Y-108344830I-2990000J0D01*
G01*
X106030000Y-106800000D02*
G75*
G02*
X101030000Y-106800000I-2500000J0D01*
G01*
X101030000Y-106800000D02*
G75*
G02*
X106030000Y-106800000I2500000J0D01*
G01*
%TO.C,Q1*%
X137130000Y-118050000D02*
X140730000Y-118050000D01*
X137091522Y-118038478D02*
G75*
G02*
X138930000Y-113599999I1838478J1838478D01*
G01*
X138930000Y-113600000D02*
G75*
G02*
X140768478Y-118038478I0J-2600000D01*
G01*
%TO.C,R1*%
X99630000Y-72930000D02*
X99630000Y-79470000D01*
X99630000Y-79470000D02*
X99960000Y-79470000D01*
X99960000Y-72930000D02*
X99630000Y-72930000D01*
X102040000Y-72930000D02*
X102370000Y-72930000D01*
X102370000Y-72930000D02*
X102370000Y-79470000D01*
X102370000Y-79470000D02*
X102040000Y-79470000D01*
%TO.C,R2*%
X102530000Y-115230000D02*
X109070000Y-115230000D01*
X102530000Y-115560000D02*
X102530000Y-115230000D01*
X102530000Y-117640000D02*
X102530000Y-117970000D01*
X102530000Y-117970000D02*
X109070000Y-117970000D01*
X109070000Y-115230000D02*
X109070000Y-115560000D01*
X109070000Y-117970000D02*
X109070000Y-117640000D01*
%TO.C,U1*%
D12*
X114030000Y-90780000D02*
X136730000Y-90780000D01*
X114030000Y-108780000D02*
X114030000Y-90780000D01*
X114030000Y-108780000D02*
X136730000Y-108780000D01*
X136730000Y-95280000D02*
X136730000Y-90780000D01*
X136730000Y-108780000D02*
X136730000Y-104280000D01*
X138030000Y-95280000D02*
X136730000Y-95280000D01*
X138030000Y-104280000D02*
X136730000Y-104280000D01*
X138030000Y-104280000D02*
X138030000Y-95280000D01*
%TO.C,J1*%
D11*
X106030000Y-65890000D02*
X107140000Y-65890000D01*
X106030000Y-67000000D02*
X106030000Y-65890000D01*
X106030000Y-68000000D02*
X106030000Y-86110000D01*
X106030000Y-68000000D02*
X108250000Y-68000000D01*
X106030000Y-86110000D02*
X108250000Y-86110000D01*
X108250000Y-68000000D02*
X108250000Y-86110000D01*
%TD*%
M02*
