M48
; DRILL file KiCad 10.0.4 date 2026-06-23T08:18:27
; FORMAT={-:-/ absolute / metric / decimal}
; #@! TF.CreationDate,2026-06-23T08:18:27-05:00
; #@! TF.GenerationSoftware,Kicad,Pcbnew,10.0.4
; #@! TF.FileFunction,Plated,1,2,PTH
FMAT,2
METRIC
; #@! TA.AperFunction,Plated,PTH,ViaDrill
T1C0.300
; #@! TA.AperFunction,Plated,PTH,ComponentDrill
T2C0.750
; #@! TA.AperFunction,Plated,PTH,ComponentDrill
T3C0.800
; #@! TA.AperFunction,Plated,PTH,ComponentDrill
T4C0.840
; #@! TA.AperFunction,Plated,PTH,ComponentDrill
T5C0.900
; #@! TA.AperFunction,Plated,PTH,ComponentDrill
T6C1.000
; #@! TA.AperFunction,Plated,PTH,ComponentDrill
T7C1.100
%
G90
G05
T1
X118.8Y-89.2
X119.8Y-89.2
X121.6Y-110.8
X123.6Y-110.8
T2
X137.66Y-116.2
X138.93Y-116.2
X140.2Y-116.2
T3
X101.0Y-72.39
X101.0Y-80.01
X101.99Y-116.6
X107.14Y-67.0
X107.14Y-69.0
X107.14Y-71.0
X107.14Y-73.0
X107.14Y-75.0
X107.14Y-77.0
X107.14Y-79.0
X107.14Y-81.0
X107.14Y-83.0
X107.14Y-85.0
X109.61Y-116.6
X113.18Y-116.8
X120.8Y-116.8
X130.0Y-67.0
X130.0Y-69.0
X130.0Y-71.0
X130.0Y-73.0
X130.0Y-75.0
X130.0Y-77.0
X130.0Y-79.0
X130.0Y-81.0
X130.0Y-83.0
X130.0Y-85.0
T4
X117.5Y-92.16
X117.5Y-107.4
X120.04Y-92.16
X120.04Y-107.4
X122.58Y-92.16
X122.58Y-107.4
X125.12Y-92.16
X125.12Y-107.4
X127.66Y-92.16
X127.66Y-107.4
X130.2Y-92.16
X130.2Y-107.4
X132.74Y-92.16
X132.74Y-107.4
X135.28Y-92.16
X135.28Y-107.4
T5
X102.26Y-106.8
X104.8Y-106.8
T6
X126.46Y-116.8
X129.0Y-116.8
X131.54Y-116.8
T7
X100.3Y-92.8
X100.3Y-97.3
X106.8Y-92.8
X106.8Y-97.3
M30
