%TF.GenerationSoftware,KiCad,Pcbnew,10.0.4*%
%TF.CreationDate,2026-06-23T08:18:12-05:00*%
%TF.ProjectId,joiner-control,6a6f696e-6572-42d6-936f-6e74726f6c2e,rev?*%
%TF.SameCoordinates,Original*%
%TF.FileFunction,Soldermask,Bot*%
%TF.FilePolarity,Negative*%
%FSLAX46Y46*%
G04 Gerber Fmt 4.6, Leading zero omitted, Abs format (unit mm)*
G04 Created by KiCad (PCBNEW 10.0.4) date 2026-06-23 08:18:12*
%MOMM*%
%LPD*%
G01*
G04 APERTURE LIST*
%ADD10R,1.700000X1.700000*%
%ADD11C,1.700000*%
%ADD12C,2.000000*%
%ADD13R,1.350000X1.350000*%
%ADD14C,1.350000*%
%ADD15C,1.600000*%
%ADD16R,1.800000X1.800000*%
%ADD17C,1.800000*%
%ADD18C,2.200000*%
%ADD19R,1.050000X1.500000*%
%ADD20O,1.050000X1.500000*%
%ADD21C,1.552000*%
G04 APERTURE END LIST*
D10*
%TO.C,J3*%
X131540000Y-116800000D03*
D11*
X129000000Y-116800000D03*
X126460000Y-116800000D03*
%TD*%
D12*
%TO.C,SW1*%
X100300000Y-92800000D03*
X106800000Y-92800000D03*
X100300000Y-97300000D03*
X106800000Y-97300000D03*
%TD*%
D13*
%TO.C,J2*%
X130000000Y-67000000D03*
D14*
X130000000Y-69000000D03*
X130000000Y-71000000D03*
X130000000Y-73000000D03*
X130000000Y-75000000D03*
X130000000Y-77000000D03*
X130000000Y-79000000D03*
X130000000Y-81000000D03*
X130000000Y-83000000D03*
X130000000Y-85000000D03*
%TD*%
D15*
%TO.C,R3*%
X113180000Y-116800000D03*
X120800000Y-116800000D03*
%TD*%
D16*
%TO.C,D1*%
X102260000Y-106800000D03*
D17*
X104800000Y-106800000D03*
%TD*%
D18*
%TO.C,REF\u002A\u002A*%
X97600000Y-65800000D03*
%TD*%
%TO.C,REF\u002A\u002A*%
X142200000Y-122000000D03*
%TD*%
%TO.C,REF\u002A\u002A*%
X98200000Y-121800000D03*
%TD*%
%TO.C,REF\u002A\u002A*%
X142200000Y-65800000D03*
%TD*%
D19*
%TO.C,Q1*%
X137660000Y-116200000D03*
D20*
X138930000Y-116200000D03*
X140200000Y-116200000D03*
%TD*%
D15*
%TO.C,R1*%
X101000000Y-72390000D03*
X101000000Y-80010000D03*
%TD*%
%TO.C,R2*%
X101990000Y-116600000D03*
X109610000Y-116600000D03*
%TD*%
D21*
%TO.C,U1*%
X117500000Y-107400000D03*
X120040000Y-107400000D03*
X122580000Y-107400000D03*
X125120000Y-107400000D03*
X130200000Y-107400000D03*
X127660000Y-107400000D03*
X135280000Y-92160000D03*
X135280000Y-107400000D03*
X132740000Y-92160000D03*
X130200000Y-92160000D03*
X127660000Y-92160000D03*
X125120000Y-92160000D03*
X122580000Y-92160000D03*
X120040000Y-92160000D03*
X117500000Y-92160000D03*
X132740000Y-107400000D03*
%TD*%
D13*
%TO.C,J1*%
X107140000Y-67000000D03*
D14*
X107140000Y-69000000D03*
X107140000Y-71000000D03*
X107140000Y-73000000D03*
X107140000Y-75000000D03*
X107140000Y-77000000D03*
X107140000Y-79000000D03*
X107140000Y-81000000D03*
X107140000Y-83000000D03*
X107140000Y-85000000D03*
%TD*%
M02*
