%TF.GenerationSoftware,KiCad,Pcbnew,10.0.4*%
%TF.CreationDate,2026-06-23T08:18:12-05:00*%
%TF.ProjectId,joiner-control,6a6f696e-6572-42d6-936f-6e74726f6c2e,rev?*%
%TF.SameCoordinates,Original*%
%TF.FileFunction,Copper,L1,Top*%
%TF.FilePolarity,Positive*%
%FSLAX46Y46*%
G04 Gerber Fmt 4.6, Leading zero omitted, Abs format (unit mm)*
G04 Created by KiCad (PCBNEW 10.0.4) date 2026-06-23 08:18:12*
%MOMM*%
%LPD*%
G01*
G04 APERTURE LIST*
%TA.AperFunction,ComponentPad*%
%ADD10R,1.700000X1.700000*%
%TD*%
%TA.AperFunction,ComponentPad*%
%ADD11C,1.700000*%
%TD*%
%TA.AperFunction,ComponentPad*%
%ADD12C,2.000000*%
%TD*%
%TA.AperFunction,ComponentPad*%
%ADD13R,1.350000X1.350000*%
%TD*%
%TA.AperFunction,ComponentPad*%
%ADD14C,1.350000*%
%TD*%
%TA.AperFunction,ComponentPad*%
%ADD15C,1.600000*%
%TD*%
%TA.AperFunction,ComponentPad*%
%ADD16R,1.800000X1.800000*%
%TD*%
%TA.AperFunction,ComponentPad*%
%ADD17C,1.800000*%
%TD*%
%TA.AperFunction,ComponentPad*%
%ADD18R,1.050000X1.500000*%
%TD*%
%TA.AperFunction,ComponentPad*%
%ADD19O,1.050000X1.500000*%
%TD*%
%TA.AperFunction,ComponentPad*%
%ADD20C,1.348000*%
%TD*%
%TA.AperFunction,ViaPad*%
%ADD21C,0.600000*%
%TD*%
%TA.AperFunction,Conductor*%
%ADD22C,0.200000*%
%TD*%
G04 APERTURE END LIST*
D10*
%TO.P,J3,1,COIL_1*%
%TO.N,Net-(J3-COIL)*%
X131540000Y-116800000D03*
D11*
%TO.P,J3,2,GND_2*%
%TO.N,GND*%
X129000000Y-116800000D03*
%TO.P,J3,3,5V_3*%
%TO.N,Net-(J3-5V)*%
X126460000Y-116800000D03*
%TD*%
D12*
%TO.P,SW1,1,1_1*%
%TO.N,GND*%
X100300000Y-92800000D03*
X106800000Y-92800000D03*
%TO.P,SW1,2,2_2*%
%TO.N,Net-(U1-GPIO3)*%
X100300000Y-97300000D03*
X106800000Y-97300000D03*
%TD*%
D13*
%TO.P,J2,1,0_1*%
%TO.N,unconnected-(J2-0-Pad1)*%
X130000000Y-67000000D03*
D14*
%TO.P,J2,2,1_2*%
%TO.N,unconnected-(J2-1-Pad2)*%
X130000000Y-69000000D03*
%TO.P,J2,3,2_3*%
%TO.N,unconnected-(J2-2-Pad3)*%
X130000000Y-71000000D03*
%TO.P,J2,4,3_4*%
%TO.N,unconnected-(J2-3-Pad4)*%
X130000000Y-73000000D03*
%TO.P,J2,5,6_5*%
%TO.N,unconnected-(J2-6-Pad5)*%
X130000000Y-75000000D03*
%TO.P,J2,6,5_6*%
%TO.N,unconnected-(J2-5-Pad6)*%
X130000000Y-77000000D03*
%TO.P,J2,7,res_7*%
%TO.N,unconnected-(J2-res-Pad7)*%
X130000000Y-79000000D03*
%TO.P,J2,8,9_8*%
%TO.N,unconnected-(J2-9-Pad8)*%
X130000000Y-81000000D03*
%TO.P,J2,9,7_9*%
%TO.N,unconnected-(J2-7-Pad9)*%
X130000000Y-83000000D03*
%TO.P,J2,10,4_10*%
%TO.N,unconnected-(J2-4-Pad10)*%
X130000000Y-85000000D03*
%TD*%
D15*
%TO.P,R3,1*%
%TO.N,Net-(Q1-B)*%
X113180000Y-116800000D03*
%TO.P,R3,2*%
%TO.N,GND*%
X120800000Y-116800000D03*
%TD*%
D16*
%TO.P,D1,1,K_1*%
%TO.N,GND*%
X102260000Y-106800000D03*
D17*
%TO.P,D1,2,A_2*%
%TO.N,Net-(D1-A)*%
X104800000Y-106800000D03*
%TD*%
D18*
%TO.P,Q1,1,E_1*%
%TO.N,Net-(J3-COIL)*%
X137660000Y-116200000D03*
D19*
%TO.P,Q1,2,B_2*%
%TO.N,Net-(Q1-B)*%
X138930000Y-116200000D03*
%TO.P,Q1,3,C_3*%
%TO.N,GND*%
X140200000Y-116200000D03*
%TD*%
D15*
%TO.P,R1,1*%
%TO.N,+3.3V*%
X101000000Y-72390000D03*
%TO.P,R1,2*%
%TO.N,Net-(J1-RST)*%
X101000000Y-80010000D03*
%TD*%
%TO.P,R2,1*%
%TO.N,Net-(Q1-B)*%
X101990000Y-116600000D03*
%TO.P,R2,2*%
%TO.N,Net-(U1-GPIO2)*%
X109610000Y-116600000D03*
%TD*%
D20*
%TO.P,U1,0,GPIO0_0*%
%TO.N,Net-(J1-TX)*%
X117500000Y-107400000D03*
%TO.P,U1,1,GPIO1_1*%
%TO.N,Net-(J1-RX)*%
X120040000Y-107400000D03*
%TO.P,U1,2,GPIO2_2*%
%TO.N,Net-(U1-GPIO2)*%
X122580000Y-107400000D03*
%TO.P,U1,3,GPIO3_3*%
%TO.N,Net-(U1-GPIO3)*%
X125120000Y-107400000D03*
%TO.P,U1,3.3,3V3_3.3*%
%TO.N,+3.3V*%
X130200000Y-107400000D03*
%TO.P,U1,4,GPIO4_4*%
%TO.N,Net-(D1-A)*%
X127660000Y-107400000D03*
%TO.P,U1,5,GPIO5_5*%
%TO.N,unconnected-(U1-GPIO5-Pad5)*%
X135280000Y-92160000D03*
%TO.P,U1,5V,5V_5V*%
%TO.N,Net-(J3-5V)*%
X135280000Y-107400000D03*
%TO.P,U1,6,GPIO6_6*%
%TO.N,unconnected-(U1-GPIO6-Pad6)*%
X132740000Y-92160000D03*
%TO.P,U1,7,GPIO7_7*%
%TO.N,unconnected-(U1-GPIO7-Pad7)*%
X130200000Y-92160000D03*
%TO.P,U1,8,GPIO8_8*%
%TO.N,unconnected-(U1-GPIO8-Pad8)*%
X127660000Y-92160000D03*
%TO.P,U1,9,GPIO9_9*%
%TO.N,unconnected-(U1-GPIO9-Pad9)*%
X125120000Y-92160000D03*
%TO.P,U1,10,GPIO10_10*%
%TO.N,unconnected-(U1-GPIO10-Pad10)*%
X122580000Y-92160000D03*
%TO.P,U1,20,GPIO20_20*%
%TO.N,unconnected-(U1-GPIO20-Pad20)*%
X120040000Y-92160000D03*
%TO.P,U1,21,GPIO21_21*%
%TO.N,unconnected-(U1-GPIO21-Pad21)*%
X117500000Y-92160000D03*
%TO.P,U1,G,GND_G*%
%TO.N,GND*%
X132740000Y-107400000D03*
%TD*%
D13*
%TO.P,J1,1,VCC_1*%
%TO.N,+3.3V*%
X107140000Y-67000000D03*
D14*
%TO.P,J1,2,RX_2*%
%TO.N,Net-(J1-RX)*%
X107140000Y-69000000D03*
%TO.P,J1,3,TX_3*%
%TO.N,Net-(J1-TX)*%
X107140000Y-71000000D03*
%TO.P,J1,4,12_4*%
%TO.N,unconnected-(J1-12-Pad4)*%
X107140000Y-73000000D03*
%TO.P,J1,5,RST_5*%
%TO.N,Net-(J1-RST)*%
X107140000Y-75000000D03*
%TO.P,J1,6,10_6*%
%TO.N,unconnected-(J1-10-Pad6)*%
X107140000Y-77000000D03*
%TO.P,J1,7,11_7*%
%TO.N,unconnected-(J1-11-Pad7)*%
X107140000Y-79000000D03*
%TO.P,J1,8,res_8*%
%TO.N,unconnected-(J1-res-Pad8)*%
X107140000Y-81000000D03*
%TO.P,J1,9,8_9*%
%TO.N,unconnected-(J1-8-Pad9)*%
X107140000Y-83000000D03*
%TO.P,J1,10,GND_10*%
%TO.N,GND*%
X107140000Y-85000000D03*
%TD*%
D21*
%TO.N,Net-(D1-A)*%
X121600000Y-110800000D03*
X123600000Y-110800000D03*
%TO.N,Net-(J1-RX)*%
X119800000Y-89200000D03*
%TO.N,Net-(J1-TX)*%
X118800000Y-89200000D03*
%TD*%
%TO.N,Net-(D1-A)*%
D22*
X104800000Y-106800000D02*
X108800000Y-110800000D01*
X123600000Y-110800000D02*
X124260000Y-110800000D01*
X124260000Y-110800000D02*
X127660000Y-107400000D01*
X108800000Y-110800000D02*
X121600000Y-110800000D01*
%TO.N,Net-(J1-RX)*%
X119800000Y-81660000D02*
X107140000Y-69000000D01*
X119800000Y-89200000D02*
X119800000Y-81660000D01*
%TO.N,+3.3V*%
X99010000Y-72390000D02*
X98400000Y-73000000D01*
X98400000Y-73000000D02*
X98400000Y-89600000D01*
X113562555Y-89600000D02*
X130200000Y-106237445D01*
X106390000Y-67000000D02*
X101000000Y-72390000D01*
X130200000Y-106237445D02*
X130200000Y-107400000D01*
X98400000Y-89600000D02*
X113562555Y-89600000D01*
X107140000Y-67000000D02*
X106390000Y-67000000D01*
X101000000Y-72390000D02*
X99010000Y-72390000D01*
%TO.N,Net-(J1-RST)*%
X107140000Y-75000000D02*
X106010000Y-75000000D01*
X106010000Y-75000000D02*
X101000000Y-80010000D01*
%TO.N,Net-(J1-TX)*%
X107140000Y-71000000D02*
X118800000Y-82660000D01*
X118800000Y-82660000D02*
X118800000Y-89200000D01*
%TO.N,Net-(J3-COIL)*%
X137060000Y-116800000D02*
X137660000Y-116200000D01*
X131540000Y-116800000D02*
X137060000Y-116800000D01*
%TO.N,Net-(J3-5V)*%
X126460000Y-116800000D02*
X135280000Y-107980000D01*
X135280000Y-107980000D02*
X135280000Y-107400000D01*
%TO.N,Net-(Q1-B)*%
X113180000Y-118780000D02*
X113180000Y-116800000D01*
X138200000Y-119600000D02*
X114000000Y-119600000D01*
X104990000Y-119600000D02*
X114000000Y-119600000D01*
X114000000Y-119600000D02*
X113180000Y-118780000D01*
X138930000Y-116200000D02*
X138930000Y-118870000D01*
X101990000Y-116600000D02*
X104990000Y-119600000D01*
X138930000Y-118870000D02*
X138200000Y-119600000D01*
%TO.N,Net-(U1-GPIO2)*%
X113810000Y-112400000D02*
X122600000Y-112400000D01*
X122600000Y-112400000D02*
X122600000Y-112000000D01*
X122600000Y-112000000D02*
X122580000Y-111980000D01*
X109610000Y-116600000D02*
X113810000Y-112400000D01*
X122580000Y-111980000D02*
X122580000Y-107400000D01*
%TO.N,Net-(U1-GPIO3)*%
X115020000Y-97300000D02*
X125120000Y-107400000D01*
X100300000Y-97300000D02*
X106800000Y-97300000D01*
X106800000Y-97300000D02*
X115020000Y-97300000D01*
%TD*%
%TA.AperFunction,Conductor*%
%TO.N,GND*%
G36*
X103508442Y-68819685D02*
G01*
X103554197Y-68872489D01*
X103564141Y-68941647D01*
X103535116Y-69005203D01*
X103529091Y-69011673D01*
X102924668Y-69616096D01*
X101444842Y-71095921D01*
X101383519Y-71129406D01*
X101318848Y-71126173D01*
X101304534Y-71121522D01*
X101121375Y-71092513D01*
X101102352Y-71089500D01*
X100897648Y-71089500D01*
X100878625Y-71092513D01*
X100695465Y-71121522D01*
X100500776Y-71184781D01*
X100318386Y-71277715D01*
X100152786Y-71398028D01*
X100008028Y-71542786D01*
X99887715Y-71708385D01*
X99880883Y-71721795D01*
X99832909Y-71772591D01*
X99770398Y-71789500D01*
X99089057Y-71789500D01*
X98930942Y-71789500D01*
X98778215Y-71830423D01*
X98778214Y-71830423D01*
X98778212Y-71830424D01*
X98778209Y-71830425D01*
X98738341Y-71853444D01*
X98738339Y-71853445D01*
X98641290Y-71909475D01*
X98641282Y-71909481D01*
X97919481Y-72631282D01*
X97919480Y-72631284D01*
X97882963Y-72694534D01*
X97840423Y-72768215D01*
X97799499Y-72920943D01*
X97799499Y-72920945D01*
X97799499Y-73089046D01*
X97799500Y-73089059D01*
X97799500Y-89520943D01*
X97799500Y-89679057D01*
X97807870Y-89710292D01*
X97840423Y-89831783D01*
X97840426Y-89831790D01*
X97919475Y-89968709D01*
X97919479Y-89968714D01*
X97919480Y-89968716D01*
X98031284Y-90080520D01*
X98031286Y-90080521D01*
X98031290Y-90080524D01*
X98168209Y-90159573D01*
X98168216Y-90159577D01*
X98320943Y-90200500D01*
X113262458Y-90200500D01*
X113329497Y-90220185D01*
X113350139Y-90236819D01*
X129438495Y-106325175D01*
X129471980Y-106386498D01*
X129466996Y-106456190D01*
X129436875Y-106499262D01*
X129438309Y-106500696D01*
X129304139Y-106634865D01*
X129304135Y-106634870D01*
X129195479Y-106784424D01*
X129111547Y-106949147D01*
X129111546Y-106949150D01*
X129054420Y-107124969D01*
X129052473Y-107137263D01*
X129022543Y-107200397D01*
X128963231Y-107237328D01*
X128893369Y-107236330D01*
X128835136Y-107197719D01*
X128807527Y-107137263D01*
X128806052Y-107127951D01*
X128805580Y-107124971D01*
X128767776Y-107008622D01*
X128748453Y-106949150D01*
X128748452Y-106949147D01*
X128719388Y-106892106D01*
X128664523Y-106784428D01*
X128632794Y-106740756D01*
X128555864Y-106634870D01*
X128555860Y-106634865D01*
X128425134Y-106504139D01*
X128425129Y-106504135D01*
X128275575Y-106395479D01*
X128275574Y-106395478D01*
X128275572Y-106395477D01*
X128207118Y-106360598D01*
X128110852Y-106311547D01*
X128110849Y-106311546D01*
X127935030Y-106254419D01*
X127752440Y-106225500D01*
X127752435Y-106225500D01*
X127567565Y-106225500D01*
X127567560Y-106225500D01*
X127384969Y-106254419D01*
X127209150Y-106311546D01*
X127209147Y-106311547D01*
X127044424Y-106395479D01*
X126894870Y-106504135D01*
X126894865Y-106504139D01*
X126764139Y-106634865D01*
X126764135Y-106634870D01*
X126655479Y-106784424D01*
X126571547Y-106949147D01*
X126571546Y-106949150D01*
X126514420Y-107124969D01*
X126512473Y-107137263D01*
X126482543Y-107200397D01*
X126423231Y-107237328D01*
X126353369Y-107236330D01*
X126295136Y-107197719D01*
X126267527Y-107137263D01*
X126266052Y-107127951D01*
X126265580Y-107124971D01*
X126227776Y-107008622D01*
X126208453Y-106949150D01*
X126208452Y-106949147D01*
X126179388Y-106892106D01*
X126124523Y-106784428D01*
X126092794Y-106740756D01*
X126015864Y-106634870D01*
X126015860Y-106634865D01*
X125885134Y-106504139D01*
X125885129Y-106504135D01*
X125735575Y-106395479D01*
X125735574Y-106395478D01*
X125735572Y-106395477D01*
X125667118Y-106360598D01*
X125570852Y-106311547D01*
X125570849Y-106311546D01*
X125395030Y-106254419D01*
X125212440Y-106225500D01*
X125212435Y-106225500D01*
X125027565Y-106225500D01*
X125027560Y-106225500D01*
X124888972Y-106247450D01*
X124819678Y-106238495D01*
X124781893Y-106212658D01*
X115507590Y-96938355D01*
X115507588Y-96938352D01*
X115388717Y-96819481D01*
X115388716Y-96819480D01*
X115301904Y-96769360D01*
X115301904Y-96769359D01*
X115301900Y-96769358D01*
X115251785Y-96740423D01*
X115099057Y-96699499D01*
X114940943Y-96699499D01*
X114933347Y-96699499D01*
X114933331Y-96699500D01*
X108254068Y-96699500D01*
X108187029Y-96679815D01*
X108143583Y-96631795D01*
X108083342Y-96513566D01*
X107944517Y-96322490D01*
X107777510Y-96155483D01*
X107586433Y-96016657D01*
X107375996Y-95909433D01*
X107151368Y-95836446D01*
X106918097Y-95799500D01*
X106918092Y-95799500D01*
X106681908Y-95799500D01*
X106681903Y-95799500D01*
X106448631Y-95836446D01*
X106224003Y-95909433D01*
X106013566Y-96016657D01*
X105904550Y-96095862D01*
X105822490Y-96155483D01*
X105822488Y-96155485D01*
X105822487Y-96155485D01*
X105655485Y-96322487D01*
X105655485Y-96322488D01*
X105655483Y-96322490D01*
X105595862Y-96404550D01*
X105516657Y-96513566D01*
X105456417Y-96631795D01*
X105408442Y-96682591D01*
X105345932Y-96699500D01*
X101754068Y-96699500D01*
X101687029Y-96679815D01*
X101643583Y-96631795D01*
X101583342Y-96513566D01*
X101444517Y-96322490D01*
X101277510Y-96155483D01*
X101086433Y-96016657D01*
X100875996Y-95909433D01*
X100651368Y-95836446D01*
X100418097Y-95799500D01*
X100418092Y-95799500D01*
X100181908Y-95799500D01*
X100181903Y-95799500D01*
X99948631Y-95836446D01*
X99724003Y-95909433D01*
X99513566Y-96016657D01*
X99404550Y-96095862D01*
X99322490Y-96155483D01*
X99322488Y-96155485D01*
X99322487Y-96155485D01*
X99155485Y-96322487D01*
X99155485Y-96322488D01*
X99155483Y-96322490D01*
X99095862Y-96404550D01*
X99016657Y-96513566D01*
X98909433Y-96724003D01*
X98836446Y-96948631D01*
X98799500Y-97181902D01*
X98799500Y-97418097D01*
X98836446Y-97651368D01*
X98909433Y-97875996D01*
X99016657Y-98086433D01*
X99155483Y-98277510D01*
X99322490Y-98444517D01*
X99513567Y-98583343D01*
X99612991Y-98634002D01*
X99724003Y-98690566D01*
X99724005Y-98690566D01*
X99724008Y-98690568D01*
X99844412Y-98729689D01*
X99948631Y-98763553D01*
X100181903Y-98800500D01*
X100181908Y-98800500D01*
X100418097Y-98800500D01*
X100651368Y-98763553D01*
X100875992Y-98690568D01*
X101086433Y-98583343D01*
X101277510Y-98444517D01*
X101444517Y-98277510D01*
X101583343Y-98086433D01*
X101643583Y-97968204D01*
X101691558Y-97917409D01*
X101754068Y-97900500D01*
X105345932Y-97900500D01*
X105412971Y-97920185D01*
X105456416Y-97968203D01*
X105516657Y-98086433D01*
X105655483Y-98277510D01*
X105822490Y-98444517D01*
X106013567Y-98583343D01*
X106112991Y-98634002D01*
X106224003Y-98690566D01*
X106224005Y-98690566D01*
X106224008Y-98690568D01*
X106344412Y-98729689D01*
X106448631Y-98763553D01*
X106681903Y-98800500D01*
X106681908Y-98800500D01*
X106918097Y-98800500D01*
X107151368Y-98763553D01*
X107375992Y-98690568D01*
X107586433Y-98583343D01*
X107777510Y-98444517D01*
X107944517Y-98277510D01*
X108083343Y-98086433D01*
X108143583Y-97968204D01*
X108191558Y-97917409D01*
X108254068Y-97900500D01*
X114719903Y-97900500D01*
X114786942Y-97920185D01*
X114807584Y-97936819D01*
X122906171Y-106035406D01*
X122939656Y-106096729D01*
X122934672Y-106166421D01*
X122892800Y-106222354D01*
X122827336Y-106246771D01*
X122799092Y-106245560D01*
X122672440Y-106225500D01*
X122672435Y-106225500D01*
X122487565Y-106225500D01*
X122487560Y-106225500D01*
X122304969Y-106254419D01*
X122129150Y-106311546D01*
X122129147Y-106311547D01*
X121964424Y-106395479D01*
X121814870Y-106504135D01*
X121814865Y-106504139D01*
X121684139Y-106634865D01*
X121684135Y-106634870D01*
X121575479Y-106784424D01*
X121491547Y-106949147D01*
X121491546Y-106949150D01*
X121434420Y-107124969D01*
X121432473Y-107137263D01*
X121402543Y-107200397D01*
X121343231Y-107237328D01*
X121273369Y-107236330D01*
X121215136Y-107197719D01*
X121187527Y-107137263D01*
X121186052Y-107127951D01*
X121185580Y-107124971D01*
X121147776Y-107008622D01*
X121128453Y-106949150D01*
X121128452Y-106949147D01*
X121099388Y-106892106D01*
X121044523Y-106784428D01*
X121012794Y-106740756D01*
X120935864Y-106634870D01*
X120935860Y-106634865D01*
X120805134Y-106504139D01*
X120805129Y-106504135D01*
X120655575Y-106395479D01*
X120655574Y-106395478D01*
X120655572Y-106395477D01*
X120587118Y-106360598D01*
X120490852Y-106311547D01*
X120490849Y-106311546D01*
X120315030Y-106254419D01*
X120132440Y-106225500D01*
X120132435Y-106225500D01*
X119947565Y-106225500D01*
X119947560Y-106225500D01*
X119764969Y-106254419D01*
X119589150Y-106311546D01*
X119589147Y-106311547D01*
X119424424Y-106395479D01*
X119274870Y-106504135D01*
X119274865Y-106504139D01*
X119144139Y-106634865D01*
X119144135Y-106634870D01*
X119035479Y-106784424D01*
X118951547Y-106949147D01*
X118951546Y-106949150D01*
X118894420Y-107124969D01*
X118892473Y-107137263D01*
X118862543Y-107200397D01*
X118803231Y-107237328D01*
X118733369Y-107236330D01*
X118675136Y-107197719D01*
X118647527Y-107137263D01*
X118646052Y-107127951D01*
X118645580Y-107124971D01*
X118607776Y-107008622D01*
X118588453Y-106949150D01*
X118588452Y-106949147D01*
X118559388Y-106892106D01*
X118504523Y-106784428D01*
X118472794Y-106740756D01*
X118395864Y-106634870D01*
X118395860Y-106634865D01*
X118265134Y-106504139D01*
X118265129Y-106504135D01*
X118115575Y-106395479D01*
X118115574Y-106395478D01*
X118115572Y-106395477D01*
X118047118Y-106360598D01*
X117950852Y-106311547D01*
X117950849Y-106311546D01*
X117775030Y-106254419D01*
X117592440Y-106225500D01*
X117592435Y-106225500D01*
X117407565Y-106225500D01*
X117407560Y-106225500D01*
X117224969Y-106254419D01*
X117049150Y-106311546D01*
X117049147Y-106311547D01*
X116884424Y-106395479D01*
X116734870Y-106504135D01*
X116734865Y-106504139D01*
X116604139Y-106634865D01*
X116604135Y-106634870D01*
X116495479Y-106784424D01*
X116411547Y-106949147D01*
X116411546Y-106949150D01*
X116354419Y-107124969D01*
X116325500Y-107307559D01*
X116325500Y-107492440D01*
X116354419Y-107675030D01*
X116411546Y-107850849D01*
X116411547Y-107850852D01*
X116468588Y-107962799D01*
X116494985Y-108014607D01*
X116495479Y-108015575D01*
X116604135Y-108165129D01*
X116604139Y-108165134D01*
X116734865Y-108295860D01*
X116734870Y-108295864D01*
X116848383Y-108378335D01*
X116884428Y-108404523D01*
X116992106Y-108459388D01*
X117049147Y-108488452D01*
X117049150Y-108488453D01*
X117224969Y-108545580D01*
X117407560Y-108574500D01*
X117407565Y-108574500D01*
X117592440Y-108574500D01*
X117775030Y-108545580D01*
X117950849Y-108488453D01*
X117950852Y-108488452D01*
X117951767Y-108487986D01*
X118115572Y-108404523D01*
X118265136Y-108295859D01*
X118395859Y-108165136D01*
X118504523Y-108015572D01*
X118588452Y-107850852D01*
X118645580Y-107675029D01*
X118647527Y-107662737D01*
X118677456Y-107599602D01*
X118736768Y-107562671D01*
X118806630Y-107563669D01*
X118864863Y-107602279D01*
X118892473Y-107662737D01*
X118894420Y-107675030D01*
X118951546Y-107850849D01*
X118951547Y-107850852D01*
X119008588Y-107962799D01*
X119034985Y-108014607D01*
X119035479Y-108015575D01*
X119144135Y-108165129D01*
X119144139Y-108165134D01*
X119274865Y-108295860D01*
X119274870Y-108295864D01*
X119388383Y-108378335D01*
X119424428Y-108404523D01*
X119532106Y-108459388D01*
X119589147Y-108488452D01*
X119589150Y-108488453D01*
X119764969Y-108545580D01*
X119947560Y-108574500D01*
X119947565Y-108574500D01*
X120132440Y-108574500D01*
X120315030Y-108545580D01*
X120490849Y-108488453D01*
X120490852Y-108488452D01*
X120491767Y-108487986D01*
X120655572Y-108404523D01*
X120805136Y-108295859D01*
X120935859Y-108165136D01*
X121044523Y-108015572D01*
X121128452Y-107850852D01*
X121185580Y-107675029D01*
X121187527Y-107662737D01*
X121217456Y-107599602D01*
X121276768Y-107562671D01*
X121346630Y-107563669D01*
X121404863Y-107602279D01*
X121432473Y-107662737D01*
X121434420Y-107675030D01*
X121491546Y-107850849D01*
X121491547Y-107850852D01*
X121548588Y-107962799D01*
X121574985Y-108014607D01*
X121575479Y-108015575D01*
X121684135Y-108165129D01*
X121684139Y-108165134D01*
X121814867Y-108295862D01*
X121878318Y-108341960D01*
X121928385Y-108378336D01*
X121971051Y-108433665D01*
X121979500Y-108478654D01*
X121979500Y-109908210D01*
X121959815Y-109975249D01*
X121907011Y-110021004D01*
X121837853Y-110030948D01*
X121831309Y-110029827D01*
X121678845Y-109999500D01*
X121678842Y-109999500D01*
X121521158Y-109999500D01*
X121521155Y-109999500D01*
X121366510Y-110030261D01*
X121366498Y-110030264D01*
X121220827Y-110090602D01*
X121220814Y-110090609D01*
X121089125Y-110178602D01*
X121022447Y-110199480D01*
X121020234Y-110199500D01*
X109100097Y-110199500D01*
X109033058Y-110179815D01*
X109012416Y-110163181D01*
X106173438Y-107324203D01*
X106139953Y-107262880D01*
X106143187Y-107198205D01*
X106166015Y-107127951D01*
X106200500Y-106910222D01*
X106200500Y-106689778D01*
X106166015Y-106472049D01*
X106127666Y-106354020D01*
X106097896Y-106262396D01*
X106097895Y-106262393D01*
X106048994Y-106166421D01*
X105997815Y-106065978D01*
X105975603Y-106035406D01*
X105868247Y-105887641D01*
X105868243Y-105887636D01*
X105712363Y-105731756D01*
X105712358Y-105731752D01*
X105534025Y-105602187D01*
X105534024Y-105602186D01*
X105534022Y-105602185D01*
X105471096Y-105570122D01*
X105337606Y-105502104D01*
X105337603Y-105502103D01*
X105127952Y-105433985D01*
X105019086Y-105416742D01*
X104910222Y-105399500D01*
X104689778Y-105399500D01*
X104617201Y-105410995D01*
X104472047Y-105433985D01*
X104262396Y-105502103D01*
X104262393Y-105502104D01*
X104065974Y-105602187D01*
X103887641Y-105731752D01*
X103887636Y-105731756D01*
X103837075Y-105782317D01*
X103775752Y-105815801D01*
X103706060Y-105810816D01*
X103650127Y-105768945D01*
X103633213Y-105737968D01*
X103603354Y-105657913D01*
X103603350Y-105657906D01*
X103517190Y-105542812D01*
X103517187Y-105542809D01*
X103402093Y-105456649D01*
X103402086Y-105456645D01*
X103267379Y-105406403D01*
X103267372Y-105406401D01*
X103207844Y-105400000D01*
X102510000Y-105400000D01*
X102510000Y-106424722D01*
X102433694Y-106380667D01*
X102319244Y-106350000D01*
X102200756Y-106350000D01*
X102086306Y-106380667D01*
X102010000Y-106424722D01*
X102010000Y-105400000D01*
X101312155Y-105400000D01*
X101252627Y-105406401D01*
X101252620Y-105406403D01*
X101117913Y-105456645D01*
X101117906Y-105456649D01*
X101002812Y-105542809D01*
X101002809Y-105542812D01*
X100916649Y-105657906D01*
X100916645Y-105657913D01*
X100866403Y-105792620D01*
X100866401Y-105792627D01*
X100860000Y-105852155D01*
X100860000Y-106550000D01*
X101884722Y-106550000D01*
X101840667Y-106626306D01*
X101810000Y-106740756D01*
X101810000Y-106859244D01*
X101840667Y-106973694D01*
X101884722Y-107050000D01*
X100860000Y-107050000D01*
X100860000Y-107747844D01*
X100866401Y-107807372D01*
X100866403Y-107807379D01*
X100916645Y-107942086D01*
X100916649Y-107942093D01*
X101002809Y-108057187D01*
X101002812Y-108057190D01*
X101117906Y-108143350D01*
X101117913Y-108143354D01*
X101252620Y-108193596D01*
X101252627Y-108193598D01*
X101312155Y-108199999D01*
X101312172Y-108200000D01*
X102010000Y-108200000D01*
X102010000Y-107175277D01*
X102086306Y-107219333D01*
X102200756Y-107250000D01*
X102319244Y-107250000D01*
X102433694Y-107219333D01*
X102510000Y-107175277D01*
X102510000Y-108200000D01*
X103207828Y-108200000D01*
X103207844Y-108199999D01*
X103267372Y-108193598D01*
X103267379Y-108193596D01*
X103402086Y-108143354D01*
X103402093Y-108143350D01*
X103517187Y-108057190D01*
X103517190Y-108057187D01*
X103603350Y-107942093D01*
X103603354Y-107942086D01*
X103633213Y-107862031D01*
X103675084Y-107806097D01*
X103740548Y-107781680D01*
X103808821Y-107796531D01*
X103837076Y-107817683D01*
X103887636Y-107868243D01*
X103887641Y-107868247D01*
X104043192Y-107981260D01*
X104065978Y-107997815D01*
X104182501Y-108057187D01*
X104262393Y-108097895D01*
X104262396Y-108097896D01*
X104329525Y-108119707D01*
X104472049Y-108166015D01*
X104689778Y-108200500D01*
X104689779Y-108200500D01*
X104910221Y-108200500D01*
X104910222Y-108200500D01*
X105127951Y-108166015D01*
X105198205Y-108143187D01*
X105268044Y-108141192D01*
X105324203Y-108173438D01*
X108315139Y-111164374D01*
X108315149Y-111164385D01*
X108319479Y-111168715D01*
X108319480Y-111168716D01*
X108431284Y-111280520D01*
X108518095Y-111330639D01*
X108518097Y-111330641D01*
X108568213Y-111359576D01*
X108568215Y-111359577D01*
X108720942Y-111400500D01*
X108720943Y-111400500D01*
X121020234Y-111400500D01*
X121087273Y-111420185D01*
X121089125Y-111421398D01*
X121220814Y-111509390D01*
X121220827Y-111509397D01*
X121345262Y-111560939D01*
X121399666Y-111604779D01*
X121421731Y-111671074D01*
X121404452Y-111738773D01*
X121353315Y-111786384D01*
X121297810Y-111799500D01*
X113896669Y-111799500D01*
X113896653Y-111799499D01*
X113889057Y-111799499D01*
X113730943Y-111799499D01*
X113623587Y-111828265D01*
X113578210Y-111840424D01*
X113578209Y-111840425D01*
X113528096Y-111869359D01*
X113528095Y-111869360D01*
X113484689Y-111894420D01*
X113441285Y-111919479D01*
X113441282Y-111919481D01*
X113329478Y-112031286D01*
X110054842Y-115305921D01*
X109993519Y-115339406D01*
X109928848Y-115336173D01*
X109914534Y-115331522D01*
X109739995Y-115303878D01*
X109712352Y-115299500D01*
X109507648Y-115299500D01*
X109483329Y-115303351D01*
X109305465Y-115331522D01*
X109110776Y-115394781D01*
X108928386Y-115487715D01*
X108762786Y-115608028D01*
X108618028Y-115752786D01*
X108497715Y-115918386D01*
X108404781Y-116100776D01*
X108341522Y-116295465D01*
X108309500Y-116497648D01*
X108309500Y-116702351D01*
X108341522Y-116904534D01*
X108404781Y-117099223D01*
X108497715Y-117281613D01*
X108618028Y-117447213D01*
X108762786Y-117591971D01*
X108883661Y-117679790D01*
X108928390Y-117712287D01*
X109017090Y-117757482D01*
X109110776Y-117805218D01*
X109110778Y-117805218D01*
X109110781Y-117805220D01*
X109215137Y-117839127D01*
X109305465Y-117868477D01*
X109374897Y-117879474D01*
X109507648Y-117900500D01*
X109507649Y-117900500D01*
X109712351Y-117900500D01*
X109712352Y-117900500D01*
X109914534Y-117868477D01*
X110109219Y-117805220D01*
X110291610Y-117712287D01*
X110384590Y-117644732D01*
X110457213Y-117591971D01*
X110457215Y-117591968D01*
X110457219Y-117591966D01*
X110601966Y-117447219D01*
X110601968Y-117447215D01*
X110601971Y-117447213D01*
X110684703Y-117333340D01*
X110722287Y-117281610D01*
X110815220Y-117099219D01*
X110878477Y-116904534D01*
X110910500Y-116702352D01*
X110910500Y-116497648D01*
X110878477Y-116295466D01*
X110873825Y-116281151D01*
X110871832Y-116211312D01*
X110904075Y-116155158D01*
X114022416Y-113036819D01*
X114083739Y-113003334D01*
X114110097Y-113000500D01*
X122679055Y-113000500D01*
X122679057Y-113000500D01*
X122831784Y-112959577D01*
X122968716Y-112880520D01*
X123080520Y-112768716D01*
X123159577Y-112631784D01*
X123200500Y-112479057D01*
X123200500Y-111920943D01*
X123200109Y-111919481D01*
X123184725Y-111862067D01*
X123180500Y-111829974D01*
X123180500Y-111678271D01*
X123200185Y-111611232D01*
X123252989Y-111565477D01*
X123322147Y-111555533D01*
X123351951Y-111563709D01*
X123366503Y-111569737D01*
X123521153Y-111600499D01*
X123521156Y-111600500D01*
X123521158Y-111600500D01*
X123678844Y-111600500D01*
X123678845Y-111600499D01*
X123833497Y-111569737D01*
X123979179Y-111509394D01*
X124110289Y-111421789D01*
X124110288Y-111421789D01*
X124110873Y-111421399D01*
X124177550Y-111400521D01*
X124179764Y-111400501D01*
X124339054Y-111400501D01*
X124339057Y-111400501D01*
X124491785Y-111359577D01*
X124541904Y-111330639D01*
X124628716Y-111280520D01*
X124740520Y-111168716D01*
X124740520Y-111168714D01*
X124750728Y-111158507D01*
X124750730Y-111158504D01*
X127321894Y-108587339D01*
X127383215Y-108553856D01*
X127428971Y-108552549D01*
X127567560Y-108574500D01*
X127567565Y-108574500D01*
X127752440Y-108574500D01*
X127935030Y-108545580D01*
X128110849Y-108488453D01*
X128110852Y-108488452D01*
X128111767Y-108487986D01*
X128275572Y-108404523D01*
X128425136Y-108295859D01*
X128555859Y-108165136D01*
X128664523Y-108015572D01*
X128748452Y-107850852D01*
X128805580Y-107675029D01*
X128807527Y-107662737D01*
X128837456Y-107599602D01*
X128896768Y-107562671D01*
X128966630Y-107563669D01*
X129024863Y-107602279D01*
X129052473Y-107662737D01*
X129054420Y-107675030D01*
X129111546Y-107850849D01*
X129111547Y-107850852D01*
X129168588Y-107962799D01*
X129194985Y-108014607D01*
X129195479Y-108015575D01*
X129304135Y-108165129D01*
X129304139Y-108165134D01*
X129434865Y-108295860D01*
X129434870Y-108295864D01*
X129548383Y-108378335D01*
X129584428Y-108404523D01*
X129692106Y-108459388D01*
X129749147Y-108488452D01*
X129749150Y-108488453D01*
X129924969Y-108545580D01*
X130107560Y-108574500D01*
X130107565Y-108574500D01*
X130292440Y-108574500D01*
X130475030Y-108545580D01*
X130650849Y-108488453D01*
X130650852Y-108488452D01*
X130651767Y-108487986D01*
X130815572Y-108404523D01*
X130965136Y-108295859D01*
X131095859Y-108165136D01*
X131204523Y-108015572D01*
X131288452Y-107850852D01*
X131345580Y-107675029D01*
X131347780Y-107661137D01*
X131377708Y-107598005D01*
X131437019Y-107561073D01*
X131506882Y-107562069D01*
X131565115Y-107600678D01*
X131592726Y-107661136D01*
X131594907Y-107674910D01*
X131652014Y-107850664D01*
X131735900Y-108015303D01*
X131735903Y-108015307D01*
X131750730Y-108035715D01*
X131750730Y-108035716D01*
X132322356Y-107464090D01*
X132348622Y-107562114D01*
X132403916Y-107657886D01*
X132482114Y-107736084D01*
X132577886Y-107791378D01*
X132675909Y-107817643D01*
X132104283Y-108389268D01*
X132104283Y-108389269D01*
X132124686Y-108404092D01*
X132289338Y-108487986D01*
X132465091Y-108545092D01*
X132647605Y-108574000D01*
X132832395Y-108574000D01*
X133014908Y-108545092D01*
X133190661Y-108487986D01*
X133355310Y-108404094D01*
X133375715Y-108389268D01*
X133375716Y-108389268D01*
X132804090Y-107817642D01*
X132902114Y-107791378D01*
X132997886Y-107736084D01*
X133076084Y-107657886D01*
X133131378Y-107562114D01*
X133157643Y-107464090D01*
X133729268Y-108035716D01*
X133729268Y-108035715D01*
X133744094Y-108015310D01*
X133827986Y-107850661D01*
X133885091Y-107674911D01*
X133887272Y-107661143D01*
X133917199Y-107598007D01*
X133976509Y-107561073D01*
X134046372Y-107562068D01*
X134104606Y-107600676D01*
X134132219Y-107661133D01*
X134132220Y-107661140D01*
X134134420Y-107675029D01*
X134134420Y-107675031D01*
X134134421Y-107675033D01*
X134191546Y-107850849D01*
X134191550Y-107850857D01*
X134274984Y-108014607D01*
X134287880Y-108083276D01*
X134261603Y-108148016D01*
X134252180Y-108158582D01*
X126944522Y-115466241D01*
X126883199Y-115499726D01*
X126818523Y-115496491D01*
X126776245Y-115482754D01*
X126636272Y-115460584D01*
X126566287Y-115449500D01*
X126353713Y-115449500D01*
X126305042Y-115457208D01*
X126143760Y-115482753D01*
X125941585Y-115548444D01*
X125752179Y-115644951D01*
X125580213Y-115769890D01*
X125429890Y-115920213D01*
X125304951Y-116092179D01*
X125208444Y-116281585D01*
X125142753Y-116483760D01*
X125117119Y-116645606D01*
X125109500Y-116693713D01*
X125109500Y-116906287D01*
X125110208Y-116910756D01*
X125140057Y-117099219D01*
X125142754Y-117116243D01*
X125196486Y-117281613D01*
X125208444Y-117318414D01*
X125304951Y-117507820D01*
X125429890Y-117679786D01*
X125580213Y-117830109D01*
X125752179Y-117955048D01*
X125752181Y-117955049D01*
X125752184Y-117955051D01*
X125941588Y-118051557D01*
X126143757Y-118117246D01*
X126353713Y-118150500D01*
X126353714Y-118150500D01*
X126566286Y-118150500D01*
X126566287Y-118150500D01*
X126776243Y-118117246D01*
X126978412Y-118051557D01*
X127167816Y-117955051D01*
X127254138Y-117892335D01*
X127339786Y-117830109D01*
X127339788Y-117830106D01*
X127339792Y-117830104D01*
X127490104Y-117679792D01*
X127490106Y-117679788D01*
X127490109Y-117679786D01*
X127566603Y-117574499D01*
X127615051Y-117507816D01*
X127619793Y-117498508D01*
X127667763Y-117447711D01*
X127735583Y-117430911D01*
X127801719Y-117453445D01*
X127840763Y-117498500D01*
X127845373Y-117507547D01*
X127884728Y-117561716D01*
X128517037Y-116929408D01*
X128534075Y-116992993D01*
X128599901Y-117107007D01*
X128692993Y-117200099D01*
X128807007Y-117265925D01*
X128870590Y-117282962D01*
X128238282Y-117915269D01*
X128238282Y-117915270D01*
X128292449Y-117954624D01*
X128481782Y-118051095D01*
X128683870Y-118116757D01*
X128893754Y-118150000D01*
X129106246Y-118150000D01*
X129316127Y-118116757D01*
X129316130Y-118116757D01*
X129518217Y-118051095D01*
X129707554Y-117954622D01*
X129761716Y-117915270D01*
X129761717Y-117915270D01*
X129129408Y-117282962D01*
X129192993Y-117265925D01*
X129307007Y-117200099D01*
X129400099Y-117107007D01*
X129465925Y-116992993D01*
X129482962Y-116929408D01*
X130153181Y-117599628D01*
X130186666Y-117660951D01*
X130189500Y-117687300D01*
X130189500Y-117697865D01*
X130189501Y-117697876D01*
X130195908Y-117757483D01*
X130246202Y-117892328D01*
X130246206Y-117892335D01*
X130332452Y-118007544D01*
X130332455Y-118007547D01*
X130447664Y-118093793D01*
X130447671Y-118093797D01*
X130582517Y-118144091D01*
X130582516Y-118144091D01*
X130589444Y-118144835D01*
X130642127Y-118150500D01*
X132437872Y-118150499D01*
X132497483Y-118144091D01*
X132632331Y-118093796D01*
X132747546Y-118007546D01*
X132833796Y-117892331D01*
X132884091Y-117757483D01*
X132890500Y-117697873D01*
X132890500Y-117524500D01*
X132910185Y-117457461D01*
X132962989Y-117411706D01*
X133014500Y-117400500D01*
X136888271Y-117400500D01*
X136931604Y-117408318D01*
X137027517Y-117444091D01*
X137027516Y-117444091D01*
X137034444Y-117444835D01*
X137087127Y-117450500D01*
X138205500Y-117450499D01*
X138272539Y-117470184D01*
X138318294Y-117522987D01*
X138329500Y-117574499D01*
X138329500Y-118569903D01*
X138309815Y-118636942D01*
X138293181Y-118657584D01*
X137987584Y-118963181D01*
X137926261Y-118996666D01*
X137899903Y-118999500D01*
X114300097Y-118999500D01*
X114233058Y-118979815D01*
X114212416Y-118963181D01*
X113816819Y-118567584D01*
X113783334Y-118506261D01*
X113780500Y-118479903D01*
X113780500Y-118029601D01*
X113800185Y-117962562D01*
X113848206Y-117919116D01*
X113861610Y-117912287D01*
X114027219Y-117791966D01*
X114171966Y-117647219D01*
X114171968Y-117647215D01*
X114171971Y-117647213D01*
X114234087Y-117561716D01*
X114292287Y-117481610D01*
X114385220Y-117299219D01*
X114448477Y-117104534D01*
X114480500Y-116902352D01*
X114480500Y-116697682D01*
X119500000Y-116697682D01*
X119500000Y-116902317D01*
X119532009Y-117104417D01*
X119595244Y-117299031D01*
X119688141Y-117481350D01*
X119688147Y-117481359D01*
X119720523Y-117525921D01*
X119720524Y-117525922D01*
X120400000Y-116846446D01*
X120400000Y-116852661D01*
X120427259Y-116954394D01*
X120479920Y-117045606D01*
X120554394Y-117120080D01*
X120645606Y-117172741D01*
X120747339Y-117200000D01*
X120753553Y-117200000D01*
X120074076Y-117879474D01*
X120118650Y-117911859D01*
X120300968Y-118004755D01*
X120495582Y-118067990D01*
X120697683Y-118100000D01*
X120902317Y-118100000D01*
X121104417Y-118067990D01*
X121299031Y-118004755D01*
X121481349Y-117911859D01*
X121525921Y-117879474D01*
X120846447Y-117200000D01*
X120852661Y-117200000D01*
X120954394Y-117172741D01*
X121045606Y-117120080D01*
X121120080Y-117045606D01*
X121172741Y-116954394D01*
X121200000Y-116852661D01*
X121200000Y-116846447D01*
X121879474Y-117525921D01*
X121911859Y-117481349D01*
X122004755Y-117299031D01*
X122067990Y-117104417D01*
X122100000Y-116902317D01*
X122100000Y-116697690D01*
X122099998Y-116697674D01*
X122067990Y-116495582D01*
X122004755Y-116300968D01*
X121911859Y-116118650D01*
X121879474Y-116074077D01*
X121879474Y-116074076D01*
X121200000Y-116753551D01*
X121200000Y-116747339D01*
X121172741Y-116645606D01*
X121120080Y-116554394D01*
X121045606Y-116479920D01*
X120954394Y-116427259D01*
X120852661Y-116400000D01*
X120846446Y-116400000D01*
X121525922Y-115720524D01*
X121525921Y-115720523D01*
X121481359Y-115688147D01*
X121481350Y-115688141D01*
X121299031Y-115595244D01*
X121104417Y-115532009D01*
X120902317Y-115500000D01*
X120697683Y-115500000D01*
X120495582Y-115532009D01*
X120300968Y-115595244D01*
X120118644Y-115688143D01*
X120074077Y-115720523D01*
X120074077Y-115720524D01*
X120753554Y-116400000D01*
X120747339Y-116400000D01*
X120645606Y-116427259D01*
X120554394Y-116479920D01*
X120479920Y-116554394D01*
X120427259Y-116645606D01*
X120400000Y-116747339D01*
X120400000Y-116753553D01*
X119720524Y-116074077D01*
X119720523Y-116074077D01*
X119688143Y-116118644D01*
X119595244Y-116300968D01*
X119532009Y-116495582D01*
X119500000Y-116697682D01*
X114480500Y-116697682D01*
X114480500Y-116697648D01*
X114458982Y-116561789D01*
X114448477Y-116495465D01*
X114396038Y-116334075D01*
X114385220Y-116300781D01*
X114385218Y-116300778D01*
X114385218Y-116300776D01*
X114338398Y-116208888D01*
X114292287Y-116118390D01*
X114279490Y-116100776D01*
X114171971Y-115952786D01*
X114027213Y-115808028D01*
X113861613Y-115687715D01*
X113861612Y-115687714D01*
X113861610Y-115687713D01*
X113804653Y-115658691D01*
X113679223Y-115594781D01*
X113484534Y-115531522D01*
X113309995Y-115503878D01*
X113282352Y-115499500D01*
X113077648Y-115499500D01*
X113053329Y-115503351D01*
X112875465Y-115531522D01*
X112680776Y-115594781D01*
X112498386Y-115687715D01*
X112332786Y-115808028D01*
X112188028Y-115952786D01*
X112067715Y-116118386D01*
X111974781Y-116300776D01*
X111911522Y-116495465D01*
X111879500Y-116697648D01*
X111879500Y-116902351D01*
X111911522Y-117104534D01*
X111974781Y-117299223D01*
X112013314Y-117374847D01*
X112067585Y-117481359D01*
X112067715Y-117481613D01*
X112188028Y-117647213D01*
X112188034Y-117647219D01*
X112332781Y-117791966D01*
X112498390Y-117912287D01*
X112511793Y-117919116D01*
X112562589Y-117967088D01*
X112579500Y-118029601D01*
X112579500Y-118700939D01*
X112579499Y-118700943D01*
X112579499Y-118859057D01*
X112580520Y-118862869D01*
X112580592Y-118874755D01*
X112573005Y-118901179D01*
X112568769Y-118928348D01*
X112563499Y-118934284D01*
X112561310Y-118941912D01*
X112540641Y-118960040D01*
X112522390Y-118980604D01*
X112514666Y-118982822D01*
X112508782Y-118987983D01*
X112483497Y-118991773D01*
X112456594Y-118999500D01*
X105290098Y-118999500D01*
X105223059Y-118979815D01*
X105202417Y-118963181D01*
X103284077Y-117044842D01*
X103250592Y-116983519D01*
X103253828Y-116918841D01*
X103256455Y-116910756D01*
X103258477Y-116904534D01*
X103290500Y-116702352D01*
X103290500Y-116497648D01*
X103264592Y-116334075D01*
X103258477Y-116295465D01*
X103220900Y-116179815D01*
X103195220Y-116100781D01*
X103195218Y-116100778D01*
X103195218Y-116100776D01*
X103144058Y-116000371D01*
X103102287Y-115918390D01*
X103070033Y-115873996D01*
X102981971Y-115752786D01*
X102837213Y-115608028D01*
X102671613Y-115487715D01*
X102671612Y-115487714D01*
X102671610Y-115487713D01*
X102596613Y-115449500D01*
X102489223Y-115394781D01*
X102294534Y-115331522D01*
X102119995Y-115303878D01*
X102092352Y-115299500D01*
X101887648Y-115299500D01*
X101863329Y-115303351D01*
X101685465Y-115331522D01*
X101490776Y-115394781D01*
X101308386Y-115487715D01*
X101142786Y-115608028D01*
X100998028Y-115752786D01*
X100877715Y-115918386D01*
X100784781Y-116100776D01*
X100721522Y-116295465D01*
X100689500Y-116497648D01*
X100689500Y-116702351D01*
X100721522Y-116904534D01*
X100784781Y-117099223D01*
X100877715Y-117281613D01*
X100998028Y-117447213D01*
X101142786Y-117591971D01*
X101263661Y-117679790D01*
X101308390Y-117712287D01*
X101397090Y-117757482D01*
X101490776Y-117805218D01*
X101490778Y-117805218D01*
X101490781Y-117805220D01*
X101595137Y-117839127D01*
X101685465Y-117868477D01*
X101754897Y-117879474D01*
X101887648Y-117900500D01*
X101887649Y-117900500D01*
X102092351Y-117900500D01*
X102092352Y-117900500D01*
X102294534Y-117868477D01*
X102308842Y-117863827D01*
X102378682Y-117861831D01*
X102434841Y-117894076D01*
X104621284Y-120080520D01*
X104621286Y-120080521D01*
X104621290Y-120080524D01*
X104708093Y-120130639D01*
X104758216Y-120159577D01*
X104758223Y-120159579D01*
X104762710Y-120161438D01*
X104817114Y-120205278D01*
X104839180Y-120271572D01*
X104821902Y-120339272D01*
X104770765Y-120386883D01*
X104715259Y-120400000D01*
X97723520Y-120400000D01*
X97656481Y-120380315D01*
X97610726Y-120327511D01*
X97599521Y-120276481D01*
X97492565Y-92681947D01*
X98800000Y-92681947D01*
X98800000Y-92918052D01*
X98836934Y-93151247D01*
X98909897Y-93375802D01*
X99017087Y-93586174D01*
X99077338Y-93669104D01*
X99077340Y-93669105D01*
X99776212Y-92970233D01*
X99787482Y-93012292D01*
X99859890Y-93137708D01*
X99962292Y-93240110D01*
X100087708Y-93312518D01*
X100129765Y-93323787D01*
X99430893Y-94022658D01*
X99513828Y-94082914D01*
X99724197Y-94190102D01*
X99948752Y-94263065D01*
X99948751Y-94263065D01*
X100181948Y-94300000D01*
X100418052Y-94300000D01*
X100651247Y-94263065D01*
X100875802Y-94190102D01*
X101086163Y-94082918D01*
X101086169Y-94082914D01*
X101169104Y-94022658D01*
X101169105Y-94022658D01*
X100470233Y-93323787D01*
X100512292Y-93312518D01*
X100637708Y-93240110D01*
X100740110Y-93137708D01*
X100812518Y-93012292D01*
X100823787Y-92970234D01*
X101522658Y-93669105D01*
X101522658Y-93669104D01*
X101582914Y-93586169D01*
X101582918Y-93586163D01*
X101690102Y-93375802D01*
X101763065Y-93151247D01*
X101800000Y-92918052D01*
X101800000Y-92681947D01*
X105300000Y-92681947D01*
X105300000Y-92918052D01*
X105336934Y-93151247D01*
X105409897Y-93375802D01*
X105517087Y-93586174D01*
X105577338Y-93669104D01*
X105577340Y-93669105D01*
X106276212Y-92970233D01*
X106287482Y-93012292D01*
X106359890Y-93137708D01*
X106462292Y-93240110D01*
X106587708Y-93312518D01*
X106629765Y-93323787D01*
X105930893Y-94022658D01*
X106013828Y-94082914D01*
X106224197Y-94190102D01*
X106448752Y-94263065D01*
X106448751Y-94263065D01*
X106681948Y-94300000D01*
X106918052Y-94300000D01*
X107151247Y-94263065D01*
X107375802Y-94190102D01*
X107586163Y-94082918D01*
X107586169Y-94082914D01*
X107669104Y-94022658D01*
X107669105Y-94022658D01*
X106970233Y-93323787D01*
X107012292Y-93312518D01*
X107137708Y-93240110D01*
X107240110Y-93137708D01*
X107312518Y-93012292D01*
X107323787Y-92970234D01*
X108022658Y-93669105D01*
X108022658Y-93669104D01*
X108082914Y-93586169D01*
X108082918Y-93586163D01*
X108190102Y-93375802D01*
X108263065Y-93151247D01*
X108300000Y-92918052D01*
X108300000Y-92681947D01*
X108263065Y-92448752D01*
X108190102Y-92224197D01*
X108082914Y-92013828D01*
X108022658Y-91930894D01*
X108022658Y-91930893D01*
X107323787Y-92629765D01*
X107312518Y-92587708D01*
X107240110Y-92462292D01*
X107137708Y-92359890D01*
X107012292Y-92287482D01*
X106970234Y-92276212D01*
X107669105Y-91577340D01*
X107669104Y-91577338D01*
X107586174Y-91517087D01*
X107375802Y-91409897D01*
X107151247Y-91336934D01*
X107151248Y-91336934D01*
X106918052Y-91300000D01*
X106681948Y-91300000D01*
X106448752Y-91336934D01*
X106224197Y-91409897D01*
X106013830Y-91517084D01*
X105930894Y-91577340D01*
X106629766Y-92276212D01*
X106587708Y-92287482D01*
X106462292Y-92359890D01*
X106359890Y-92462292D01*
X106287482Y-92587708D01*
X106276212Y-92629766D01*
X105577340Y-91930894D01*
X105517084Y-92013830D01*
X105409897Y-92224197D01*
X105336934Y-92448752D01*
X105300000Y-92681947D01*
X101800000Y-92681947D01*
X101763065Y-92448752D01*
X101690102Y-92224197D01*
X101582914Y-92013828D01*
X101522658Y-91930894D01*
X101522658Y-91930893D01*
X100823787Y-92629765D01*
X100812518Y-92587708D01*
X100740110Y-92462292D01*
X100637708Y-92359890D01*
X100512292Y-92287482D01*
X100470234Y-92276212D01*
X101169105Y-91577340D01*
X101169104Y-91577339D01*
X101086174Y-91517087D01*
X100875802Y-91409897D01*
X100651247Y-91336934D01*
X100651248Y-91336934D01*
X100418052Y-91300000D01*
X100181948Y-91300000D01*
X99948752Y-91336934D01*
X99724197Y-91409897D01*
X99513830Y-91517084D01*
X99430894Y-91577340D01*
X100129766Y-92276212D01*
X100087708Y-92287482D01*
X99962292Y-92359890D01*
X99859890Y-92462292D01*
X99787482Y-92587708D01*
X99776212Y-92629766D01*
X99077340Y-91930894D01*
X99017084Y-92013830D01*
X98909897Y-92224197D01*
X98836934Y-92448752D01*
X98800000Y-92681947D01*
X97492565Y-92681947D01*
X97400482Y-68924479D01*
X97419907Y-68857365D01*
X97472533Y-68811406D01*
X97524481Y-68800000D01*
X103441403Y-68800000D01*
X103508442Y-68819685D01*
G37*
%TD.AperFunction*%
%TA.AperFunction,Conductor*%
G36*
X105907539Y-68819685D02*
G01*
X105953294Y-68872489D01*
X105964500Y-68924000D01*
X105964500Y-69092513D01*
X105993445Y-69275265D01*
X106050619Y-69451232D01*
X106050620Y-69451235D01*
X106134622Y-69616096D01*
X106243379Y-69765787D01*
X106374213Y-69896621D01*
X106378421Y-69899678D01*
X106378432Y-69899686D01*
X106421094Y-69955019D01*
X106427069Y-70024633D01*
X106394459Y-70086426D01*
X106378432Y-70100314D01*
X106374210Y-70103381D01*
X106243381Y-70234210D01*
X106243381Y-70234211D01*
X106243379Y-70234213D01*
X106196672Y-70298499D01*
X106134622Y-70383903D01*
X106050620Y-70548764D01*
X106050619Y-70548767D01*
X105993445Y-70724734D01*
X105993445Y-70724736D01*
X105964500Y-70907486D01*
X105964500Y-71092514D01*
X105969095Y-71121523D01*
X105993445Y-71275265D01*
X106050619Y-71451232D01*
X106050620Y-71451235D01*
X106134622Y-71616096D01*
X106243379Y-71765787D01*
X106374213Y-71896621D01*
X106378421Y-71899678D01*
X106378432Y-71899686D01*
X106421094Y-71955019D01*
X106427069Y-72024633D01*
X106394459Y-72086426D01*
X106378432Y-72100314D01*
X106374210Y-72103381D01*
X106243381Y-72234210D01*
X106243381Y-72234211D01*
X106243379Y-72234213D01*
X106204556Y-72287648D01*
X106134622Y-72383903D01*
X106050620Y-72548764D01*
X106050619Y-72548767D01*
X105993445Y-72724734D01*
X105964500Y-72907486D01*
X105964500Y-73092513D01*
X105993445Y-73275265D01*
X106050619Y-73451232D01*
X106050620Y-73451235D01*
X106076633Y-73502287D01*
X106134622Y-73616096D01*
X106243379Y-73765787D01*
X106374213Y-73896621D01*
X106378421Y-73899678D01*
X106378432Y-73899686D01*
X106421094Y-73955019D01*
X106427069Y-74024633D01*
X106394459Y-74086426D01*
X106378432Y-74100314D01*
X106374210Y-74103381D01*
X106243381Y-74234210D01*
X106243376Y-74234216D01*
X106160429Y-74348384D01*
X106105099Y-74391050D01*
X106060111Y-74399499D01*
X105930943Y-74399499D01*
X105823587Y-74428265D01*
X105778210Y-74440424D01*
X105778209Y-74440425D01*
X105728096Y-74469359D01*
X105728095Y-74469360D01*
X105684689Y-74494420D01*
X105641285Y-74519479D01*
X105641282Y-74519481D01*
X105529478Y-74631286D01*
X101444842Y-78715921D01*
X101383519Y-78749406D01*
X101318848Y-78746173D01*
X101304534Y-78741522D01*
X101129995Y-78713878D01*
X101102352Y-78709500D01*
X100897648Y-78709500D01*
X100873329Y-78713351D01*
X100695465Y-78741522D01*
X100500776Y-78804781D01*
X100318386Y-78897715D01*
X100152786Y-79018028D01*
X100008028Y-79162786D01*
X99887715Y-79328386D01*
X99794781Y-79510776D01*
X99731522Y-79705465D01*
X99699500Y-79907648D01*
X99699500Y-80112351D01*
X99731522Y-80314534D01*
X99794781Y-80509223D01*
X99887715Y-80691613D01*
X100008028Y-80857213D01*
X100152786Y-81001971D01*
X100307749Y-81114556D01*
X100318390Y-81122287D01*
X100434607Y-81181503D01*
X100500776Y-81215218D01*
X100500778Y-81215218D01*
X100500781Y-81215220D01*
X100605137Y-81249127D01*
X100695465Y-81278477D01*
X100776312Y-81291282D01*
X100897648Y-81310500D01*
X100897649Y-81310500D01*
X101102351Y-81310500D01*
X101102352Y-81310500D01*
X101304534Y-81278477D01*
X101499219Y-81215220D01*
X101681610Y-81122287D01*
X101774590Y-81054732D01*
X101847213Y-81001971D01*
X101847215Y-81001968D01*
X101847219Y-81001966D01*
X101991966Y-80857219D01*
X101991968Y-80857215D01*
X101991971Y-80857213D01*
X102044732Y-80784590D01*
X102112287Y-80691610D01*
X102205220Y-80509219D01*
X102268477Y-80314534D01*
X102300500Y-80112352D01*
X102300500Y-79907648D01*
X102268477Y-79705466D01*
X102263825Y-79691151D01*
X102261832Y-79621312D01*
X102294075Y-79565158D01*
X106080732Y-75778502D01*
X106088008Y-75774528D01*
X106092896Y-75767831D01*
X106118222Y-75758030D01*
X106142055Y-75745017D01*
X106150324Y-75745608D01*
X106158057Y-75742616D01*
X106184660Y-75748063D01*
X106211747Y-75750001D01*
X106220155Y-75755332D01*
X106226506Y-75756633D01*
X106252456Y-75775813D01*
X106255017Y-75777437D01*
X106255514Y-75777922D01*
X106374213Y-75896621D01*
X106385705Y-75904970D01*
X106392144Y-75911254D01*
X106405031Y-75934185D01*
X106421094Y-75955019D01*
X106421878Y-75964163D01*
X106426375Y-75972164D01*
X106424819Y-75998420D01*
X106427069Y-76024633D01*
X106422784Y-76032751D01*
X106422242Y-76041911D01*
X106406738Y-76063157D01*
X106394459Y-76086426D01*
X106381677Y-76097501D01*
X106381057Y-76098352D01*
X106380405Y-76098604D01*
X106378432Y-76100314D01*
X106374210Y-76103381D01*
X106243381Y-76234210D01*
X106243381Y-76234211D01*
X106243379Y-76234213D01*
X106196672Y-76298499D01*
X106134622Y-76383903D01*
X106050620Y-76548764D01*
X106050619Y-76548767D01*
X105993445Y-76724734D01*
X105964500Y-76907486D01*
X105964500Y-77092513D01*
X105993445Y-77275265D01*
X106050619Y-77451232D01*
X106050620Y-77451235D01*
X106134622Y-77616096D01*
X106243379Y-77765787D01*
X106374213Y-77896621D01*
X106378421Y-77899678D01*
X106378432Y-77899686D01*
X106421094Y-77955019D01*
X106427069Y-78024633D01*
X106394459Y-78086426D01*
X106378432Y-78100314D01*
X106374210Y-78103381D01*
X106243381Y-78234210D01*
X106243381Y-78234211D01*
X106243379Y-78234213D01*
X106196672Y-78298499D01*
X106134622Y-78383903D01*
X106050620Y-78548764D01*
X106050619Y-78548767D01*
X105993445Y-78724734D01*
X105964500Y-78907486D01*
X105964500Y-79092513D01*
X105993445Y-79275265D01*
X106050619Y-79451232D01*
X106050620Y-79451235D01*
X106134622Y-79616096D01*
X106243379Y-79765787D01*
X106374213Y-79896621D01*
X106378421Y-79899678D01*
X106378432Y-79899686D01*
X106421094Y-79955019D01*
X106427069Y-80024633D01*
X106394459Y-80086426D01*
X106378432Y-80100314D01*
X106374210Y-80103381D01*
X106243381Y-80234210D01*
X106243381Y-80234211D01*
X106243379Y-80234213D01*
X106196672Y-80298499D01*
X106134622Y-80383903D01*
X106050620Y-80548764D01*
X106050619Y-80548767D01*
X105993445Y-80724734D01*
X105964500Y-80907486D01*
X105964500Y-81092513D01*
X105993445Y-81275265D01*
X106050619Y-81451232D01*
X106050620Y-81451235D01*
X106116711Y-81580944D01*
X106134622Y-81616096D01*
X106243379Y-81765787D01*
X106374213Y-81896621D01*
X106378421Y-81899678D01*
X106378432Y-81899686D01*
X106421094Y-81955019D01*
X106427069Y-82024633D01*
X106394459Y-82086426D01*
X106378432Y-82100314D01*
X106374210Y-82103381D01*
X106243381Y-82234210D01*
X106243381Y-82234211D01*
X106243379Y-82234213D01*
X106196672Y-82298499D01*
X106134622Y-82383903D01*
X106050620Y-82548764D01*
X106050619Y-82548767D01*
X105993445Y-82724734D01*
X105964500Y-82907486D01*
X105964500Y-83092513D01*
X105993445Y-83275265D01*
X106050619Y-83451232D01*
X106050620Y-83451235D01*
X106134622Y-83616096D01*
X106243379Y-83765787D01*
X106374213Y-83896621D01*
X106374216Y-83896623D01*
X106448831Y-83950834D01*
X106463806Y-83970254D01*
X107093554Y-84600000D01*
X107087339Y-84600000D01*
X106985606Y-84627259D01*
X106894394Y-84679920D01*
X106819920Y-84754394D01*
X106767259Y-84845606D01*
X106740000Y-84947339D01*
X106740000Y-84953553D01*
X106150015Y-84363568D01*
X106135049Y-84384167D01*
X106051084Y-84548956D01*
X106051083Y-84548959D01*
X105993933Y-84724852D01*
X105965000Y-84907526D01*
X105965000Y-85092473D01*
X105993933Y-85275147D01*
X106051083Y-85451040D01*
X106051084Y-85451043D01*
X106135050Y-85615834D01*
X106150015Y-85636430D01*
X106150016Y-85636431D01*
X106740000Y-85046447D01*
X106740000Y-85052661D01*
X106767259Y-85154394D01*
X106819920Y-85245606D01*
X106894394Y-85320080D01*
X106985606Y-85372741D01*
X107087339Y-85400000D01*
X107093553Y-85400000D01*
X106503568Y-85989983D01*
X106503568Y-85989984D01*
X106524165Y-86004949D01*
X106688956Y-86088915D01*
X106688959Y-86088916D01*
X106864852Y-86146066D01*
X107047527Y-86175000D01*
X107232473Y-86175000D01*
X107415147Y-86146066D01*
X107591040Y-86088916D01*
X107591043Y-86088915D01*
X107755836Y-86004947D01*
X107755845Y-86004942D01*
X107776430Y-85989984D01*
X107776431Y-85989983D01*
X107186448Y-85400000D01*
X107192661Y-85400000D01*
X107294394Y-85372741D01*
X107385606Y-85320080D01*
X107460080Y-85245606D01*
X107512741Y-85154394D01*
X107540000Y-85052661D01*
X107540000Y-85046447D01*
X108129983Y-85636430D01*
X108129984Y-85636430D01*
X108144942Y-85615845D01*
X108144947Y-85615836D01*
X108228915Y-85451043D01*
X108228916Y-85451040D01*
X108286066Y-85275147D01*
X108315000Y-85092473D01*
X108315000Y-84907526D01*
X108286066Y-84724852D01*
X108228916Y-84548959D01*
X108228915Y-84548956D01*
X108144949Y-84384165D01*
X108129983Y-84363568D01*
X107540000Y-84953551D01*
X107540000Y-84947339D01*
X107512741Y-84845606D01*
X107460080Y-84754394D01*
X107385606Y-84679920D01*
X107294394Y-84627259D01*
X107192661Y-84600000D01*
X107186447Y-84600000D01*
X107800675Y-83985771D01*
X107831165Y-83950836D01*
X107905787Y-83896621D01*
X108036621Y-83765787D01*
X108145378Y-83616096D01*
X108229379Y-83451235D01*
X108286555Y-83275264D01*
X108315500Y-83092514D01*
X108315500Y-82907486D01*
X108286555Y-82724736D01*
X108229379Y-82548765D01*
X108229379Y-82548764D01*
X108145377Y-82383903D01*
X108036621Y-82234213D01*
X107905787Y-82103379D01*
X107901576Y-82100319D01*
X107858909Y-82044994D01*
X107852926Y-81975381D01*
X107885529Y-81913585D01*
X107901570Y-81899684D01*
X107905787Y-81896621D01*
X108036621Y-81765787D01*
X108145378Y-81616096D01*
X108229379Y-81451235D01*
X108286555Y-81275264D01*
X108315500Y-81092514D01*
X108315500Y-80907486D01*
X108286555Y-80724736D01*
X108229379Y-80548765D01*
X108229379Y-80548764D01*
X108145377Y-80383903D01*
X108036621Y-80234213D01*
X107905787Y-80103379D01*
X107901576Y-80100319D01*
X107858909Y-80044994D01*
X107852926Y-79975381D01*
X107885529Y-79913585D01*
X107901570Y-79899684D01*
X107905787Y-79896621D01*
X108036621Y-79765787D01*
X108145378Y-79616096D01*
X108229379Y-79451235D01*
X108286555Y-79275264D01*
X108315500Y-79092514D01*
X108315500Y-78907486D01*
X108286555Y-78724736D01*
X108229379Y-78548765D01*
X108229379Y-78548764D01*
X108145377Y-78383903D01*
X108036621Y-78234213D01*
X107905787Y-78103379D01*
X107901576Y-78100319D01*
X107858909Y-78044994D01*
X107852926Y-77975381D01*
X107885529Y-77913585D01*
X107901570Y-77899684D01*
X107905787Y-77896621D01*
X108036621Y-77765787D01*
X108145378Y-77616096D01*
X108229379Y-77451235D01*
X108286555Y-77275264D01*
X108315500Y-77092514D01*
X108315500Y-76907486D01*
X108286555Y-76724736D01*
X108229379Y-76548765D01*
X108229379Y-76548764D01*
X108145377Y-76383903D01*
X108036621Y-76234213D01*
X107905787Y-76103379D01*
X107901576Y-76100319D01*
X107858909Y-76044994D01*
X107852926Y-75975381D01*
X107885529Y-75913585D01*
X107901570Y-75899684D01*
X107905787Y-75896621D01*
X108036621Y-75765787D01*
X108145378Y-75616096D01*
X108229379Y-75451235D01*
X108286555Y-75275264D01*
X108315500Y-75092514D01*
X108315500Y-74907486D01*
X108286555Y-74724736D01*
X108257967Y-74636750D01*
X108229380Y-74548767D01*
X108229379Y-74548764D01*
X108174176Y-74440423D01*
X108145378Y-74383904D01*
X108036621Y-74234213D01*
X107905787Y-74103379D01*
X107901576Y-74100319D01*
X107858909Y-74044994D01*
X107852926Y-73975381D01*
X107885529Y-73913585D01*
X107901570Y-73899684D01*
X107905787Y-73896621D01*
X108036621Y-73765787D01*
X108145378Y-73616096D01*
X108229379Y-73451235D01*
X108286555Y-73275264D01*
X108286694Y-73274385D01*
X108286840Y-73274076D01*
X108287691Y-73270533D01*
X108288434Y-73270711D01*
X108316610Y-73211250D01*
X108375915Y-73174308D01*
X108445778Y-73175293D01*
X108496850Y-73206085D01*
X118163181Y-82872416D01*
X118196666Y-82933739D01*
X118199500Y-82960097D01*
X118199500Y-88620234D01*
X118179815Y-88687273D01*
X118178602Y-88689125D01*
X118090609Y-88820814D01*
X118090602Y-88820827D01*
X118030264Y-88966498D01*
X118030261Y-88966510D01*
X117999500Y-89121153D01*
X117999500Y-89278846D01*
X118030261Y-89433489D01*
X118030264Y-89433501D01*
X118090602Y-89579172D01*
X118090609Y-89579185D01*
X118178210Y-89710288D01*
X118178213Y-89710292D01*
X118289707Y-89821786D01*
X118289711Y-89821789D01*
X118420814Y-89909390D01*
X118420827Y-89909397D01*
X118564021Y-89968709D01*
X118566503Y-89969737D01*
X118721153Y-90000499D01*
X118721156Y-90000500D01*
X118721158Y-90000500D01*
X118878844Y-90000500D01*
X118878845Y-90000499D01*
X119033497Y-89969737D01*
X119179179Y-89909394D01*
X119231110Y-89874694D01*
X119297785Y-89853816D01*
X119365165Y-89872300D01*
X119368863Y-89874676D01*
X119420821Y-89909394D01*
X119420823Y-89909395D01*
X119420825Y-89909396D01*
X119564021Y-89968709D01*
X119566503Y-89969737D01*
X119721153Y-90000499D01*
X119721156Y-90000500D01*
X119721158Y-90000500D01*
X119878844Y-90000500D01*
X119878845Y-90000499D01*
X120033497Y-89969737D01*
X120179179Y-89909394D01*
X120310289Y-89821789D01*
X120421789Y-89710289D01*
X120509394Y-89579179D01*
X120569737Y-89433497D01*
X120600500Y-89278842D01*
X120600500Y-89121158D01*
X120600500Y-89121155D01*
X120600499Y-89121153D01*
X120590196Y-89069358D01*
X120569737Y-88966503D01*
X120532043Y-88875500D01*
X120509397Y-88820827D01*
X120509390Y-88820814D01*
X120421398Y-88689125D01*
X120400520Y-88622447D01*
X120400500Y-88620234D01*
X120400500Y-81749060D01*
X120400501Y-81749047D01*
X120400501Y-81580944D01*
X120359576Y-81428214D01*
X120359573Y-81428209D01*
X120280524Y-81291290D01*
X120280518Y-81291282D01*
X108328215Y-69338980D01*
X108294730Y-69277657D01*
X108293423Y-69231901D01*
X108315500Y-69092513D01*
X108315500Y-68924000D01*
X108335185Y-68856961D01*
X108387989Y-68811206D01*
X108439500Y-68800000D01*
X128700500Y-68800000D01*
X128767539Y-68819685D01*
X128813294Y-68872489D01*
X128824500Y-68924000D01*
X128824500Y-69092513D01*
X128853445Y-69275265D01*
X128910619Y-69451232D01*
X128910620Y-69451235D01*
X128994622Y-69616096D01*
X129103379Y-69765787D01*
X129234213Y-69896621D01*
X129238421Y-69899678D01*
X129238432Y-69899686D01*
X129281094Y-69955019D01*
X129287069Y-70024633D01*
X129254459Y-70086426D01*
X129238432Y-70100314D01*
X129234210Y-70103381D01*
X129103381Y-70234210D01*
X129103381Y-70234211D01*
X129103379Y-70234213D01*
X129056672Y-70298499D01*
X128994622Y-70383903D01*
X128910620Y-70548764D01*
X128910619Y-70548767D01*
X128853445Y-70724734D01*
X128853445Y-70724736D01*
X128824500Y-70907486D01*
X128824500Y-71092514D01*
X128829095Y-71121523D01*
X128853445Y-71275265D01*
X128910619Y-71451232D01*
X128910620Y-71451235D01*
X128994622Y-71616096D01*
X129103379Y-71765787D01*
X129234213Y-71896621D01*
X129238421Y-71899678D01*
X129238432Y-71899686D01*
X129281094Y-71955019D01*
X129287069Y-72024633D01*
X129254459Y-72086426D01*
X129238432Y-72100314D01*
X129234210Y-72103381D01*
X129103381Y-72234210D01*
X129103381Y-72234211D01*
X129103379Y-72234213D01*
X129064556Y-72287648D01*
X128994622Y-72383903D01*
X128910620Y-72548764D01*
X128910619Y-72548767D01*
X128853445Y-72724734D01*
X128824500Y-72907486D01*
X128824500Y-73092513D01*
X128853445Y-73275265D01*
X128910619Y-73451232D01*
X128910620Y-73451235D01*
X128936633Y-73502287D01*
X128994622Y-73616096D01*
X129103379Y-73765787D01*
X129234213Y-73896621D01*
X129238421Y-73899678D01*
X129238432Y-73899686D01*
X129281094Y-73955019D01*
X129287069Y-74024633D01*
X129254459Y-74086426D01*
X129238432Y-74100314D01*
X129234210Y-74103381D01*
X129103381Y-74234210D01*
X129103381Y-74234211D01*
X129103379Y-74234213D01*
X129103377Y-74234216D01*
X128994622Y-74383903D01*
X128910620Y-74548764D01*
X128910619Y-74548767D01*
X128853445Y-74724734D01*
X128824500Y-74907486D01*
X128824500Y-75092513D01*
X128853445Y-75275265D01*
X128910619Y-75451232D01*
X128910620Y-75451235D01*
X128994622Y-75616096D01*
X129103379Y-75765787D01*
X129234213Y-75896621D01*
X129238421Y-75899678D01*
X129238432Y-75899686D01*
X129281094Y-75955019D01*
X129287069Y-76024633D01*
X129254459Y-76086426D01*
X129238432Y-76100314D01*
X129234210Y-76103381D01*
X129103381Y-76234210D01*
X129103381Y-76234211D01*
X129103379Y-76234213D01*
X129056672Y-76298499D01*
X128994622Y-76383903D01*
X128910620Y-76548764D01*
X128910619Y-76548767D01*
X128853445Y-76724734D01*
X128824500Y-76907486D01*
X128824500Y-77092513D01*
X128853445Y-77275265D01*
X128910619Y-77451232D01*
X128910620Y-77451235D01*
X128994622Y-77616096D01*
X129103379Y-77765787D01*
X129234213Y-77896621D01*
X129238421Y-77899678D01*
X129238432Y-77899686D01*
X129281094Y-77955019D01*
X129287069Y-78024633D01*
X129254459Y-78086426D01*
X129238432Y-78100314D01*
X129234210Y-78103381D01*
X129103381Y-78234210D01*
X129103381Y-78234211D01*
X129103379Y-78234213D01*
X129056672Y-78298499D01*
X128994622Y-78383903D01*
X128910620Y-78548764D01*
X128910619Y-78548767D01*
X128853445Y-78724734D01*
X128824500Y-78907486D01*
X128824500Y-79092513D01*
X128853445Y-79275265D01*
X128910619Y-79451232D01*
X128910620Y-79451235D01*
X128994622Y-79616096D01*
X129103379Y-79765787D01*
X129234213Y-79896621D01*
X129238421Y-79899678D01*
X129238432Y-79899686D01*
X129281094Y-79955019D01*
X129287069Y-80024633D01*
X129254459Y-80086426D01*
X129238432Y-80100314D01*
X129234210Y-80103381D01*
X129103381Y-80234210D01*
X129103381Y-80234211D01*
X129103379Y-80234213D01*
X129056672Y-80298499D01*
X128994622Y-80383903D01*
X128910620Y-80548764D01*
X128910619Y-80548767D01*
X128853445Y-80724734D01*
X128824500Y-80907486D01*
X128824500Y-81092513D01*
X128853445Y-81275265D01*
X128910619Y-81451232D01*
X128910620Y-81451235D01*
X128976711Y-81580944D01*
X128994622Y-81616096D01*
X129103379Y-81765787D01*
X129234213Y-81896621D01*
X129238421Y-81899678D01*
X129238432Y-81899686D01*
X129281094Y-81955019D01*
X129287069Y-82024633D01*
X129254459Y-82086426D01*
X129238432Y-82100314D01*
X129234210Y-82103381D01*
X129103381Y-82234210D01*
X129103381Y-82234211D01*
X129103379Y-82234213D01*
X129056672Y-82298499D01*
X128994622Y-82383903D01*
X128910620Y-82548764D01*
X128910619Y-82548767D01*
X128853445Y-82724734D01*
X128824500Y-82907486D01*
X128824500Y-83092513D01*
X128853445Y-83275265D01*
X128910619Y-83451232D01*
X128910620Y-83451235D01*
X128994622Y-83616096D01*
X129103379Y-83765787D01*
X129234213Y-83896621D01*
X129238421Y-83899678D01*
X129238432Y-83899686D01*
X129281094Y-83955019D01*
X129287069Y-84024633D01*
X129254459Y-84086426D01*
X129238432Y-84100314D01*
X129234210Y-84103381D01*
X129103381Y-84234210D01*
X129103381Y-84234211D01*
X129103379Y-84234213D01*
X129056672Y-84298499D01*
X128994622Y-84383903D01*
X128910620Y-84548764D01*
X128910619Y-84548767D01*
X128853445Y-84724734D01*
X128824500Y-84907486D01*
X128824500Y-85092513D01*
X128853445Y-85275265D01*
X128910619Y-85451232D01*
X128910620Y-85451235D01*
X128994489Y-85615834D01*
X128994622Y-85616096D01*
X129103379Y-85765787D01*
X129234213Y-85896621D01*
X129383904Y-86005378D01*
X129464763Y-86046577D01*
X129548764Y-86089379D01*
X129548767Y-86089380D01*
X129636750Y-86117967D01*
X129724736Y-86146555D01*
X129907486Y-86175500D01*
X129907487Y-86175500D01*
X130092513Y-86175500D01*
X130092514Y-86175500D01*
X130275264Y-86146555D01*
X130451235Y-86089379D01*
X130616096Y-86005378D01*
X130765787Y-85896621D01*
X130896621Y-85765787D01*
X131005378Y-85616096D01*
X131089379Y-85451235D01*
X131146555Y-85275264D01*
X131175500Y-85092514D01*
X131175500Y-84907486D01*
X131146555Y-84724736D01*
X131089379Y-84548765D01*
X131089379Y-84548764D01*
X131005512Y-84384167D01*
X131005378Y-84383904D01*
X130896621Y-84234213D01*
X130765787Y-84103379D01*
X130761576Y-84100319D01*
X130718909Y-84044994D01*
X130712926Y-83975381D01*
X130745529Y-83913585D01*
X130761570Y-83899684D01*
X130765787Y-83896621D01*
X130896621Y-83765787D01*
X131005378Y-83616096D01*
X131089379Y-83451235D01*
X131146555Y-83275264D01*
X131175500Y-83092514D01*
X131175500Y-82907486D01*
X131146555Y-82724736D01*
X131089379Y-82548765D01*
X131089379Y-82548764D01*
X131005377Y-82383903D01*
X130896621Y-82234213D01*
X130765787Y-82103379D01*
X130761576Y-82100319D01*
X130718909Y-82044994D01*
X130712926Y-81975381D01*
X130745529Y-81913585D01*
X130761570Y-81899684D01*
X130765787Y-81896621D01*
X130896621Y-81765787D01*
X131005378Y-81616096D01*
X131089379Y-81451235D01*
X131146555Y-81275264D01*
X131175500Y-81092514D01*
X131175500Y-80907486D01*
X131146555Y-80724736D01*
X131089379Y-80548765D01*
X131089379Y-80548764D01*
X131005377Y-80383903D01*
X130896621Y-80234213D01*
X130765787Y-80103379D01*
X130761576Y-80100319D01*
X130718909Y-80044994D01*
X130712926Y-79975381D01*
X130745529Y-79913585D01*
X130761570Y-79899684D01*
X130765787Y-79896621D01*
X130896621Y-79765787D01*
X131005378Y-79616096D01*
X131089379Y-79451235D01*
X131146555Y-79275264D01*
X131175500Y-79092514D01*
X131175500Y-78907486D01*
X131146555Y-78724736D01*
X131089379Y-78548765D01*
X131089379Y-78548764D01*
X131005377Y-78383903D01*
X130896621Y-78234213D01*
X130765787Y-78103379D01*
X130761576Y-78100319D01*
X130718909Y-78044994D01*
X130712926Y-77975381D01*
X130745529Y-77913585D01*
X130761570Y-77899684D01*
X130765787Y-77896621D01*
X130896621Y-77765787D01*
X131005378Y-77616096D01*
X131089379Y-77451235D01*
X131146555Y-77275264D01*
X131175500Y-77092514D01*
X131175500Y-76907486D01*
X131146555Y-76724736D01*
X131089379Y-76548765D01*
X131089379Y-76548764D01*
X131005377Y-76383903D01*
X130896621Y-76234213D01*
X130765787Y-76103379D01*
X130761576Y-76100319D01*
X130718909Y-76044994D01*
X130712926Y-75975381D01*
X130745529Y-75913585D01*
X130761570Y-75899684D01*
X130765787Y-75896621D01*
X130896621Y-75765787D01*
X131005378Y-75616096D01*
X131089379Y-75451235D01*
X131146555Y-75275264D01*
X131175500Y-75092514D01*
X131175500Y-74907486D01*
X131146555Y-74724736D01*
X131117967Y-74636750D01*
X131089380Y-74548767D01*
X131089379Y-74548764D01*
X131034176Y-74440423D01*
X131005378Y-74383904D01*
X130896621Y-74234213D01*
X130765787Y-74103379D01*
X130761576Y-74100319D01*
X130718909Y-74044994D01*
X130712926Y-73975381D01*
X130745529Y-73913585D01*
X130761570Y-73899684D01*
X130765787Y-73896621D01*
X130896621Y-73765787D01*
X131005378Y-73616096D01*
X131089379Y-73451235D01*
X131146555Y-73275264D01*
X131175500Y-73092514D01*
X131175500Y-72907486D01*
X131146555Y-72724736D01*
X131089379Y-72548765D01*
X131089379Y-72548764D01*
X131005377Y-72383903D01*
X130896621Y-72234213D01*
X130765787Y-72103379D01*
X130761576Y-72100319D01*
X130718909Y-72044994D01*
X130712926Y-71975381D01*
X130745529Y-71913585D01*
X130761570Y-71899684D01*
X130765787Y-71896621D01*
X130896621Y-71765787D01*
X131005378Y-71616096D01*
X131089379Y-71451235D01*
X131146555Y-71275264D01*
X131175500Y-71092514D01*
X131175500Y-70907486D01*
X131146555Y-70724736D01*
X131089379Y-70548765D01*
X131089379Y-70548764D01*
X131005377Y-70383903D01*
X130896621Y-70234213D01*
X130765787Y-70103379D01*
X130761576Y-70100319D01*
X130718909Y-70044994D01*
X130712926Y-69975381D01*
X130745529Y-69913585D01*
X130761570Y-69899684D01*
X130765787Y-69896621D01*
X130896621Y-69765787D01*
X131005378Y-69616096D01*
X131089379Y-69451235D01*
X131146555Y-69275264D01*
X131175500Y-69092514D01*
X131175500Y-68924000D01*
X131195185Y-68856961D01*
X131247989Y-68811206D01*
X131299500Y-68800000D01*
X142276480Y-68800000D01*
X142343519Y-68819685D01*
X142389274Y-68872489D01*
X142400478Y-68923517D01*
X142599502Y-120271572D01*
X142599518Y-120275519D01*
X142580093Y-120342635D01*
X142527467Y-120388594D01*
X142475519Y-120400000D01*
X138474743Y-120400000D01*
X138470501Y-120398754D01*
X138466185Y-120399704D01*
X138437276Y-120388998D01*
X138407704Y-120380315D01*
X138404810Y-120376975D01*
X138400664Y-120375440D01*
X138382127Y-120350798D01*
X138361949Y-120327511D01*
X138361320Y-120323137D01*
X138358662Y-120319604D01*
X138356391Y-120288859D01*
X138352005Y-120258353D01*
X138353841Y-120254331D01*
X138353516Y-120249924D01*
X138368223Y-120222839D01*
X138381030Y-120194797D01*
X138385342Y-120191313D01*
X138386858Y-120188523D01*
X138398214Y-120180916D01*
X138415063Y-120167306D01*
X138426617Y-120160961D01*
X138431785Y-120159577D01*
X138481904Y-120130639D01*
X138568716Y-120080520D01*
X138680520Y-119968716D01*
X138680520Y-119968714D01*
X138690728Y-119958507D01*
X138690730Y-119958504D01*
X139288506Y-119360728D01*
X139288511Y-119360724D01*
X139298714Y-119350520D01*
X139298716Y-119350520D01*
X139410520Y-119238716D01*
X139462481Y-119148716D01*
X139489577Y-119101785D01*
X139530501Y-118949057D01*
X139530501Y-118790943D01*
X139530501Y-118783348D01*
X139530500Y-118783330D01*
X139530500Y-117441886D01*
X139550185Y-117374847D01*
X139602989Y-117329092D01*
X139672147Y-117319148D01*
X139708788Y-117331162D01*
X139708851Y-117331013D01*
X139710824Y-117331830D01*
X139712958Y-117332530D01*
X139714487Y-117333347D01*
X139901016Y-117410609D01*
X139901025Y-117410612D01*
X139950000Y-117420353D01*
X139950000Y-116565865D01*
X139950067Y-116561789D01*
X139950400Y-116551638D01*
X139955500Y-116526003D01*
X139955500Y-116485830D01*
X139969745Y-116500075D01*
X140055255Y-116549444D01*
X140150630Y-116575000D01*
X140249370Y-116575000D01*
X140344745Y-116549444D01*
X140430255Y-116500075D01*
X140450000Y-116480330D01*
X140450000Y-117420352D01*
X140498974Y-117410612D01*
X140498983Y-117410609D01*
X140685513Y-117333347D01*
X140685526Y-117333340D01*
X140853399Y-117221170D01*
X140853403Y-117221167D01*
X140996167Y-117078403D01*
X140996170Y-117078399D01*
X141108340Y-116910526D01*
X141108347Y-116910513D01*
X141185609Y-116723983D01*
X141185612Y-116723974D01*
X141224999Y-116525958D01*
X141225000Y-116525955D01*
X141225000Y-116450000D01*
X140480330Y-116450000D01*
X140500075Y-116430255D01*
X140549444Y-116344745D01*
X140575000Y-116249370D01*
X140575000Y-116150630D01*
X140549444Y-116055255D01*
X140500075Y-115969745D01*
X140480330Y-115950000D01*
X141225000Y-115950000D01*
X141225000Y-115874045D01*
X141224999Y-115874041D01*
X141185612Y-115676025D01*
X141185609Y-115676016D01*
X141108347Y-115489486D01*
X141108340Y-115489473D01*
X140996170Y-115321600D01*
X140996167Y-115321596D01*
X140853403Y-115178832D01*
X140853399Y-115178829D01*
X140685526Y-115066659D01*
X140685513Y-115066652D01*
X140498984Y-114989390D01*
X140498977Y-114989388D01*
X140450000Y-114979645D01*
X140450000Y-115919670D01*
X140430255Y-115899925D01*
X140344745Y-115850556D01*
X140249370Y-115825000D01*
X140150630Y-115825000D01*
X140055255Y-115850556D01*
X139969745Y-115899925D01*
X139955500Y-115914170D01*
X139955500Y-115873997D01*
X139952383Y-115858326D01*
X139950000Y-115834134D01*
X139950000Y-114979646D01*
X139949999Y-114979645D01*
X139901022Y-114989388D01*
X139901015Y-114989390D01*
X139714481Y-115066654D01*
X139714479Y-115066655D01*
X139634337Y-115120204D01*
X139567660Y-115141081D01*
X139500280Y-115122596D01*
X139496558Y-115120204D01*
X139415754Y-115066212D01*
X139229127Y-114988909D01*
X139229119Y-114988907D01*
X139031007Y-114949500D01*
X139031003Y-114949500D01*
X138828997Y-114949500D01*
X138828992Y-114949500D01*
X138630880Y-114988907D01*
X138630868Y-114988910D01*
X138550198Y-115022325D01*
X138480729Y-115029794D01*
X138435342Y-115010036D01*
X138435114Y-115010454D01*
X138430447Y-115007905D01*
X138428432Y-115007028D01*
X138427331Y-115006204D01*
X138427330Y-115006203D01*
X138427328Y-115006202D01*
X138292482Y-114955908D01*
X138292483Y-114955908D01*
X138232883Y-114949501D01*
X138232881Y-114949500D01*
X138232873Y-114949500D01*
X138232864Y-114949500D01*
X137087129Y-114949500D01*
X137087123Y-114949501D01*
X137027516Y-114955908D01*
X136892671Y-115006202D01*
X136892664Y-115006206D01*
X136777455Y-115092452D01*
X136777452Y-115092455D01*
X136691206Y-115207664D01*
X136691202Y-115207671D01*
X136640908Y-115342517D01*
X136634501Y-115402116D01*
X136634500Y-115402135D01*
X136634500Y-116075500D01*
X136614815Y-116142539D01*
X136562011Y-116188294D01*
X136510500Y-116199500D01*
X133014499Y-116199500D01*
X132947460Y-116179815D01*
X132901705Y-116127011D01*
X132890499Y-116075500D01*
X132890499Y-115902129D01*
X132890498Y-115902123D01*
X132890497Y-115902116D01*
X132884091Y-115842517D01*
X132880964Y-115834134D01*
X132833797Y-115707671D01*
X132833793Y-115707664D01*
X132747547Y-115592455D01*
X132747544Y-115592452D01*
X132632335Y-115506206D01*
X132632328Y-115506202D01*
X132497482Y-115455908D01*
X132497483Y-115455908D01*
X132437883Y-115449501D01*
X132437881Y-115449500D01*
X132437873Y-115449500D01*
X132437864Y-115449500D01*
X130642129Y-115449500D01*
X130642123Y-115449501D01*
X130582516Y-115455908D01*
X130447671Y-115506202D01*
X130447664Y-115506206D01*
X130332455Y-115592452D01*
X130332452Y-115592455D01*
X130246206Y-115707664D01*
X130246202Y-115707671D01*
X130195908Y-115842517D01*
X130192519Y-115874045D01*
X130189501Y-115902123D01*
X130189500Y-115902135D01*
X130189500Y-115912690D01*
X130169815Y-115979729D01*
X130153181Y-116000371D01*
X129482962Y-116670590D01*
X129465925Y-116607007D01*
X129400099Y-116492993D01*
X129307007Y-116399901D01*
X129192993Y-116334075D01*
X129129408Y-116317037D01*
X129761716Y-115684728D01*
X129707550Y-115645375D01*
X129518217Y-115548904D01*
X129316129Y-115483242D01*
X129106246Y-115450000D01*
X128958595Y-115450000D01*
X128891556Y-115430315D01*
X128845801Y-115377511D01*
X128835857Y-115308353D01*
X128864882Y-115244797D01*
X128870898Y-115238335D01*
X135546759Y-108562475D01*
X135596117Y-108532229D01*
X135730852Y-108488452D01*
X135895572Y-108404523D01*
X136045136Y-108295859D01*
X136175859Y-108165136D01*
X136284523Y-108015572D01*
X136368452Y-107850852D01*
X136382577Y-107807379D01*
X136425580Y-107675030D01*
X136454500Y-107492440D01*
X136454500Y-107307559D01*
X136425580Y-107124969D01*
X136368453Y-106949150D01*
X136368452Y-106949147D01*
X136339388Y-106892106D01*
X136284523Y-106784428D01*
X136252794Y-106740756D01*
X136175864Y-106634870D01*
X136175860Y-106634865D01*
X136045134Y-106504139D01*
X136045129Y-106504135D01*
X135895575Y-106395479D01*
X135895574Y-106395478D01*
X135895572Y-106395477D01*
X135827118Y-106360598D01*
X135730852Y-106311547D01*
X135730849Y-106311546D01*
X135555030Y-106254419D01*
X135372440Y-106225500D01*
X135372435Y-106225500D01*
X135187565Y-106225500D01*
X135187560Y-106225500D01*
X135004969Y-106254419D01*
X134829150Y-106311546D01*
X134829147Y-106311547D01*
X134664424Y-106395479D01*
X134514870Y-106504135D01*
X134514865Y-106504139D01*
X134384139Y-106634865D01*
X134384135Y-106634870D01*
X134275479Y-106784424D01*
X134191547Y-106949147D01*
X134191546Y-106949150D01*
X134134419Y-107124971D01*
X134132218Y-107138867D01*
X134102286Y-107202000D01*
X134042973Y-107238928D01*
X133973110Y-107237927D01*
X133914879Y-107199315D01*
X133887272Y-107138857D01*
X133885091Y-107125087D01*
X133827986Y-106949338D01*
X133744092Y-106784686D01*
X133729269Y-106764283D01*
X133729268Y-106764283D01*
X133157642Y-107335909D01*
X133131378Y-107237886D01*
X133076084Y-107142114D01*
X132997886Y-107063916D01*
X132902114Y-107008622D01*
X132804090Y-106982356D01*
X133375716Y-106410730D01*
X133355307Y-106395903D01*
X133355303Y-106395900D01*
X133190664Y-106312014D01*
X133014908Y-106254907D01*
X132832395Y-106226000D01*
X132647605Y-106226000D01*
X132465091Y-106254907D01*
X132289338Y-106312013D01*
X132124692Y-106395903D01*
X132124688Y-106395906D01*
X132104283Y-106410729D01*
X132104283Y-106410730D01*
X132675910Y-106982356D01*
X132577886Y-107008622D01*
X132482114Y-107063916D01*
X132403916Y-107142114D01*
X132348622Y-107237886D01*
X132322356Y-107335909D01*
X131750730Y-106764283D01*
X131750729Y-106764283D01*
X131735906Y-106784688D01*
X131735903Y-106784692D01*
X131652013Y-106949338D01*
X131594908Y-107125088D01*
X131592726Y-107138864D01*
X131562795Y-107201998D01*
X131503483Y-107238928D01*
X131433620Y-107237928D01*
X131375388Y-107199317D01*
X131347780Y-107138860D01*
X131345580Y-107124970D01*
X131288453Y-106949150D01*
X131288452Y-106949147D01*
X131259388Y-106892106D01*
X131204523Y-106784428D01*
X131172794Y-106740756D01*
X131095864Y-106634870D01*
X131095860Y-106634865D01*
X131011399Y-106550404D01*
X130965136Y-106504141D01*
X130849169Y-106419887D01*
X130846772Y-106417958D01*
X130828493Y-106391677D01*
X130808949Y-106366332D01*
X130808240Y-106362558D01*
X130806877Y-106360598D01*
X130806636Y-106354020D01*
X130800500Y-106321344D01*
X130800500Y-106158390D01*
X130800500Y-106158388D01*
X130759577Y-106005661D01*
X130691436Y-105887636D01*
X130680524Y-105868735D01*
X130680521Y-105868731D01*
X130680520Y-105868729D01*
X130568716Y-105756925D01*
X130568715Y-105756924D01*
X130564385Y-105752594D01*
X130564374Y-105752584D01*
X118137575Y-93325785D01*
X118104090Y-93264462D01*
X118109074Y-93194770D01*
X118150946Y-93138837D01*
X118152248Y-93137876D01*
X118265136Y-93055859D01*
X118395859Y-92925136D01*
X118504523Y-92775572D01*
X118588452Y-92610852D01*
X118645580Y-92435029D01*
X118647527Y-92422737D01*
X118677456Y-92359602D01*
X118736768Y-92322671D01*
X118806630Y-92323669D01*
X118864863Y-92362279D01*
X118892473Y-92422737D01*
X118894420Y-92435030D01*
X118951546Y-92610849D01*
X118951547Y-92610852D01*
X119008588Y-92722799D01*
X119011029Y-92727591D01*
X119035479Y-92775575D01*
X119144135Y-92925129D01*
X119144139Y-92925134D01*
X119274865Y-93055860D01*
X119274870Y-93055864D01*
X119387520Y-93137708D01*
X119424428Y-93164523D01*
X119516681Y-93211528D01*
X119589147Y-93248452D01*
X119589150Y-93248453D01*
X119764969Y-93305580D01*
X119947560Y-93334500D01*
X119947565Y-93334500D01*
X120132440Y-93334500D01*
X120315030Y-93305580D01*
X120490849Y-93248453D01*
X120490852Y-93248452D01*
X120507224Y-93240110D01*
X120655572Y-93164523D01*
X120805136Y-93055859D01*
X120935859Y-92925136D01*
X121044523Y-92775572D01*
X121128452Y-92610852D01*
X121185580Y-92435029D01*
X121187527Y-92422737D01*
X121217456Y-92359602D01*
X121276768Y-92322671D01*
X121346630Y-92323669D01*
X121404863Y-92362279D01*
X121432473Y-92422737D01*
X121434420Y-92435030D01*
X121491546Y-92610849D01*
X121491547Y-92610852D01*
X121548588Y-92722799D01*
X121551029Y-92727591D01*
X121575479Y-92775575D01*
X121684135Y-92925129D01*
X121684139Y-92925134D01*
X121814865Y-93055860D01*
X121814870Y-93055864D01*
X121927520Y-93137708D01*
X121964428Y-93164523D01*
X122056681Y-93211528D01*
X122129147Y-93248452D01*
X122129150Y-93248453D01*
X122304969Y-93305580D01*
X122487560Y-93334500D01*
X122487565Y-93334500D01*
X122672440Y-93334500D01*
X122855030Y-93305580D01*
X123030849Y-93248453D01*
X123030852Y-93248452D01*
X123047224Y-93240110D01*
X123195572Y-93164523D01*
X123345136Y-93055859D01*
X123475859Y-92925136D01*
X123584523Y-92775572D01*
X123668452Y-92610852D01*
X123725580Y-92435029D01*
X123727527Y-92422737D01*
X123757456Y-92359602D01*
X123816768Y-92322671D01*
X123886630Y-92323669D01*
X123944863Y-92362279D01*
X123972473Y-92422737D01*
X123974420Y-92435030D01*
X124031546Y-92610849D01*
X124031547Y-92610852D01*
X124088588Y-92722799D01*
X124091029Y-92727591D01*
X124115479Y-92775575D01*
X124224135Y-92925129D01*
X124224139Y-92925134D01*
X124354865Y-93055860D01*
X124354870Y-93055864D01*
X124467520Y-93137708D01*
X124504428Y-93164523D01*
X124596681Y-93211528D01*
X124669147Y-93248452D01*
X124669150Y-93248453D01*
X124844969Y-93305580D01*
X125027560Y-93334500D01*
X125027565Y-93334500D01*
X125212440Y-93334500D01*
X125395030Y-93305580D01*
X125570849Y-93248453D01*
X125570852Y-93248452D01*
X125587224Y-93240110D01*
X125735572Y-93164523D01*
X125885136Y-93055859D01*
X126015859Y-92925136D01*
X126124523Y-92775572D01*
X126208452Y-92610852D01*
X126265580Y-92435029D01*
X126267527Y-92422737D01*
X126297456Y-92359602D01*
X126356768Y-92322671D01*
X126426630Y-92323669D01*
X126484863Y-92362279D01*
X126512473Y-92422737D01*
X126514420Y-92435030D01*
X126571546Y-92610849D01*
X126571547Y-92610852D01*
X126628588Y-92722799D01*
X126631029Y-92727591D01*
X126655479Y-92775575D01*
X126764135Y-92925129D01*
X126764139Y-92925134D01*
X126894865Y-93055860D01*
X126894870Y-93055864D01*
X127007520Y-93137708D01*
X127044428Y-93164523D01*
X127136681Y-93211528D01*
X127209147Y-93248452D01*
X127209150Y-93248453D01*
X127384969Y-93305580D01*
X127567560Y-93334500D01*
X127567565Y-93334500D01*
X127752440Y-93334500D01*
X127935030Y-93305580D01*
X128110849Y-93248453D01*
X128110852Y-93248452D01*
X128127224Y-93240110D01*
X128275572Y-93164523D01*
X128425136Y-93055859D01*
X128555859Y-92925136D01*
X128664523Y-92775572D01*
X128748452Y-92610852D01*
X128805580Y-92435029D01*
X128807527Y-92422737D01*
X128837456Y-92359602D01*
X128896768Y-92322671D01*
X128966630Y-92323669D01*
X129024863Y-92362279D01*
X129052473Y-92422737D01*
X129054420Y-92435030D01*
X129111546Y-92610849D01*
X129111547Y-92610852D01*
X129168588Y-92722799D01*
X129171029Y-92727591D01*
X129195479Y-92775575D01*
X129304135Y-92925129D01*
X129304139Y-92925134D01*
X129434865Y-93055860D01*
X129434870Y-93055864D01*
X129547520Y-93137708D01*
X129584428Y-93164523D01*
X129676681Y-93211528D01*
X129749147Y-93248452D01*
X129749150Y-93248453D01*
X129924969Y-93305580D01*
X130107560Y-93334500D01*
X130107565Y-93334500D01*
X130292440Y-93334500D01*
X130475030Y-93305580D01*
X130650849Y-93248453D01*
X130650852Y-93248452D01*
X130667224Y-93240110D01*
X130815572Y-93164523D01*
X130965136Y-93055859D01*
X131095859Y-92925136D01*
X131204523Y-92775572D01*
X131288452Y-92610852D01*
X131345580Y-92435029D01*
X131347527Y-92422737D01*
X131377456Y-92359602D01*
X131436768Y-92322671D01*
X131506630Y-92323669D01*
X131564863Y-92362279D01*
X131592473Y-92422737D01*
X131594420Y-92435030D01*
X131651546Y-92610849D01*
X131651547Y-92610852D01*
X131708588Y-92722799D01*
X131711029Y-92727591D01*
X131735479Y-92775575D01*
X131844135Y-92925129D01*
X131844139Y-92925134D01*
X131974865Y-93055860D01*
X131974870Y-93055864D01*
X132087520Y-93137708D01*
X132124428Y-93164523D01*
X132216681Y-93211528D01*
X132289147Y-93248452D01*
X132289150Y-93248453D01*
X132464969Y-93305580D01*
X132647560Y-93334500D01*
X132647565Y-93334500D01*
X132832440Y-93334500D01*
X133015030Y-93305580D01*
X133190849Y-93248453D01*
X133190852Y-93248452D01*
X133207224Y-93240110D01*
X133355572Y-93164523D01*
X133505136Y-93055859D01*
X133635859Y-92925136D01*
X133744523Y-92775572D01*
X133828452Y-92610852D01*
X133885580Y-92435029D01*
X133887527Y-92422737D01*
X133917456Y-92359602D01*
X133976768Y-92322671D01*
X134046630Y-92323669D01*
X134104863Y-92362279D01*
X134132473Y-92422737D01*
X134134420Y-92435030D01*
X134191546Y-92610849D01*
X134191547Y-92610852D01*
X134248588Y-92722799D01*
X134251029Y-92727591D01*
X134275479Y-92775575D01*
X134384135Y-92925129D01*
X134384139Y-92925134D01*
X134514865Y-93055860D01*
X134514870Y-93055864D01*
X134627520Y-93137708D01*
X134664428Y-93164523D01*
X134756681Y-93211528D01*
X134829147Y-93248452D01*
X134829150Y-93248453D01*
X135004969Y-93305580D01*
X135187560Y-93334500D01*
X135187565Y-93334500D01*
X135372440Y-93334500D01*
X135555030Y-93305580D01*
X135730849Y-93248453D01*
X135730852Y-93248452D01*
X135747224Y-93240110D01*
X135895572Y-93164523D01*
X136045136Y-93055859D01*
X136175859Y-92925136D01*
X136284523Y-92775572D01*
X136368452Y-92610852D01*
X136421121Y-92448752D01*
X136425580Y-92435030D01*
X136454500Y-92252440D01*
X136454500Y-92067559D01*
X136425580Y-91884969D01*
X136368453Y-91709150D01*
X136368452Y-91709147D01*
X136301292Y-91577340D01*
X136284523Y-91544428D01*
X136257786Y-91507628D01*
X136175864Y-91394870D01*
X136175860Y-91394865D01*
X136045134Y-91264139D01*
X136045129Y-91264135D01*
X135895575Y-91155479D01*
X135895574Y-91155478D01*
X135895572Y-91155477D01*
X135842799Y-91128588D01*
X135730852Y-91071547D01*
X135730849Y-91071546D01*
X135555030Y-91014419D01*
X135372440Y-90985500D01*
X135372435Y-90985500D01*
X135187565Y-90985500D01*
X135187560Y-90985500D01*
X135004969Y-91014419D01*
X134829150Y-91071546D01*
X134829147Y-91071547D01*
X134664424Y-91155479D01*
X134514870Y-91264135D01*
X134514865Y-91264139D01*
X134384139Y-91394865D01*
X134384135Y-91394870D01*
X134275479Y-91544424D01*
X134191547Y-91709147D01*
X134191546Y-91709150D01*
X134134420Y-91884969D01*
X134132473Y-91897263D01*
X134102543Y-91960397D01*
X134043231Y-91997328D01*
X133973369Y-91996330D01*
X133915136Y-91957719D01*
X133887527Y-91897263D01*
X133887192Y-91895150D01*
X133885580Y-91884971D01*
X133828452Y-91709148D01*
X133828452Y-91709147D01*
X133761292Y-91577340D01*
X133744523Y-91544428D01*
X133717786Y-91507628D01*
X133635864Y-91394870D01*
X133635860Y-91394865D01*
X133505134Y-91264139D01*
X133505129Y-91264135D01*
X133355575Y-91155479D01*
X133355574Y-91155478D01*
X133355572Y-91155477D01*
X133302799Y-91128588D01*
X133190852Y-91071547D01*
X133190849Y-91071546D01*
X133015030Y-91014419D01*
X132832440Y-90985500D01*
X132832435Y-90985500D01*
X132647565Y-90985500D01*
X132647560Y-90985500D01*
X132464969Y-91014419D01*
X132289150Y-91071546D01*
X132289147Y-91071547D01*
X132124424Y-91155479D01*
X131974870Y-91264135D01*
X131974865Y-91264139D01*
X131844139Y-91394865D01*
X131844135Y-91394870D01*
X131735479Y-91544424D01*
X131651547Y-91709147D01*
X131651546Y-91709150D01*
X131594420Y-91884969D01*
X131592473Y-91897263D01*
X131562543Y-91960397D01*
X131503231Y-91997328D01*
X131433369Y-91996330D01*
X131375136Y-91957719D01*
X131347527Y-91897263D01*
X131347192Y-91895150D01*
X131345580Y-91884971D01*
X131288452Y-91709148D01*
X131288452Y-91709147D01*
X131221292Y-91577340D01*
X131204523Y-91544428D01*
X131177786Y-91507628D01*
X131095864Y-91394870D01*
X131095860Y-91394865D01*
X130965134Y-91264139D01*
X130965129Y-91264135D01*
X130815575Y-91155479D01*
X130815574Y-91155478D01*
X130815572Y-91155477D01*
X130762799Y-91128588D01*
X130650852Y-91071547D01*
X130650849Y-91071546D01*
X130475030Y-91014419D01*
X130292440Y-90985500D01*
X130292435Y-90985500D01*
X130107565Y-90985500D01*
X130107560Y-90985500D01*
X129924969Y-91014419D01*
X129749150Y-91071546D01*
X129749147Y-91071547D01*
X129584424Y-91155479D01*
X129434870Y-91264135D01*
X129434865Y-91264139D01*
X129304139Y-91394865D01*
X129304135Y-91394870D01*
X129195479Y-91544424D01*
X129111547Y-91709147D01*
X129111546Y-91709150D01*
X129054420Y-91884969D01*
X129052473Y-91897263D01*
X129022543Y-91960397D01*
X128963231Y-91997328D01*
X128893369Y-91996330D01*
X128835136Y-91957719D01*
X128807527Y-91897263D01*
X128807192Y-91895150D01*
X128805580Y-91884971D01*
X128748452Y-91709148D01*
X128748452Y-91709147D01*
X128681292Y-91577340D01*
X128664523Y-91544428D01*
X128637786Y-91507628D01*
X128555864Y-91394870D01*
X128555860Y-91394865D01*
X128425134Y-91264139D01*
X128425129Y-91264135D01*
X128275575Y-91155479D01*
X128275574Y-91155478D01*
X128275572Y-91155477D01*
X128222799Y-91128588D01*
X128110852Y-91071547D01*
X128110849Y-91071546D01*
X127935030Y-91014419D01*
X127752440Y-90985500D01*
X127752435Y-90985500D01*
X127567565Y-90985500D01*
X127567560Y-90985500D01*
X127384969Y-91014419D01*
X127209150Y-91071546D01*
X127209147Y-91071547D01*
X127044424Y-91155479D01*
X126894870Y-91264135D01*
X126894865Y-91264139D01*
X126764139Y-91394865D01*
X126764135Y-91394870D01*
X126655479Y-91544424D01*
X126571547Y-91709147D01*
X126571546Y-91709150D01*
X126514420Y-91884969D01*
X126512473Y-91897263D01*
X126482543Y-91960397D01*
X126423231Y-91997328D01*
X126353369Y-91996330D01*
X126295136Y-91957719D01*
X126267527Y-91897263D01*
X126267192Y-91895150D01*
X126265580Y-91884971D01*
X126208452Y-91709148D01*
X126208452Y-91709147D01*
X126141292Y-91577340D01*
X126124523Y-91544428D01*
X126097786Y-91507628D01*
X126015864Y-91394870D01*
X126015860Y-91394865D01*
X125885134Y-91264139D01*
X125885129Y-91264135D01*
X125735575Y-91155479D01*
X125735574Y-91155478D01*
X125735572Y-91155477D01*
X125682799Y-91128588D01*
X125570852Y-91071547D01*
X125570849Y-91071546D01*
X125395030Y-91014419D01*
X125212440Y-90985500D01*
X125212435Y-90985500D01*
X125027565Y-90985500D01*
X125027560Y-90985500D01*
X124844969Y-91014419D01*
X124669150Y-91071546D01*
X124669147Y-91071547D01*
X124504424Y-91155479D01*
X124354870Y-91264135D01*
X124354865Y-91264139D01*
X124224139Y-91394865D01*
X124224135Y-91394870D01*
X124115479Y-91544424D01*
X124031547Y-91709147D01*
X124031546Y-91709150D01*
X123974420Y-91884969D01*
X123972473Y-91897263D01*
X123942543Y-91960397D01*
X123883231Y-91997328D01*
X123813369Y-91996330D01*
X123755136Y-91957719D01*
X123727527Y-91897263D01*
X123727192Y-91895150D01*
X123725580Y-91884971D01*
X123668452Y-91709148D01*
X123668452Y-91709147D01*
X123601292Y-91577340D01*
X123584523Y-91544428D01*
X123557786Y-91507628D01*
X123475864Y-91394870D01*
X123475860Y-91394865D01*
X123345134Y-91264139D01*
X123345129Y-91264135D01*
X123195575Y-91155479D01*
X123195574Y-91155478D01*
X123195572Y-91155477D01*
X123142799Y-91128588D01*
X123030852Y-91071547D01*
X123030849Y-91071546D01*
X122855030Y-91014419D01*
X122672440Y-90985500D01*
X122672435Y-90985500D01*
X122487565Y-90985500D01*
X122487560Y-90985500D01*
X122304969Y-91014419D01*
X122129150Y-91071546D01*
X122129147Y-91071547D01*
X121964424Y-91155479D01*
X121814870Y-91264135D01*
X121814865Y-91264139D01*
X121684139Y-91394865D01*
X121684135Y-91394870D01*
X121575479Y-91544424D01*
X121491547Y-91709147D01*
X121491546Y-91709150D01*
X121434420Y-91884969D01*
X121432473Y-91897263D01*
X121402543Y-91960397D01*
X121343231Y-91997328D01*
X121273369Y-91996330D01*
X121215136Y-91957719D01*
X121187527Y-91897263D01*
X121187192Y-91895150D01*
X121185580Y-91884971D01*
X121128452Y-91709148D01*
X121128452Y-91709147D01*
X121061292Y-91577340D01*
X121044523Y-91544428D01*
X121017786Y-91507628D01*
X120935864Y-91394870D01*
X120935860Y-91394865D01*
X120805134Y-91264139D01*
X120805129Y-91264135D01*
X120655575Y-91155479D01*
X120655574Y-91155478D01*
X120655572Y-91155477D01*
X120602799Y-91128588D01*
X120490852Y-91071547D01*
X120490849Y-91071546D01*
X120315030Y-91014419D01*
X120132440Y-90985500D01*
X120132435Y-90985500D01*
X119947565Y-90985500D01*
X119947560Y-90985500D01*
X119764969Y-91014419D01*
X119589150Y-91071546D01*
X119589147Y-91071547D01*
X119424424Y-91155479D01*
X119274870Y-91264135D01*
X119274865Y-91264139D01*
X119144139Y-91394865D01*
X119144135Y-91394870D01*
X119035479Y-91544424D01*
X118951547Y-91709147D01*
X118951546Y-91709150D01*
X118894420Y-91884969D01*
X118892473Y-91897263D01*
X118862543Y-91960397D01*
X118803231Y-91997328D01*
X118733369Y-91996330D01*
X118675136Y-91957719D01*
X118647527Y-91897263D01*
X118647192Y-91895150D01*
X118645580Y-91884971D01*
X118588452Y-91709148D01*
X118588452Y-91709147D01*
X118521292Y-91577340D01*
X118504523Y-91544428D01*
X118477786Y-91507628D01*
X118395864Y-91394870D01*
X118395860Y-91394865D01*
X118265134Y-91264139D01*
X118265129Y-91264135D01*
X118115575Y-91155479D01*
X118115574Y-91155478D01*
X118115572Y-91155477D01*
X118062799Y-91128588D01*
X117950852Y-91071547D01*
X117950849Y-91071546D01*
X117775030Y-91014419D01*
X117592440Y-90985500D01*
X117592435Y-90985500D01*
X117407565Y-90985500D01*
X117407560Y-90985500D01*
X117224969Y-91014419D01*
X117049150Y-91071546D01*
X117049147Y-91071547D01*
X116884424Y-91155479D01*
X116734870Y-91264135D01*
X116734865Y-91264139D01*
X116604139Y-91394865D01*
X116522212Y-91507628D01*
X116466882Y-91550293D01*
X116397268Y-91556272D01*
X116335473Y-91523666D01*
X116334213Y-91522423D01*
X114050145Y-89238355D01*
X114050143Y-89238352D01*
X113931272Y-89119481D01*
X113931271Y-89119480D01*
X113844459Y-89069360D01*
X113844459Y-89069359D01*
X113844455Y-89069358D01*
X113794340Y-89040423D01*
X113641612Y-88999499D01*
X113483498Y-88999499D01*
X113475902Y-88999499D01*
X113475886Y-88999500D01*
X99124500Y-88999500D01*
X99057461Y-88979815D01*
X99011706Y-88927011D01*
X99000500Y-88875500D01*
X99000500Y-73300097D01*
X99020185Y-73233058D01*
X99036819Y-73212416D01*
X99222416Y-73026819D01*
X99283739Y-72993334D01*
X99310097Y-72990500D01*
X99770398Y-72990500D01*
X99837437Y-73010185D01*
X99880883Y-73058205D01*
X99887715Y-73071614D01*
X100008028Y-73237213D01*
X100152786Y-73381971D01*
X100248118Y-73451232D01*
X100318390Y-73502287D01*
X100434607Y-73561503D01*
X100500776Y-73595218D01*
X100500778Y-73595218D01*
X100500781Y-73595220D01*
X100565031Y-73616096D01*
X100695465Y-73658477D01*
X100796557Y-73674488D01*
X100897648Y-73690500D01*
X100897649Y-73690500D01*
X101102351Y-73690500D01*
X101102352Y-73690500D01*
X101304534Y-73658477D01*
X101499219Y-73595220D01*
X101681610Y-73502287D01*
X101774590Y-73434732D01*
X101847213Y-73381971D01*
X101847215Y-73381968D01*
X101847219Y-73381966D01*
X101991966Y-73237219D01*
X101991968Y-73237215D01*
X101991971Y-73237213D01*
X102097100Y-73092513D01*
X102112287Y-73071610D01*
X102205220Y-72889219D01*
X102268477Y-72694534D01*
X102300500Y-72492352D01*
X102300500Y-72287648D01*
X102268477Y-72085466D01*
X102263825Y-72071151D01*
X102261832Y-72001312D01*
X102294075Y-71945158D01*
X105402916Y-68836319D01*
X105464239Y-68802834D01*
X105490597Y-68800000D01*
X105840500Y-68800000D01*
X105907539Y-68819685D01*
G37*
%TD.AperFunction*%
%TD*%
M02*
